<svg xmlns="http://www.w3.org/2000/svg" xmlns:xlink="http://www.w3.org/1999/xlink" width="500" zoomAndPan="magnify" viewBox="0 0 375 374.999991" height="500" preserveAspectRatio="xMidYMid meet" version="1.0"><defs><g/><clipPath id="056496c3ca"><path d="M 2.574219 2.574219 L 372.425781 2.574219 L 372.425781 372.425781 L 2.574219 372.425781 Z M 2.574219 2.574219 " clip-rule="nonzero"/></clipPath><clipPath id="06f048ea13"><path d="M 187.5 2.574219 C 85.367188 2.574219 2.574219 85.367188 2.574219 187.5 C 2.574219 289.632812 85.367188 372.425781 187.5 372.425781 C 289.632812 372.425781 372.425781 289.632812 372.425781 187.5 C 372.425781 85.367188 289.632812 2.574219 187.5 2.574219 Z M 187.5 2.574219 " clip-rule="nonzero"/></clipPath><clipPath id="5fa91b583f"><path d="M 0.574219 0.574219 L 370.425781 0.574219 L 370.425781 370.425781 L 0.574219 370.425781 Z M 0.574219 0.574219 " clip-rule="nonzero"/></clipPath><clipPath id="098f23a472"><path d="M 185.5 0.574219 C 83.367188 0.574219 0.574219 83.367188 0.574219 185.5 C 0.574219 287.632812 83.367188 370.425781 185.5 370.425781 C 287.632812 370.425781 370.425781 287.632812 370.425781 185.5 C 370.425781 83.367188 287.632812 0.574219 185.5 0.574219 Z M 185.5 0.574219 " clip-rule="nonzero"/></clipPath><clipPath id="1a8f4c00ca"><rect x="0" width="371" y="0" height="371"/></clipPath><clipPath id="d0be2ae539"><path d="M 43 64 L 339 64 L 339 289 L 43 289 Z M 43 64 " clip-rule="nonzero"/></clipPath><clipPath id="d7db5b5d3d"><path d="M 10.96875 130.332031 L 308.824219 37.453125 L 364.195312 215.019531 L 66.339844 307.902344 Z M 10.96875 130.332031 " clip-rule="nonzero"/></clipPath><clipPath id="d5cb8f3be1"><path d="M 10.96875 130.332031 L 308.824219 37.453125 L 364.195312 215.019531 L 66.339844 307.902344 Z M 10.96875 130.332031 " clip-rule="nonzero"/></clipPath><clipPath id="ca38144383"><rect x="0" width="196" y="0" height="196"/></clipPath></defs><g clip-path="url(#056496c3ca)"><g clip-path="url(#06f048ea13)"><g transform="matrix(1, 0, 0, 1, 2, 2)"><g clip-path="url(#1a8f4c00ca)"><g clip-path="url(#5fa91b583f)"><g clip-path="url(#098f23a472)"><path fill="#00876f" d="M 0.574219 0.574219 L 370.425781 0.574219 L 370.425781 370.425781 L 0.574219 370.425781 Z M 0.574219 0.574219 " fill-opacity="1" fill-rule="nonzero"/></g></g></g></g></g></g><g clip-path="url(#d0be2ae539)"><g clip-path="url(#d7db5b5d3d)"><g clip-path="url(#d5cb8f3be1)"><path fill="#ffffff" d="M 83.945312 273.953125 L 129.117188 260.800781 L 133.988281 276.410156 C 134.179688 277.027344 134.429688 277.617188 134.738281 278.183594 C 135.046875 278.75 135.40625 279.277344 135.820312 279.773438 C 136.230469 280.269531 136.6875 280.71875 137.191406 281.125 C 137.691406 281.527344 138.226562 281.878906 138.796875 282.179688 C 139.371094 282.480469 139.964844 282.71875 140.582031 282.902344 C 141.199219 283.085938 141.828125 283.203125 142.472656 283.261719 C 143.113281 283.320312 143.753906 283.316406 144.394531 283.25 C 145.035156 283.179688 145.664062 283.050781 146.28125 282.859375 L 188.71875 269.625 C 189.335938 269.433594 189.925781 269.183594 190.492188 268.875 C 191.058594 268.566406 191.589844 268.207031 192.082031 267.792969 C 192.578125 267.378906 193.027344 266.921875 193.433594 266.421875 C 193.835938 265.921875 194.1875 265.382812 194.488281 264.8125 C 194.789062 264.242188 195.027344 263.648438 195.210938 263.03125 C 195.394531 262.414062 195.515625 261.78125 195.574219 261.140625 C 195.632812 260.5 195.625 259.859375 195.558594 259.214844 C 195.492188 258.574219 195.359375 257.949219 195.167969 257.332031 L 190.660156 242.875 L 296.148438 212.152344 L 297.980469 215.257812 C 298.167969 215.582031 298.390625 215.882812 298.640625 216.164062 C 298.890625 216.445312 299.164062 216.699219 299.464844 216.925781 C 299.765625 217.152344 300.085938 217.347656 300.421875 217.511719 C 300.761719 217.675781 301.113281 217.804688 301.476562 217.898438 C 301.839844 217.992188 302.210938 218.050781 302.585938 218.074219 C 302.960938 218.09375 303.335938 218.078125 303.707031 218.027344 C 304.082031 217.976562 304.445312 217.886719 304.800781 217.765625 C 305.15625 217.640625 305.496094 217.484375 305.820312 217.292969 L 308.414062 215.765625 C 308.738281 215.574219 309.039062 215.355469 309.320312 215.105469 C 309.601562 214.855469 309.855469 214.578125 310.082031 214.28125 C 310.308594 213.980469 310.503906 213.660156 310.667969 213.320312 C 310.832031 212.984375 310.960938 212.632812 311.054688 212.269531 C 311.148438 211.902344 311.207031 211.535156 311.230469 211.160156 C 311.25 210.785156 311.234375 210.410156 311.183594 210.035156 C 311.132812 209.664062 311.042969 209.300781 310.917969 208.945312 C 310.796875 208.589844 310.640625 208.25 310.449219 207.925781 L 227.882812 67.523438 C 227.691406 67.199219 227.472656 66.898438 227.222656 66.617188 C 226.972656 66.335938 226.699219 66.082031 226.398438 65.855469 C 226.097656 65.628906 225.777344 65.433594 225.4375 65.269531 C 225.101562 65.105469 224.75 64.976562 224.386719 64.882812 C 224.023438 64.789062 223.652344 64.730469 223.277344 64.707031 C 222.902344 64.6875 222.527344 64.703125 222.15625 64.753906 C 221.78125 64.804688 221.417969 64.894531 221.0625 65.019531 C 220.707031 65.140625 220.367188 65.296875 220.042969 65.488281 L 217.449219 67.015625 C 217.125 67.207031 216.824219 67.425781 216.542969 67.675781 C 216.261719 67.925781 216.007812 68.203125 215.78125 68.503906 C 215.554688 68.800781 215.359375 69.121094 215.195312 69.460938 C 215.03125 69.800781 214.902344 70.148438 214.808594 70.515625 C 214.714844 70.878906 214.65625 71.246094 214.632812 71.625 C 214.613281 72 214.628906 72.371094 214.679688 72.746094 C 214.730469 73.117188 214.820312 73.480469 214.941406 73.835938 C 215.066406 74.191406 215.222656 74.53125 215.414062 74.855469 L 216.300781 76.363281 L 58.820312 231.890625 L 56.703125 228.34375 C 56.511719 228.019531 56.292969 227.714844 56.042969 227.433594 C 55.792969 227.152344 55.519531 226.898438 55.21875 226.671875 C 54.917969 226.441406 54.597656 226.246094 54.257812 226.082031 C 53.917969 225.917969 53.566406 225.789062 53.203125 225.691406 C 52.839844 225.597656 52.46875 225.539062 52.09375 225.519531 C 51.714844 225.496094 51.339844 225.511719 50.96875 225.5625 C 50.59375 225.617188 50.230469 225.703125 49.875 225.828125 C 49.519531 225.953125 49.179688 226.109375 48.855469 226.300781 L 46.257812 227.828125 C 45.933594 228.015625 45.632812 228.238281 45.351562 228.488281 C 45.070312 228.738281 44.8125 229.015625 44.585938 229.316406 C 44.359375 229.617188 44.164062 229.9375 44 230.273438 C 43.835938 230.613281 43.707031 230.964844 43.613281 231.332031 C 43.519531 231.695312 43.460938 232.066406 43.441406 232.441406 C 43.417969 232.816406 43.433594 233.191406 43.488281 233.566406 C 43.539062 233.9375 43.628906 234.300781 43.753906 234.65625 C 43.878906 235.011719 44.035156 235.351562 44.226562 235.675781 L 73.90625 285.347656 C 74.09375 285.671875 74.316406 285.972656 74.566406 286.253906 C 74.816406 286.535156 75.089844 286.789062 75.390625 287.015625 C 75.691406 287.242188 76.011719 287.4375 76.347656 287.601562 C 76.6875 287.765625 77.039062 287.894531 77.402344 287.988281 C 77.765625 288.082031 78.136719 288.140625 78.511719 288.164062 C 78.886719 288.183594 79.261719 288.167969 79.632812 288.117188 C 80.007812 288.066406 80.371094 287.976562 80.726562 287.851562 C 81.082031 287.730469 81.417969 287.574219 81.742188 287.382812 L 84.339844 285.855469 C 84.664062 285.664062 84.964844 285.445312 85.246094 285.195312 C 85.527344 284.945312 85.78125 284.667969 86.007812 284.367188 C 86.234375 284.070312 86.429688 283.75 86.59375 283.410156 C 86.757812 283.074219 86.886719 282.722656 86.980469 282.355469 C 87.074219 281.992188 87.132812 281.625 87.152344 281.246094 C 87.175781 280.871094 87.160156 280.5 87.109375 280.125 C 87.058594 279.753906 86.96875 279.390625 86.84375 279.035156 C 86.722656 278.679688 86.5625 278.339844 86.375 278.015625 Z M 137.46875 258.367188 L 182.300781 245.3125 L 186.855469 259.925781 C 186.898438 260.066406 186.914062 260.210938 186.902344 260.359375 C 186.890625 260.507812 186.847656 260.648438 186.777344 260.777344 C 186.710938 260.910156 186.617188 261.023438 186.503906 261.117188 C 186.390625 261.214844 186.261719 261.285156 186.121094 261.328125 L 143.691406 274.558594 C 143.550781 274.601562 143.40625 274.617188 143.257812 274.605469 C 143.109375 274.589844 142.96875 274.550781 142.835938 274.480469 C 142.707031 274.414062 142.59375 274.320312 142.496094 274.207031 C 142.402344 274.09375 142.332031 273.964844 142.289062 273.824219 Z M 327.855469 100.503906 C 328.054688 100.859375 328.183594 101.242188 328.234375 101.652344 C 328.285156 102.058594 328.257812 102.460938 328.148438 102.859375 C 328.039062 103.253906 327.859375 103.617188 327.609375 103.941406 C 327.355469 104.265625 327.054688 104.53125 326.695312 104.738281 L 292.335938 124.351562 C 291.980469 124.519531 291.609375 124.617188 291.214844 124.644531 C 290.824219 124.671875 290.441406 124.628906 290.066406 124.511719 C 289.691406 124.394531 289.351562 124.210938 289.046875 123.964844 C 288.738281 123.71875 288.488281 123.425781 288.292969 123.085938 C 288.101562 122.742188 287.972656 122.378906 287.917969 121.988281 C 287.863281 121.601562 287.878906 121.214844 287.96875 120.832031 C 288.058594 120.449219 288.210938 120.097656 288.4375 119.773438 C 288.660156 119.453125 288.933594 119.179688 289.257812 118.960938 L 323.625 99.34375 C 323.984375 99.140625 324.367188 99.015625 324.773438 98.964844 C 325.179688 98.914062 325.582031 98.945312 325.976562 99.050781 C 326.375 99.160156 326.734375 99.339844 327.058594 99.59375 C 327.382812 99.84375 327.648438 100.148438 327.855469 100.503906 Z M 274.546875 102.859375 L 288.515625 69.050781 C 288.691406 68.699219 288.925781 68.390625 289.21875 68.125 C 289.507812 67.859375 289.839844 67.660156 290.210938 67.519531 C 290.578125 67.382812 290.960938 67.316406 291.355469 67.320312 C 291.75 67.328125 292.128906 67.40625 292.492188 67.554688 C 292.855469 67.707031 293.179688 67.917969 293.464844 68.191406 C 293.75 68.464844 293.972656 68.78125 294.136719 69.140625 C 294.300781 69.5 294.390625 69.875 294.414062 70.269531 C 294.433594 70.664062 294.382812 71.046875 294.257812 71.421875 L 280.269531 105.234375 C 280.089844 105.574219 279.851562 105.871094 279.558594 106.125 C 279.265625 106.378906 278.9375 106.570312 278.574219 106.699219 C 278.210938 106.832031 277.832031 106.890625 277.445312 106.882812 C 277.058594 106.871094 276.6875 106.792969 276.332031 106.644531 C 275.972656 106.496094 275.65625 106.289062 275.375 106.023438 C 275.097656 105.753906 274.875 105.445312 274.707031 105.097656 C 274.542969 104.746094 274.449219 104.378906 274.421875 103.992188 C 274.390625 103.605469 274.433594 103.230469 274.546875 102.859375 Z M 334.933594 150.386719 L 298.722656 145.214844 C 298.339844 145.128906 297.988281 144.976562 297.660156 144.757812 C 297.335938 144.539062 297.0625 144.265625 296.839844 143.945312 C 296.617188 143.621094 296.460938 143.269531 296.371094 142.886719 C 296.28125 142.507812 296.265625 142.121094 296.320312 141.734375 C 296.375 141.347656 296.5 140.980469 296.695312 140.640625 C 296.886719 140.300781 297.136719 140.003906 297.441406 139.757812 C 297.746094 139.511719 298.085938 139.328125 298.457031 139.210938 C 298.832031 139.089844 299.214844 139.042969 299.605469 139.070312 L 335.8125 144.242188 C 336.246094 144.269531 336.65625 144.382812 337.039062 144.582031 C 337.425781 144.78125 337.753906 145.050781 338.027344 145.386719 C 338.300781 145.722656 338.496094 146.101562 338.609375 146.519531 C 338.726562 146.9375 338.753906 147.359375 338.691406 147.789062 C 338.628906 148.21875 338.484375 148.617188 338.257812 148.988281 C 338.027344 149.355469 337.734375 149.664062 337.378906 149.910156 C 337.023438 150.15625 336.632812 150.320312 336.207031 150.402344 C 335.78125 150.484375 335.355469 150.480469 334.933594 150.386719 Z M 334.933594 150.386719 " fill-opacity="1" fill-rule="nonzero"/></g></g></g><g transform="matrix(1, 0, 0, 1, 15, 25)"><g clip-path="url(#ca38144383)"><g fill="#ffffff" fill-opacity="1"><g transform="translate(39.503519, 183.192749)"><g><path d="M -17.398438 -23.800781 C -17.742188 -23.453125 -18.089844 -23.195312 -18.21875 -22.460938 C -18.347656 -21.722656 -18.046875 -21.335938 -15.796875 -19.085938 L -10.125 -13.5 C -5.886719 -9.347656 -5.019531 -8.050781 -2.984375 -6.101562 L -1.558594 -4.761719 C -1.472656 -4.671875 -1.429688 -4.628906 -1.339844 -4.542969 C -1.125 -4.328125 -0.867188 -4.15625 -0.648438 -3.9375 C -0.605469 -3.894531 -0.519531 -3.808594 -0.476562 -3.765625 C -0.257812 -3.546875 0 -3.289062 0.214844 -3.074219 C 0.605469 -2.683594 0.910156 -2.292969 1.429688 -1.6875 C 1.644531 -1.386719 1.859375 -1.167969 2.078125 -0.953125 C 2.640625 -0.390625 3.332031 0.128906 3.851562 0.734375 L 4.5 1.472656 C 5.539062 2.683594 6.230469 2.078125 6.578125 1.730469 C 7.441406 0.867188 7.488281 0.648438 7.832031 0.304688 C 8.007812 0.128906 8.265625 0.0429688 8.4375 -0.128906 L 9.953125 -1.644531 C 10.558594 -2.25 10.730469 -2.421875 11.292969 -3.417969 C 11.511719 -3.808594 11.46875 -4.023438 11.25 -4.328125 C 10.90625 -4.847656 10.601562 -4.976562 10.214844 -5.367188 L 7.574219 -7.917969 C 7.097656 -8.394531 7.355469 -8.828125 7.574219 -9.042969 C 7.746094 -9.21875 7.917969 -9.304688 8.09375 -9.390625 C 9.953125 -10.300781 9.433594 -9.953125 10.386719 -10.300781 C 11.078125 -10.558594 12.160156 -11.121094 14.0625 -13.027344 C 15.101562 -14.0625 19.90625 -19.300781 16.746094 -27.394531 C 16.316406 -28.519531 15.449219 -30.507812 12.160156 -33.796875 C 10.257812 -35.703125 8.050781 -37.128906 4.328125 -37.910156 C 2.164062 -38.339844 0.910156 -38.210938 -0.476562 -37.867188 C -4.414062 -36.871094 -6.144531 -35.398438 -7.183594 -34.359375 C -8.308594 -33.234375 -9.953125 -31.246094 -10.300781 -29.253906 C -10.386719 -28.90625 -10.257812 -28.171875 -10.730469 -27.695312 C -10.90625 -27.523438 -11.121094 -27.304688 -11.597656 -27.4375 C -11.902344 -27.480469 -12.851562 -27.738281 -13.15625 -27.695312 C -13.632812 -27.652344 -14.410156 -26.960938 -15.621094 -25.660156 Z M -2.8125 -26.960938 C -1.730469 -28.042969 0.214844 -28.949219 1.644531 -28.996094 C 3.375 -29.082031 5.753906 -28 6.96875 -26.789062 C 8.179688 -25.574219 8.480469 -24.492188 8.613281 -23.84375 C 9.085938 -21.378906 8.265625 -18.738281 7.097656 -17.570312 C 5.929688 -16.402344 2.941406 -15.320312 1.167969 -15.621094 C 0 -15.839844 -1.039062 -16.617188 -1.730469 -17.308594 C -3.417969 -18.910156 -4.328125 -20.253906 -4.414062 -22.417969 C -4.5 -24.234375 -3.894531 -25.878906 -2.8125 -26.960938 Z M -2.8125 -26.960938 "/></g></g></g><g fill="#ffffff" fill-opacity="1"><g transform="translate(62.999885, 159.696383)"><g><path d="M -16.359375 -24.582031 C -16.402344 -24.535156 -16.488281 -24.449219 -16.964844 -23.972656 C -17.570312 -23.367188 -17.960938 -22.890625 -17.914062 -22.417969 C -17.914062 -21.378906 -17.09375 -20.640625 -16.789062 -20.339844 L -14.453125 -18.089844 C -11.902344 -15.621094 -11.640625 -15.191406 -9.085938 -12.550781 L -5.496094 -8.785156 L -3.636719 -7.011719 C -2.640625 -6.101562 -2.511719 -5.886719 -2.378906 -5.753906 L -1.730469 -4.933594 C -1.167969 -4.199219 -0.605469 -3.636719 -0.257812 -3.289062 C 0.519531 -2.511719 1.125 -2.25 1.515625 -2.207031 C 2.207031 -2.121094 2.855469 -2.683594 3.289062 -3.117188 C 4.109375 -3.9375 3.417969 -3.332031 4.671875 -4.585938 L 6.449219 -6.363281 C 7.011719 -6.925781 7.097656 -7.441406 7.140625 -7.660156 C 7.3125 -8.785156 6.535156 -9.132812 4.242188 -11.425781 L 1.859375 -13.804688 C 0.734375 -14.929688 1.515625 -13.890625 -0.433594 -15.839844 C -1.859375 -17.265625 -2.597656 -18.953125 -2.683594 -20.167969 C -2.8125 -21.507812 -2.121094 -23.84375 -0.953125 -25.1875 L -0.476562 -25.75 C -0.257812 -25.964844 -0.0429688 -26.527344 0 -26.917969 C 0 -27.003906 0 -27.695312 -0.820312 -28.519531 L -3.203125 -30.898438 C -3.332031 -31.027344 -3.460938 -31.15625 -3.546875 -31.246094 C -3.808594 -31.503906 -4.023438 -31.808594 -4.285156 -32.066406 C -4.542969 -32.328125 -4.71875 -32.585938 -4.976562 -32.847656 C -5.367188 -33.234375 -5.972656 -33.753906 -6.621094 -33.796875 C -7.355469 -33.839844 -7.960938 -33.234375 -8.265625 -32.933594 C -9.347656 -31.851562 -9.695312 -30.898438 -9.738281 -30.164062 L -9.996094 -27.566406 C -10.039062 -27.003906 -10.125 -26.742188 -10.300781 -26.570312 C -10.601562 -26.269531 -10.949219 -26.527344 -10.992188 -26.570312 L -11.683594 -27.175781 C -11.945312 -27.4375 -12.160156 -27.738281 -12.421875 -27.824219 C -12.808594 -27.957031 -13.070312 -27.78125 -13.242188 -27.609375 C -13.328125 -27.523438 -13.414062 -27.4375 -13.5 -27.351562 C -13.804688 -27.046875 -14.019531 -26.742188 -14.324219 -26.441406 C -14.453125 -26.3125 -15.058594 -25.707031 -15.191406 -25.574219 Z M -16.359375 -24.582031 "/></g></g></g><g fill="#ffffff" fill-opacity="1"><g transform="translate(76.933283, 145.762985)"><g><path d="M 14.714844 -24.148438 C 13.976562 -24.882812 12.9375 -25.660156 11.8125 -24.535156 C 11.292969 -24.019531 11.078125 -23.453125 10.820312 -22.9375 C 9.953125 -21.03125 9.605469 -20.511719 9.347656 -20.167969 C 9.132812 -19.863281 8.914062 -19.648438 8.65625 -19.386719 C 8.308594 -19.039062 8.050781 -18.609375 7.703125 -18.261719 C 6.835938 -17.308594 4.933594 -15.40625 3.332031 -14.757812 C 1.992188 -14.195312 0.519531 -13.847656 -0.0859375 -14.453125 C -0.304688 -14.671875 -0.390625 -14.84375 -0.390625 -15.101562 C -0.390625 -15.707031 -0.0429688 -16.226562 0.390625 -16.660156 L 0.910156 -17.179688 C 1.429688 -17.699219 1.949219 -18.132812 2.464844 -18.652344 C 3.203125 -19.386719 3.894531 -20.167969 4.628906 -20.902344 C 5.191406 -21.464844 5.84375 -22.027344 6.40625 -22.589844 C 6.664062 -22.847656 6.925781 -23.195312 7.183594 -23.453125 C 8.007812 -24.363281 8.914062 -25.097656 9.738281 -26.007812 C 9.996094 -26.269531 10.34375 -26.699219 10.429688 -27.480469 C 10.515625 -28.519531 9.78125 -29.511719 8.914062 -30.378906 C 7.960938 -31.332031 7.183594 -31.9375 5.667969 -32.847656 C 3.289062 -34.273438 0.257812 -35.660156 -4.15625 -34.792969 C -5.667969 -34.488281 -7.875 -33.667969 -10.601562 -30.941406 C -13.5 -28.042969 -15.664062 -23.886719 -14.152344 -18.21875 C -13.285156 -14.84375 -11.425781 -12.464844 -9.304688 -10.34375 C -5.929688 -6.96875 -2.511719 -6.316406 -1.210938 -6.144531 C 2.421875 -5.625 5.0625 -6.363281 6.75 -7.183594 C 8.65625 -8.136719 11.292969 -10.515625 12.765625 -11.988281 C 13.804688 -13.027344 15.578125 -14.972656 16.789062 -17.484375 C 17.265625 -18.476562 17.960938 -20.035156 17.484375 -21.03125 C 17.265625 -21.507812 16.011719 -22.847656 15.707031 -23.152344 Z M -1.429688 -23.84375 C -2.984375 -22.113281 -5.191406 -19.300781 -6.449219 -20.554688 C -7.011719 -21.117188 -7.011719 -21.8125 -7.011719 -22.242188 C -6.96875 -23.410156 -6.96875 -24.449219 -5.582031 -25.835938 C -5.019531 -26.398438 -4.066406 -27.175781 -2.554688 -27.304688 C -0.996094 -27.394531 -0.347656 -26.832031 -0.171875 -26.65625 C -0.0429688 -26.527344 0.214844 -26.179688 0.0429688 -25.660156 C -0.0429688 -25.402344 -0.257812 -25.1875 -0.648438 -24.710938 Z M -1.429688 -23.84375 "/></g></g></g><g fill="#ffffff" fill-opacity="1"><g transform="translate(97.054473, 125.641795)"><g><path d="M -4.71875 -6.363281 C -4.71875 -6.101562 -4.242188 -5.453125 -3.894531 -5.105469 C -3.679688 -4.890625 -3.460938 -4.671875 -3.246094 -4.457031 C -3.074219 -4.285156 -2.984375 -4.109375 -2.8125 -3.9375 L -1.949219 -2.898438 C -1.039062 -1.816406 -0.128906 -1.6875 0.0859375 -1.644531 C 0.734375 -1.515625 1.429688 -1.515625 2.769531 -2.335938 C 4.285156 -3.246094 5.84375 -4.804688 7.3125 -6.273438 C 8.828125 -7.789062 10.992188 -9.953125 11.8125 -12.851562 C 12.722656 -16.097656 11.554688 -19.34375 9.390625 -21.507812 C 7.398438 -23.5 5.582031 -23.929688 3.722656 -24.0625 C 1.210938 -24.234375 0 -23.714844 -1.816406 -23.109375 C -5.800781 -21.722656 -5.972656 -22.070312 -6.40625 -22.417969 C -6.449219 -22.460938 -6.492188 -22.503906 -6.535156 -22.546875 C -6.621094 -22.71875 -6.707031 -22.980469 -6.535156 -23.410156 C -6.363281 -24.019531 -5.972656 -24.667969 -4.890625 -25.488281 L -2.335938 -27.4375 C -1.730469 -27.867188 -1.644531 -28.042969 -1.601562 -28.519531 C -1.558594 -28.820312 -1.601562 -28.949219 -1.730469 -29.167969 C -2.078125 -29.773438 -3.117188 -30.8125 -3.679688 -31.375 L -5.0625 -32.847656 C -5.800781 -33.667969 -7.355469 -33.148438 -8.613281 -32.414062 C -9.21875 -32.066406 -10.167969 -31.375 -12.03125 -29.511719 C -16.832031 -24.710938 -16.921875 -21.855469 -16.746094 -20.210938 C -16.660156 -18.996094 -16.269531 -17.570312 -14.671875 -15.96875 C -11.726562 -13.027344 -8.4375 -13.457031 -7.097656 -13.675781 C -6.058594 -13.847656 -5.410156 -14.0625 -4.285156 -14.496094 C -3.160156 -14.929688 -2.421875 -15.320312 -1.515625 -15.621094 C -0.734375 -15.882812 0.519531 -16.269531 1.429688 -15.363281 C 2.8125 -13.976562 1.339844 -12.507812 0.820312 -11.988281 C 0.0859375 -11.25 -0.648438 -10.601562 -1.730469 -9.867188 C -2.335938 -9.433594 -3.074219 -9.042969 -3.808594 -8.308594 C -4.542969 -7.574219 -4.71875 -6.96875 -4.71875 -6.449219 Z M -4.71875 -6.363281 "/></g></g></g><g fill="#ffffff" fill-opacity="1"><g transform="translate(112.978347, 109.717921)"><g><path d="M 14.714844 -24.148438 C 13.976562 -24.882812 12.9375 -25.660156 11.8125 -24.535156 C 11.292969 -24.019531 11.078125 -23.453125 10.820312 -22.9375 C 9.953125 -21.03125 9.605469 -20.511719 9.347656 -20.167969 C 9.132812 -19.863281 8.914062 -19.648438 8.65625 -19.386719 C 8.308594 -19.039062 8.050781 -18.609375 7.703125 -18.261719 C 6.835938 -17.308594 4.933594 -15.40625 3.332031 -14.757812 C 1.992188 -14.195312 0.519531 -13.847656 -0.0859375 -14.453125 C -0.304688 -14.671875 -0.390625 -14.84375 -0.390625 -15.101562 C -0.390625 -15.707031 -0.0429688 -16.226562 0.390625 -16.660156 L 0.910156 -17.179688 C 1.429688 -17.699219 1.949219 -18.132812 2.464844 -18.652344 C 3.203125 -19.386719 3.894531 -20.167969 4.628906 -20.902344 C 5.191406 -21.464844 5.84375 -22.027344 6.40625 -22.589844 C 6.664062 -22.847656 6.925781 -23.195312 7.183594 -23.453125 C 8.007812 -24.363281 8.914062 -25.097656 9.738281 -26.007812 C 9.996094 -26.269531 10.34375 -26.699219 10.429688 -27.480469 C 10.515625 -28.519531 9.78125 -29.511719 8.914062 -30.378906 C 7.960938 -31.332031 7.183594 -31.9375 5.667969 -32.847656 C 3.289062 -34.273438 0.257812 -35.660156 -4.15625 -34.792969 C -5.667969 -34.488281 -7.875 -33.667969 -10.601562 -30.941406 C -13.5 -28.042969 -15.664062 -23.886719 -14.152344 -18.21875 C -13.285156 -14.84375 -11.425781 -12.464844 -9.304688 -10.34375 C -5.929688 -6.96875 -2.511719 -6.316406 -1.210938 -6.144531 C 2.421875 -5.625 5.0625 -6.363281 6.75 -7.183594 C 8.65625 -8.136719 11.292969 -10.515625 12.765625 -11.988281 C 13.804688 -13.027344 15.578125 -14.972656 16.789062 -17.484375 C 17.265625 -18.476562 17.960938 -20.035156 17.484375 -21.03125 C 17.265625 -21.507812 16.011719 -22.847656 15.707031 -23.152344 Z M -1.429688 -23.84375 C -2.984375 -22.113281 -5.191406 -19.300781 -6.449219 -20.554688 C -7.011719 -21.117188 -7.011719 -21.8125 -7.011719 -22.242188 C -6.96875 -23.410156 -6.96875 -24.449219 -5.582031 -25.835938 C -5.019531 -26.398438 -4.066406 -27.175781 -2.554688 -27.304688 C -0.996094 -27.394531 -0.347656 -26.832031 -0.171875 -26.65625 C -0.0429688 -26.527344 0.214844 -26.179688 0.0429688 -25.660156 C -0.0429688 -25.402344 -0.257812 -25.1875 -0.648438 -24.710938 Z M -1.429688 -23.84375 "/></g></g></g><g fill="#ffffff" fill-opacity="1"><g transform="translate(133.099537, 89.596731)"><g><path d="M 7.355469 -7.097656 C 8.222656 -7.960938 9.175781 -8.828125 9.390625 -10.34375 C 9.476562 -10.863281 9.519531 -11.511719 8.742188 -12.289062 C 8.523438 -12.507812 8.265625 -12.765625 8.007812 -12.9375 C 7.53125 -13.328125 7.140625 -13.71875 6.707031 -14.152344 L 5.625 -15.320312 C 5.410156 -15.535156 4.976562 -15.707031 4.671875 -15.753906 C 4.457031 -15.796875 4.066406 -15.839844 3.59375 -15.449219 L 3.246094 -15.191406 C 2.984375 -15.015625 2.554688 -14.671875 2.035156 -14.671875 C 1.386719 -14.625 0.953125 -15.058594 -1.515625 -17.527344 L -3.894531 -19.90625 C -5.582031 -21.59375 -6.621094 -22.804688 -5.453125 -24.320312 L -4.671875 -25.359375 C -4.585938 -25.445312 -4.371094 -25.835938 -4.542969 -26.269531 C -4.671875 -26.570312 -6.058594 -28.128906 -6.230469 -28.300781 L -6.75 -28.820312 C -7.832031 -29.902344 -8.09375 -30.507812 -9.175781 -30.640625 C -9.738281 -30.683594 -9.996094 -30.59375 -10.558594 -30.03125 L -11.207031 -29.382812 C -11.511719 -29.082031 -12.074219 -28.519531 -12.679688 -29.125 L -15.492188 -31.9375 C -15.839844 -32.28125 -16.183594 -32.800781 -16.964844 -32.890625 C -17.65625 -32.976562 -17.914062 -32.628906 -18.21875 -32.328125 L -21.421875 -29.382812 C -22.113281 -28.777344 -22.460938 -28.085938 -22.546875 -27.652344 C -22.675781 -27.261719 -22.632812 -26.699219 -22.375 -26.441406 L -18.566406 -22.890625 C -18.347656 -22.675781 -18.433594 -22.503906 -18.523438 -22.417969 L -18.824219 -22.027344 C -19.300781 -21.378906 -19.386719 -21.378906 -19.429688 -20.816406 C -19.429688 -20.554688 -19.429688 -20.121094 -18.910156 -19.605469 L -16.53125 -17.398438 L -15.882812 -16.660156 C -15.535156 -16.226562 -14.84375 -15.796875 -14.238281 -15.96875 C -13.71875 -16.140625 -13.632812 -16.488281 -13.113281 -16.402344 C -12.636719 -16.359375 -12.246094 -16.140625 -10.386719 -14.195312 L -4.109375 -7.746094 C -2.035156 -5.582031 -0.304688 -4.890625 0.519531 -4.585938 C 1.339844 -4.285156 2.726562 -3.851562 4.109375 -4.371094 C 5.234375 -4.804688 6.058594 -5.800781 6.792969 -6.535156 Z M 7.355469 -7.097656 "/></g></g></g><g fill="#ffffff" fill-opacity="1"><g transform="translate(144.782818, 77.913451)"><g><path d="M -1.253906 -11.46875 C -1.386719 -11.339844 -1.773438 -10.949219 -2.464844 -10.167969 L -4.023438 -8.613281 C -4.199219 -8.4375 -4.285156 -8.265625 -4.328125 -8.050781 C -4.285156 -7.660156 -3.9375 -7.140625 -3.246094 -6.449219 L -2.164062 -5.367188 L -0.519531 -3.808594 L 0.519531 -2.683594 C 1.125 -2.078125 1.730469 -1.992188 2.378906 -2.378906 C 2.511719 -2.511719 3.417969 -3.417969 5.105469 -5.019531 L 7.140625 -7.054688 C 7.574219 -7.488281 7.703125 -7.875 7.617188 -8.222656 C 7.488281 -8.613281 5.84375 -10.34375 2.683594 -13.5 C 2.378906 -13.804688 1.949219 -13.890625 1.386719 -13.761719 C 1.167969 -13.71875 0.691406 -13.328125 0.0429688 -12.679688 C -0.0429688 -12.59375 -0.214844 -12.421875 -0.5625 -12.160156 Z M -1.253906 -11.46875 "/></g></g></g><g fill="#ffffff" fill-opacity="1"><g transform="translate(154.432343, 68.263925)"><g><path d="M -1.039062 -4.15625 C -0.390625 -3.503906 0.777344 -2.164062 1.515625 -2.121094 C 1.644531 -2.078125 2.121094 -2.121094 2.984375 -2.984375 L 3.765625 -3.765625 L 4.542969 -4.628906 L 6.535156 -6.535156 C 7.441406 -7.441406 7.355469 -8.050781 7.226562 -8.351562 C 7.011719 -8.914062 6.449219 -9.648438 4.285156 -11.8125 C 4.199219 -11.902344 4.109375 -11.988281 4.023438 -12.074219 C 3.980469 -12.117188 3.894531 -12.203125 3.851562 -12.246094 C 1.859375 -14.238281 2.511719 -13.328125 1.167969 -14.671875 L -1.296875 -17.136719 C -2.335938 -18.175781 -3.332031 -18.910156 -4.804688 -20.382812 C -5.019531 -20.597656 -5.234375 -20.816406 -5.453125 -21.03125 C -5.582031 -21.160156 -5.667969 -21.246094 -5.800781 -21.378906 C -6.492188 -22.070312 -7.140625 -22.71875 -7.832031 -23.410156 C -9.78125 -25.359375 -9.910156 -25.660156 -10.429688 -26.269531 L -11.292969 -27.21875 C -11.769531 -27.78125 -12.332031 -27.824219 -12.59375 -27.824219 C -13.15625 -27.78125 -13.589844 -27.4375 -13.933594 -27.089844 L -14.324219 -26.699219 C -15.320312 -25.707031 -15.492188 -25.273438 -15.925781 -24.925781 L -17.007812 -24.019531 L -17.699219 -23.324219 C -18.390625 -22.632812 -18.476562 -22.113281 -18.433594 -21.8125 C -18.390625 -21.507812 -18.046875 -21.074219 -17.222656 -20.253906 L -15.664062 -18.695312 C -14.582031 -17.613281 -13.546875 -16.574219 -12.421875 -15.535156 C -10.558594 -13.761719 -8.699219 -11.988281 -6.878906 -10.167969 C -5.105469 -8.394531 -4.671875 -7.960938 -4.285156 -7.574219 Z M -22.503906 -25.617188 C -22.15625 -25.273438 -21.550781 -24.925781 -21.246094 -24.796875 C -20.554688 -24.535156 -20.121094 -24.882812 -19.34375 -25.660156 L -16.097656 -28.90625 C -15.234375 -29.773438 -15.320312 -30.292969 -15.40625 -30.640625 C -15.449219 -30.855469 -15.449219 -31.113281 -15.882812 -31.546875 C -15.96875 -31.632812 -16.054688 -31.71875 -16.140625 -31.808594 C -16.359375 -32.023438 -17.265625 -32.933594 -17.613281 -33.277344 L -19.214844 -34.964844 C -19.558594 -35.3125 -19.90625 -35.570312 -20.425781 -35.484375 C -21.03125 -35.398438 -21.550781 -34.964844 -21.898438 -34.621094 L -23.195312 -33.320312 C -24.191406 -32.328125 -25.488281 -30.855469 -25.835938 -30.074219 C -26.050781 -29.601562 -25.964844 -29.082031 -24.667969 -27.78125 Z M -22.503906 -25.617188 "/></g></g></g><g fill="#ffffff" fill-opacity="1"><g transform="translate(163.995311, 58.700957)"><g><path d="M 14.714844 -24.148438 C 13.976562 -24.882812 12.9375 -25.660156 11.8125 -24.535156 C 11.292969 -24.019531 11.078125 -23.453125 10.820312 -22.9375 C 9.953125 -21.03125 9.605469 -20.511719 9.347656 -20.167969 C 9.132812 -19.863281 8.914062 -19.648438 8.65625 -19.386719 C 8.308594 -19.039062 8.050781 -18.609375 7.703125 -18.261719 C 6.835938 -17.308594 4.933594 -15.40625 3.332031 -14.757812 C 1.992188 -14.195312 0.519531 -13.847656 -0.0859375 -14.453125 C -0.304688 -14.671875 -0.390625 -14.84375 -0.390625 -15.101562 C -0.390625 -15.707031 -0.0429688 -16.226562 0.390625 -16.660156 L 0.910156 -17.179688 C 1.429688 -17.699219 1.949219 -18.132812 2.464844 -18.652344 C 3.203125 -19.386719 3.894531 -20.167969 4.628906 -20.902344 C 5.191406 -21.464844 5.84375 -22.027344 6.40625 -22.589844 C 6.664062 -22.847656 6.925781 -23.195312 7.183594 -23.453125 C 8.007812 -24.363281 8.914062 -25.097656 9.738281 -26.007812 C 9.996094 -26.269531 10.34375 -26.699219 10.429688 -27.480469 C 10.515625 -28.519531 9.78125 -29.511719 8.914062 -30.378906 C 7.960938 -31.332031 7.183594 -31.9375 5.667969 -32.847656 C 3.289062 -34.273438 0.257812 -35.660156 -4.15625 -34.792969 C -5.667969 -34.488281 -7.875 -33.667969 -10.601562 -30.941406 C -13.5 -28.042969 -15.664062 -23.886719 -14.152344 -18.21875 C -13.285156 -14.84375 -11.425781 -12.464844 -9.304688 -10.34375 C -5.929688 -6.96875 -2.511719 -6.316406 -1.210938 -6.144531 C 2.421875 -5.625 5.0625 -6.363281 6.75 -7.183594 C 8.65625 -8.136719 11.292969 -10.515625 12.765625 -11.988281 C 13.804688 -13.027344 15.578125 -14.972656 16.789062 -17.484375 C 17.265625 -18.476562 17.960938 -20.035156 17.484375 -21.03125 C 17.265625 -21.507812 16.011719 -22.847656 15.707031 -23.152344 Z M -1.429688 -23.84375 C -2.984375 -22.113281 -5.191406 -19.300781 -6.449219 -20.554688 C -7.011719 -21.117188 -7.011719 -21.8125 -7.011719 -22.242188 C -6.96875 -23.410156 -6.96875 -24.449219 -5.582031 -25.835938 C -5.019531 -26.398438 -4.066406 -27.175781 -2.554688 -27.304688 C -0.996094 -27.394531 -0.347656 -26.832031 -0.171875 -26.65625 C -0.0429688 -26.527344 0.214844 -26.179688 0.0429688 -25.660156 C -0.0429688 -25.402344 -0.257812 -25.1875 -0.648438 -24.710938 Z M -1.429688 -23.84375 "/></g></g></g></g></g></svg>