<svg xmlns="http://www.w3.org/2000/svg" xmlns:xlink="http://www.w3.org/1999/xlink" width="500" zoomAndPan="magnify" viewBox="0 0 375 374.999991" height="500" preserveAspectRatio="xMidYMid meet" version="1.0"><defs><g/><clipPath id="a97c86eefc"><path d="M 2.574219 2.574219 L 372.425781 2.574219 L 372.425781 372.425781 L 2.574219 372.425781 Z M 2.574219 2.574219 " clip-rule="nonzero"/></clipPath><clipPath id="2d65b83df6"><path d="M 187.5 2.574219 C 85.367188 2.574219 2.574219 85.367188 2.574219 187.5 C 2.574219 289.632812 85.367188 372.425781 187.5 372.425781 C 289.632812 372.425781 372.425781 289.632812 372.425781 187.5 C 372.425781 85.367188 289.632812 2.574219 187.5 2.574219 Z M 187.5 2.574219 " clip-rule="nonzero"/></clipPath><clipPath id="2a5686d70d"><path d="M 0.574219 0.574219 L 370.425781 0.574219 L 370.425781 370.425781 L 0.574219 370.425781 Z M 0.574219 0.574219 " clip-rule="nonzero"/></clipPath><clipPath id="65b888fada"><path d="M 185.5 0.574219 C 83.367188 0.574219 0.574219 83.367188 0.574219 185.5 C 0.574219 287.632812 83.367188 370.425781 185.5 370.425781 C 287.632812 370.425781 370.425781 287.632812 370.425781 185.5 C 370.425781 83.367188 287.632812 0.574219 185.5 0.574219 Z M 185.5 0.574219 " clip-rule="nonzero"/></clipPath><clipPath id="5209d1611a"><rect x="0" width="371" y="0" height="371"/></clipPath><clipPath id="22f678c389"><path d="M 32 130 L 347 130 L 347 304 L 32 304 Z M 32 130 " clip-rule="nonzero"/></clipPath><clipPath id="4956596f05"><path d="M 80.855469 49.910156 L 370.878906 164.929688 L 302.308594 337.832031 L 12.285156 222.8125 Z M 80.855469 49.910156 " clip-rule="nonzero"/></clipPath><clipPath id="56bc197d0c"><path d="M 80.855469 49.910156 L 370.878906 164.929688 L 302.308594 337.832031 L 12.285156 222.8125 Z M 80.855469 49.910156 " clip-rule="nonzero"/></clipPath><clipPath id="dddfd7f6ce"><rect x="0" width="216" y="0" height="89"/></clipPath></defs><g clip-path="url(#a97c86eefc)"><g clip-path="url(#2d65b83df6)"><g transform="matrix(1, 0, 0, 1, 2, 2)"><g clip-path="url(#5209d1611a)"><g clip-path="url(#2a5686d70d)"><g clip-path="url(#65b888fada)"><path fill="#ffffff" d="M 0.574219 0.574219 L 370.425781 0.574219 L 370.425781 370.425781 L 0.574219 370.425781 Z M 0.574219 0.574219 " fill-opacity="1" fill-rule="nonzero"/></g></g></g></g></g></g><g clip-path="url(#22f678c389)"><g clip-path="url(#4956596f05)"><g clip-path="url(#56bc197d0c)"><path fill="#00876f" d="M 47.316406 207.480469 L 90.714844 225.648438 L 84.6875 240.847656 C 84.449219 241.449219 84.273438 242.066406 84.15625 242.699219 C 84.042969 243.332031 83.988281 243.972656 84 244.617188 C 84.007812 245.261719 84.082031 245.898438 84.214844 246.527344 C 84.351562 247.15625 84.546875 247.769531 84.804688 248.359375 C 85.058594 248.953125 85.371094 249.511719 85.734375 250.042969 C 86.101562 250.574219 86.515625 251.0625 86.976562 251.511719 C 87.441406 251.960938 87.941406 252.359375 88.484375 252.710938 C 89.023438 253.0625 89.59375 253.355469 90.191406 253.59375 L 131.519531 269.980469 C 132.117188 270.21875 132.734375 270.394531 133.367188 270.511719 C 134 270.625 134.640625 270.679688 135.285156 270.667969 C 135.929688 270.660156 136.566406 270.585938 137.195312 270.453125 C 137.828125 270.316406 138.4375 270.121094 139.027344 269.867188 C 139.621094 269.609375 140.183594 269.300781 140.710938 268.933594 C 141.242188 268.566406 141.730469 268.152344 142.179688 267.691406 C 142.628906 267.226562 143.03125 266.726562 143.378906 266.183594 C 143.730469 265.644531 144.023438 265.074219 144.261719 264.476562 L 149.84375 250.398438 L 251.195312 292.820312 L 250.664062 296.386719 C 250.609375 296.757812 250.589844 297.132812 250.609375 297.507812 C 250.625 297.882812 250.679688 298.253906 250.773438 298.621094 C 250.863281 298.984375 250.988281 299.335938 251.148438 299.675781 C 251.308594 300.015625 251.5 300.339844 251.726562 300.640625 C 251.949219 300.941406 252.199219 301.21875 252.476562 301.472656 C 252.757812 301.726562 253.058594 301.949219 253.378906 302.144531 C 253.703125 302.335938 254.039062 302.496094 254.394531 302.625 C 254.746094 302.75 255.109375 302.84375 255.484375 302.898438 L 258.460938 303.34375 C 258.832031 303.398438 259.207031 303.417969 259.582031 303.398438 C 259.957031 303.382812 260.328125 303.328125 260.691406 303.234375 C 261.058594 303.144531 261.410156 303.019531 261.75 302.859375 C 262.089844 302.699219 262.410156 302.507812 262.714844 302.28125 C 263.015625 302.058594 263.292969 301.808594 263.546875 301.53125 C 263.800781 301.25 264.023438 300.949219 264.214844 300.628906 C 264.410156 300.304688 264.570312 299.96875 264.695312 299.613281 C 264.824219 299.261719 264.914062 298.898438 264.972656 298.527344 L 289.027344 137.433594 C 289.085938 137.058594 289.101562 136.6875 289.085938 136.3125 C 289.066406 135.933594 289.011719 135.566406 288.921875 135.199219 C 288.832031 134.835938 288.703125 134.484375 288.542969 134.144531 C 288.382812 133.800781 288.191406 133.480469 287.96875 133.179688 C 287.746094 132.875 287.492188 132.597656 287.214844 132.347656 C 286.9375 132.09375 286.636719 131.871094 286.3125 131.675781 C 285.992188 131.484375 285.652344 131.324219 285.300781 131.195312 C 284.945312 131.066406 284.582031 130.976562 284.210938 130.921875 L 281.234375 130.476562 C 280.863281 130.421875 280.488281 130.402344 280.113281 130.421875 C 279.738281 130.4375 279.367188 130.492188 279 130.585938 C 278.636719 130.675781 278.285156 130.800781 277.945312 130.960938 C 277.605469 131.121094 277.28125 131.3125 276.980469 131.539062 C 276.679688 131.761719 276.398438 132.011719 276.148438 132.289062 C 275.894531 132.570312 275.671875 132.867188 275.476562 133.191406 C 275.285156 133.511719 275.125 133.851562 274.996094 134.207031 C 274.871094 134.558594 274.777344 134.921875 274.722656 135.292969 L 274.464844 137.027344 L 54.21875 158.972656 L 54.804688 154.882812 C 54.859375 154.511719 54.878906 154.136719 54.863281 153.761719 C 54.84375 153.382812 54.789062 153.011719 54.699219 152.648438 C 54.609375 152.28125 54.484375 151.929688 54.324219 151.585938 C 54.164062 151.246094 53.972656 150.925781 53.746094 150.621094 C 53.523438 150.316406 53.273438 150.039062 52.992188 149.785156 C 52.714844 149.53125 52.414062 149.308594 52.089844 149.113281 C 51.769531 148.921875 51.429688 148.761719 51.074219 148.632812 C 50.722656 148.503906 50.355469 148.414062 49.984375 148.359375 L 47.007812 147.914062 C 46.632812 147.859375 46.261719 147.839844 45.882812 147.859375 C 45.507812 147.875 45.136719 147.929688 44.769531 148.019531 C 44.40625 148.113281 44.050781 148.238281 43.710938 148.398438 C 43.371094 148.558594 43.050781 148.753906 42.746094 148.976562 C 42.445312 149.203125 42.167969 149.453125 41.914062 149.730469 C 41.660156 150.011719 41.4375 150.3125 41.242188 150.636719 C 41.050781 150.957031 40.890625 151.296875 40.765625 151.652344 C 40.636719 152.007812 40.546875 152.371094 40.492188 152.742188 L 32.34375 210.027344 C 32.289062 210.398438 32.269531 210.773438 32.289062 211.148438 C 32.304688 211.523438 32.359375 211.894531 32.453125 212.257812 C 32.542969 212.625 32.667969 212.976562 32.828125 213.316406 C 32.988281 213.65625 33.179688 213.976562 33.40625 214.28125 C 33.628906 214.582031 33.878906 214.859375 34.15625 215.113281 C 34.4375 215.367188 34.738281 215.589844 35.058594 215.78125 C 35.382812 215.976562 35.71875 216.136719 36.074219 216.265625 C 36.425781 216.390625 36.789062 216.480469 37.164062 216.539062 L 40.140625 216.980469 C 40.511719 217.039062 40.886719 217.054688 41.261719 217.039062 C 41.636719 217.019531 42.007812 216.964844 42.371094 216.875 C 42.738281 216.785156 43.089844 216.660156 43.429688 216.496094 C 43.769531 216.335938 44.089844 216.144531 44.394531 215.921875 C 44.695312 215.699219 44.972656 215.445312 45.226562 215.167969 C 45.480469 214.890625 45.703125 214.589844 45.894531 214.269531 C 46.089844 213.945312 46.25 213.605469 46.375 213.253906 C 46.503906 212.898438 46.59375 212.535156 46.652344 212.164062 Z M 98.738281 229.003906 L 141.808594 247.035156 L 136.167969 261.265625 C 136.113281 261.402344 136.03125 261.527344 135.929688 261.632812 C 135.824219 261.738281 135.707031 261.820312 135.570312 261.878906 C 135.433594 261.941406 135.289062 261.96875 135.140625 261.972656 C 134.992188 261.976562 134.851562 261.949219 134.710938 261.894531 L 93.398438 245.507812 C 93.261719 245.453125 93.136719 245.375 93.03125 245.273438 C 92.925781 245.167969 92.84375 245.046875 92.78125 244.914062 C 92.722656 244.777344 92.695312 244.632812 92.691406 244.484375 C 92.6875 244.335938 92.714844 244.191406 92.769531 244.054688 Z M 346.039062 225.925781 C 345.972656 226.332031 345.832031 226.710938 345.613281 227.058594 C 345.398438 227.410156 345.121094 227.703125 344.789062 227.945312 C 344.453125 228.183594 344.085938 228.351562 343.6875 228.445312 C 343.289062 228.542969 342.882812 228.554688 342.476562 228.492188 L 303.425781 222.144531 C 303.042969 222.050781 302.691406 221.894531 302.371094 221.667969 C 302.046875 221.445312 301.777344 221.167969 301.5625 220.839844 C 301.34375 220.515625 301.191406 220.160156 301.109375 219.773438 C 301.027344 219.390625 301.015625 219.003906 301.082031 218.617188 C 301.144531 218.230469 301.273438 217.867188 301.476562 217.53125 C 301.675781 217.191406 301.929688 216.902344 302.242188 216.660156 C 302.550781 216.421875 302.894531 216.246094 303.269531 216.132812 C 303.648438 216.023438 304.03125 215.984375 304.421875 216.015625 L 343.480469 222.367188 C 343.886719 222.433594 344.261719 222.578125 344.609375 222.792969 C 344.960938 223.011719 345.253906 223.285156 345.492188 223.621094 C 345.734375 223.953125 345.902344 224.320312 345.996094 224.71875 C 346.089844 225.117188 346.105469 225.519531 346.039062 225.925781 Z M 303.105469 194.246094 L 335.21875 176.738281 C 335.578125 176.574219 335.953125 176.480469 336.347656 176.457031 C 336.742188 176.433594 337.125 176.488281 337.5 176.609375 C 337.875 176.734375 338.214844 176.921875 338.515625 177.175781 C 338.820312 177.429688 339.0625 177.726562 339.253906 178.074219 C 339.441406 178.421875 339.5625 178.789062 339.609375 179.179688 C 339.65625 179.570312 339.632812 179.957031 339.535156 180.339844 C 339.4375 180.722656 339.273438 181.074219 339.039062 181.390625 C 338.808594 181.710938 338.527344 181.976562 338.195312 182.1875 L 306.0625 199.691406 C 305.707031 199.84375 305.335938 199.925781 304.949219 199.9375 C 304.5625 199.949219 304.183594 199.894531 303.820312 199.765625 C 303.453125 199.636719 303.125 199.449219 302.832031 199.199219 C 302.535156 198.949219 302.296875 198.652344 302.109375 198.3125 C 301.925781 197.972656 301.808594 197.609375 301.761719 197.226562 C 301.710938 196.84375 301.730469 196.464844 301.824219 196.089844 C 301.914062 195.710938 302.070312 195.367188 302.292969 195.046875 C 302.511719 194.730469 302.785156 194.464844 303.105469 194.246094 Z M 320.1875 269.167969 L 295.277344 242.382812 C 295.035156 242.078125 294.855469 241.734375 294.738281 241.359375 C 294.625 240.988281 294.582031 240.605469 294.613281 240.210938 C 294.640625 239.820312 294.742188 239.449219 294.910156 239.097656 C 295.082031 238.742188 295.308594 238.433594 295.597656 238.167969 C 295.882812 237.902344 296.210938 237.695312 296.574219 237.550781 C 296.941406 237.410156 297.316406 237.335938 297.710938 237.335938 C 298.101562 237.335938 298.480469 237.40625 298.847656 237.546875 C 299.210938 237.691406 299.539062 237.894531 299.824219 238.160156 L 324.734375 264.945312 C 325.050781 265.238281 325.296875 265.585938 325.472656 265.984375 C 325.648438 266.378906 325.734375 266.796875 325.734375 267.230469 C 325.734375 267.664062 325.648438 268.078125 325.476562 268.476562 C 325.304688 268.871094 325.058594 269.21875 324.742188 269.515625 C 324.421875 269.808594 324.058594 270.027344 323.648438 270.171875 C 323.242188 270.316406 322.820312 270.371094 322.386719 270.335938 C 321.957031 270.304688 321.546875 270.1875 321.164062 269.984375 C 320.78125 269.78125 320.457031 269.507812 320.1875 269.167969 Z M 320.1875 269.167969 " fill-opacity="1" fill-rule="nonzero"/></g></g></g><g transform="matrix(1, 0, 0, 1, 57, 64)"><g clip-path="url(#dddfd7f6ce)"><g fill="#00876f" fill-opacity="1"><g transform="translate(8.762266, 73.827619)"><g><path d="M 1.433594 -29.445312 C 0.945312 -29.394531 0.515625 -29.410156 -0.046875 -28.917969 C -0.613281 -28.429688 -0.621094 -27.9375 -0.285156 -24.769531 L 0.613281 -16.867188 C 1.300781 -10.96875 1.15625 -9.414062 1.515625 -6.621094 L 1.78125 -4.679688 C 1.792969 -4.558594 1.800781 -4.5 1.8125 -4.378906 C 1.84375 -4.074219 1.9375 -3.773438 1.972656 -3.46875 C 1.976562 -3.410156 1.988281 -3.289062 1.996094 -3.226562 C 2.027344 -2.921875 2.066406 -2.558594 2.101562 -2.253906 C 2.15625 -1.707031 2.148438 -1.210938 2.171875 -0.414062 C 2.148438 -0.0429688 2.183594 0.261719 2.214844 0.566406 C 2.296875 1.355469 2.507812 2.195312 2.53125 2.992188 L 2.574219 3.972656 C 2.621094 5.570312 3.539062 5.53125 4.027344 5.480469 C 5.246094 5.351562 5.414062 5.210938 5.902344 5.160156 C 6.144531 5.132812 6.402344 5.230469 6.644531 5.203125 L 8.773438 4.976562 C 9.625 4.886719 9.871094 4.863281 10.933594 4.441406 C 11.347656 4.273438 11.449219 4.078125 11.46875 3.707031 C 11.527344 3.085938 11.375 2.796875 11.316406 2.246094 L 10.867188 -1.398438 C 10.796875 -2.066406 11.269531 -2.242188 11.574219 -2.273438 C 11.820312 -2.296875 12.007812 -2.257812 12.195312 -2.214844 C 14.214844 -1.753906 13.59375 -1.808594 14.550781 -1.480469 C 15.253906 -1.246094 16.449219 -1.003906 19.125 -1.289062 C 20.585938 -1.441406 27.613281 -2.496094 30.246094 -10.773438 C 30.617188 -11.921875 31.195312 -14.015625 30.703125 -18.640625 C 30.421875 -21.316406 29.601562 -23.816406 27.199219 -26.761719 C 25.785156 -28.457031 24.730469 -29.144531 23.433594 -29.746094 C 19.746094 -31.449219 17.476562 -31.390625 16.015625 -31.238281 C 14.433594 -31.070312 11.902344 -30.554688 10.382812 -29.226562 C 10.097656 -29.011719 9.734375 -28.355469 9.066406 -28.285156 C 8.820312 -28.257812 8.515625 -28.226562 8.230469 -28.628906 C 8.019531 -28.851562 7.445312 -29.652344 7.179688 -29.808594 C 6.785156 -30.074219 5.742188 -30.027344 3.984375 -29.777344 Z M 14.761719 -22.734375 C 16.28125 -22.894531 18.367188 -22.378906 19.507812 -21.515625 C 20.90625 -20.492188 22.078125 -18.15625 22.257812 -16.453125 C 22.4375 -14.746094 21.996094 -13.714844 21.6875 -13.128906 C 20.507812 -10.910156 18.207031 -9.375 16.566406 -9.203125 C 14.921875 -9.027344 11.917969 -10.0625 10.730469 -11.414062 C 9.957031 -12.316406 9.640625 -13.574219 9.535156 -14.550781 C 9.230469 -16.855469 9.367188 -18.46875 10.660156 -20.207031 C 11.734375 -21.675781 13.238281 -22.574219 14.761719 -22.734375 Z M 14.761719 -22.734375 "/></g></g></g><g fill="#00876f" fill-opacity="1"><g transform="translate(41.806168, 70.326334)"><g><path d="M 2.730469 -29.398438 C 2.671875 -29.394531 2.550781 -29.378906 1.878906 -29.308594 C 1.027344 -29.21875 0.425781 -29.09375 0.160156 -28.695312 C -0.492188 -27.886719 -0.316406 -26.800781 -0.269531 -26.375 L 0.132812 -23.152344 C 0.566406 -19.628906 0.496094 -19.128906 0.820312 -15.472656 L 1.25 -10.285156 L 1.582031 -7.738281 C 1.78125 -6.40625 1.746094 -6.15625 1.765625 -5.972656 L 1.753906 -4.925781 C 1.730469 -4 1.8125 -3.207031 1.867188 -2.722656 C 1.980469 -1.625 2.289062 -1.042969 2.566406 -0.765625 C 3.050781 -0.261719 3.90625 -0.289062 4.515625 -0.355469 C 5.671875 -0.476562 4.753906 -0.441406 6.519531 -0.628906 L 9.011719 -0.894531 C 9.804688 -0.976562 10.199219 -1.328125 10.367188 -1.46875 C 11.210938 -2.234375 10.820312 -2.992188 10.480469 -6.21875 L 10.125 -9.566406 C 9.957031 -11.148438 9.910156 -9.851562 9.621094 -12.589844 C 9.40625 -14.597656 9.898438 -16.371094 10.589844 -17.371094 C 11.332031 -18.496094 13.339844 -19.875 15.09375 -20.183594 L 15.816406 -20.324219 C 16.121094 -20.355469 16.644531 -20.65625 16.921875 -20.933594 C 16.976562 -21 17.410156 -21.539062 17.289062 -22.695312 L 16.933594 -26.042969 C 16.914062 -26.226562 16.894531 -26.40625 16.882812 -26.527344 C 16.84375 -26.894531 16.867188 -27.265625 16.828125 -27.632812 C 16.789062 -27.996094 16.816406 -28.308594 16.777344 -28.671875 C 16.71875 -29.21875 16.574219 -30.003906 16.097656 -30.445312 C 15.554688 -30.941406 14.703125 -30.851562 14.277344 -30.808594 C 12.753906 -30.644531 11.886719 -30.121094 11.390625 -29.578125 L 9.554688 -27.722656 C 9.167969 -27.3125 8.9375 -27.164062 8.695312 -27.136719 C 8.269531 -27.09375 8.164062 -27.511719 8.15625 -27.574219 L 8 -28.480469 C 7.960938 -28.84375 7.980469 -29.21875 7.835938 -29.449219 C 7.613281 -29.792969 7.300781 -29.820312 7.058594 -29.796875 C 6.9375 -29.785156 6.816406 -29.769531 6.695312 -29.757812 C 6.269531 -29.710938 5.910156 -29.613281 5.484375 -29.566406 C 5.300781 -29.546875 4.449219 -29.457031 4.265625 -29.4375 Z M 2.730469 -29.398438 "/></g></g></g><g fill="#00876f" fill-opacity="1"><g transform="translate(61.401276, 68.250064)"><g><path d="M 26.621094 -9.527344 C 26.511719 -10.5625 26.195312 -11.824219 24.613281 -11.65625 C 23.882812 -11.578125 23.359375 -11.277344 22.832031 -11.035156 C 20.960938 -10.097656 20.367188 -9.914062 19.945312 -9.804688 C 19.589844 -9.707031 19.285156 -9.675781 18.917969 -9.636719 C 18.433594 -9.585938 17.957031 -9.410156 17.472656 -9.359375 C 16.199219 -9.164062 13.523438 -8.878906 11.867188 -9.382812 C 10.472656 -9.785156 9.109375 -10.441406 9.019531 -11.292969 C 8.988281 -11.597656 9.027344 -11.789062 9.191406 -11.988281 C 9.574219 -12.460938 10.167969 -12.648438 10.777344 -12.710938 L 11.507812 -12.789062 C 12.238281 -12.867188 12.914062 -12.875 13.644531 -12.953125 C 14.679688 -13.0625 15.707031 -13.234375 16.742188 -13.34375 C 17.53125 -13.425781 18.390625 -13.457031 19.183594 -13.539062 C 19.546875 -13.578125 19.964844 -13.6875 20.332031 -13.722656 C 21.542969 -13.914062 22.710938 -13.914062 23.921875 -14.105469 C 24.289062 -14.144531 24.828125 -14.261719 25.386719 -14.8125 C 26.105469 -15.566406 26.160156 -16.804688 26.03125 -18.019531 C 25.890625 -19.359375 25.664062 -20.320312 25.058594 -21.980469 C 24.105469 -24.585938 22.621094 -27.566406 18.640625 -29.667969 C 17.273438 -30.386719 15.039062 -31.132812 11.207031 -30.726562 C 7.128906 -30.296875 2.835938 -28.425781 0.449219 -23.066406 C -1 -19.894531 -1.050781 -16.875 -0.734375 -13.890625 C -0.230469 -9.144531 2.019531 -6.492188 2.921875 -5.539062 C 5.421875 -2.851562 7.9375 -1.765625 9.765625 -1.34375 C 11.84375 -0.886719 15.394531 -1.078125 17.464844 -1.296875 C 18.925781 -1.453125 21.527344 -1.851562 24.046875 -3.039062 C 25.042969 -3.515625 26.5625 -4.292969 26.816406 -5.363281 C 26.949219 -5.871094 26.816406 -7.703125 26.769531 -8.128906 Z M 13.878906 -19.441406 C 11.578125 -19.074219 8.09375 -18.273438 7.90625 -20.039062 C 7.824219 -20.832031 8.257812 -21.367188 8.53125 -21.707031 C 9.300781 -22.585938 9.953125 -23.394531 11.898438 -23.601562 C 12.691406 -23.683594 13.921875 -23.691406 15.179688 -22.839844 C 16.445312 -21.929688 16.597656 -21.082031 16.625 -20.839844 C 16.644531 -20.65625 16.628906 -20.226562 16.167969 -19.929688 C 15.9375 -19.78125 15.632812 -19.75 15.03125 -19.625 Z M 13.878906 -19.441406 "/></g></g></g><g fill="#00876f" fill-opacity="1"><g transform="translate(89.69853, 65.251727)"><g><path d="M 0.332031 -7.914062 C 0.167969 -7.710938 0.128906 -6.90625 0.179688 -6.417969 C 0.214844 -6.117188 0.246094 -5.8125 0.277344 -5.507812 C 0.304688 -5.261719 0.261719 -5.074219 0.289062 -4.832031 L 0.308594 -3.480469 C 0.335938 -2.066406 0.960938 -1.394531 1.101562 -1.222656 C 1.523438 -0.714844 2.0625 -0.28125 3.621094 -0.0742188 C 5.371094 0.167969 7.5625 -0.0625 9.632812 -0.28125 C 11.761719 -0.507812 14.804688 -0.832031 17.265625 -2.566406 C 20.015625 -4.519531 21.144531 -7.78125 20.824219 -10.824219 C 20.527344 -13.621094 19.386719 -15.101562 18.019531 -16.371094 C 16.175781 -18.085938 14.910156 -18.441406 13.113281 -19.113281 C 9.148438 -20.539062 9.230469 -20.917969 9.113281 -21.460938 C 9.105469 -21.519531 9.097656 -21.582031 9.09375 -21.640625 C 9.132812 -21.832031 9.230469 -22.085938 9.636719 -22.316406 C 10.152344 -22.675781 10.863281 -22.9375 12.222656 -22.894531 L 15.429688 -22.804688 C 16.175781 -22.761719 16.351562 -22.839844 16.683594 -23.183594 C 16.90625 -23.394531 16.957031 -23.519531 16.992188 -23.769531 C 17.101562 -24.460938 16.945312 -25.921875 16.863281 -26.710938 L 16.710938 -28.726562 C 16.65625 -29.828125 15.117188 -30.402344 13.679688 -30.621094 C 12.992188 -30.730469 11.816406 -30.792969 9.199219 -30.515625 C 2.441406 -29.800781 0.578125 -27.632812 -0.320312 -26.246094 C -1.011719 -25.25 -1.609375 -23.894531 -1.371094 -21.640625 C -0.929688 -17.503906 1.898438 -15.769531 3.078125 -15.097656 C 3.996094 -14.578125 4.636719 -14.339844 5.78125 -13.96875 C 6.929688 -13.597656 7.746094 -13.4375 8.644531 -13.101562 C 9.414062 -12.8125 10.632812 -12.328125 10.769531 -11.050781 C 10.976562 -9.101562 8.90625 -8.882812 8.175781 -8.804688 C 7.140625 -8.695312 6.160156 -8.652344 4.855469 -8.761719 C 4.113281 -8.804688 3.296875 -8.964844 2.261719 -8.855469 C 1.226562 -8.746094 0.710938 -8.382812 0.386719 -7.980469 Z M 0.332031 -7.914062 "/></g></g></g><g fill="#00876f" fill-opacity="1"><g transform="translate(112.092928, 62.878849)"><g><path d="M 26.621094 -9.527344 C 26.511719 -10.5625 26.195312 -11.824219 24.613281 -11.65625 C 23.882812 -11.578125 23.359375 -11.277344 22.832031 -11.035156 C 20.960938 -10.097656 20.367188 -9.914062 19.945312 -9.804688 C 19.589844 -9.707031 19.285156 -9.675781 18.917969 -9.636719 C 18.433594 -9.585938 17.957031 -9.410156 17.472656 -9.359375 C 16.199219 -9.164062 13.523438 -8.878906 11.867188 -9.382812 C 10.472656 -9.785156 9.109375 -10.441406 9.019531 -11.292969 C 8.988281 -11.597656 9.027344 -11.789062 9.191406 -11.988281 C 9.574219 -12.460938 10.167969 -12.648438 10.777344 -12.710938 L 11.507812 -12.789062 C 12.238281 -12.867188 12.914062 -12.875 13.644531 -12.953125 C 14.679688 -13.0625 15.707031 -13.234375 16.742188 -13.34375 C 17.53125 -13.425781 18.390625 -13.457031 19.183594 -13.539062 C 19.546875 -13.578125 19.964844 -13.6875 20.332031 -13.722656 C 21.542969 -13.914062 22.710938 -13.914062 23.921875 -14.105469 C 24.289062 -14.144531 24.828125 -14.261719 25.386719 -14.8125 C 26.105469 -15.566406 26.160156 -16.804688 26.03125 -18.019531 C 25.890625 -19.359375 25.664062 -20.320312 25.058594 -21.980469 C 24.105469 -24.585938 22.621094 -27.566406 18.640625 -29.667969 C 17.273438 -30.386719 15.039062 -31.132812 11.207031 -30.726562 C 7.128906 -30.296875 2.835938 -28.425781 0.449219 -23.066406 C -1 -19.894531 -1.050781 -16.875 -0.734375 -13.890625 C -0.230469 -9.144531 2.019531 -6.492188 2.921875 -5.539062 C 5.421875 -2.851562 7.9375 -1.765625 9.765625 -1.34375 C 11.84375 -0.886719 15.394531 -1.078125 17.464844 -1.296875 C 18.925781 -1.453125 21.527344 -1.851562 24.046875 -3.039062 C 25.042969 -3.515625 26.5625 -4.292969 26.816406 -5.363281 C 26.949219 -5.871094 26.816406 -7.703125 26.769531 -8.128906 Z M 13.878906 -19.441406 C 11.578125 -19.074219 8.09375 -18.273438 7.90625 -20.039062 C 7.824219 -20.832031 8.257812 -21.367188 8.53125 -21.707031 C 9.300781 -22.585938 9.953125 -23.394531 11.898438 -23.601562 C 12.691406 -23.683594 13.921875 -23.691406 15.179688 -22.839844 C 16.445312 -21.929688 16.597656 -21.082031 16.625 -20.839844 C 16.644531 -20.65625 16.628906 -20.226562 16.167969 -19.929688 C 15.9375 -19.78125 15.632812 -19.75 15.03125 -19.625 Z M 13.878906 -19.441406 "/></g></g></g><g fill="#00876f" fill-opacity="1"><g transform="translate(140.390181, 59.880512)"><g><path d="M 10.183594 -0.894531 C 11.398438 -1.023438 12.683594 -1.097656 13.804688 -2.140625 C 14.199219 -2.488281 14.640625 -2.964844 14.523438 -4.0625 C 14.492188 -4.367188 14.453125 -4.730469 14.359375 -5.03125 C 14.234375 -5.632812 14.175781 -6.179688 14.113281 -6.789062 L 14.003906 -8.375 C 13.972656 -8.679688 13.746094 -9.085938 13.539062 -9.3125 C 13.394531 -9.480469 13.121094 -9.761719 12.503906 -9.757812 L 12.074219 -9.773438 C 11.761719 -9.800781 11.207031 -9.804688 10.804688 -10.128906 C 10.273438 -10.503906 10.207031 -11.113281 9.839844 -14.582031 L 9.484375 -17.929688 C 9.234375 -20.304688 9.1875 -21.898438 11.050781 -22.339844 L 12.308594 -22.660156 C 12.429688 -22.671875 12.84375 -22.839844 12.980469 -23.285156 C 13.070312 -23.601562 12.972656 -25.683594 12.945312 -25.925781 L 12.867188 -26.65625 C 12.707031 -28.179688 12.886719 -28.8125 12.125 -29.59375 C 11.714844 -29.980469 11.460938 -30.078125 10.667969 -29.992188 L 9.757812 -29.898438 C 9.332031 -29.851562 8.539062 -29.769531 8.449219 -30.621094 L 8.03125 -34.578125 C 7.976562 -35.0625 8.035156 -35.683594 7.484375 -36.242188 C 7 -36.746094 6.582031 -36.636719 6.152344 -36.59375 L 1.8125 -36.316406 C 0.894531 -36.28125 0.191406 -35.960938 -0.148438 -35.679688 C -0.496094 -35.457031 -0.816406 -34.992188 -0.777344 -34.628906 L -0.046875 -29.472656 C -0.0117188 -29.167969 -0.191406 -29.089844 -0.3125 -29.078125 L -0.792969 -28.964844 C -1.570312 -28.757812 -1.636719 -28.8125 -2.023438 -28.402344 C -2.1875 -28.199219 -2.460938 -27.863281 -2.382812 -27.132812 L -1.917969 -23.921875 L -1.875 -22.941406 C -1.878906 -22.386719 -1.613281 -21.613281 -1.035156 -21.367188 C -0.519531 -21.175781 -0.234375 -21.390625 0.113281 -21 C 0.457031 -20.664062 0.625 -20.253906 0.847656 -17.566406 L 1.671875 -8.609375 C 1.929688 -5.621094 2.839844 -3.992188 3.289062 -3.242188 C 3.738281 -2.488281 4.542969 -1.28125 5.945312 -0.816406 C 7.09375 -0.445312 8.355469 -0.699219 9.390625 -0.808594 Z M 10.183594 -0.894531 "/></g></g></g><g fill="#00876f" fill-opacity="1"><g transform="translate(156.820858, 58.139541)"><g><path d="M 6.234375 -9.707031 C 6.050781 -9.6875 5.503906 -9.628906 4.476562 -9.460938 L 2.285156 -9.226562 C 2.039062 -9.203125 1.863281 -9.121094 1.695312 -8.980469 C 1.484375 -8.648438 1.425781 -8.027344 1.53125 -7.054688 L 1.691406 -5.535156 L 1.988281 -3.289062 L 2.089844 -1.761719 C 2.179688 -0.90625 2.597656 -0.460938 3.347656 -0.355469 C 3.53125 -0.375 4.808594 -0.507812 7.128906 -0.695312 L 9.988281 -0.996094 C 10.597656 -1.0625 10.941406 -1.28125 11.09375 -1.605469 C 11.234375 -1.992188 11.046875 -4.371094 10.574219 -8.8125 C 10.53125 -9.238281 10.246094 -9.578125 9.726562 -9.832031 C 9.53125 -9.933594 8.917969 -9.929688 8.003906 -9.832031 C 7.882812 -9.820312 7.640625 -9.792969 7.207031 -9.808594 Z M 6.234375 -9.707031 "/></g></g></g><g fill="#00876f" fill-opacity="1"><g transform="translate(170.391381, 56.701627)"><g><path d="M 1.804688 -3.882812 C 1.902344 -2.972656 1.964844 -1.191406 2.511719 -0.695312 C 2.585938 -0.582031 2.980469 -0.316406 4.199219 -0.445312 L 5.292969 -0.5625 L 6.445312 -0.746094 L 9.191406 -0.972656 C 10.46875 -1.109375 10.78125 -1.632812 10.871094 -1.953125 C 11.054688 -2.527344 11.082031 -3.453125 10.757812 -6.496094 C 10.746094 -6.617188 10.734375 -6.738281 10.71875 -6.859375 C 10.714844 -6.921875 10.699219 -7.042969 10.695312 -7.101562 C 10.398438 -9.902344 10.332031 -8.789062 10.132812 -10.675781 L 9.765625 -14.144531 C 9.609375 -15.605469 9.296875 -16.800781 9.078125 -18.871094 C 9.046875 -19.175781 9.015625 -19.480469 8.980469 -19.785156 C 8.960938 -19.964844 8.949219 -20.089844 8.929688 -20.269531 C 8.828125 -21.246094 8.730469 -22.15625 8.625 -23.132812 C 8.335938 -25.871094 8.425781 -26.1875 8.402344 -26.984375 L 8.328125 -28.269531 C 8.3125 -29.003906 7.902344 -29.394531 7.699219 -29.554688 C 7.234375 -29.875 6.679688 -29.878906 6.195312 -29.828125 L 5.644531 -29.769531 C 4.246094 -29.621094 3.839844 -29.394531 3.285156 -29.394531 L 1.871094 -29.371094 L 0.898438 -29.265625 C -0.0742188 -29.164062 -0.46875 -28.8125 -0.625 -28.550781 C -0.78125 -28.289062 -0.785156 -27.734375 -0.664062 -26.578125 L -0.429688 -24.386719 C -0.269531 -22.867188 -0.113281 -21.40625 0.109375 -19.890625 C 0.441406 -17.339844 0.769531 -14.789062 1.042969 -12.234375 C 1.308594 -9.738281 1.371094 -9.128906 1.429688 -8.582031 Z M -1.394531 -34.070312 C -1.34375 -33.582031 -1.089844 -32.933594 -0.933594 -32.640625 C -0.558594 -32.003906 -0.0078125 -32 1.089844 -32.117188 L 5.652344 -32.601562 C 6.871094 -32.730469 7.128906 -33.1875 7.28125 -33.511719 C 7.382812 -33.707031 7.546875 -33.910156 7.480469 -34.519531 C 7.46875 -34.640625 7.457031 -34.761719 7.441406 -34.882812 C 7.410156 -35.1875 7.273438 -36.464844 7.222656 -36.953125 L 7.039062 -39.273438 C 6.988281 -39.757812 6.882812 -40.179688 6.421875 -40.4375 C 5.898438 -40.75 5.222656 -40.742188 4.734375 -40.6875 L 2.910156 -40.496094 C 1.511719 -40.347656 -0.425781 -40.019531 -1.183594 -39.632812 C -1.652344 -39.398438 -1.910156 -38.9375 -1.71875 -37.113281 Z M -1.394531 -34.070312 "/></g></g></g><g fill="#00876f" fill-opacity="1"><g transform="translate(183.840174, 55.276612)"><g><path d="M 26.621094 -9.527344 C 26.511719 -10.5625 26.195312 -11.824219 24.613281 -11.65625 C 23.882812 -11.578125 23.359375 -11.277344 22.832031 -11.035156 C 20.960938 -10.097656 20.367188 -9.914062 19.945312 -9.804688 C 19.589844 -9.707031 19.285156 -9.675781 18.917969 -9.636719 C 18.433594 -9.585938 17.957031 -9.410156 17.472656 -9.359375 C 16.199219 -9.164062 13.523438 -8.878906 11.867188 -9.382812 C 10.472656 -9.785156 9.109375 -10.441406 9.019531 -11.292969 C 8.988281 -11.597656 9.027344 -11.789062 9.191406 -11.988281 C 9.574219 -12.460938 10.167969 -12.648438 10.777344 -12.710938 L 11.507812 -12.789062 C 12.238281 -12.867188 12.914062 -12.875 13.644531 -12.953125 C 14.679688 -13.0625 15.707031 -13.234375 16.742188 -13.34375 C 17.53125 -13.425781 18.390625 -13.457031 19.183594 -13.539062 C 19.546875 -13.578125 19.964844 -13.6875 20.332031 -13.722656 C 21.542969 -13.914062 22.710938 -13.914062 23.921875 -14.105469 C 24.289062 -14.144531 24.828125 -14.261719 25.386719 -14.8125 C 26.105469 -15.566406 26.160156 -16.804688 26.03125 -18.019531 C 25.890625 -19.359375 25.664062 -20.320312 25.058594 -21.980469 C 24.105469 -24.585938 22.621094 -27.566406 18.640625 -29.667969 C 17.273438 -30.386719 15.039062 -31.132812 11.207031 -30.726562 C 7.128906 -30.296875 2.835938 -28.425781 0.449219 -23.066406 C -1 -19.894531 -1.050781 -16.875 -0.734375 -13.890625 C -0.230469 -9.144531 2.019531 -6.492188 2.921875 -5.539062 C 5.421875 -2.851562 7.9375 -1.765625 9.765625 -1.34375 C 11.84375 -0.886719 15.394531 -1.078125 17.464844 -1.296875 C 18.925781 -1.453125 21.527344 -1.851562 24.046875 -3.039062 C 25.042969 -3.515625 26.5625 -4.292969 26.816406 -5.363281 C 26.949219 -5.871094 26.816406 -7.703125 26.769531 -8.128906 Z M 13.878906 -19.441406 C 11.578125 -19.074219 8.09375 -18.273438 7.90625 -20.039062 C 7.824219 -20.832031 8.257812 -21.367188 8.53125 -21.707031 C 9.300781 -22.585938 9.953125 -23.394531 11.898438 -23.601562 C 12.691406 -23.683594 13.921875 -23.691406 15.179688 -22.839844 C 16.445312 -21.929688 16.597656 -21.082031 16.625 -20.839844 C 16.644531 -20.65625 16.628906 -20.226562 16.167969 -19.929688 C 15.9375 -19.78125 15.632812 -19.75 15.03125 -19.625 Z M 13.878906 -19.441406 "/></g></g></g></g></g></svg>