<svg xmlns="http://www.w3.org/2000/svg" xmlns:xlink="http://www.w3.org/1999/xlink" width="500" zoomAndPan="magnify" viewBox="0 0 375 374.999991" height="500" preserveAspectRatio="xMidYMid meet" version="1.0"><defs><g/><clipPath id="e05b92f518"><path d="M 2.574219 2.574219 L 372.425781 2.574219 L 372.425781 372.425781 L 2.574219 372.425781 Z M 2.574219 2.574219 " clip-rule="nonzero"/></clipPath><clipPath id="6083d55870"><path d="M 187.5 2.574219 C 85.367188 2.574219 2.574219 85.367188 2.574219 187.5 C 2.574219 289.632812 85.367188 372.425781 187.5 372.425781 C 289.632812 372.425781 372.425781 289.632812 372.425781 187.5 C 372.425781 85.367188 289.632812 2.574219 187.5 2.574219 Z M 187.5 2.574219 " clip-rule="nonzero"/></clipPath><clipPath id="738f97d0b4"><path d="M 0.574219 0.574219 L 370.425781 0.574219 L 370.425781 370.425781 L 0.574219 370.425781 Z M 0.574219 0.574219 " clip-rule="nonzero"/></clipPath><clipPath id="88b7b079ac"><path d="M 185.5 0.574219 C 83.367188 0.574219 0.574219 83.367188 0.574219 185.5 C 0.574219 287.632812 83.367188 370.425781 185.5 370.425781 C 287.632812 370.425781 370.425781 287.632812 370.425781 185.5 C 370.425781 83.367188 287.632812 0.574219 185.5 0.574219 Z M 185.5 0.574219 " clip-rule="nonzero"/></clipPath><clipPath id="0299f53681"><rect x="0" width="371" y="0" height="371"/></clipPath><clipPath id="c36aa40665"><rect x="0" width="375" y="0" height="375"/></clipPath></defs><g clip-path="url(#e05b92f518)"><g clip-path="url(#6083d55870)"><g transform="matrix(1, 0, 0, 1, 2, 2)"><g clip-path="url(#0299f53681)"><g clip-path="url(#738f97d0b4)"><g clip-path="url(#88b7b079ac)"><path fill="#00876f" d="M 0.574219 0.574219 L 370.425781 0.574219 L 370.425781 370.425781 L 0.574219 370.425781 Z M 0.574219 0.574219 " fill-opacity="1" fill-rule="nonzero"/></g></g></g></g></g></g><g transform="matrix(1, 0, 0, 1, 0, 0)"><g clip-path="url(#c36aa40665)"><g fill="#ffffff" fill-opacity="1"><g transform="translate(93.9742, 323.665023)"><g><path d="M -27.5 -232.058594 C -31.234375 -231.015625 -34.636719 -230.570312 -38.398438 -225.996094 C -42.15625 -221.421875 -41.582031 -217.554688 -34.800781 -193.257812 L -17.378906 -132.644531 C -4.261719 -87.453125 -3.339844 -75.117188 3.128906 -53.753906 L 7.769531 -38.933594 C 8.027344 -38 8.160156 -37.53125 8.421875 -36.597656 C 9.074219 -34.261719 10.191406 -32.054688 10.84375 -29.71875 C 10.972656 -29.253906 11.234375 -28.316406 11.367188 -27.851562 C 12.015625 -25.515625 12.800781 -22.710938 13.453125 -20.375 C 14.625 -16.167969 15.203125 -12.300781 16.429688 -6.097656 C 16.746094 -3.164062 17.398438 -0.828125 18.050781 1.511719 C 19.746094 7.585938 22.503906 13.863281 23.734375 20.070312 L 25.351562 27.675781 C 27.808594 40.085938 34.945312 38.597656 38.683594 37.554688 C 48.03125 34.945312 49.171875 33.617188 52.910156 32.574219 C 54.777344 32.054688 56.90625 32.46875 58.777344 31.945312 L 75.128906 27.382812 C 81.671875 25.554688 83.539062 25.035156 91.300781 20.351562 C 94.308594 18.503906 94.851562 16.839844 94.539062 13.90625 C 94.167969 8.972656 92.582031 6.898438 91.40625 2.691406 L 83.117188 -25.210938 C 81.679688 -30.351562 85.160156 -32.328125 87.496094 -32.980469 C 89.363281 -33.503906 90.894531 -33.425781 92.429688 -33.351562 C 108.8125 -32.382812 103.882812 -32.015625 111.800781 -30.699219 C 117.59375 -29.796875 127.253906 -29.472656 147.8125 -35.210938 C 159.027344 -38.339844 212.574219 -55.804688 222.257812 -123.980469 C 223.648438 -133.433594 225.417969 -150.546875 215.507812 -186.058594 C 209.769531 -206.617188 200.085938 -225.066406 177.417969 -244.929688 C 164.160156 -256.339844 154.988281 -260.328125 144.078125 -263.328125 C 113.011719 -271.78125 95.332031 -268.355469 84.121094 -265.226562 C 71.972656 -261.835938 52.867188 -254.488281 42.730469 -242.089844 C 40.785156 -240.039062 38.820312 -234.453125 33.679688 -233.019531 C 31.808594 -232.496094 29.472656 -231.84375 26.691406 -234.59375 C 24.769531 -236.070312 19.203125 -241.570312 16.945312 -242.449219 C 13.488281 -244.003906 5.414062 -242.253906 -8.003906 -238.003906 Z M 85.5 -197.117188 C 97.183594 -200.378906 114.167969 -199.074219 124.195312 -193.816406 C 136.488281 -187.675781 148.710938 -170.941406 152.363281 -157.859375 C 156.015625 -144.777344 153.894531 -136.125 152.265625 -131.140625 C 145.953125 -112.253906 130 -97.222656 117.386719 -93.703125 C 104.769531 -90.183594 79.941406 -94.332031 68.867188 -103.328125 C 61.640625 -109.371094 57.5 -118.792969 55.414062 -126.269531 C 49.992188 -143.894531 48.9375 -156.695312 56.761719 -171.972656 C 63.238281 -184.859375 73.820312 -193.855469 85.5 -197.117188 Z M 85.5 -197.117188 "/></g></g></g></g></g></svg>