<svg xmlns="http://www.w3.org/2000/svg" width="375" height="375" viewBox="0 0 375 375" fill="none">
  <circle cx="187.5" cy="187.5" r="185" fill="#00876f"/>
  <path d="M 66.474 91.607 C 62.74 92.65 59.338 93.095 55.576 97.669 C 51.818 102.244 52.392 106.111 59.174 130.408 L 76.595 191.021 C 89.712 236.212 90.635 248.548 84.166 269.912 L 79.525 284.732 C 79.267 285.666 79.134 286.135 78.873 287.069 C 78.22 289.405 77.103 291.612 76.451 293.947 C 76.323 294.413 76.061 295.349 75.927 295.815 C 75.279 298.151 74.494 300.956 73.841 303.291 C 72.669 307.499 72.091 311.366 70.865 317.569 C 70.548 320.502 69.896 322.838 69.244 325.177 C 67.548 331.251 64.791 337.529 63.56 343.736 L 61.942 351.341 C 59.486 363.751 52.349 362.263 48.61 361.22 C 39.263 358.611 38.123 357.283 34.384 356.24 C 32.517 355.72 30.388 356.134 28.517 355.611 L 12.166 351.048 C 5.623 349.22 3.755 348.701 -4.006 344.017 C -7.014 342.169 -7.557 340.505 -7.245 337.572 C -6.873 332.638 -5.288 330.564 -4.112 326.357 L 4.177 298.455 C 5.615 293.314 2.134 291.338 -0.202 290.685 C -2.069 290.162 -3.6 290.24 -5.135 290.315 C -21.518 291.283 -16.588 291.651 -24.506 292.967 C -30.299 293.87 -39.959 294.194 -60.518 288.456 C -71.733 285.327 -125.28 267.862 -134.963 199.686 C -136.354 190.233 -138.123 173.12 -128.213 137.608 C -122.475 117.049 -112.791 98.6 -90.123 78.737 C -76.866 67.327 -67.694 63.338 -56.784 60.338 C -25.717 51.885 -8.038 55.311 3.173 58.44 C 15.322 61.831 34.427 69.178 44.564 81.577 C 46.509 83.627 48.474 89.213 53.615 90.647 C 55.486 91.17 57.822 91.822 60.603 89.072 C 62.525 87.596 68.091 82.096 70.349 81.217 C 73.806 79.663 81.88 81.413 95.298 85.663 Z M 1.794 126.549 C -9.889 123.288 -26.873 124.592 -36.901 129.85 C -49.194 135.991 -61.416 152.725 -65.069 165.807 C -68.721 178.889 -66.6 187.541 -64.971 192.526 C -58.659 211.413 -42.706 226.444 -30.092 229.963 C -17.475 233.483 7.353 229.334 18.427 220.338 C 25.654 214.295 29.794 204.874 31.88 197.397 C 37.302 179.772 38.356 166.971 30.533 151.694 C 24.056 138.807 13.474 129.811 1.794 126.549 Z M 1.794 126.549" fill="#ffffff"/>
</svg>