<?xml version="1.0" encoding="UTF-8"?>
<svg id="Layer_2" data-name="Layer 2" xmlns="http://www.w3.org/2000/svg" viewBox="0 0 493.14 493.14">
  <defs>
    <style>
      .cls-1 {
        fill: #00876f;
      }

      .cls-2 {
        fill: #fff;
      }
    </style>
  </defs>
  <g id="Layer_1-2" data-name="Layer 1">
    <g>
      <path class="cls-1" d="M287.46,169.7c-13.37-7.01-36.02-8.75-51.59-4.4-15.57,4.35-29.68,16.34-38.32,33.53-10.43,20.37-9.03,37.44-1.8,60.94,2.78,9.97,8.3,22.53,17.94,30.59,14.77,11.99,47.87,17.53,64.69,12.83,16.82-4.69,38.09-24.73,46.51-49.92,2.17-6.65,5-18.18.13-35.62-4.87-17.44-21.17-39.76-37.56-47.94Z"/>
      <path class="cls-1" d="M246.57,0C110.39,0,0,110.39,0,246.57c0,4.26.11,8.49.32,12.69,6.6,130.28,114.33,233.88,246.25,233.88s239.64-103.6,246.25-233.88c.21-4.2.32-8.43.32-12.69C493.14,110.39,382.74,0,246.57,0ZM418.21,262.81c-12.91,90.9-84.31,114.19-99.26,118.36-27.41,7.65-40.29,7.22-48.02,6.02-10.56-1.76-3.98-2.24-25.83-3.54-2.05-.1-4.09-.2-6.58.49-3.11.87-7.76,3.51-5.84,10.36l11.05,37.2c1.57,5.61,3.68,8.38,4.18,14.95.42,3.91-.31,6.13-4.32,8.59-10.35,6.24-12.84,6.94-21.56,9.38l-21.8,6.08c-2.49.7-5.33.15-7.82.84-4.98,1.39-6.51,3.16-18.97,6.64-4.98,1.39-14.5,3.38-17.78-13.17l-2.16-10.14c-1.64-8.28-5.32-16.65-7.58-24.74-.87-3.12-1.74-6.23-2.16-10.15-1.64-8.27-2.41-13.43-3.97-19.04-.87-3.11-1.92-6.85-2.78-9.97-.18-.62-.53-1.87-.7-2.49-.87-3.11-2.36-6.06-3.23-9.17-.35-1.24-.53-1.87-.87-3.11l-6.19-19.76c-8.62-28.48-9.85-44.93-27.34-105.19l-23.23-80.82c-9.04-32.4-9.81-37.55-4.8-43.65,5.02-6.1,9.55-6.69,14.53-8.08l25.99-7.93c17.89-5.67,28.66-8,33.27-5.93,3.01,1.17,10.43,8.51,12.99,10.47,3.71,3.67,6.82,2.8,9.32,2.1,6.85-1.91,9.47-9.36,12.07-12.09,13.52-16.53,38.99-26.33,55.19-30.85,14.95-4.17,38.52-8.74,79.94,2.53,14.55,4,26.78,9.32,44.45,24.53,30.22,26.48,43.14,51.08,50.79,78.49,13.21,47.35,10.85,70.17,9,82.77Z"/>
      <path class="cls-2" d="M358.42,101.55c-17.68-15.21-29.91-20.53-44.45-24.53-41.42-11.27-64.99-6.7-79.94-2.53-16.2,4.52-41.67,14.32-55.19,30.85-2.59,2.73-5.21,10.18-12.07,12.09-2.49.7-5.61,1.57-9.32-2.1-2.56-1.97-9.98-9.3-12.99-10.47-4.61-2.07-15.38.26-33.27,5.93l-25.99,7.93c-4.98,1.39-9.52,1.98-14.53,8.08-5.01,6.1-4.24,11.26,4.8,43.65l23.23,80.82c17.49,60.26,18.72,76.7,27.34,105.19l6.19,19.76c.34,1.24.52,1.87.87,3.11.87,3.11,2.36,6.06,3.23,9.17.17.62.52,1.87.7,2.49.86,3.11,1.91,6.85,2.78,9.97,1.56,5.61,2.33,10.77,3.97,19.04.42,3.91,1.29,7.03,2.16,10.15,2.26,8.1,5.94,16.47,7.58,24.74l2.16,10.14c3.28,16.55,12.79,14.56,17.78,13.17,12.46-3.48,13.98-5.25,18.97-6.64,2.49-.69,5.33-.14,7.82-.84l21.8-6.08c8.72-2.44,11.21-3.13,21.56-9.38,4.01-2.46,4.73-4.68,4.32-8.59-.49-6.58-2.61-9.34-4.18-14.95l-11.05-37.2c-1.92-6.85,2.72-9.49,5.84-10.36,2.49-.7,4.53-.59,6.58-.49,21.84,1.29,15.27,1.78,25.83,3.54,7.72,1.2,20.6,1.64,48.02-6.02,14.95-4.17,86.35-27.46,99.26-118.36,1.85-12.6,4.21-35.42-9-82.77-7.65-27.41-20.56-52.01-50.79-78.49ZM324.89,253.27c-8.42,25.18-29.69,45.22-46.51,49.92-16.82,4.69-49.93-.84-64.69-12.83-9.64-8.06-15.16-20.62-17.94-30.59-7.23-23.5-8.64-40.57,1.8-60.94,8.64-17.18,22.74-29.18,38.32-33.53,15.58-4.35,38.22-2.61,51.59,4.4,16.39,8.19,32.69,30.5,37.56,47.94,4.87,17.44,2.04,28.98-.13,35.62Z"/>
    </g>
  </g>
</svg>