<svg xmlns="http://www.w3.org/2000/svg" xmlns:xlink="http://www.w3.org/1999/xlink" width="500" zoomAndPan="magnify" viewBox="0 0 375 374.999991" height="500" preserveAspectRatio="xMidYMid meet" version="1.0"><defs><g/><clipPath id="7cf5ba84c6"><path d="M 2.574219 2.574219 L 372.425781 2.574219 L 372.425781 372.425781 L 2.574219 372.425781 Z M 2.574219 2.574219 " clip-rule="nonzero"/></clipPath><clipPath id="c253263e0c"><path d="M 187.5 2.574219 C 85.367188 2.574219 2.574219 85.367188 2.574219 187.5 C 2.574219 289.632812 85.367188 372.425781 187.5 372.425781 C 289.632812 372.425781 372.425781 289.632812 372.425781 187.5 C 372.425781 85.367188 289.632812 2.574219 187.5 2.574219 Z M 187.5 2.574219 " clip-rule="nonzero"/></clipPath><clipPath id="116fd446f9"><path d="M 0.574219 0.574219 L 370.425781 0.574219 L 370.425781 370.425781 L 0.574219 370.425781 Z M 0.574219 0.574219 " clip-rule="nonzero"/></clipPath><clipPath id="80f32fecb5"><path d="M 185.5 0.574219 C 83.367188 0.574219 0.574219 83.367188 0.574219 185.5 C 0.574219 287.632812 83.367188 370.425781 185.5 370.425781 C 287.632812 370.425781 370.425781 287.632812 370.425781 185.5 C 370.425781 83.367188 287.632812 0.574219 185.5 0.574219 Z M 185.5 0.574219 " clip-rule="nonzero"/></clipPath><clipPath id="479c22cc66"><rect x="0" width="371" y="0" height="371"/></clipPath><clipPath id="bab53386d7"><rect x="0" width="196" y="0" height="196"/></clipPath><clipPath id="a6ea192541"><path d="M 84 92 L 340 92 L 340 305 L 84 305 Z M 84 92 " clip-rule="nonzero"/></clipPath><clipPath id="b188115aa7"><path d="M 110.753906 56.082031 L 361.796875 100.839844 L 319.539062 337.851562 L 68.496094 293.09375 Z M 110.753906 56.082031 " clip-rule="nonzero"/></clipPath><clipPath id="e36645edbd"><path d="M 110.753906 56.082031 L 361.796875 100.839844 L 319.539062 337.851562 L 68.496094 293.09375 Z M 110.753906 56.082031 " clip-rule="nonzero"/></clipPath></defs><g clip-path="url(#7cf5ba84c6)"><g clip-path="url(#c253263e0c)"><g transform="matrix(1, 0, 0, 1, 2, 2)"><g clip-path="url(#479c22cc66)"><g clip-path="url(#116fd446f9)"><g clip-path="url(#80f32fecb5)"><path fill="#00876f" d="M 0.574219 0.574219 L 370.425781 0.574219 L 370.425781 370.425781 L 0.574219 370.425781 Z M 0.574219 0.574219 " fill-opacity="1" fill-rule="nonzero"/></g></g></g></g></g></g><g transform="matrix(1, 0, 0, 1, 15, 25)"><g clip-path="url(#bab53386d7)"><g fill="#ffffff" fill-opacity="1"><g transform="translate(39.503519, 183.192809)"><g><path d="M -17.398438 -23.800781 C -17.742188 -23.453125 -18.089844 -23.195312 -18.21875 -22.460938 C -18.347656 -21.722656 -18.046875 -21.335938 -15.796875 -19.085938 L -10.125 -13.5 C -5.886719 -9.347656 -5.019531 -8.050781 -2.984375 -6.101562 L -1.558594 -4.761719 C -1.472656 -4.671875 -1.429688 -4.628906 -1.339844 -4.542969 C -1.125 -4.328125 -0.867188 -4.15625 -0.648438 -3.9375 C -0.605469 -3.894531 -0.519531 -3.808594 -0.476562 -3.765625 C -0.257812 -3.546875 0 -3.289062 0.214844 -3.074219 C 0.605469 -2.683594 0.910156 -2.292969 1.429688 -1.6875 C 1.644531 -1.386719 1.859375 -1.167969 2.078125 -0.953125 C 2.640625 -0.390625 3.332031 0.128906 3.851562 0.734375 L 4.5 1.472656 C 5.539062 2.683594 6.230469 2.078125 6.578125 1.730469 C 7.441406 0.867188 7.488281 0.648438 7.832031 0.304688 C 8.007812 0.128906 8.265625 0.0429688 8.4375 -0.128906 L 9.953125 -1.644531 C 10.558594 -2.25 10.730469 -2.421875 11.292969 -3.417969 C 11.511719 -3.808594 11.46875 -4.023438 11.25 -4.328125 C 10.90625 -4.847656 10.601562 -4.976562 10.214844 -5.367188 L 7.574219 -7.917969 C 7.097656 -8.394531 7.355469 -8.828125 7.574219 -9.042969 C 7.746094 -9.21875 7.917969 -9.304688 8.09375 -9.390625 C 9.953125 -10.300781 9.433594 -9.953125 10.386719 -10.300781 C 11.078125 -10.558594 12.160156 -11.121094 14.0625 -13.027344 C 15.101562 -14.0625 19.90625 -19.300781 16.746094 -27.394531 C 16.316406 -28.519531 15.449219 -30.507812 12.160156 -33.796875 C 10.257812 -35.703125 8.050781 -37.128906 4.328125 -37.910156 C 2.164062 -38.339844 0.910156 -38.210938 -0.476562 -37.867188 C -4.414062 -36.871094 -6.144531 -35.398438 -7.183594 -34.359375 C -8.308594 -33.234375 -9.953125 -31.246094 -10.300781 -29.253906 C -10.386719 -28.90625 -10.257812 -28.171875 -10.730469 -27.695312 C -10.90625 -27.523438 -11.121094 -27.304688 -11.597656 -27.4375 C -11.902344 -27.480469 -12.851562 -27.738281 -13.15625 -27.695312 C -13.632812 -27.652344 -14.410156 -26.960938 -15.621094 -25.660156 Z M -2.8125 -26.960938 C -1.730469 -28.042969 0.214844 -28.949219 1.644531 -28.996094 C 3.375 -29.082031 5.753906 -28 6.96875 -26.789062 C 8.179688 -25.574219 8.480469 -24.492188 8.613281 -23.84375 C 9.085938 -21.378906 8.265625 -18.738281 7.097656 -17.570312 C 5.929688 -16.402344 2.941406 -15.320312 1.167969 -15.621094 C 0 -15.839844 -1.039062 -16.617188 -1.730469 -17.308594 C -3.417969 -18.910156 -4.328125 -20.253906 -4.414062 -22.417969 C -4.5 -24.234375 -3.894531 -25.878906 -2.8125 -26.960938 Z M -2.8125 -26.960938 "/></g></g></g><g fill="#ffffff" fill-opacity="1"><g transform="translate(62.999885, 159.696443)"><g><path d="M -16.359375 -24.582031 C -16.402344 -24.535156 -16.488281 -24.449219 -16.964844 -23.972656 C -17.570312 -23.367188 -17.960938 -22.890625 -17.914062 -22.417969 C -17.914062 -21.378906 -17.09375 -20.640625 -16.789062 -20.339844 L -14.453125 -18.089844 C -11.902344 -15.621094 -11.640625 -15.191406 -9.085938 -12.550781 L -5.496094 -8.785156 L -3.636719 -7.011719 C -2.640625 -6.101562 -2.511719 -5.886719 -2.378906 -5.753906 L -1.730469 -4.933594 C -1.167969 -4.199219 -0.605469 -3.636719 -0.257812 -3.289062 C 0.519531 -2.511719 1.125 -2.25 1.515625 -2.207031 C 2.207031 -2.121094 2.855469 -2.683594 3.289062 -3.117188 C 4.109375 -3.9375 3.417969 -3.332031 4.671875 -4.585938 L 6.449219 -6.363281 C 7.011719 -6.925781 7.097656 -7.441406 7.140625 -7.660156 C 7.3125 -8.785156 6.535156 -9.132812 4.242188 -11.425781 L 1.859375 -13.804688 C 0.734375 -14.929688 1.515625 -13.890625 -0.433594 -15.839844 C -1.859375 -17.265625 -2.597656 -18.953125 -2.683594 -20.167969 C -2.8125 -21.507812 -2.121094 -23.84375 -0.953125 -25.1875 L -0.476562 -25.75 C -0.257812 -25.964844 -0.0429688 -26.527344 0 -26.917969 C 0 -27.003906 0 -27.695312 -0.820312 -28.519531 L -3.203125 -30.898438 C -3.332031 -31.027344 -3.460938 -31.15625 -3.546875 -31.246094 C -3.808594 -31.503906 -4.023438 -31.808594 -4.285156 -32.066406 C -4.542969 -32.328125 -4.71875 -32.585938 -4.976562 -32.847656 C -5.367188 -33.234375 -5.972656 -33.753906 -6.621094 -33.796875 C -7.355469 -33.839844 -7.960938 -33.234375 -8.265625 -32.933594 C -9.347656 -31.851562 -9.695312 -30.898438 -9.738281 -30.164062 L -9.996094 -27.566406 C -10.039062 -27.003906 -10.125 -26.742188 -10.300781 -26.570312 C -10.601562 -26.269531 -10.949219 -26.527344 -10.992188 -26.570312 L -11.683594 -27.175781 C -11.945312 -27.4375 -12.160156 -27.738281 -12.421875 -27.824219 C -12.808594 -27.957031 -13.070312 -27.78125 -13.242188 -27.609375 C -13.328125 -27.523438 -13.414062 -27.4375 -13.5 -27.351562 C -13.804688 -27.046875 -14.019531 -26.742188 -14.324219 -26.441406 C -14.453125 -26.3125 -15.058594 -25.707031 -15.191406 -25.574219 Z M -16.359375 -24.582031 "/></g></g></g><g fill="#ffffff" fill-opacity="1"><g transform="translate(76.933283, 145.763045)"><g><path d="M 14.714844 -24.148438 C 13.976562 -24.882812 12.9375 -25.660156 11.8125 -24.535156 C 11.292969 -24.019531 11.078125 -23.453125 10.820312 -22.9375 C 9.953125 -21.03125 9.605469 -20.511719 9.347656 -20.167969 C 9.132812 -19.863281 8.914062 -19.648438 8.65625 -19.386719 C 8.308594 -19.039062 8.050781 -18.609375 7.703125 -18.261719 C 6.835938 -17.308594 4.933594 -15.40625 3.332031 -14.757812 C 1.992188 -14.195312 0.519531 -13.847656 -0.0859375 -14.453125 C -0.304688 -14.671875 -0.390625 -14.84375 -0.390625 -15.101562 C -0.390625 -15.707031 -0.0429688 -16.226562 0.390625 -16.660156 L 0.910156 -17.179688 C 1.429688 -17.699219 1.949219 -18.132812 2.464844 -18.652344 C 3.203125 -19.386719 3.894531 -20.167969 4.628906 -20.902344 C 5.191406 -21.464844 5.84375 -22.027344 6.40625 -22.589844 C 6.664062 -22.847656 6.925781 -23.195312 7.183594 -23.453125 C 8.007812 -24.363281 8.914062 -25.097656 9.738281 -26.007812 C 9.996094 -26.269531 10.34375 -26.699219 10.429688 -27.480469 C 10.515625 -28.519531 9.78125 -29.511719 8.914062 -30.378906 C 7.960938 -31.332031 7.183594 -31.9375 5.667969 -32.847656 C 3.289062 -34.273438 0.257812 -35.660156 -4.15625 -34.792969 C -5.667969 -34.488281 -7.875 -33.667969 -10.601562 -30.941406 C -13.5 -28.042969 -15.664062 -23.886719 -14.152344 -18.21875 C -13.285156 -14.84375 -11.425781 -12.464844 -9.304688 -10.34375 C -5.929688 -6.96875 -2.511719 -6.316406 -1.210938 -6.144531 C 2.421875 -5.625 5.0625 -6.363281 6.75 -7.183594 C 8.65625 -8.136719 11.292969 -10.515625 12.765625 -11.988281 C 13.804688 -13.027344 15.578125 -14.972656 16.789062 -17.484375 C 17.265625 -18.476562 17.960938 -20.035156 17.484375 -21.03125 C 17.265625 -21.507812 16.011719 -22.847656 15.707031 -23.152344 Z M -1.429688 -23.84375 C -2.984375 -22.113281 -5.191406 -19.300781 -6.449219 -20.554688 C -7.011719 -21.117188 -7.011719 -21.8125 -7.011719 -22.242188 C -6.96875 -23.410156 -6.96875 -24.449219 -5.582031 -25.835938 C -5.019531 -26.398438 -4.066406 -27.175781 -2.554688 -27.304688 C -0.996094 -27.394531 -0.347656 -26.832031 -0.171875 -26.65625 C -0.0429688 -26.527344 0.214844 -26.179688 0.0429688 -25.660156 C -0.0429688 -25.402344 -0.257812 -25.1875 -0.648438 -24.710938 Z M -1.429688 -23.84375 "/></g></g></g><g fill="#ffffff" fill-opacity="1"><g transform="translate(97.054473, 125.641855)"><g><path d="M -4.71875 -6.363281 C -4.71875 -6.101562 -4.242188 -5.453125 -3.894531 -5.105469 C -3.679688 -4.890625 -3.460938 -4.671875 -3.246094 -4.457031 C -3.074219 -4.285156 -2.984375 -4.109375 -2.8125 -3.9375 L -1.949219 -2.898438 C -1.039062 -1.816406 -0.128906 -1.6875 0.0859375 -1.644531 C 0.734375 -1.515625 1.429688 -1.515625 2.769531 -2.335938 C 4.285156 -3.246094 5.84375 -4.804688 7.3125 -6.273438 C 8.828125 -7.789062 10.992188 -9.953125 11.8125 -12.851562 C 12.722656 -16.097656 11.554688 -19.34375 9.390625 -21.507812 C 7.398438 -23.5 5.582031 -23.929688 3.722656 -24.0625 C 1.210938 -24.234375 0 -23.714844 -1.816406 -23.109375 C -5.800781 -21.722656 -5.972656 -22.070312 -6.40625 -22.417969 C -6.449219 -22.460938 -6.492188 -22.503906 -6.535156 -22.546875 C -6.621094 -22.71875 -6.707031 -22.980469 -6.535156 -23.410156 C -6.363281 -24.019531 -5.972656 -24.667969 -4.890625 -25.488281 L -2.335938 -27.4375 C -1.730469 -27.867188 -1.644531 -28.042969 -1.601562 -28.519531 C -1.558594 -28.820312 -1.601562 -28.949219 -1.730469 -29.167969 C -2.078125 -29.773438 -3.117188 -30.8125 -3.679688 -31.375 L -5.0625 -32.847656 C -5.800781 -33.667969 -7.355469 -33.148438 -8.613281 -32.414062 C -9.21875 -32.066406 -10.167969 -31.375 -12.03125 -29.511719 C -16.832031 -24.710938 -16.921875 -21.855469 -16.746094 -20.210938 C -16.660156 -18.996094 -16.269531 -17.570312 -14.671875 -15.96875 C -11.726562 -13.027344 -8.4375 -13.457031 -7.097656 -13.675781 C -6.058594 -13.847656 -5.410156 -14.0625 -4.285156 -14.496094 C -3.160156 -14.929688 -2.421875 -15.320312 -1.515625 -15.621094 C -0.734375 -15.882812 0.519531 -16.269531 1.429688 -15.363281 C 2.8125 -13.976562 1.339844 -12.507812 0.820312 -11.988281 C 0.0859375 -11.25 -0.648438 -10.601562 -1.730469 -9.867188 C -2.335938 -9.433594 -3.074219 -9.042969 -3.808594 -8.308594 C -4.542969 -7.574219 -4.71875 -6.96875 -4.71875 -6.449219 Z M -4.71875 -6.363281 "/></g></g></g><g fill="#ffffff" fill-opacity="1"><g transform="translate(112.978347, 109.717981)"><g><path d="M 14.714844 -24.148438 C 13.976562 -24.882812 12.9375 -25.660156 11.8125 -24.535156 C 11.292969 -24.019531 11.078125 -23.453125 10.820312 -22.9375 C 9.953125 -21.03125 9.605469 -20.511719 9.347656 -20.167969 C 9.132812 -19.863281 8.914062 -19.648438 8.65625 -19.386719 C 8.308594 -19.039062 8.050781 -18.609375 7.703125 -18.261719 C 6.835938 -17.308594 4.933594 -15.40625 3.332031 -14.757812 C 1.992188 -14.195312 0.519531 -13.847656 -0.0859375 -14.453125 C -0.304688 -14.671875 -0.390625 -14.84375 -0.390625 -15.101562 C -0.390625 -15.707031 -0.0429688 -16.226562 0.390625 -16.660156 L 0.910156 -17.179688 C 1.429688 -17.699219 1.949219 -18.132812 2.464844 -18.652344 C 3.203125 -19.386719 3.894531 -20.167969 4.628906 -20.902344 C 5.191406 -21.464844 5.84375 -22.027344 6.40625 -22.589844 C 6.664062 -22.847656 6.925781 -23.195312 7.183594 -23.453125 C 8.007812 -24.363281 8.914062 -25.097656 9.738281 -26.007812 C 9.996094 -26.269531 10.34375 -26.699219 10.429688 -27.480469 C 10.515625 -28.519531 9.78125 -29.511719 8.914062 -30.378906 C 7.960938 -31.332031 7.183594 -31.9375 5.667969 -32.847656 C 3.289062 -34.273438 0.257812 -35.660156 -4.15625 -34.792969 C -5.667969 -34.488281 -7.875 -33.667969 -10.601562 -30.941406 C -13.5 -28.042969 -15.664062 -23.886719 -14.152344 -18.21875 C -13.285156 -14.84375 -11.425781 -12.464844 -9.304688 -10.34375 C -5.929688 -6.96875 -2.511719 -6.316406 -1.210938 -6.144531 C 2.421875 -5.625 5.0625 -6.363281 6.75 -7.183594 C 8.65625 -8.136719 11.292969 -10.515625 12.765625 -11.988281 C 13.804688 -13.027344 15.578125 -14.972656 16.789062 -17.484375 C 17.265625 -18.476562 17.960938 -20.035156 17.484375 -21.03125 C 17.265625 -21.507812 16.011719 -22.847656 15.707031 -23.152344 Z M -1.429688 -23.84375 C -2.984375 -22.113281 -5.191406 -19.300781 -6.449219 -20.554688 C -7.011719 -21.117188 -7.011719 -21.8125 -7.011719 -22.242188 C -6.96875 -23.410156 -6.96875 -24.449219 -5.582031 -25.835938 C -5.019531 -26.398438 -4.066406 -27.175781 -2.554688 -27.304688 C -0.996094 -27.394531 -0.347656 -26.832031 -0.171875 -26.65625 C -0.0429688 -26.527344 0.214844 -26.179688 0.0429688 -25.660156 C -0.0429688 -25.402344 -0.257812 -25.1875 -0.648438 -24.710938 Z M -1.429688 -23.84375 "/></g></g></g><g fill="#ffffff" fill-opacity="1"><g transform="translate(133.099537, 89.596791)"><g><path d="M 7.355469 -7.097656 C 8.222656 -7.960938 9.175781 -8.828125 9.390625 -10.34375 C 9.476562 -10.863281 9.519531 -11.511719 8.742188 -12.289062 C 8.523438 -12.507812 8.265625 -12.765625 8.007812 -12.9375 C 7.53125 -13.328125 7.140625 -13.71875 6.707031 -14.152344 L 5.625 -15.320312 C 5.410156 -15.535156 4.976562 -15.707031 4.671875 -15.753906 C 4.457031 -15.796875 4.066406 -15.839844 3.59375 -15.449219 L 3.246094 -15.191406 C 2.984375 -15.015625 2.554688 -14.671875 2.035156 -14.671875 C 1.386719 -14.625 0.953125 -15.058594 -1.515625 -17.527344 L -3.894531 -19.90625 C -5.582031 -21.59375 -6.621094 -22.804688 -5.453125 -24.320312 L -4.671875 -25.359375 C -4.585938 -25.445312 -4.371094 -25.835938 -4.542969 -26.269531 C -4.671875 -26.570312 -6.058594 -28.128906 -6.230469 -28.300781 L -6.75 -28.820312 C -7.832031 -29.902344 -8.09375 -30.507812 -9.175781 -30.640625 C -9.738281 -30.683594 -9.996094 -30.59375 -10.558594 -30.03125 L -11.207031 -29.382812 C -11.511719 -29.082031 -12.074219 -28.519531 -12.679688 -29.125 L -15.492188 -31.9375 C -15.839844 -32.28125 -16.183594 -32.800781 -16.964844 -32.890625 C -17.65625 -32.976562 -17.914062 -32.628906 -18.21875 -32.328125 L -21.421875 -29.382812 C -22.113281 -28.777344 -22.460938 -28.085938 -22.546875 -27.652344 C -22.675781 -27.261719 -22.632812 -26.699219 -22.375 -26.441406 L -18.566406 -22.890625 C -18.347656 -22.675781 -18.433594 -22.503906 -18.523438 -22.417969 L -18.824219 -22.027344 C -19.300781 -21.378906 -19.386719 -21.378906 -19.429688 -20.816406 C -19.429688 -20.554688 -19.429688 -20.121094 -18.910156 -19.605469 L -16.53125 -17.398438 L -15.882812 -16.660156 C -15.535156 -16.226562 -14.84375 -15.796875 -14.238281 -15.96875 C -13.71875 -16.140625 -13.632812 -16.488281 -13.113281 -16.402344 C -12.636719 -16.359375 -12.246094 -16.140625 -10.386719 -14.195312 L -4.109375 -7.746094 C -2.035156 -5.582031 -0.304688 -4.890625 0.519531 -4.585938 C 1.339844 -4.285156 2.726562 -3.851562 4.109375 -4.371094 C 5.234375 -4.804688 6.058594 -5.800781 6.792969 -6.535156 Z M 7.355469 -7.097656 "/></g></g></g><g fill="#ffffff" fill-opacity="1"><g transform="translate(144.782818, 77.913511)"><g><path d="M -1.253906 -11.46875 C -1.386719 -11.339844 -1.773438 -10.949219 -2.464844 -10.167969 L -4.023438 -8.613281 C -4.199219 -8.4375 -4.285156 -8.265625 -4.328125 -8.050781 C -4.285156 -7.660156 -3.9375 -7.140625 -3.246094 -6.449219 L -2.164062 -5.367188 L -0.519531 -3.808594 L 0.519531 -2.683594 C 1.125 -2.078125 1.730469 -1.992188 2.378906 -2.378906 C 2.511719 -2.511719 3.417969 -3.417969 5.105469 -5.019531 L 7.140625 -7.054688 C 7.574219 -7.488281 7.703125 -7.875 7.617188 -8.222656 C 7.488281 -8.613281 5.84375 -10.34375 2.683594 -13.5 C 2.378906 -13.804688 1.949219 -13.890625 1.386719 -13.761719 C 1.167969 -13.71875 0.691406 -13.328125 0.0429688 -12.679688 C -0.0429688 -12.59375 -0.214844 -12.421875 -0.5625 -12.160156 Z M -1.253906 -11.46875 "/></g></g></g><g fill="#ffffff" fill-opacity="1"><g transform="translate(154.432343, 68.263985)"><g><path d="M -1.039062 -4.15625 C -0.390625 -3.503906 0.777344 -2.164062 1.515625 -2.121094 C 1.644531 -2.078125 2.121094 -2.121094 2.984375 -2.984375 L 3.765625 -3.765625 L 4.542969 -4.628906 L 6.535156 -6.535156 C 7.441406 -7.441406 7.355469 -8.050781 7.226562 -8.351562 C 7.011719 -8.914062 6.449219 -9.648438 4.285156 -11.8125 C 4.199219 -11.902344 4.109375 -11.988281 4.023438 -12.074219 C 3.980469 -12.117188 3.894531 -12.203125 3.851562 -12.246094 C 1.859375 -14.238281 2.511719 -13.328125 1.167969 -14.671875 L -1.296875 -17.136719 C -2.335938 -18.175781 -3.332031 -18.910156 -4.804688 -20.382812 C -5.019531 -20.597656 -5.234375 -20.816406 -5.453125 -21.03125 C -5.582031 -21.160156 -5.667969 -21.246094 -5.800781 -21.378906 C -6.492188 -22.070312 -7.140625 -22.71875 -7.832031 -23.410156 C -9.78125 -25.359375 -9.910156 -25.660156 -10.429688 -26.269531 L -11.292969 -27.21875 C -11.769531 -27.78125 -12.332031 -27.824219 -12.59375 -27.824219 C -13.15625 -27.78125 -13.589844 -27.4375 -13.933594 -27.089844 L -14.324219 -26.699219 C -15.320312 -25.707031 -15.492188 -25.273438 -15.925781 -24.925781 L -17.007812 -24.019531 L -17.699219 -23.324219 C -18.390625 -22.632812 -18.476562 -22.113281 -18.433594 -21.8125 C -18.390625 -21.507812 -18.046875 -21.074219 -17.222656 -20.253906 L -15.664062 -18.695312 C -14.582031 -17.613281 -13.546875 -16.574219 -12.421875 -15.535156 C -10.558594 -13.761719 -8.699219 -11.988281 -6.878906 -10.167969 C -5.105469 -8.394531 -4.671875 -7.960938 -4.285156 -7.574219 Z M -22.503906 -25.617188 C -22.15625 -25.273438 -21.550781 -24.925781 -21.246094 -24.796875 C -20.554688 -24.535156 -20.121094 -24.882812 -19.34375 -25.660156 L -16.097656 -28.90625 C -15.234375 -29.773438 -15.320312 -30.292969 -15.40625 -30.640625 C -15.449219 -30.855469 -15.449219 -31.113281 -15.882812 -31.546875 C -15.96875 -31.632812 -16.054688 -31.71875 -16.140625 -31.808594 C -16.359375 -32.023438 -17.265625 -32.933594 -17.613281 -33.277344 L -19.214844 -34.964844 C -19.558594 -35.3125 -19.90625 -35.570312 -20.425781 -35.484375 C -21.03125 -35.398438 -21.550781 -34.964844 -21.898438 -34.621094 L -23.195312 -33.320312 C -24.191406 -32.328125 -25.488281 -30.855469 -25.835938 -30.074219 C -26.050781 -29.601562 -25.964844 -29.082031 -24.667969 -27.78125 Z M -22.503906 -25.617188 "/></g></g></g><g fill="#ffffff" fill-opacity="1"><g transform="translate(163.995311, 58.701017)"><g><path d="M 14.714844 -24.148438 C 13.976562 -24.882812 12.9375 -25.660156 11.8125 -24.535156 C 11.292969 -24.019531 11.078125 -23.453125 10.820312 -22.9375 C 9.953125 -21.03125 9.605469 -20.511719 9.347656 -20.167969 C 9.132812 -19.863281 8.914062 -19.648438 8.65625 -19.386719 C 8.308594 -19.039062 8.050781 -18.609375 7.703125 -18.261719 C 6.835938 -17.308594 4.933594 -15.40625 3.332031 -14.757812 C 1.992188 -14.195312 0.519531 -13.847656 -0.0859375 -14.453125 C -0.304688 -14.671875 -0.390625 -14.84375 -0.390625 -15.101562 C -0.390625 -15.707031 -0.0429688 -16.226562 0.390625 -16.660156 L 0.910156 -17.179688 C 1.429688 -17.699219 1.949219 -18.132812 2.464844 -18.652344 C 3.203125 -19.386719 3.894531 -20.167969 4.628906 -20.902344 C 5.191406 -21.464844 5.84375 -22.027344 6.40625 -22.589844 C 6.664062 -22.847656 6.925781 -23.195312 7.183594 -23.453125 C 8.007812 -24.363281 8.914062 -25.097656 9.738281 -26.007812 C 9.996094 -26.269531 10.34375 -26.699219 10.429688 -27.480469 C 10.515625 -28.519531 9.78125 -29.511719 8.914062 -30.378906 C 7.960938 -31.332031 7.183594 -31.9375 5.667969 -32.847656 C 3.289062 -34.273438 0.257812 -35.660156 -4.15625 -34.792969 C -5.667969 -34.488281 -7.875 -33.667969 -10.601562 -30.941406 C -13.5 -28.042969 -15.664062 -23.886719 -14.152344 -18.21875 C -13.285156 -14.84375 -11.425781 -12.464844 -9.304688 -10.34375 C -5.929688 -6.96875 -2.511719 -6.316406 -1.210938 -6.144531 C 2.421875 -5.625 5.0625 -6.363281 6.75 -7.183594 C 8.65625 -8.136719 11.292969 -10.515625 12.765625 -11.988281 C 13.804688 -13.027344 15.578125 -14.972656 16.789062 -17.484375 C 17.265625 -18.476562 17.960938 -20.035156 17.484375 -21.03125 C 17.265625 -21.507812 16.011719 -22.847656 15.707031 -23.152344 Z M -1.429688 -23.84375 C -2.984375 -22.113281 -5.191406 -19.300781 -6.449219 -20.554688 C -7.011719 -21.117188 -7.011719 -21.8125 -7.011719 -22.242188 C -6.96875 -23.410156 -6.96875 -24.449219 -5.582031 -25.835938 C -5.019531 -26.398438 -4.066406 -27.175781 -2.554688 -27.304688 C -0.996094 -27.394531 -0.347656 -26.832031 -0.171875 -26.65625 C -0.0429688 -26.527344 0.214844 -26.179688 0.0429688 -25.660156 C -0.0429688 -25.402344 -0.257812 -25.1875 -0.648438 -24.710938 Z M -1.429688 -23.84375 "/></g></g></g></g></g><g clip-path="url(#a6ea192541)"><g clip-path="url(#b188115aa7)"><g clip-path="url(#e36645edbd)"><path fill="#ffffff" d="M 333.023438 216.261719 L 263.007812 203.78125 C 255.375 202.417969 257.429688 190.894531 265.0625 192.253906 L 335.078125 204.738281 C 342.714844 206.097656 340.660156 217.625 333.023438 216.261719 Z M 107.996094 257.003906 C 100.214844 255.617188 93.757812 250.15625 91.046875 242.835938 L 86.222656 229.042969 C 82.023438 217.589844 87.988281 204.980469 99.4375 200.777344 L 114.222656 195.386719 C 144.480469 179.078125 162.328125 154.019531 181.972656 123.035156 C 181.972656 123.035156 179.855469 108.238281 193.816406 103.296875 C 203.191406 99.914062 213.625 104.746094 217.007812 114.121094 L 265.1875 247.421875 C 269.996094 260.46875 258.679688 273.910156 244.992188 271.472656 C 239.808594 270.546875 235.320312 267.367188 232.699219 262.886719 C 217.355469 258.070312 202.273438 253.449219 187.003906 250.726562 C 178.070312 249.132812 169.613281 248.222656 161.457031 248.105469 C 161.621094 257.203125 156.375 265.777344 147.816406 269.605469 L 152.480469 282.625 C 156.75 294.535156 146.410156 306.664062 133.875 304.429688 C 128.113281 303.402344 123.347656 299.28125 121.339844 293.871094 Z M 123.925781 203.507812 L 136.453125 238.296875 C 168.003906 233.070312 196.46875 239.332031 227.15625 248.96875 L 186.867188 137.285156 C 168.894531 164.703125 151.488281 187.316406 123.925781 203.507812 Z M 113.117188 208.269531 L 103.429688 211.746094 C 98.015625 213.753906 95.15625 219.785156 97.191406 225.050781 L 102.160156 238.871094 C 104.023438 244.257812 110.082031 246.972656 115.46875 245.109375 L 125.179688 241.488281 Z M 242.046875 255.488281 C 243.007812 257.589844 244.023438 259.40625 247.046875 259.945312 C 251.945312 260.820312 255.921875 256.027344 254.21875 251.414062 L 205.898438 118.085938 C 203.121094 110.304688 190.949219 114.378906 193.960938 122.496094 Z M 149.640625 248.523438 C 146.632812 248.730469 143.59375 249.082031 140.535156 249.578125 L 143.824219 258.636719 C 147.480469 256.464844 149.640625 252.6875 149.640625 248.523438 Z M 119.941406 255.863281 L 132.308594 289.878906 C 134.410156 295.605469 143.585938 292.484375 141.511719 286.617188 L 129.171875 252.457031 Z M 246.675781 158.652344 C 242.355469 157.882812 240.320312 152.613281 243.320312 149.132812 L 289.140625 94.722656 C 294.070312 88.765625 302.980469 96.300781 298.054688 102.257812 L 252.234375 156.667969 C 250.746094 158.335938 248.695312 159.011719 246.675781 158.652344 Z M 250.398438 182.800781 C 244.492188 181.75 243.859375 173.609375 249.417969 171.625 L 316.335938 147.289062 C 323.632812 144.722656 327.621094 155.691406 320.300781 158.402344 L 253.40625 182.59375 C 252.464844 182.871094 251.40625 182.980469 250.398438 182.800781 Z M 250.398438 182.800781 " fill-opacity="1" fill-rule="evenodd"/></g></g></g></svg>