<svg xmlns="http://www.w3.org/2000/svg" xmlns:xlink="http://www.w3.org/1999/xlink" width="500" zoomAndPan="magnify" viewBox="0 0 375 374.999991" height="500" preserveAspectRatio="xMidYMid meet" version="1.0"><defs><g/><clipPath id="25513a23f9"><path d="M 2.574219 2.574219 L 372.425781 2.574219 L 372.425781 372.425781 L 2.574219 372.425781 Z M 2.574219 2.574219 " clip-rule="nonzero"/></clipPath><clipPath id="393f6da930"><path d="M 187.5 2.574219 C 85.367188 2.574219 2.574219 85.367188 2.574219 187.5 C 2.574219 289.632812 85.367188 372.425781 187.5 372.425781 C 289.632812 372.425781 372.425781 289.632812 372.425781 187.5 C 372.425781 85.367188 289.632812 2.574219 187.5 2.574219 Z M 187.5 2.574219 " clip-rule="nonzero"/></clipPath><clipPath id="0b1cd4e505"><path d="M 0.574219 0.574219 L 370.425781 0.574219 L 370.425781 370.425781 L 0.574219 370.425781 Z M 0.574219 0.574219 " clip-rule="nonzero"/></clipPath><clipPath id="6d17a0df8d"><path d="M 185.5 0.574219 C 83.367188 0.574219 0.574219 83.367188 0.574219 185.5 C 0.574219 287.632812 83.367188 370.425781 185.5 370.425781 C 287.632812 370.425781 370.425781 287.632812 370.425781 185.5 C 370.425781 83.367188 287.632812 0.574219 185.5 0.574219 Z M 185.5 0.574219 " clip-rule="nonzero"/></clipPath><clipPath id="e0aca1af47"><rect x="0" width="371" y="0" height="371"/></clipPath><clipPath id="cd0f72fbe8"><rect x="0" width="216" y="0" height="89"/></clipPath><clipPath id="8db6a8ae1c"><path d="M 73 148 L 296 148 L 296 299 L 73 299 Z M 73 148 " clip-rule="nonzero"/></clipPath><clipPath id="8840c83946"><path d="M 183.191406 75.070312 L 337.515625 229.394531 L 191.675781 375.234375 L 37.351562 220.910156 Z M 183.191406 75.070312 " clip-rule="nonzero"/></clipPath><clipPath id="4cd34c3c2e"><path d="M 183.191406 75.070312 L 337.515625 229.394531 L 191.675781 375.234375 L 37.351562 220.910156 Z M 183.191406 75.070312 " clip-rule="nonzero"/></clipPath></defs><g clip-path="url(#25513a23f9)"><g clip-path="url(#393f6da930)"><g transform="matrix(1, 0, 0, 1, 2, 2)"><g clip-path="url(#e0aca1af47)"><g clip-path="url(#0b1cd4e505)"><g clip-path="url(#6d17a0df8d)"><path fill="#ffffff" d="M 0.574219 0.574219 L 370.425781 0.574219 L 370.425781 370.425781 L 0.574219 370.425781 Z M 0.574219 0.574219 " fill-opacity="1" fill-rule="nonzero"/></g></g></g></g></g></g><g transform="matrix(1, 0, 0, 1, 57, 64)"><g clip-path="url(#cd0f72fbe8)"><g fill="#00876f" fill-opacity="1"><g transform="translate(8.762266, 73.827553)"><g><path d="M 1.433594 -29.445312 C 0.945312 -29.394531 0.515625 -29.410156 -0.046875 -28.917969 C -0.613281 -28.429688 -0.621094 -27.9375 -0.285156 -24.769531 L 0.613281 -16.867188 C 1.300781 -10.96875 1.15625 -9.414062 1.515625 -6.621094 L 1.78125 -4.679688 C 1.792969 -4.558594 1.800781 -4.5 1.8125 -4.378906 C 1.84375 -4.074219 1.9375 -3.773438 1.972656 -3.46875 C 1.976562 -3.410156 1.988281 -3.289062 1.996094 -3.226562 C 2.027344 -2.921875 2.066406 -2.558594 2.101562 -2.253906 C 2.15625 -1.707031 2.148438 -1.210938 2.171875 -0.414062 C 2.148438 -0.0429688 2.183594 0.261719 2.214844 0.566406 C 2.296875 1.355469 2.507812 2.195312 2.53125 2.992188 L 2.574219 3.972656 C 2.621094 5.570312 3.539062 5.53125 4.027344 5.480469 C 5.246094 5.351562 5.414062 5.210938 5.902344 5.160156 C 6.144531 5.132812 6.402344 5.230469 6.644531 5.203125 L 8.773438 4.976562 C 9.625 4.886719 9.871094 4.863281 10.933594 4.441406 C 11.347656 4.273438 11.449219 4.078125 11.46875 3.707031 C 11.527344 3.085938 11.375 2.796875 11.316406 2.246094 L 10.867188 -1.398438 C 10.796875 -2.066406 11.269531 -2.242188 11.574219 -2.273438 C 11.820312 -2.296875 12.007812 -2.257812 12.195312 -2.214844 C 14.214844 -1.753906 13.59375 -1.808594 14.550781 -1.480469 C 15.253906 -1.246094 16.449219 -1.003906 19.125 -1.289062 C 20.585938 -1.441406 27.613281 -2.496094 30.246094 -10.773438 C 30.617188 -11.921875 31.195312 -14.015625 30.703125 -18.640625 C 30.421875 -21.316406 29.601562 -23.816406 27.199219 -26.761719 C 25.785156 -28.457031 24.730469 -29.144531 23.433594 -29.746094 C 19.746094 -31.449219 17.476562 -31.390625 16.015625 -31.238281 C 14.433594 -31.070312 11.902344 -30.554688 10.382812 -29.226562 C 10.097656 -29.011719 9.734375 -28.355469 9.066406 -28.285156 C 8.820312 -28.257812 8.515625 -28.226562 8.230469 -28.628906 C 8.019531 -28.851562 7.445312 -29.652344 7.179688 -29.808594 C 6.785156 -30.074219 5.742188 -30.027344 3.984375 -29.777344 Z M 14.761719 -22.734375 C 16.28125 -22.894531 18.367188 -22.378906 19.507812 -21.515625 C 20.90625 -20.492188 22.078125 -18.15625 22.257812 -16.453125 C 22.4375 -14.746094 21.996094 -13.714844 21.6875 -13.128906 C 20.507812 -10.910156 18.207031 -9.375 16.566406 -9.203125 C 14.921875 -9.027344 11.917969 -10.0625 10.730469 -11.414062 C 9.957031 -12.316406 9.640625 -13.574219 9.535156 -14.550781 C 9.230469 -16.855469 9.367188 -18.46875 10.660156 -20.207031 C 11.734375 -21.675781 13.238281 -22.574219 14.761719 -22.734375 Z M 14.761719 -22.734375 "/></g></g></g><g fill="#00876f" fill-opacity="1"><g transform="translate(41.806168, 70.326268)"><g><path d="M 2.730469 -29.398438 C 2.671875 -29.394531 2.550781 -29.378906 1.878906 -29.308594 C 1.027344 -29.21875 0.425781 -29.09375 0.160156 -28.695312 C -0.492188 -27.886719 -0.316406 -26.800781 -0.269531 -26.375 L 0.132812 -23.152344 C 0.566406 -19.628906 0.496094 -19.128906 0.820312 -15.472656 L 1.25 -10.285156 L 1.582031 -7.738281 C 1.78125 -6.40625 1.746094 -6.15625 1.765625 -5.972656 L 1.753906 -4.925781 C 1.730469 -4 1.8125 -3.207031 1.867188 -2.722656 C 1.980469 -1.625 2.289062 -1.042969 2.566406 -0.765625 C 3.050781 -0.261719 3.90625 -0.289062 4.515625 -0.355469 C 5.671875 -0.476562 4.753906 -0.441406 6.519531 -0.628906 L 9.011719 -0.894531 C 9.804688 -0.976562 10.199219 -1.328125 10.367188 -1.46875 C 11.210938 -2.234375 10.820312 -2.992188 10.480469 -6.21875 L 10.125 -9.566406 C 9.957031 -11.148438 9.910156 -9.851562 9.621094 -12.589844 C 9.40625 -14.597656 9.898438 -16.371094 10.589844 -17.371094 C 11.332031 -18.496094 13.339844 -19.875 15.09375 -20.183594 L 15.816406 -20.324219 C 16.121094 -20.355469 16.644531 -20.65625 16.921875 -20.933594 C 16.976562 -21 17.410156 -21.539062 17.289062 -22.695312 L 16.933594 -26.042969 C 16.914062 -26.226562 16.894531 -26.40625 16.882812 -26.527344 C 16.84375 -26.894531 16.867188 -27.265625 16.828125 -27.632812 C 16.789062 -27.996094 16.816406 -28.308594 16.777344 -28.671875 C 16.71875 -29.21875 16.574219 -30.003906 16.097656 -30.445312 C 15.554688 -30.941406 14.703125 -30.851562 14.277344 -30.808594 C 12.753906 -30.644531 11.886719 -30.121094 11.390625 -29.578125 L 9.554688 -27.722656 C 9.167969 -27.3125 8.9375 -27.164062 8.695312 -27.136719 C 8.269531 -27.09375 8.164062 -27.511719 8.15625 -27.574219 L 8 -28.480469 C 7.960938 -28.84375 7.980469 -29.21875 7.835938 -29.449219 C 7.613281 -29.792969 7.300781 -29.820312 7.058594 -29.796875 C 6.9375 -29.785156 6.816406 -29.769531 6.695312 -29.757812 C 6.269531 -29.710938 5.910156 -29.613281 5.484375 -29.566406 C 5.300781 -29.546875 4.449219 -29.457031 4.265625 -29.4375 Z M 2.730469 -29.398438 "/></g></g></g><g fill="#00876f" fill-opacity="1"><g transform="translate(61.401276, 68.249998)"><g><path d="M 26.621094 -9.527344 C 26.511719 -10.5625 26.195312 -11.824219 24.613281 -11.65625 C 23.882812 -11.578125 23.359375 -11.277344 22.832031 -11.035156 C 20.960938 -10.097656 20.367188 -9.914062 19.945312 -9.804688 C 19.589844 -9.707031 19.285156 -9.675781 18.917969 -9.636719 C 18.433594 -9.585938 17.957031 -9.410156 17.472656 -9.359375 C 16.199219 -9.164062 13.523438 -8.878906 11.867188 -9.382812 C 10.472656 -9.785156 9.109375 -10.441406 9.019531 -11.292969 C 8.988281 -11.597656 9.027344 -11.789062 9.191406 -11.988281 C 9.574219 -12.460938 10.167969 -12.648438 10.777344 -12.710938 L 11.507812 -12.789062 C 12.238281 -12.867188 12.914062 -12.875 13.644531 -12.953125 C 14.679688 -13.0625 15.707031 -13.234375 16.742188 -13.34375 C 17.53125 -13.425781 18.390625 -13.457031 19.183594 -13.539062 C 19.546875 -13.578125 19.964844 -13.6875 20.332031 -13.722656 C 21.542969 -13.914062 22.710938 -13.914062 23.921875 -14.105469 C 24.289062 -14.144531 24.828125 -14.261719 25.386719 -14.8125 C 26.105469 -15.566406 26.160156 -16.804688 26.03125 -18.019531 C 25.890625 -19.359375 25.664062 -20.320312 25.058594 -21.980469 C 24.105469 -24.585938 22.621094 -27.566406 18.640625 -29.667969 C 17.273438 -30.386719 15.039062 -31.132812 11.207031 -30.726562 C 7.128906 -30.296875 2.835938 -28.425781 0.449219 -23.066406 C -1 -19.894531 -1.050781 -16.875 -0.734375 -13.890625 C -0.230469 -9.144531 2.019531 -6.492188 2.921875 -5.539062 C 5.421875 -2.851562 7.9375 -1.765625 9.765625 -1.34375 C 11.84375 -0.886719 15.394531 -1.078125 17.464844 -1.296875 C 18.925781 -1.453125 21.527344 -1.851562 24.046875 -3.039062 C 25.042969 -3.515625 26.5625 -4.292969 26.816406 -5.363281 C 26.949219 -5.871094 26.816406 -7.703125 26.769531 -8.128906 Z M 13.878906 -19.441406 C 11.578125 -19.074219 8.09375 -18.273438 7.90625 -20.039062 C 7.824219 -20.832031 8.257812 -21.367188 8.53125 -21.707031 C 9.300781 -22.585938 9.953125 -23.394531 11.898438 -23.601562 C 12.691406 -23.683594 13.921875 -23.691406 15.179688 -22.839844 C 16.445312 -21.929688 16.597656 -21.082031 16.625 -20.839844 C 16.644531 -20.65625 16.628906 -20.226562 16.167969 -19.929688 C 15.9375 -19.78125 15.632812 -19.75 15.03125 -19.625 Z M 13.878906 -19.441406 "/></g></g></g><g fill="#00876f" fill-opacity="1"><g transform="translate(89.69853, 65.251661)"><g><path d="M 0.332031 -7.914062 C 0.167969 -7.710938 0.128906 -6.90625 0.179688 -6.417969 C 0.214844 -6.117188 0.246094 -5.8125 0.277344 -5.507812 C 0.304688 -5.261719 0.261719 -5.074219 0.289062 -4.832031 L 0.308594 -3.480469 C 0.335938 -2.066406 0.960938 -1.394531 1.101562 -1.222656 C 1.523438 -0.714844 2.0625 -0.28125 3.621094 -0.0742188 C 5.371094 0.167969 7.5625 -0.0625 9.632812 -0.28125 C 11.761719 -0.507812 14.804688 -0.832031 17.265625 -2.566406 C 20.015625 -4.519531 21.144531 -7.78125 20.824219 -10.824219 C 20.527344 -13.621094 19.386719 -15.101562 18.019531 -16.371094 C 16.175781 -18.085938 14.910156 -18.441406 13.113281 -19.113281 C 9.148438 -20.539062 9.230469 -20.917969 9.113281 -21.460938 C 9.105469 -21.519531 9.097656 -21.582031 9.09375 -21.640625 C 9.132812 -21.832031 9.230469 -22.085938 9.636719 -22.316406 C 10.152344 -22.675781 10.863281 -22.9375 12.222656 -22.894531 L 15.429688 -22.804688 C 16.175781 -22.761719 16.351562 -22.839844 16.683594 -23.183594 C 16.90625 -23.394531 16.957031 -23.519531 16.992188 -23.769531 C 17.101562 -24.460938 16.945312 -25.921875 16.863281 -26.710938 L 16.710938 -28.726562 C 16.65625 -29.828125 15.117188 -30.402344 13.679688 -30.621094 C 12.992188 -30.730469 11.816406 -30.792969 9.199219 -30.515625 C 2.441406 -29.800781 0.578125 -27.632812 -0.320312 -26.246094 C -1.011719 -25.25 -1.609375 -23.894531 -1.371094 -21.640625 C -0.929688 -17.503906 1.898438 -15.769531 3.078125 -15.097656 C 3.996094 -14.578125 4.636719 -14.339844 5.78125 -13.96875 C 6.929688 -13.597656 7.746094 -13.4375 8.644531 -13.101562 C 9.414062 -12.8125 10.632812 -12.328125 10.769531 -11.050781 C 10.976562 -9.101562 8.90625 -8.882812 8.175781 -8.804688 C 7.140625 -8.695312 6.160156 -8.652344 4.855469 -8.761719 C 4.113281 -8.804688 3.296875 -8.964844 2.261719 -8.855469 C 1.226562 -8.746094 0.710938 -8.382812 0.386719 -7.980469 Z M 0.332031 -7.914062 "/></g></g></g><g fill="#00876f" fill-opacity="1"><g transform="translate(112.092928, 62.878783)"><g><path d="M 26.621094 -9.527344 C 26.511719 -10.5625 26.195312 -11.824219 24.613281 -11.65625 C 23.882812 -11.578125 23.359375 -11.277344 22.832031 -11.035156 C 20.960938 -10.097656 20.367188 -9.914062 19.945312 -9.804688 C 19.589844 -9.707031 19.285156 -9.675781 18.917969 -9.636719 C 18.433594 -9.585938 17.957031 -9.410156 17.472656 -9.359375 C 16.199219 -9.164062 13.523438 -8.878906 11.867188 -9.382812 C 10.472656 -9.785156 9.109375 -10.441406 9.019531 -11.292969 C 8.988281 -11.597656 9.027344 -11.789062 9.191406 -11.988281 C 9.574219 -12.460938 10.167969 -12.648438 10.777344 -12.710938 L 11.507812 -12.789062 C 12.238281 -12.867188 12.914062 -12.875 13.644531 -12.953125 C 14.679688 -13.0625 15.707031 -13.234375 16.742188 -13.34375 C 17.53125 -13.425781 18.390625 -13.457031 19.183594 -13.539062 C 19.546875 -13.578125 19.964844 -13.6875 20.332031 -13.722656 C 21.542969 -13.914062 22.710938 -13.914062 23.921875 -14.105469 C 24.289062 -14.144531 24.828125 -14.261719 25.386719 -14.8125 C 26.105469 -15.566406 26.160156 -16.804688 26.03125 -18.019531 C 25.890625 -19.359375 25.664062 -20.320312 25.058594 -21.980469 C 24.105469 -24.585938 22.621094 -27.566406 18.640625 -29.667969 C 17.273438 -30.386719 15.039062 -31.132812 11.207031 -30.726562 C 7.128906 -30.296875 2.835938 -28.425781 0.449219 -23.066406 C -1 -19.894531 -1.050781 -16.875 -0.734375 -13.890625 C -0.230469 -9.144531 2.019531 -6.492188 2.921875 -5.539062 C 5.421875 -2.851562 7.9375 -1.765625 9.765625 -1.34375 C 11.84375 -0.886719 15.394531 -1.078125 17.464844 -1.296875 C 18.925781 -1.453125 21.527344 -1.851562 24.046875 -3.039062 C 25.042969 -3.515625 26.5625 -4.292969 26.816406 -5.363281 C 26.949219 -5.871094 26.816406 -7.703125 26.769531 -8.128906 Z M 13.878906 -19.441406 C 11.578125 -19.074219 8.09375 -18.273438 7.90625 -20.039062 C 7.824219 -20.832031 8.257812 -21.367188 8.53125 -21.707031 C 9.300781 -22.585938 9.953125 -23.394531 11.898438 -23.601562 C 12.691406 -23.683594 13.921875 -23.691406 15.179688 -22.839844 C 16.445312 -21.929688 16.597656 -21.082031 16.625 -20.839844 C 16.644531 -20.65625 16.628906 -20.226562 16.167969 -19.929688 C 15.9375 -19.78125 15.632812 -19.75 15.03125 -19.625 Z M 13.878906 -19.441406 "/></g></g></g><g fill="#00876f" fill-opacity="1"><g transform="translate(140.390181, 59.880446)"><g><path d="M 10.183594 -0.894531 C 11.398438 -1.023438 12.683594 -1.097656 13.804688 -2.140625 C 14.199219 -2.488281 14.640625 -2.964844 14.523438 -4.0625 C 14.492188 -4.367188 14.453125 -4.730469 14.359375 -5.03125 C 14.234375 -5.632812 14.175781 -6.179688 14.113281 -6.789062 L 14.003906 -8.375 C 13.972656 -8.679688 13.746094 -9.085938 13.539062 -9.3125 C 13.394531 -9.480469 13.121094 -9.761719 12.503906 -9.757812 L 12.074219 -9.773438 C 11.761719 -9.800781 11.207031 -9.804688 10.804688 -10.128906 C 10.273438 -10.503906 10.207031 -11.113281 9.839844 -14.582031 L 9.484375 -17.929688 C 9.234375 -20.304688 9.1875 -21.898438 11.050781 -22.339844 L 12.308594 -22.660156 C 12.429688 -22.671875 12.84375 -22.839844 12.980469 -23.285156 C 13.070312 -23.601562 12.972656 -25.683594 12.945312 -25.925781 L 12.867188 -26.65625 C 12.707031 -28.179688 12.886719 -28.8125 12.125 -29.59375 C 11.714844 -29.980469 11.460938 -30.078125 10.667969 -29.992188 L 9.757812 -29.898438 C 9.332031 -29.851562 8.539062 -29.769531 8.449219 -30.621094 L 8.03125 -34.578125 C 7.976562 -35.0625 8.035156 -35.683594 7.484375 -36.242188 C 7 -36.746094 6.582031 -36.636719 6.152344 -36.59375 L 1.8125 -36.316406 C 0.894531 -36.28125 0.191406 -35.960938 -0.148438 -35.679688 C -0.496094 -35.457031 -0.816406 -34.992188 -0.777344 -34.628906 L -0.046875 -29.472656 C -0.0117188 -29.167969 -0.191406 -29.089844 -0.3125 -29.078125 L -0.792969 -28.964844 C -1.570312 -28.757812 -1.636719 -28.8125 -2.023438 -28.402344 C -2.1875 -28.199219 -2.460938 -27.863281 -2.382812 -27.132812 L -1.917969 -23.921875 L -1.875 -22.941406 C -1.878906 -22.386719 -1.613281 -21.613281 -1.035156 -21.367188 C -0.519531 -21.175781 -0.234375 -21.390625 0.113281 -21 C 0.457031 -20.664062 0.625 -20.253906 0.847656 -17.566406 L 1.671875 -8.609375 C 1.929688 -5.621094 2.839844 -3.992188 3.289062 -3.242188 C 3.738281 -2.488281 4.542969 -1.28125 5.945312 -0.816406 C 7.09375 -0.445312 8.355469 -0.699219 9.390625 -0.808594 Z M 10.183594 -0.894531 "/></g></g></g><g fill="#00876f" fill-opacity="1"><g transform="translate(156.820858, 58.139475)"><g><path d="M 6.234375 -9.707031 C 6.050781 -9.6875 5.503906 -9.628906 4.476562 -9.460938 L 2.285156 -9.226562 C 2.039062 -9.203125 1.863281 -9.121094 1.695312 -8.980469 C 1.484375 -8.648438 1.425781 -8.027344 1.53125 -7.054688 L 1.691406 -5.535156 L 1.988281 -3.289062 L 2.089844 -1.761719 C 2.179688 -0.90625 2.597656 -0.460938 3.347656 -0.355469 C 3.53125 -0.375 4.808594 -0.507812 7.128906 -0.695312 L 9.988281 -0.996094 C 10.597656 -1.0625 10.941406 -1.28125 11.09375 -1.605469 C 11.234375 -1.992188 11.046875 -4.371094 10.574219 -8.8125 C 10.53125 -9.238281 10.246094 -9.578125 9.726562 -9.832031 C 9.53125 -9.933594 8.917969 -9.929688 8.003906 -9.832031 C 7.882812 -9.820312 7.640625 -9.792969 7.207031 -9.808594 Z M 6.234375 -9.707031 "/></g></g></g><g fill="#00876f" fill-opacity="1"><g transform="translate(170.391381, 56.701561)"><g><path d="M 1.804688 -3.882812 C 1.902344 -2.972656 1.964844 -1.191406 2.511719 -0.695312 C 2.585938 -0.582031 2.980469 -0.316406 4.199219 -0.445312 L 5.292969 -0.5625 L 6.445312 -0.746094 L 9.191406 -0.972656 C 10.46875 -1.109375 10.78125 -1.632812 10.871094 -1.953125 C 11.054688 -2.527344 11.082031 -3.453125 10.757812 -6.496094 C 10.746094 -6.617188 10.734375 -6.738281 10.71875 -6.859375 C 10.714844 -6.921875 10.699219 -7.042969 10.695312 -7.101562 C 10.398438 -9.902344 10.332031 -8.789062 10.132812 -10.675781 L 9.765625 -14.144531 C 9.609375 -15.605469 9.296875 -16.800781 9.078125 -18.871094 C 9.046875 -19.175781 9.015625 -19.480469 8.980469 -19.785156 C 8.960938 -19.964844 8.949219 -20.089844 8.929688 -20.269531 C 8.828125 -21.246094 8.730469 -22.15625 8.625 -23.132812 C 8.335938 -25.871094 8.425781 -26.1875 8.402344 -26.984375 L 8.328125 -28.269531 C 8.3125 -29.003906 7.902344 -29.394531 7.699219 -29.554688 C 7.234375 -29.875 6.679688 -29.878906 6.195312 -29.828125 L 5.644531 -29.769531 C 4.246094 -29.621094 3.839844 -29.394531 3.285156 -29.394531 L 1.871094 -29.371094 L 0.898438 -29.265625 C -0.0742188 -29.164062 -0.46875 -28.8125 -0.625 -28.550781 C -0.78125 -28.289062 -0.785156 -27.734375 -0.664062 -26.578125 L -0.429688 -24.386719 C -0.269531 -22.867188 -0.113281 -21.40625 0.109375 -19.890625 C 0.441406 -17.339844 0.769531 -14.789062 1.042969 -12.234375 C 1.308594 -9.738281 1.371094 -9.128906 1.429688 -8.582031 Z M -1.394531 -34.070312 C -1.34375 -33.582031 -1.089844 -32.933594 -0.933594 -32.640625 C -0.558594 -32.003906 -0.0078125 -32 1.089844 -32.117188 L 5.652344 -32.601562 C 6.871094 -32.730469 7.128906 -33.1875 7.28125 -33.511719 C 7.382812 -33.707031 7.546875 -33.910156 7.480469 -34.519531 C 7.46875 -34.640625 7.457031 -34.761719 7.441406 -34.882812 C 7.410156 -35.1875 7.273438 -36.464844 7.222656 -36.953125 L 7.039062 -39.273438 C 6.988281 -39.757812 6.882812 -40.179688 6.421875 -40.4375 C 5.898438 -40.75 5.222656 -40.742188 4.734375 -40.6875 L 2.910156 -40.496094 C 1.511719 -40.347656 -0.425781 -40.019531 -1.183594 -39.632812 C -1.652344 -39.398438 -1.910156 -38.9375 -1.71875 -37.113281 Z M -1.394531 -34.070312 "/></g></g></g><g fill="#00876f" fill-opacity="1"><g transform="translate(183.840174, 55.276546)"><g><path d="M 26.621094 -9.527344 C 26.511719 -10.5625 26.195312 -11.824219 24.613281 -11.65625 C 23.882812 -11.578125 23.359375 -11.277344 22.832031 -11.035156 C 20.960938 -10.097656 20.367188 -9.914062 19.945312 -9.804688 C 19.589844 -9.707031 19.285156 -9.675781 18.917969 -9.636719 C 18.433594 -9.585938 17.957031 -9.410156 17.472656 -9.359375 C 16.199219 -9.164062 13.523438 -8.878906 11.867188 -9.382812 C 10.472656 -9.785156 9.109375 -10.441406 9.019531 -11.292969 C 8.988281 -11.597656 9.027344 -11.789062 9.191406 -11.988281 C 9.574219 -12.460938 10.167969 -12.648438 10.777344 -12.710938 L 11.507812 -12.789062 C 12.238281 -12.867188 12.914062 -12.875 13.644531 -12.953125 C 14.679688 -13.0625 15.707031 -13.234375 16.742188 -13.34375 C 17.53125 -13.425781 18.390625 -13.457031 19.183594 -13.539062 C 19.546875 -13.578125 19.964844 -13.6875 20.332031 -13.722656 C 21.542969 -13.914062 22.710938 -13.914062 23.921875 -14.105469 C 24.289062 -14.144531 24.828125 -14.261719 25.386719 -14.8125 C 26.105469 -15.566406 26.160156 -16.804688 26.03125 -18.019531 C 25.890625 -19.359375 25.664062 -20.320312 25.058594 -21.980469 C 24.105469 -24.585938 22.621094 -27.566406 18.640625 -29.667969 C 17.273438 -30.386719 15.039062 -31.132812 11.207031 -30.726562 C 7.128906 -30.296875 2.835938 -28.425781 0.449219 -23.066406 C -1 -19.894531 -1.050781 -16.875 -0.734375 -13.890625 C -0.230469 -9.144531 2.019531 -6.492188 2.921875 -5.539062 C 5.421875 -2.851562 7.9375 -1.765625 9.765625 -1.34375 C 11.84375 -0.886719 15.394531 -1.078125 17.464844 -1.296875 C 18.925781 -1.453125 21.527344 -1.851562 24.046875 -3.039062 C 25.042969 -3.515625 26.5625 -4.292969 26.816406 -5.363281 C 26.949219 -5.871094 26.816406 -7.703125 26.769531 -8.128906 Z M 13.878906 -19.441406 C 11.578125 -19.074219 8.09375 -18.273438 7.90625 -20.039062 C 7.824219 -20.832031 8.257812 -21.367188 8.53125 -21.707031 C 9.300781 -22.585938 9.953125 -23.394531 11.898438 -23.601562 C 12.691406 -23.683594 13.921875 -23.691406 15.179688 -22.839844 C 16.445312 -21.929688 16.597656 -21.082031 16.625 -20.839844 C 16.644531 -20.65625 16.628906 -20.226562 16.167969 -19.929688 C 15.9375 -19.78125 15.632812 -19.75 15.03125 -19.625 Z M 13.878906 -19.441406 "/></g></g></g></g></g><g clip-path="url(#8db6a8ae1c)"><g clip-path="url(#8840c83946)"><g clip-path="url(#4cd34c3c2e)"><path fill="#00876f" d="M 260.875 296.515625 L 217.796875 253.4375 C 213.101562 248.742188 220.191406 241.652344 224.886719 246.347656 L 267.964844 289.425781 C 272.660156 294.121094 265.570312 301.210938 260.875 296.515625 Z M 82.808594 214.882812 C 78.023438 210.097656 76.160156 203.09375 77.84375 196.625 L 81.210938 184.570312 C 83.871094 174.464844 94.242188 168.527344 104.347656 171.1875 L 117.375 174.644531 C 146.625 178.011719 171.441406 169.148438 200.425781 157.003906 C 200.425781 157.003906 206.1875 145.570312 218.417969 148.941406 C 226.660156 151.15625 231.625 159.664062 229.410156 167.90625 L 197.945312 285.171875 C 194.929688 296.691406 180.394531 300.59375 171.972656 292.171875 C 168.78125 288.980469 167.1875 284.550781 167.542969 280.117188 C 159.121094 269.214844 150.789062 258.578125 141.394531 249.183594 C 135.898438 243.6875 130.40625 238.902344 124.730469 234.824219 C 120.390625 241.296875 112.5 244.753906 104.613281 243.246094 L 101.511719 254.679688 C 98.671875 265.140625 85.46875 268.59375 77.757812 260.882812 C 74.210938 257.339844 72.882812 252.109375 74.121094 247.324219 Z M 120.210938 185.101562 L 111.96875 215.679688 C 136.699219 227.46875 153.625 245.816406 170.46875 267.621094 L 196.878906 169.414062 C 170.820312 179.871094 147.511719 187.230469 120.210938 185.101562 Z M 110.285156 183.152344 L 101.777344 180.847656 C 96.988281 179.605469 92.027344 182.445312 90.875 187.140625 L 87.59375 199.285156 C 86.265625 203.980469 89.191406 208.855469 93.886719 210.1875 L 102.484375 212.402344 Z M 177.734375 279.496094 C 177.378906 281.449219 177.203125 283.21875 179.066406 285.082031 C 182.078125 288.09375 187.21875 286.675781 188.28125 282.597656 L 219.660156 165.25 C 221.519531 158.421875 210.972656 155.320312 209.113281 162.5 Z M 116.222656 229.332031 C 114.007812 228 111.703125 226.761719 109.308594 225.609375 L 107.183594 233.585938 C 110.816406 233.851562 114.183594 232.253906 116.222656 229.332031 Z M 91.761719 219.933594 L 83.785156 249.894531 C 82.453125 254.945312 90.429688 257.25 91.847656 252.109375 L 99.914062 222.0625 Z M 228.433594 213.730469 C 225.773438 211.070312 226.925781 206.375 230.738281 205.398438 L 289.589844 189.621094 C 295.972656 187.851562 298.542969 197.511719 292.160156 199.285156 L 233.308594 215.0625 C 231.445312 215.503906 229.675781 214.972656 228.433594 213.730469 Z M 219.214844 232.519531 C 215.582031 228.886719 219.128906 222.859375 224 224.191406 L 282.945312 239.878906 C 289.324219 241.652344 286.753906 251.3125 280.285156 249.628906 L 221.429688 233.851562 C 220.632812 233.585938 219.835938 233.140625 219.214844 232.519531 Z M 219.214844 232.519531 " fill-opacity="1" fill-rule="evenodd"/></g></g></g></svg>