<?xml version="1.0" standalone="no"?>
<!DOCTYPE svg PUBLIC "-//W3C//DTD SVG 1.1//EN" "http://www.w3.org/Graphics/SVG/1.1/DTD/svg11.dtd" >
<svg xmlns="http://www.w3.org/2000/svg" xmlns:xlink="http://www.w3.org/1999/xlink" version="1.1">
<metadata>
Created by FontForge 20230101 at Mon Dec 19 21:00:05 2011
 By Unknown
</metadata>
<defs>
<font id="BlocW01-Regular" horiz-adv-x="500" >
  <font-face 
    font-family="BlocW01-Regular"
    font-weight="400"
    font-stretch="normal"
    units-per-em="1000"
    panose-1="2 12 8 3 4 0 4 0 2 4"
    ascent="790"
    descent="-210"
    x-height="472"
    cap-height="669"
    bbox="-64.1667 -166 1077 855"
    underline-thickness="50"
    underline-position="-150"
    unicode-range="U+0020-2122"
  />
<missing-glyph horiz-adv-x="0" 
 />
    <glyph glyph-name=".notdef" horiz-adv-x="0" 
 />
    <glyph glyph-name="glyph1" horiz-adv-x="0" 
 />
    <glyph glyph-name="glyph2" horiz-adv-x="0" 
 />
    <glyph glyph-name="space" unicode=" " horiz-adv-x="233" 
 />
    <glyph glyph-name="space" unicode="&#xa0;" horiz-adv-x="233" 
 />
    <glyph glyph-name="space" unicode="&#xa0;" horiz-adv-x="233" 
 />
    <glyph glyph-name="exclam" unicode="!" horiz-adv-x="255" 
d="M109 145q3 0 14.5 -0.5t24.5 -1.5q15 -1 33 -1q12 -3 17 -14q1 -3 1 -21v-5q0 -43 -3 -76q-1 -20 -8 -25q-3 -1 -8 -1h-114q-4 0 -8.5 7t-4.5 14l1 22q3 91 3 93q5 8 16 8q8 1 13.5 1h7.5h15zM107 667l21 1h9q5 -1 10 -1h10q29 0 36 -4q13 -7 13 -43q0 -13 -6 -62l-1 -50
l-6 -51v-13t-1 -35q0 -12 -1.5 -30.5t-3.5 -44.5l-5 -47q-8 -47 -9 -68q-2 -30 -12 -36q-16 -8 -45 -8q-23 0 -30 12q-1 2 -3 19.5t-4 50.5q-4 19 -6.5 34.5t-3.5 27.5q-2 14 -6 88l-2 53l-7 68l-4 87q0 25 2 33q8 19 31 20z" />
    <glyph glyph-name="quotedbl" unicode="&#x22;" horiz-adv-x="421" 
d="M274 398q-12 0 -16 6q-3 3 -4 15l-4 32v32l-6 64l-5 32l1 32q-6 34 -6 38q0 10 4 14q2 2 18 4l33 1l32 -1q45 -2 49 -3q5 -3 5 -11q0 -3 -1.5 -13.5t-3.5 -28.5l-2 -32l-4 -32l-3 -31l-4 -33v-32q-5 -46 -8 -49q-3 -4 -15 -4l-30 1zM117 397q-35 1 -40 3q-8 3 -9 10
q-2 7 -3 42q-2 18 -3 34t-2 30q-2 24 -9 63l-2 32q-1 17 -1.5 27t-0.5 12q0 12 6 15q6 2 48 2h32q44 0 49 -3q6 -3 6 -10q0 -6 -1 -11v-10t-1 -22q-1 -25 -9 -64l-1 -32l-5 -32v-32q-6 -45 -9 -48q-5 -5 -18 -5z" />
    <glyph glyph-name="numbersign" unicode="#" horiz-adv-x="562" 
d="M239 198q-17 0 -18 -6q-3 -6 -6 -44l-8 -31l-4 -33q-7 -40 -11 -46q-3 -3 -13 -3l-29 1l-26 -3q-36 1 -41 4t-5 8t6 41l3 31l8 29q2 19 3 29t1 12q0 8 -6 10q-1 0 -37 2l-23 -1q-20 0 -20 11q0 2 1.5 13t5.5 30q4 42 9 48q3 3 16 3l28 2l31 -2q9 0 14 5q1 1 3 13l5 35
q1 1 1 6q0 12 -5 14l-14 2l-24 2l-27 -3q-15 0 -15 11q0 1 1 11.5t3 32.5q9 44 12 47q2 2 16 4h58q10 0 14 4q1 1 3 14l6 29l4 29l6 28q5 41 8 44t19 3h12.5t10.5 -1q3 -1 8 -1q2 0 3 -1l46 4q6 0 13 -5q2 -2 2 -6q0 -2 -1.5 -11.5t-3.5 -27.5l-7 -26l-1 -27q-6 -32 -6 -36
q0 -9 4 -12q2 -1 15 -1h36q15 0 18 6q1 4 6 41q2 11 4.5 25t6.5 32q2 19 4 29t3 12q3 6 9 6q4 1 10.5 1h15.5q3 0 12 -0.5t25 -1.5l27 1q19 0 19 -10v-4t-1 -8l-3 -27q-15 -62 -15 -89q0 -9 5 -11l14 -2l23 -2l25 2q17 0 17 -11q0 -2 -1.5 -13.5t-3.5 -25t-4 -26t-3 -16.5
q-1 -10 -7 -12q-1 -1 -11 -1h-28q-38 -2 -42 -3q-5 -2 -6 -15l-5 -35q-1 -3 -1 -9q0 -10 4 -11q4 -2 15 -2l24 -1l25 1q18 0 18 -12v-3t-1 -7l-4 -32q-9 -44 -12 -47q-1 -4 -14 -4l-30 1q-17 -1 -26.5 -1t-11.5 -1q-5 -1 -7 -8q-1 -3 -3 -13.5t-5 -27.5q-8 -47 -15 -96
q-1 -10 -7 -16q-2 -1 -14 -1l-27 -2l-26 1q-38 1 -42 3q-5 3 -5 8q0 10 7 41q2 12 4 27t4 33q7 32 7 40t-5 11q-2 1 -15 1h-35zM300 380q-45 -1 -48 -4q-5 -3 -9 -19.5t-4 -34.5q0 -21 27 -21q38 0 46 8q1 1 3 7t3.5 13.5t2.5 15.5t1 14q0 14 -10 18z" />
    <glyph glyph-name="dollar" unicode="$" horiz-adv-x="412" 
d="M132 311q-27 23 -45 40t-26 28q-39 51 -39 121q0 48 17 80q18 32 37 45q20 14 65 29q14 6 17 13q2 6 4 54q0 12 9 17q12 5 44 5q22 0 28 -7q4 -4 6 -13v-11.5t1 -32.5q2 -7 4 -9q5 -3 33 -5q33 0 54 -10q15 -6 21 -12q5 -8 5 -20q0 -14 -0.5 -24.5t-1.5 -18.5
q-1 -5 -1 -8v-4l1 -33q0 -8 -9 -13.5t-22 -5.5q-4 0 -97 6q-8 1 -18.5 -3.5t-15.5 -11.5q-11 -13 -11 -26q0 -19 19 -41q10 -13 77 -63q58 -43 81 -88q21 -44 21 -96q0 -89 -59 -145q-18 -16 -30 -23q-2 -1 -12.5 -6.5t-30.5 -15.5q-6 -3 -8 -8q-1 -6 -3 -80q0 -14 -65 -14
q-25 0 -25 15l1 59q0 7 -5 14q-7 5 -38 5q-52 1 -70 12q-13 6 -14 19q-1 2 -1 24t-1 65l-1 18q0 26 38 26q17 0 58 -10q6 -1 14 -1.5t18 -0.5q28 0 45 9q26 15 26 47q0 17 -14 36q-1 4 -65 57z" />
    <glyph glyph-name="percent" unicode="%" horiz-adv-x="757" 
d="M189 668q74 0 121 -51q34 -37 34 -112q0 -30 -9 -60q-7 -42 -37 -70q-48 -45 -103 -45q-38 0 -71 14q-44 19 -72 63q-5 8 -9.5 18.5t-6.5 23.5q-3 9 -3 80q0 22 13 52q11 30 38 52q47 35 105 35zM235 487q1 5 1 15q0 9 -3 32q-1 11 -2 18t-2 10q-12 24 -41 24
q-21 0 -35 -20q-2 -3 -4 -12t-4 -20t-3 -22t-1 -17v-3.5t1 -6.5l1 -15l2 -13q6 -42 43 -42q16 0 20 4q11 10 15 16q4 5 7 24l4 13zM420 502q19 34 29 51.5t15 26.5t7.5 15t6.5 19q15 42 29 52q10 5 20 5q7 0 10 -1q4 -1 5.5 -1.5t2.5 -0.5l25 1q3 0 7 -4.5t4 -8.5t-23 -48
l-16 -32q-14 -25 -24 -52q-5 -10 -22.5 -43.5t-48.5 -93.5l-28 -53l-17 -38l-26 -49l-21 -47l-47 -95q-8 -14 -17 -32.5t-20 -42.5q-15 -31 -32 -31l-29 1l-22 -1q-12 1 -12 11q0 6 15 32l17 35l25 46l49 101l50 89l25 58l41 80zM569 335q56 0 94 -27q31 -23 44 -48
q17 -32 17 -88q0 -30 -9 -60q-7 -42 -37 -70q-47 -44 -103 -44q-42 0 -72 13q-42 19 -71 63q-5 8 -9.5 18.5t-6.5 23.5q-3 9 -3 80q0 22 13 52q11 30 38 52q47 35 105 35zM615 154q1 5 1 15q0 9 -3 32q-1 21 -5 28q-11 24 -40 24q-23 0 -35 -20q-2 -3 -4 -12t-4 -20t-3 -22
t-1 -17v-3.5t1 -6.5v-15l3 -13q6 -42 43 -42q16 0 20 4q11 10 15 16q4 5 7 24l4 13z" />
    <glyph glyph-name="ampersand" unicode="&#x26;" horiz-adv-x="563" 
d="M46 279q5 11 9 19t8 14q17 20 32 32.5t44 28.5q16 9 16 19q0 2 -25 64q-5 15 -5 35q0 67 34 102q32 33 63 46q24 9 57 9q57 0 94 -25q29 -19 40 -36q33 -54 33 -109q0 -60 -60 -112q-27 -24 -31 -31q-5 -8 -5 -16q0 -10 16 -35l9 -15q28 -48 45 -48q8 0 11 20
q2 18 3.5 28.5t1.5 12.5v10q-1 6 -1.5 10.5t-0.5 7.5q0 4 3 7.5t7 3.5l31 -2l57 1q10 0 19 -9q6 -6 6 -15q0 -22 -10 -61q-6 -26 -18.5 -53.5t-22.5 -39.5q-15 -18 -15 -24q0 -7 13 -21q10 -11 23 -38q16 -25 16 -35q0 -16 -18 -22l-13.5 -1.5t-30.5 -3t-31.5 -2.5t-15.5 -1
q-5 0 -9 3q-1 1 -7.5 9t-20.5 24q-2 3 -6 3q-1 0 -31 -14q-7 -4 -19.5 -7t-29.5 -7q-38 -7 -69 -7q-58 0 -97 19q-33 15 -64 46q-11 11 -17.5 18t-8.5 11q-28 52 -28 108q0 40 10 61zM217 270q-9 0 -21.5 -10.5t-21.5 -26.5q-8 -16 -8 -28q0 -20 14 -42q25 -39 74 -39
q15 0 42 8q15 4 15 10q0 5 -4 12q-2 4 -5 8.5t-5 9.5q-7 14 -19 32t-29 38q-7 8 -11.5 13.5t-8.5 9.5q-5 5 -12 5zM293 535q-21 0 -31 -16q-9 -12 -9 -30q0 -15 10 -31q12 -24 23 -24q14 0 34 20q16 16 16 38q0 18 -14 32q-11 11 -29 11z" />
    <glyph glyph-name="quotesingle" unicode="'" horiz-adv-x="234" 
d="M133 667q41 0 47 -2q8 -3 8 -11q0 -6 -1 -11v-10t-1 -22q-1 -25 -9 -64l-1 -31l-5 -32v-32q-6 -44 -9 -49q-4 -4 -18 -4l-27 -2q-35 1 -40 3q-8 3 -8 10q-1 4 -2 14.5t-2 27.5q-2 19 -3 34.5t-2 29.5q-2 24 -9 63l-2 32q-1 17 -1.5 27t-0.5 12q0 8 3 13q4 4 20 4h63z" />
    <glyph glyph-name="parenleft" unicode="(" horiz-adv-x="298" 
d="M250 -51q-2 -32 -3 -36q-3 -8 -14 -8q-22 0 -50.5 14t-52.5 37q-70 67 -91 186q-12 64 -12 156q0 124 33 216q19 53 74 114q17 18 34 27q37 21 59 21q11 0 16 -5q6 -5 6 -52q0 -64 -2 -70q-1 -2 -6.5 -9.5t-16.5 -18.5q-19 -21 -32 -68q-10 -34 -10 -61l-1 -29
q-2 -26 -3.5 -42.5t-1.5 -23.5q0 -1 1 -20t1.5 -41t1.5 -40.5t1 -17.5q4 -50 32 -104q8 -12 31 -40q7 -10 7 -26v-10.5t-1 -22.5v-26z" />
    <glyph glyph-name="parenright" unicode=")" horiz-adv-x="298" 
d="M48 632q1 33 3 36q3 8 17 8q20 0 49 -15t51 -36q69 -66 92 -187q5 -32 8 -71t3 -85q0 -125 -33 -216q-19 -53 -74 -113q-17 -17 -34 -27q-38 -21 -63 -21q-5 0 -12 5q-6 6 -6 42q0 73 2 79q1 3 24 29q17 17 31 67q5 19 7.5 34t3.5 27l1 29q2 26 3 42.5t1 23.5l-0.5 19
t-1.5 41.5t-1.5 41t-0.5 17.5q-4 51 -33 104q-6 12 -30 40q-8 11 -8 26v10t1 24v26z" />
    <glyph glyph-name="asterisk" unicode="*" horiz-adv-x="390" 
d="M84 500q-21 0 -27 2q-10 4 -10 13t4 21q2 4 2.5 9.5t1.5 12.5q5 38 24 38q8 0 18 -7q7 -4 14.5 -7.5t15.5 -8.5q20 -14 28 -14q9 0 9 9q0 7 -6 22q-14 36 -14 49q0 7 4 13.5t9 7.5q1 0 5.5 -0.5t12.5 -1.5h36q5 1 8.5 1h5.5q11 0 17 -9q2 -6 2 -9q0 -10 -9 -38
q-7 -24 -7 -31q0 -12 10 -12q3 0 23 14q34 28 48 28q12 0 18 -23q9 -33 11 -35q6 -14 6 -18q0 -7 -7 -11q-3 -3 -31 -8q-18 -3 -28.5 -5t-15.5 -3.5t-6 -3.5t-1 -6q0 -5 31 -26q11 -10 18 -15.5t9 -7.5q6 -5 6 -13q0 -7 -5 -10q-2 -2 -16 -9q-2 -1 -6 -4t-11 -10
q-18 -19 -27 -19q-11 0 -23 23q-5 10 -9 19.5t-8 20.5q-6 15 -14 15q-9 0 -21 -29q-12 -26 -14 -35q-6 -17 -17 -17q-10 0 -25 12t-33 21q-10 6 -10 18q0 8 6 16q6 7 22 17q12 7 24.5 18t12.5 14q0 12 -36 12h-25z" />
    <glyph glyph-name="plus" unicode="+" 
d="M102 277q-7 -1 -12.5 -1.5t-9.5 -0.5q-16 0 -21 11q-5 10 -5 78q0 15 12 21q5 4 34 4q4 1 23 3q5 1 9 1h8q8 0 13 -1t8.5 -1h6.5q11 0 16 8q4 5 4 12v45q1 5 1 14t-1 12q-1 12 -1.5 19.5t-0.5 10.5q0 9 8 14.5t19 5.5q5 0 10.5 -0.5t12.5 -1.5q5 -1 9 -1h8q8 0 13 1
t9.5 1h7.5q13 0 19 -11q2 -4 3 -7.5t2 -6.5l2 -54q0 -4 -4 -24v-10q0 -12 8 -20q4 -4 10 -4h42q15 -4 26 -4h5q7 1 12 1h9q29 0 29 -43v-51q0 -8 -7 -14q-7 -7 -19 -7h-29h-28t-15 1t-7.5 1h-6.5q-17 0 -21 -9q-2 -6 -4 -58l-1 -16q0 -39 -1 -42q-1 -10 -9 -13q-7 -5 -22 -5
q-4 0 -9 0.5t-12 1.5q-5 1 -16 1h-8q-8 -1 -14 -1h-8q-23 0 -23 63q0 4 0.5 17t1.5 35q1 6 -2 12t-7 8q-5 3 -37 3q-11 1 -17.5 1.5t-9.5 0.5h-13z" />
    <glyph glyph-name="comma" unicode="," horiz-adv-x="223" 
d="M104 147l23 -1q42 0 47 -3q12 -6 11 -22l-1 -22q-2 -83 -9 -108q-12 -52 -48 -92q-5 -6 -12 -8q-10 -2 -53 -2q-16 0 -16 12q0 6 17 26q3 5 7.5 13t8.5 17t6.5 16.5t2.5 10.5q0 16 -24 16q-23 0 -23 26l1 14q-1 34 -1.5 52.5t-0.5 23.5q-1 5 -1 12q0 19 23 19h42z" />
    <glyph glyph-name="hyphen" unicode="-" horiz-adv-x="215" 
d="M92 304h5.5t10.5 1h21h11.5t18.5 -1q34 -1 40 -3q9 -5 12 -15q1 -2 1 -9.5t1 -20.5l2 -23l-2 -25q-2 -24 -5 -30q-7 -10 -33 -10h-16l-39 2h-14l-26 1q-65 2 -69 4q-11 6 -11 48v27q1 35 7 46q4 7 21 9z" />
    <glyph glyph-name="period" unicode="." horiz-adv-x="223" 
d="M134 147q5 -1 8 -1h5q23 0 28 -3q12 -8 12 -18q0 -110 -4 -118q-5 -8 -19 -8h-47q-29 1 -44.5 1h-17.5q-18 4 -18 25l1 25l-1 37v25q0 23 6 31q4 3 10 3h36q13 1 20 1h9h16z" />
    <glyph glyph-name="slash" unicode="/" horiz-adv-x="393" 
d="M321 838q14 0 28 -1.5t14 -18.5q0 -6 -2 -16.5t-4.5 -22.5t-5 -23t-4.5 -16l-16 -48q-3 -9 -4 -14.5t-6 -19.5q-5 -12 -9 -25t-8 -25q-3 -8 -8 -27t-10.5 -41t-11.5 -43t-10 -31l-24 -64q-6 -17 -11.5 -34t-10.5 -35.5t-11 -39.5t-14 -46q-2 -6 -5.5 -17.5t-8 -24t-8 -24
t-5.5 -17.5q-5 -14 -5 -16.5t-2 -8.5q-3 -14 -6 -27t-11 -25q-2 -2 -8 -5l-10 -5q-9 -3 -23 -2.5t-46 0.5q-19 0 -27 1.5t-10 2.5l-5 5t-3 11q0 15 11 47l13.5 36t15.5 51q5 20 9.5 40.5t10.5 40.5q5 14 9.5 27t8.5 27l32 109q4 15 8.5 26t9.5 24t10.5 31t13.5 47
q6 22 11 41.5t15 49.5q4 13 7.5 22.5t6.5 18.5t5.5 20.5t6.5 28.5q8 37 14 46.5t15 9.5h78z" />
    <glyph glyph-name="zero" unicode="0" horiz-adv-x="520" 
d="M28 384q0 22 6 60q1 3 4 14.5t10 31.5q15 61 58 107q18 18 58 44q41 28 99 28q81 0 137 -55q46 -43 66 -95q26 -64 26 -176q0 -61 -7 -92l-6 -28q-6 -40 -14 -60q-23 -54 -37 -72q-42 -53 -76 -72q-44 -24 -84 -24q-24 0 -70 11q-8 2 -32 15q-38 21 -62 50
q-53 61 -69 138q-5 22 -7 75v100zM337 304q1 9 1.5 16.5t0.5 14.5q0 14 -1 34.5t-3 46.5q-3 53 -7 63q-10 35 -35 52q-17 11 -33 11q-39 0 -60 -52q-7 -15 -13 -79q-6 -57 -6 -85v-10.5t1 -16.5l1 -35l4 -32q3 -38 7 -47q20 -59 66 -59q24 0 35 14q16 19 24 38q7 17 8 24
l4 36l5 30z" />
    <glyph glyph-name="one" unicode="1" horiz-adv-x="520" 
d="M245 341q-1 42 -1.5 65t-0.5 29q0 32 -19 32q-8 0 -17 -4q-2 -1 -14 -7.5t-35 -20.5q-5 -3 -12 -3q-24 0 -47 38q-11 19 -11 33q0 13 10 26q1 3 34 31q48 40 60 47q32 19 50 29t22 12q25 13 66 13q40 0 56 -16q8 -8 8 -22v-30l1 -55l-2 -74l2 -159l-2 -88v-51l-1 -32v-61
q-2 -53 -4 -62q-4 -13 -33 -13q-8 0 -15 0.5t-14 1.5q-11 1 -17 1h-7h-6.5t-16.5 -1h-11q-15 0 -23 8q-8 11 -8 24q0 10 3 58q1 4 1 45q0 9 0.5 20t1.5 25q2 35 3 55t1 26z" />
    <glyph glyph-name="two" unicode="2" horiz-adv-x="520" 
d="M154 2h-11t-18 -1q-5 -1 -9.5 -1h-9.5q-26 0 -41 0.5t-20 1.5q-11 2 -14.5 6t-5.5 17q-2 11 -3 19t-1 12q0 8 8 21q1 1 49 42.5t145 124.5q4 3 16 15t25.5 27t25.5 28.5t17 19.5q37 46 37 100q0 43 -26 69q-23 21 -62 21q-54 0 -78 -42q-7 -11 -7 -22l-1 -35
q-1 -19 -26 -19h-12.5t-28.5 1q-17 1 -27.5 1t-12.5 1q-16 1 -21 14q-3 7 -3 27q0 41 11 74q18 53 40 78q28 33 80 52q34 13 72 15h13.5t9.5 1h11q6 0 20 -2.5t29 -5.5t28.5 -6.5t18.5 -5.5q52 -23 84 -77q17 -29 21 -44q8 -27 8 -77q0 -54 -13 -93q-10 -32 -19 -44
q-36 -50 -45 -63q-6 -8 -15 -18t-20 -22l-15 -18q-23 -18 -32 -27q-11 -9 -11 -13q0 -5 6 -5h4q7 1 13.5 1h11.5q4 0 10.5 -0.5t16.5 -1.5h5.5t14.5 1q3 1 11 1q5 0 12 -0.5t18 -1.5q25 -2 32 -6q14 -8 14 -29l-1 -42v-4.5t1 -7.5v-17q0 -26 -17 -35q-15 -7 -52 -7h-117
q-13 1 -21.5 1h-12.5h-6q-16 -1 -28.5 -1h-23.5q-7 0 -16.5 0.5t-20.5 1.5h-15z" />
    <glyph glyph-name="three" unicode="3" horiz-adv-x="520" 
d="M97 32q-36 20 -45 28q-24 21 -28 32q-3 7 -3 15q0 13 20 33q2 2 7 7.5t13 15.5q26 29 49 29q4 0 6 -2q1 0 41 -37q15 -12 40.5 -21t48.5 -9q46 0 72 30q20 23 20 50q0 30 -25 55q-18 18 -45 28q-12 4 -51 9q-32 5 -32 29q0 53 5 65q4 6 15 11q1 1 45 6q24 1 47 17
q24 16 24 46q0 26 -21 46q-25 20 -59 20q-29 0 -62 -18q-8 -5 -49 -43q-10 -10 -24 -10q-8 0 -12 3l-31 29q-1 2 -24 28q-7 7 -7 15q0 17 12 34q2 3 20 21q39 39 74 54q9 4 23.5 8t29.5 7.5t28.5 5.5t21.5 2q38 0 77 -9t65 -22q34 -20 60 -63q22 -37 22 -78q0 -35 -10 -55
q-8 -16 -12 -24.5t-5 -9.5q-2 -3 -9.5 -11t-21.5 -22q-19 -19 -19 -21q0 -3 38 -24q24 -14 41 -50q20 -43 20 -92q0 -30 -23 -87q-15 -35 -51 -61q-38 -27 -60 -35q-47 -15 -103 -15t-74 7l-23 7l-32 11z" />
    <glyph glyph-name="four" unicode="4" horiz-adv-x="520" 
d="M106 146q-5 1 -8.5 1h-6.5h-8q-13 -1 -21 -1h-12q-11 0 -18 6q-3 3 -5 27v1q0 1 -0.5 2t-0.5 3v6q0 15 6 26l13 24q14 27 23 44t13 24q4 9 42 69l30 52q20 32 37.5 62t32.5 56q22 40 27 48q15 24 18 29q16 31 25 36q7 3 17 3h11h11.5t13.5 -1q37 0 48 -7q5 -3 7 -15
v-15.5t1 -34.5v-54l2 -74l-1 -76l1 -26v-32q1 -22 2 -34.5t2 -15.5q2 -4 8 -7.5t11 -3.5l44 1q9 0 14 -9q2 -6 2 -43l1 -35q-3 -26 -7 -30q-3 -3 -7 -4l-47 -2q-13 -1 -17 -10q-4 -8 -4 -19l-2 -92q0 -25 -23 -25h-64q-7 -1 -13.5 -1h-11.5q-18 0 -23 8l-2 117q0 11 -9 16
q-12 5 -32 5l-46 1h-74zM266 340q1 64 -2 69q-2 3 -5 3q-6 0 -28 -33q-8 -13 -16 -28t-16 -33q-9 -20 -9 -28q0 -26 40 -26q26 0 32 9q4 7 4 22v45z" />
    <glyph glyph-name="five" unicode="5" horiz-adv-x="520" 
d="M176 668q9 0 32 -0.5t60 -1.5q117 -2 119 -1q41 2 49 -19l1 -10.5t1.5 -23.5t1.5 -25.5t1 -17.5q0 -18 -14 -32q-11 -9 -26 -9h-9t-11 1q-36 3 -80 3q-58 0 -71 -7q-10 -4 -10 -28q0 -31 17 -31q8 0 29 3q5 1 11 1q42 0 82.5 -18t66.5 -47q30 -35 47 -91q11 -38 11 -62
q0 -8 -1.5 -22.5t-3.5 -29.5t-4.5 -28.5t-4.5 -19.5q-5 -18 -12.5 -32.5t-15.5 -25.5q-2 -2 -6.5 -7.5t-12.5 -13.5q-37 -42 -74 -58q-54 -23 -108 -23q-2 0 -7.5 0.5t-13.5 1.5q-17 0 -26.5 0.5t-17 1.5t-15.5 3.5t-21 6.5q-66 23 -104 65q-18 21 -18 35t25 36q6 4 24 24
q23 23 37 23q5 0 10 -3q1 -1 4 -4.5t10 -10.5q0 -1 32 -25q28 -22 69 -22q48 0 74 30q28 31 28 75q0 50 -35 82q-33 30 -85 30q-25 0 -87 -13q-3 -1 -9 -1q-17 0 -28 11q-7 5 -8 12v25q0 8 -0.5 22t-1.5 36l1 35v13.5t-1 28.5v48q1 15 1 24v11v12q-1 10 -1 16.5v9.5
q0 18 11 29q7 9 21 9q6 0 10 -1h57z" />
    <glyph glyph-name="six" unicode="6" horiz-adv-x="520" 
d="M27 324q0 80 25 156q16 55 45 88q84 101 241 101q23 0 42.5 -1.5t36.5 -3.5q37 -6 37 -34l-1 -40q-2 -38 -7 -49q-8 -12 -25 -12q-2 0 -9 0.5t-18 1.5l-30 1q-11 1 -18 1.5t-10 0.5q-48 0 -79 -18q-14 -9 -32 -25.5t-26 -29.5q-16 -28 -16 -48q0 -5 3.5 -9t7.5 -4t36 20
q19 12 75 12q53 0 115 -42q43 -29 64 -95q9 -26 9 -95q0 -19 -9.5 -50t-23.5 -55t-57 -60q-22 -18 -58 -29t-71 -11q-7 0 -21 1.5t-29 3.5t-28 4.5t-18 4.5q-9 3 -20.5 9.5t-23.5 14t-22.5 16t-16.5 15.5q-14 17 -26 38q-2 2 -5.5 9.5t-8.5 21.5q-8 18 -12.5 28t-6.5 17.5
t-3.5 15.5t-3.5 23q-1 13 -1.5 32.5t-0.5 45.5v29zM266 301q-16 0 -36 -7.5t-29 -17.5q-25 -25 -25 -58q0 -26 16 -48q28 -39 77 -39q23 0 57 28q25 19 25 60q0 20 -11 40t-27 29q-20 13 -47 13z" />
    <glyph glyph-name="seven" unicode="7" horiz-adv-x="520" 
d="M31 600v25.5t0.5 14t1.5 7t3 5.5q7 12 25 12q2 0 9 -0.5t19 -1.5l52 -2l26 -2l50 3l49 -1q61 -1 94.5 -1h40.5q6 -1 10.5 -1h6.5h7q17 1 26 1.5t11 0.5q14 0 25 -12q10 -10 10 -26q0 -20 -8 -38l-38 -77l-17 -43q-38 -78 -45 -93q-6 -14 -14.5 -35t-19.5 -49
q-16 -33 -26.5 -58.5t-17.5 -44.5q-13 -38 -20 -63t-9 -36q-13 -71 -33 -82q-8 -3 -18 -3h-61q-4 -1 -14 -1q-15 0 -25 6q-14 11 -14 28q0 21 7 55q1 9 21 66l11 32l11 28l11 31l12 30l14 38l32 63l18 47l15 26l8 21q13 25 13 32t-6 10q-10 6 -55 8l-32 2q-20 -2 -32 -3
t-14 -1t-14 1t-33 3q-47 0 -57 2q-13 3 -14 12q-1 5 -1.5 8.5t-0.5 7.5v48z" />
    <glyph glyph-name="eight" unicode="8" horiz-adv-x="520" 
d="M35 125q-8 23 -9 32q-1 7 -1 14v15q0 9 1 20.5t3 22t4 19t4 11.5q17 31 45 59q6 6 45 31q9 4 9 12q0 6 -25 21q-6 3 -14 9.5t-15.5 13.5t-13.5 14t-9 13q-7 12 -13 35.5t-6 40.5q0 27 18 63q13 27 43 51q16 12 45 25q45 20 68 20q14 0 24 0.5t17 1.5q4 1 7.5 1h6.5
q5 0 37 -6q19 -4 31 -6.5t17 -4.5q59 -23 87 -55q34 -40 34 -91q0 -58 -47 -102q-7 -7 -50 -33q-3 -2 -3 -6q0 -6 21 -15q9 -4 19.5 -12t21 -17.5t20.5 -20.5t16 -21q21 -35 21 -82q0 -60 -20 -97q-37 -67 -122 -96q-33 -10 -120 -10q-53 0 -104 24q-13 7 -27 17.5t-29 25.5
q-21 22 -30 45zM255 282q-11 0 -29 -10t-31 -23q-25 -26 -25 -56q0 -18 11 -35q22 -33 77 -33q46 0 70 25q16 19 16 41q0 33 -35 65q-31 26 -54 26zM253 545q-29 0 -45 -15q-15 -14 -15 -33q0 -20 12 -33q18 -18 40 -29q12 -6 19 -6q17 0 43 29q17 20 17 38q0 49 -71 49z
" />
    <glyph glyph-name="nine" unicode="9" horiz-adv-x="520" 
d="M130 638q14 8 25.5 14t22.5 8q34 9 76 9q44 0 105 -23q20 -7 43.5 -25t35.5 -34q30 -45 43 -91t13 -140q0 -54 -5 -79l-7 -31q-2 -20 -5.5 -35.5t-7.5 -27.5q-29 -77 -71 -116q-24 -27 -32 -31q-9 -6 -22 -11.5t-27 -10.5t-28 -9t-26 -5q-14 -2 -27 -3.5t-24 -1.5l-36 1
l-28 -1q-34 0 -59 13q-23 14 -23 37q0 6 1 11v34q0 41 39 41q2 0 10.5 -0.5t22.5 -1.5h36l25 3q36 1 80 28q19 11 33 31q21 25 21 49q0 7 -6 12q-5 3 -6 3q-6 0 -38 -17q-22 -13 -62 -13q-2 0 -13.5 1.5t-24.5 3.5t-24.5 4t-13.5 3q-17 5 -39 20t-35 31q-28 32 -37 72
q-9 37 -9 80q0 57 18 98q1 2 4 7.5t9 15.5q13 25 26 41t24 22zM254 524q-41 0 -62 -23q-26 -29 -26 -63q0 -26 18 -48q28 -37 73 -37q41 0 70 29q19 20 19 48q0 25 -12.5 48.5t-31.5 34.5q-22 11 -48 11z" />
    <glyph glyph-name="colon" unicode=":" horiz-adv-x="223" 
d="M89 464q13 1 20 1h9h7.5t8.5 -1t8 -1h5q23 0 28 -3q12 -6 12 -17q0 -111 -4 -118q-4 -10 -19 -10l-47 1q-29 1 -44.5 1t-17.5 1q-18 4 -18 25l1 24l-1 62q0 25 6 31q4 2 10 4h36zM134 147q5 -1 8 -1h5q23 0 28 -3q12 -8 12 -18q0 -110 -4 -118q-5 -8 -19 -8h-47
q-29 1 -44.5 1h-17.5q-18 4 -18 25l1 25l-1 37v25q0 23 6 31q4 3 10 3h36q13 1 20 1h9h16z" />
    <glyph glyph-name="semicolon" unicode=";" horiz-adv-x="223" 
d="M89 464q13 1 20 1h9h7.5t8.5 -1t8 -1h5q23 0 28 -3q12 -6 12 -17q0 -111 -4 -118q-4 -10 -19 -10l-47 1q-29 1 -44.5 1t-17.5 1q-18 4 -18 25l1 24l-1 62q0 25 6 31q4 2 10 4h36zM102 147l24 -1q41 0 46 -3q12 -6 11 -22l-1 -22q-2 -81 -9 -108q-12 -51 -48 -92
q-5 -6 -12 -8q-4 -1 -17 -1.5t-36 -0.5q-15 0 -15 12q0 7 16 26q3 5 7.5 13t8.5 17t6.5 16.5t2.5 10.5q0 16 -23 16q-13 0 -19 6q-4 5 -4 23q-1 20 -1 42t-1 45q-1 5 -1 12q0 19 24 19h41z" />
    <glyph glyph-name="semicolon" unicode="&#x37e;" horiz-adv-x="223" 
d="M89 464q13 1 20 1h9h7.5t8.5 -1t8 -1h5q23 0 28 -3q12 -6 12 -17q0 -111 -4 -118q-4 -10 -19 -10l-47 1q-29 1 -44.5 1t-17.5 1q-18 4 -18 25l1 24l-1 62q0 25 6 31q4 2 10 4h36zM102 147l24 -1q41 0 46 -3q12 -6 11 -22l-1 -22q-2 -81 -9 -108q-12 -51 -48 -92
q-5 -6 -12 -8q-4 -1 -17 -1.5t-36 -0.5q-15 0 -15 12q0 7 16 26q3 5 7.5 13t8.5 17t6.5 16.5t2.5 10.5q0 16 -23 16q-13 0 -19 6q-4 5 -4 23q-1 20 -1 42t-1 45q-1 5 -1 12q0 19 24 19h41z" />
    <glyph glyph-name="semicolon" unicode="&#x37e;" horiz-adv-x="223" 
d="M89 464q13 1 20 1h9h7.5t8.5 -1t8 -1h5q23 0 28 -3q12 -6 12 -17q0 -111 -4 -118q-4 -10 -19 -10l-47 1q-29 1 -44.5 1t-17.5 1q-18 4 -18 25l1 24l-1 62q0 25 6 31q4 2 10 4h36zM102 147l24 -1q41 0 46 -3q12 -6 11 -22l-1 -22q-2 -81 -9 -108q-12 -51 -48 -92
q-5 -6 -12 -8q-4 -1 -17 -1.5t-36 -0.5q-15 0 -15 12q0 7 16 26q3 5 7.5 13t8.5 17t6.5 16.5t2.5 10.5q0 16 -23 16q-13 0 -19 6q-4 5 -4 23q-1 20 -1 42t-1 45q-1 5 -1 12q0 19 24 19h41z" />
    <glyph glyph-name="less" unicode="&#x3c;" horiz-adv-x="480" 
d="M446 472l-252 -139l252 -139v-157l-413 227v140l413 226v-158z" />
    <glyph glyph-name="equal" unicode="=" 
d="M123 310q7 1 12 1h7h8t17 -1q13 -1 26.5 -1.5t28.5 -0.5q41 0 83 3q10 1 16.5 1.5t10.5 0.5q6 0 11 -1h5q5 0 7 1h10l22 -2q36 0 39 -1q20 -5 20 -42v-51q0 -8 -7 -14q-7 -7 -19 -7h-63q-26 3 -47 3h-8.5t-9.5 -1q-41 -2 -125 -3l-20 -1q-26 3 -31 3h-14q-8 -1 -13 -1.5
t-9 -0.5q-16 0 -21 11q-5 10 -5 78q0 15 12 21q8 5 35 5h22zM385 357q-5 0 -30 -3l-22 1l-73 1q-29 1 -45.5 1.5t-21.5 0.5q-14 0 -26 -0.5t-23 -1.5h-63q-13 0 -21 8q-6 7 -6 13l1 29q0 3 -1 7v13q0 29 10 39q6 4 17 6h32l23 3q5 -1 14 -1.5t22 -0.5h8t15 -1q52 -3 86 -3
q33 0 66 3h13h6t12 -1q6 -1 12 -1h13q23 1 32 -4q11 -6 11 -21q0 -68 -5 -78q-5 -11 -20 -11z" />
    <glyph glyph-name="greater" unicode="&#x3e;" horiz-adv-x="483" 
d="M448 404v-140l-413 -227v157l252 139l-252 139v158z" />
    <glyph glyph-name="question" unicode="?" horiz-adv-x="300" 
d="M116 148l28 2l29 -2q40 -2 45 -3q10 -4 10 -15l-1 -31v-2q0 -4 1 -6q1 -4 1 -9v-10t-0.5 -12t-1.5 -18v-27q0 -6 -6.5 -10.5t-14.5 -4.5h-50q-5 -1 -8.5 -1h-6.5t-10.5 0.5t-20.5 1.5q-17 2 -21 4q-9 6 -9 23l1 24l-1 30l2 21q0 30 2 36q4 9 22 9h10zM85 669q16 6 53 6
q48 0 74 -15q28 -17 45 -47q13 -22 13 -61q0 -41 -9 -66l-10 -28l-9 -29q-22 -49 -30 -74q-2 -8 -4.5 -24t-5.5 -39l-6 -35q-1 -27 -2 -41.5t-2 -16.5q-5 -12 -11 -16q-7 -4 -34 -4q-26 0 -33 5q-4 3 -7.5 14.5t-6 27t-4 32.5t-1.5 32q0 46 8 78l10 39q4 16 6 31t2 31
q0 22 -14 34t-32 12h-9q-21 -3 -27 -3q-14 0 -14 17l1 23q0 2 -0.5 8t-1.5 17v16q1 5 1 8.5v4.5v3.5t-1 7.5q-1 3 -1 9q0 14 8 20q6 5 28 12z" />
    <glyph glyph-name="at" unicode="@" horiz-adv-x="713" 
d="M575 39q1 -5 1.5 -8.5t0.5 -5.5q0 -6 -6.5 -9.5t-27.5 -9.5q-7 -2 -28 -5t-58 -8q-8 -2 -66 -3l-28 -1h-19q-23 0 -74 13q-64 14 -115 55q-38 28 -51 45q-12 15 -37 60q-11 20 -17.5 33.5t-8.5 18.5q-7 15 -14 64q-2 13 -3 23t-1 17q0 10 1 22.5t3 27.5q4 27 6 54
q2 23 35 74q23 35 38 55.5t21 27.5q40 39 81 60q2 1 15.5 6t29.5 10.5t30.5 10t18.5 5.5q16 4 37.5 6t50.5 2q63 0 135 -33q36 -17 63 -41q60 -55 82 -113q21 -59 21 -103q0 -5 -1.5 -16.5t-3.5 -30.5q-3 -18 -4.5 -29t-4 -19.5t-6 -16.5t-10.5 -21q-28 -55 -72 -82
q-32 -20 -62 -20q-19 0 -37 7q-11 4 -27 17q-8 8 -20 8q-9 0 -17 -5l-15 -11q-22 -14 -58 -22q-8 -1 -14.5 -1.5t-13.5 -0.5q-70 0 -110 55q-32 44 -32 101q0 84 58 146q49 54 115 54q24 0 45 -7q12 -4 29 -16q6 -2 15 -2q11 0 13 2l6 9q4 4 18 4l44 1q22 -4 22 -14
q0 -3 -8 -46q-5 -27 -8.5 -43.5t-4.5 -21.5q-2 -16 -3 -24.5t-1 -9.5l-10 -32l-2 -22q-3 -17 -3 -26q0 -11 8 -21q4 -6 14 -6q11 0 23 9q20 17 21 23l7 19q8 18 11 26t3.5 10t-1 -1.5t-2.5 -9.5q13 27 13 71q0 70 -20 112q-13 27 -48 56q-54 41 -100 50q-29 7 -54 7
q-19 0 -36 -4q-19 -2 -20 -3q-30 -3 -38 -6q-6 -2 -17 -9q-50 -35 -61 -39q-22 -12 -24 -17l-10 -19q-2 -3 -15 -21q-20 -26 -24 -46l-7 -24q-4 -13 -6.5 -21.5t-3.5 -13.5q-2 -21 -3.5 -33.5t-1.5 -16.5q0 -10 1.5 -22l3.5 -28q2 -14 12 -41l13 -30l11 -33l16 -13l15 -21
q24 -33 83 -54q42 -15 97 -15h17t30 1q26 1 55 6q15 2 31.5 6.5t34.5 9.5q10 2 15 2q9 0 14 -18zM371 409q-40 0 -65 -36q-21 -30 -21 -66q0 -34 18 -53q18 -18 46 -18q33 0 56 36q21 34 21 77q0 38 -15 50q-13 10 -40 10z" />
    <glyph glyph-name="A" unicode="A" horiz-adv-x="545" 
d="M289 670q10 0 15 -0.5t15 -0.5q6 0 12.5 0.5t12.5 0.5q8 0 24 -2.5t24 -10.5q5 -5 10 -14.5t8 -17.5t5 -18t7 -24l9 -31q5 -14 8 -26.5t7 -32.5q1 -11 3 -17.5t8 -23.5q5 -14 7.5 -22.5t3.5 -15.5t1.5 -12.5t1.5 -12.5q7 -41 13 -66t9 -40l15 -71q2 -8 4.5 -16t4.5 -16
q2 -6 2 -12t2 -12l19 -84q2 -11 5 -25t-2 -28q-3 -8 -7.5 -11.5t-8.5 -5.5q-7 -3 -15.5 -3t-27.5 -1l-19 -1h-8.5h-14.5t-15.5 0.5t-11.5 1.5q-8 2 -11.5 4t-6.5 6q-7 8 -8 12t-3 10l-18 52q-3 9 -6.5 12.5t-6.5 4.5q-2 1 -8 1.5t-12.5 1.5t-12.5 1.5t-7 0.5h-26
q-10 0 -22 -0.5t-24 -1.5t-23 -2.5t-18 -3.5q-9 -3 -16.5 -8.5t-12.5 -15.5q-5 -8 -7.5 -19.5t-7.5 -31.5q-1 -3 -2.5 -9.5t-6.5 -10.5q-2 -2 -5.5 -2.5t-5.5 -0.5q-5 0 -10.5 0.5t-10.5 0.5q-19 2 -37.5 0t-37.5 0q-12 1 -19 2t-14 9q-3 4 -6 10t-3 11q0 2 1.5 12.5
t2.5 12.5q1 3 1.5 5.5t1.5 5.5q2 8 2 16t2 16l5 24q5 23 6.5 35t3.5 23q4 27 8.5 39.5t8.5 26.5q1 6 2 9.5t1.5 8.5t2 12.5t4.5 21.5q1 5 3.5 18.5t4.5 18.5q7 30 13.5 55.5t13.5 52.5t14 58.5t15 73.5q5 29 10.5 48t22.5 33q10 8 16 8.5t13 0.5q5 0 8 0.5t7.5 1t11 1
t19.5 0.5h64zM297 448q-2 7 -5.5 16.5t-7.5 14.5q-5 5 -13 5t-19 -13.5t-18 -56.5q-1 -6 -1.5 -9.5t-1.5 -8.5t-2 -13t-4 -21q-3 -19 -6.5 -31t-3.5 -20v-6q0 -3 -0.5 -5.5t-0.5 -5.5q0 -5 1.5 -11.5t3.5 -10.5q2 -5 12 -11t32 -6h11t14.5 0.5t14.5 1.5t11 3q14 5 16 14.5
t2 17.5q0 12 -1 20t-2 15t-3 13.5t-4 14.5q-6 22 -6.5 30.5t-4.5 19.5z" />
    <glyph glyph-name="B" unicode="B" horiz-adv-x="576" 
d="M290 -2q-11 0 -21.5 -0.5t-21.5 -0.5q-29 0 -57 1t-57 1h-32q-14 0 -24 2t-18 14q-6 10 -9 26.5t-3 51.5q0 15 1.5 33t1.5 30q0 20 -1 41t-1 41q0 14 2 29t2 29v39.5t-1 31.5q-2 19 0 29.5t2 16.5v26.5t-1 26.5v29q0 15 0.5 22t1 11.5t1 9.5t0.5 14v82q0 10 1.5 18.5
t9.5 13.5q2 2 8 3.5t20 1.5h32q9 0 19.5 -1t30.5 -2l32 1l40 -2q14 -1 24 0.5t36 1.5q30 0 70 -7.5t71 -24.5q34 -19 50 -40.5t22 -35.5q14 -31 17 -50.5t3 -27.5q0 -10 -1.5 -22.5t-4.5 -24.5t-6 -22.5t-6 -16.5q-5 -8 -11.5 -17.5t-14.5 -17.5t-11.5 -9.5t-11.5 -8.5
q-2 -1 -4 -3.5t-2 -4.5t4.5 -5t10.5 -6q5 -2 18 -11t27 -31q7 -11 9.5 -20t4.5 -21q3 -17 6 -31.5t3 -28.5q0 -21 -5 -46t-10 -40q-11 -31 -27.5 -47.5t-30.5 -24.5q-17 -9 -41.5 -16.5t-42.5 -7.5h-11q-5 0 -10.5 -0.5t-10.5 -0.5zM269 276q-6 0 -20.5 -1t-22.5 -4
q-14 -7 -20 -24t-5 -30l1 -19q1 -12 1.5 -19.5t0.5 -12.5q0 -11 1 -15q3 -7 11.5 -10t19 -4.5t21.5 -1.5h18h25q26 0 46.5 3.5t33.5 20.5q5 8 9 18t4 24q0 15 -4 27t-10 20q-9 11 -27.5 18.5t-37.5 8.5zM304 422q12 -1 26 2t23 7q27 13 27 44q0 24 -11 37q-8 9 -18.5 13.5
t-18.5 6.5q-15 4 -35 5.5t-37 1.5q-5 0 -18.5 -1.5t-21.5 -9.5q-6 -5 -8 -18t-2 -22q0 -6 1 -13t2 -15q1 -6 2.5 -14.5t7.5 -13.5t19.5 -6t39.5 -3z" />
    <glyph glyph-name="C" unicode="C" horiz-adv-x="414" 
d="M313 -3q-7 0 -19.5 1.5t-26.5 4.5t-28 6.5t-24 7.5q-23 10 -40 22.5t-27 20.5q-22 18 -41 34t-37 44q-16 25 -26 51.5t-15.5 53t-7.5 50.5t-2 44q0 66 13.5 122t48.5 101q30 39 64.5 61.5t68 33.5t62.5 14t49 3q13 0 25 -0.5t26 -3.5q10 -2 16 -9.5t7 -36.5v-12
t-0.5 -4.5t-0.5 -3.5v-9v-8q0 -10 0.5 -17t0.5 -18q0 -14 -1.5 -18t-5.5 -8t-10 -4q-11 0 -19 2t-25 4l-9 1q-7 1 -17 -1t-21 -5.5t-21 -8t-17 -8.5q-16 -9 -25.5 -19t-20.5 -28q-11 -17 -21 -41t-10 -58q0 -23 2.5 -44t9.5 -41q5 -15 12 -30.5t16 -29.5t18.5 -25.5
t18.5 -18.5q10 -7 18.5 -10t19.5 -7l19.5 -6.5t25.5 -3.5q5 0 11 1t11 3q8 2 13 2h4q11 0 17 -7q5 -6 5.5 -13.5t0.5 -12.5q0 -4 -0.5 -7t-0.5 -7v-12v-47q0 -8 -0.5 -16t-5.5 -16q-3 -5 -10.5 -10t-26.5 -4z" />
    <glyph glyph-name="D" unicode="D" horiz-adv-x="635" 
d="M259 667h52t61 -11l29 -10q38 -13 69.5 -31.5t62.5 -54.5q27 -32 43.5 -62.5t25.5 -61t12 -63t3 -68.5q0 -57 -19.5 -105t-40.5 -77q-47 -66 -117 -94.5t-160 -28.5h-165q-29 0 -38.5 2t-11.5 4q-14 9 -16 27t-2 33q0 14 0.5 28t0.5 28q0 33 -1 54t0 44l1 28q0 5 0.5 11
t1.5 11q0 3 0.5 6t0.5 6q0 12 -1 24.5t-2 26.5v17q1 11 2.5 33.5t0.5 39.5l-2 34q-2 24 0 48.5t2 48.5q0 15 -1 29.5t-1 29.5q0 8 1.5 22t10.5 22q5 4 14.5 8t23.5 4q9 0 11 -0.5t3.5 -0.5t4 -0.5t13.5 -0.5h128zM316 148q7 0 16 2t18.5 4.5t18 5.5t14.5 6q28 13 38.5 27.5
t18.5 31.5q15 34 19 53.5t4 39.5q0 45 -9.5 72t-20.5 42q-20 28 -58.5 51.5t-93.5 21.5q-11 1 -29 -1.5t-29 -15.5t-12.5 -31t-2.5 -41l-3 -68l1 -40q1 -17 1 -33v-33v-24q1 -21 2 -28.5t3 -10.5q10 -20 32 -25.5t51 -5.5h21z" />
    <glyph glyph-name="E" unicode="E" horiz-adv-x="513" 
d="M211 665q28 -1 56 0.5t56 1.5h18q14 -1 27 -2.5t24 -0.5l36 2q5 0 10.5 -1t10.5 -9q7 -10 7 -31q0 -4 -0.5 -5t-0.5 -12q-1 -9 -2 -13.5t-2 -9.5l-4 -23q-1 -7 -2.5 -16t-6.5 -14q-2 -2 -8 -5t-21 -2l-149 6q-29 1 -42 -12q-8 -8 -9 -17t0 -15l1 -11q0 -3 0.5 -5.5
t0.5 -5.5v-12q0 -5 1 -11t6 -12q8 -11 22.5 -13t25.5 -2l39 1q9 0 16.5 0.5t19.5 0.5h6.5t2.5 -0.5l2 -1t5 -0.5l16 -1q14 -1 24.5 0.5t17.5 1.5t18.5 -2.5t16.5 -7.5q8 -8 8 -33v-44q0 -6 -1 -18t-2 -17q-2 -8 -5.5 -12.5t-8.5 -6.5q-11 -6 -22.5 -7t-22.5 -1t-26 0.5
t-31.5 1t-32.5 1.5t-27 2l-39 3q-3 0 -8.5 -1.5t-10.5 -6.5q-8 -11 -9.5 -18.5t-1.5 -12.5v-35v-12.5t2 -18.5q1 -4 2 -8.5t6 -8.5t10 -5t9 -2l18 -2q23 -2 38 -2t23 1q17 1 35 0t35 -1q9 0 18.5 1t18.5 1q22 1 32 -3.5t14 -8.5q7 -7 8 -18.5t1 -22.5q0 -16 0.5 -32t-2 -29
t-9 -21.5t-20.5 -8.5h-20q-19 0 -37.5 1t-37.5 1q-17 0 -34 -1t-34 -1h-107q-7 0 -14 0.5t-14 0.5h-24h-18q-11 0 -27 -0.5t-24 13.5q-2 3 -4 7.5t-2 9.5l-2 43q0 5 -0.5 10.5t-0.5 10.5v31l-1 53q-1 23 1 44t0 54q-1 17 -1.5 29.5t-0.5 26.5q0 10 0.5 17.5t0.5 15t0.5 17
t0.5 24.5v24q0 9 -0.5 14.5t-1 10t-0.5 10t1 14.5q0 6 0.5 13t1.5 19l1 25v13q0 8 -1 17t-2 24v18q0 10 2.5 26.5t15.5 25.5q8 5 19 7t24 1z" />
    <glyph glyph-name="F" unicode="F" horiz-adv-x="477" 
d="M124 -2q-14 0 -18.5 -0.5t-15.5 -0.5q-18 0 -25.5 3.5t-10.5 8.5q-2 3 -4.5 10t-2.5 22t0.5 19.5t1 7t1 6.5t0.5 18q0 8 -0.5 17t-0.5 17q-1 14 -0.5 28t0.5 28q0 22 0.5 34.5t1 21t1 15t0.5 15.5v24.5t-1 26.5q-1 16 -1 25.5v16v12.5v15v14v6.5t0.5 12t1.5 30.5
q2 35 2.5 47.5t0.5 17.5q0 22 -1 43t-1 43q0 25 3.5 36t7.5 16q7 9 18 12t23.5 4t25 -0.5t22.5 -1.5q24 -2 48.5 -0.5t48.5 0.5l36 -2t36 0l55 3q23 1 36.5 1t21.5 -2.5t12 -6.5t7 -10q4 -7 4 -16q0 -4 -0.5 -7.5t-0.5 -7.5q-1 -5 -1 -9v-9v-34q0 -4 -1 -13.5t-7 -17.5
q-9 -11 -21.5 -10.5t-20.5 0.5l-146 3q-4 0 -18 -1.5t-22 -11.5q-10 -11 -9.5 -26t0.5 -26v-7q0 -9 0.5 -17t6.5 -16q8 -10 28 -13.5t34 -3.5q15 0 23 0.5t12.5 1.5t6.5 1h6l34 -2q19 -1 33.5 1t31.5 -3q4 -2 10.5 -7.5t6.5 -22.5q0 -10 -1 -15q-1 -6 -1.5 -11.5t-0.5 -11.5
v-39q0 -8 -3 -13.5t-6 -8.5q-5 -4 -10.5 -5t-10.5 -1t-11 0.5t-11 0.5h-15q-14 0 -27.5 -1t-27.5 0l-42 2q-21 1 -30.5 -2.5t-15.5 -8.5q-5 -5 -9.5 -10.5t-6.5 -15.5q-3 -13 -4 -30t-1.5 -33t-0.5 -29v-19l-3 -60q-1 -14 -0.5 -22.5t0 -15t-2 -11t-6.5 -9.5
q-10 -11 -30 -11z" />
    <glyph glyph-name="G" unicode="G" horiz-adv-x="617" 
d="M490 418q23 0 41 3t31 -6q11 -8 13 -19.5t2 -19.5q2 -37 0 -72t-2 -70q0 -23 1 -47t1 -48q0 -60 -3.5 -86.5t-9.5 -36.5q-5 -9 -15 -12.5t-18 -3.5q-24 -3 -44 -3h-33h-24t-32 1t-33.5 1.5t-27.5 2.5q-30 4 -66.5 17t-72 33t-66.5 46.5t-52 56.5q-14 21 -25.5 48
t-19.5 57t-12 60.5t-4 58.5q0 12 2 35t11 53t28.5 63t54.5 65q17 16 38 29.5t51 23.5t71.5 15.5t99.5 5.5q62 0 88 -2t32 -3q19 -3 30 -9t18 -19q8 -14 8.5 -28.5t1.5 -36.5l1 -30q2 -36 -31 -36q-14 0 -32.5 5.5t-32.5 8.5q-13 3 -39 7t-52 4q-23 0 -48.5 -4t-48.5 -13
q-26 -11 -45.5 -30t-33.5 -50q-4 -9 -9.5 -28.5t-5.5 -53.5q0 -29 8 -49.5t17 -37.5q10 -20 25.5 -41t53.5 -42q20 -11 46.5 -18.5t63.5 -7.5q10 0 20 3t18 11q7 8 9.5 18t2.5 21v13.5t-1 17.5t-2.5 17t-5.5 14q-8 11 -16 13t-13 2l-14 -1q-6 -1 -11 -1.5t-10 3.5
q-5 3 -6.5 11t-1.5 18t1 20.5t1 18.5v23q0 15 3.5 23.5t9 13t11.5 6.5t12 2h13q23 -1 30.5 -2.5t19.5 -1.5h30z" />
    <glyph glyph-name="H" unicode="H" horiz-adv-x="650" 
d="M206 582q0 -4 -0.5 -8t-0.5 -8t-0.5 -8t-0.5 -8v-5q0 -7 0.5 -13t2.5 -25l2 -28q1 -11 2.5 -21t9.5 -18q5 -5 14.5 -9t22.5 -4l45 1h26.5t11 -1t12.5 -1.5t29 -0.5h7q3 0 8 2t19 7q8 4 11 7t5 7q5 6 9.5 12.5t4.5 20.5l-3 132q0 17 -0.5 28.5t8.5 19.5q7 6 20 6l62 -2
q6 0 12.5 0.5t12.5 1.5q5 1 10 1.5t10 0.5q9 0 13.5 -3.5t6.5 -5.5q5 -6 5.5 -11t0.5 -13l-1 -22l-2 -24v-10t0.5 -9t1 -12.5t0.5 -19.5v-9q0 -11 -1 -22.5t-1 -22.5q0 -15 0.5 -30t0.5 -30q0 -17 -0.5 -32.5t-0.5 -32.5v-10l-1 -90q0 -14 0.5 -26.5t-0.5 -26.5l-2 -28
t0 -28l5 -114q1 -15 -2 -22t-5 -9q-5 -6 -8.5 -6.5t-8.5 -0.5h-15q-5 0 -10.5 0.5t-19.5 0.5l-48 -1q-16 0 -23.5 4t-9.5 6q-7 7 -9.5 15.5t-2.5 18t1 19t1 19.5v104q0 20 -1.5 36t-3.5 21q-2 7 -9 13.5t-18 9.5q-6 1 -16.5 2t-22.5 2t-24.5 1h-22.5h-54q-23 0 -38 -9
t-20 -20q-8 -17 -8 -26v-20l-2 -165q0 -5 -1.5 -11t-6.5 -11t-12.5 -6.5t-11.5 -1.5q-7 0 -14 0.5t-14 0.5h-13q-10 0 -20 -1t-30 0q-13 1 -17.5 2.5t-8.5 6.5t-5.5 12t-1.5 23q0 11 1 19t2 22t0 23.5t-1 21.5v88q0 13 -1 28t-1 35q0 19 2 37t1 44l-1 42v102q0 28 -0.5 43.5
t-1 26.5t-0.5 22t1 30l1 18q0 3 1 7.5t5 7.5t11 5t12 2l100 -1q5 0 11 -0.5t11 -5.5q3 -3 5.5 -8.5t2.5 -13.5z" />
    <glyph glyph-name="I" unicode="I" horiz-adv-x="268" 
d="M54 506q0 9 1 18.5t1 18.5q0 4 -0.5 7.5t-0.5 7.5v11t-1 11l-3 27l-1 17q0 5 2 15t13 19q8 6 14 8t12 2l86 1q13 0 21.5 -5.5t12.5 -13.5t5.5 -17.5t1.5 -16.5q0 -14 -0.5 -27.5t-1.5 -30.5l-1 -43q0 -5 -0.5 -8.5t-0.5 -8.5q0 -10 1.5 -19.5t1.5 -20.5l-1 -58v-77
q0 -21 0.5 -32t0.5 -24v-135q0 -10 -0.5 -19.5t-0.5 -19.5q0 -5 1 -7v-15v-22q0 -17 1 -26t-7 -18q-3 -4 -6.5 -5t-12.5 -1q-11 0 -17.5 0.5t-25.5 0.5h-74q-6 0 -10.5 3.5t-6.5 5.5q-4 5 -4.5 11.5t-0.5 8.5v3t1 6v11l1 19q0 9 0.5 27t1 36.5t0.5 34v21.5l-1 178l-3 87z
" />
    <glyph glyph-name="J" unicode="J" horiz-adv-x="331" 
d="M292 483q0 -4 -0.5 -8t-0.5 -8v-9l-3 -214v-32.5t-1 -32.5q0 -8 -0.5 -16t-0.5 -16v-7t-1 -10q-5 -37 -22 -64.5t-37 -42.5q-20 -14 -43.5 -19t-43.5 -6l-41 -1q-8 0 -20.5 -1t-25.5 -0.5t-24 3t-17 8.5q-7 6 -8.5 20.5t-1.5 19.5l-1 48q0 8 -0.5 20.5t6.5 20.5t16.5 9.5
t17.5 1.5l29 1q6 0 12 0.5t11 2.5q16 6 23 20.5t10 28.5q2 11 3 20.5t2 18.5q2 25 1.5 50t0.5 48l1 29l-1 239q0 20 -0.5 30t4.5 17q9 15 31 13.5t55 0.5l40 3q11 1 23 -7q9 -6 9 -20q0 -5 -0.5 -9.5t-1.5 -9.5q-1 -6 -1 -11.5v-11.5z" />
    <glyph glyph-name="K" unicode="K" horiz-adv-x="575" 
d="M144 671q14 0 30 1t26 -7q11 -8 11.5 -21t-0.5 -23l-1 -13q-2 -28 -0.5 -53t1.5 -39q0 -19 -1 -33t3 -25q4 -10 14 -10q8 0 15 5t10 9l27 36l10 12l10 12q9 11 16 24t16 24l23 30q12 15 16.5 22.5t11.5 18.5l9 13q2 4 7.5 8t8.5 6q6 3 12 3h12h16q8 0 16 -1t16 -1h23
h10.5t10.5 1t10 1h10q15 0 22 -5q6 -4 6 -13q0 -11 -3.5 -17t-6.5 -9q-5 -5 -7 -10t-10 -13q-5 -5 -9 -8.5t-7 -8.5l-30 -44q-4 -6 -11 -15.5t-14 -18.5t-13 -16t-9 -10q-2 -2 -3.5 -4t-5.5 -7l-17 -25q-10 -15 -22 -30t-17 -26q-2 -3 -4 -12t-2 -13q0 -11 1.5 -17t3.5 -10
l3 -7.5t5 -10.5q8 -15 16 -30.5t16 -30.5q5 -9 9.5 -17.5t9.5 -17.5q2 -5 4.5 -9.5t5.5 -9.5q2 -2 2.5 -4t2.5 -4q4 -7 5.5 -11t3.5 -9q9 -22 11 -27.5t4 -8.5l29 -47q3 -5 8.5 -15t11 -21.5t10.5 -22.5t6 -17q0 -2 0.5 -4t-0.5 -4q-2 -6 -6 -9q-5 -5 -11 -5h-13h-59
q-11 0 -14.5 0.5l-7 1t-10 0.5h-22.5h-12q-7 0 -14 4q-8 5 -13 17q-3 7 -5.5 15.5t-7.5 17.5l-13 28q-10 22 -16.5 35.5t-11 22t-7 12.5t-4.5 7q-4 5 -7 9t-5 9t-2.5 5t-2.5 2q-3 3 -4.5 8.5t-9.5 19.5l-9 17q-4 8 -8.5 11t-6.5 4t-2.5 1t-2.5 1q-2 2 -4 2h-4q-3 0 -7.5 -1
t-9.5 -9t-5.5 -13.5t-0.5 -7.5l-1 -30q0 -9 -1 -14t-2 -10.5t-1 -10.5t0.5 -8.5t0.5 -8.5q1 -11 0.5 -22t0.5 -22l2 -48q1 -9 -4 -21t-16 -20q-2 -1 -6 -2.5t-10 -0.5l-33 -1l-19 -1h-6.5t-3.5 0.5t-5.5 1t-12.5 0.5h-5q-8 0 -18 -0.5t-17 8.5q-6 8 -6 16v6.5t1 6.5
q1 8 1 14.5v14.5l-1 124q0 44 2 79.5t3 58.5v31q-1 37 -2 55.5t-1 35.5v65q0 8 1 12t1 8q0 6 -0.5 8.5t-0.5 4.5t-0.5 5.5t-0.5 11.5v71q0 7 1.5 14.5t7.5 13.5q7 7 14 7.5t15 0.5z" />
    <glyph glyph-name="L" unicode="L" horiz-adv-x="456" 
d="M47 594v41q2 18 11 26q11 10 30.5 9t36.5 -1h55q6 0 13 -1t13 -8q8 -8 7.5 -18t-1.5 -18l-2 -24q-1 -13 0 -26t1 -26q0 -15 -1 -30t-1 -30q0 -14 0.5 -28.5t1.5 -28.5t1.5 -28.5t0.5 -28.5q0 -7 -0.5 -17.5t-1.5 -28.5q-2 -12 -2.5 -18.5t-0.5 -14.5v-17q0 -8 0.5 -22
t1.5 -30t2.5 -30t3.5 -20q5 -14 14.5 -17t14.5 -3l142 -1q17 0 19.5 0.5t13.5 0.5q10 0 15 -3t7 -5q2 -3 4 -10t2 -19v-33q0 -7 -0.5 -10.5t-0.5 -8v-13.5t1 -26q0 -6 -0.5 -13t-7.5 -12q-8 -6 -23 -6q-6 0 -7.5 0.5t-3.5 0.5t-7.5 0.5t-19.5 0.5h-70l-36 1q-25 1 -45 0
t-29 -2q-23 -1 -40 0.5t-33 1.5h-16q-15 0 -26.5 -1t-23.5 12q-8 9 -10 17t-2 14q0 14 1 26.5t1 26.5q0 11 -0.5 23t0.5 23q0 7 0.5 13t0.5 13v34q0 14 -1 26.5t-2 32.5v19q0 13 1 25.5t1 25.5l-1 41q0 13 -0.5 26t-0.5 26q0 29 0.5 58t-0.5 58z" />
    <glyph glyph-name="M" unicode="M" horiz-adv-x="732" 
d="M53 518q0 13 -0.5 18t-1 8.5t-1.5 8.5t-1 19v12t-1 12q0 2 -0.5 3.5t-0.5 3.5v12q1 13 2.5 23.5t9.5 18.5q2 2 6.5 5t14.5 4q6 1 11.5 0t11.5 -1q7 0 13.5 0.5t13.5 0.5q3 0 5.5 -0.5t5.5 -0.5q7 0 13 0.5t13 0.5q13 0 21.5 -9.5t19.5 -27.5q3 -4 11.5 -17.5t18 -28.5
t18 -28.5t11.5 -17.5q5 -8 13.5 -19.5t18 -24t19 -25.5t17.5 -22q2 -3 7.5 -9.5t12 -13.5t13 -12t9.5 -5q2 0 4.5 2t8.5 10q3 5 4.5 8t6.5 10q2 3 5.5 7t10.5 15l14 21q5 8 10.5 17t11.5 17q2 4 5 7t5 7q3 5 12 21t15 27l32 62q2 3 8 12.5t9 12.5q2 2 7 5.5t12 3.5l73 -2
q15 0 23 -1t12.5 -3t6.5 -4.5t5 -5.5q2 -2 5 -7t2 -15l-1 -26v-94q0 -20 -1 -28t-1.5 -14.5t-1 -16t0.5 -32.5q1 -30 1.5 -46t0.5 -26.5t-1 -18.5t-1 -21v-29t1 -17.5t1.5 -21.5t0.5 -41v-8q0 -8 -0.5 -18.5t-2.5 -39.5l-1 -18q0 -10 0.5 -15t1 -9t1.5 -8t1 -13v-19
q0 -7 -1 -16t-4 -17.5t-9.5 -14t-18.5 -5.5h-106q-4 0 -7 0.5t-7 2.5q-10 6 -10 25q0 15 2.5 31.5t2.5 25.5l-1 176q0 6 -1.5 14t-7.5 13t-8 5q-5 0 -11 -4q-5 -3 -7.5 -5t-5.5 -5.5l-9 -10.5t-18 -22l-35 -42q-8 -11 -12 -17t-10 -11q-6 -6 -16 -6q-5 0 -10.5 1.5t-9.5 3.5
q-2 2 -9.5 8t-22.5 26l-24 32q-7 9 -10 12t-6.5 6t-8 8t-14.5 17l-12 15q-4 5 -12 11t-16 6q-13 0 -15 -12t-2 -18t-0.5 -12t-0.5 -12v-12l-4 -165v-13v-6.5t0.5 -11t0.5 -25.5q0 -6 -1.5 -14t-6.5 -13q-3 -2 -8.5 -3.5t-9.5 -1.5h-6q-6 1 -8.5 2t-11.5 0l-44 -3h-8h-13
t-13.5 0.5t-9.5 0.5q-1 0 -5 1.5t-7 4.5q-5 5 -5.5 11t-0.5 7v17v18l-2 39q-1 21 2.5 39.5t3.5 34.5q0 9 -0.5 15t-0.5 12t-0.5 14.5t-0.5 22.5v53v33.5t0.5 16.5t0.5 17v35l-1 78z" />
    <glyph glyph-name="N" unicode="N" horiz-adv-x="646" 
d="M333 196q-9 14 -16 25.5t-21 33.5q-12 19 -18 27t-11 18l-7 13q-13 24 -16.5 31.5t-6.5 10.5q-2 2 -6 4.5t-8 2.5q-8 0 -10 -6t-3 -8q-1 -4 -2.5 -13t-0.5 -26l1 -18q1 -17 1 -25v-18v-13q0 -10 -1 -19.5t-1 -19.5q0 -7 1 -13.5t1 -13.5l2 -98q0 -5 0.5 -9.5t1.5 -9.5
q1 -9 1.5 -13t0.5 -7q0 -12 -4.5 -19.5t-9.5 -9.5q-9 -5 -26.5 -4t-26.5 1h-74q-8 0 -10.5 2t-4.5 4q-7 9 -7 17q1 15 1.5 16t0.5 6v24l1 154q0 19 -1 37t-1 37v13q0 11 0.5 22.5t1.5 22.5q0 5 0.5 11t0.5 11q0 14 -1 29t-2 29q-2 21 -2 42.5v42.5v49q0 10 -1 19.5t-2 19.5
q-1 7 -1 14v14q0 13 2 19t4 8q5 5 10.5 6t10.5 1h6q23 0 46 -1t48 1h18t13 -3t12 -11t16 -23l74 -112q6 -9 10.5 -16.5t9 -15.5t10 -17.5t14.5 -22.5l22 -33q6 -11 10.5 -19t8 -16t8 -17.5t10.5 -21.5q3 -5 9.5 -16.5t11.5 -11.5q1 0 3 1t3 7q1 4 0.5 8t-1 9.5t-1 14.5
t-0.5 23q0 9 1 17.5t1 17.5q0 16 -1.5 29.5t-0.5 24.5l1 13q1 9 0.5 21l-1 24t-1 22.5t-0.5 15.5v9q0 13 0.5 25.5t0.5 25.5q0 8 -0.5 14.5t0.5 14.5q0 8 4 12q5 5 7 4.5t6 -0.5l33 -1h9.5t4 0.5t3.5 0.5h7q7 -1 12 -1.5t11 -0.5h17q9 0 20 0.5t20 -7.5q4 -3 6.5 -9.5
t2.5 -18.5q0 -8 -0.5 -14.5t-1.5 -26.5l-1 -31v-19v-10.5v-14v-28.5q0 -8 -0.5 -20t-0.5 -37q-1 -19 -1 -29.5t-1 -24.5q-1 -27 -1 -38v-20v-22.5t-1 -44.5l-2 -84q0 -19 0.5 -33t2 -25.5t3 -21.5t1.5 -22l1 -33q0 -8 -0.5 -15t-6.5 -12q-8 -7 -22 -7q-8 0 -18.5 1t-17.5 1
h-38q-5 0 -20 2t-23 14l-39 55q-17 25 -26.5 45.5t-26.5 44.5z" />
    <glyph glyph-name="O" unicode="O" horiz-adv-x="666" 
d="M130 67q-9 7 -15 11.5t-11.5 10t-11.5 14t-16 23.5q-15 23 -27 45t-18 54q-2 7 -4 22.5t-3.5 32.5t-3 32t-1.5 22q0 15 2.5 32t5.5 33t6.5 29.5t5.5 20.5q9 29 28 61t39 58q20 25 34.5 38t22.5 19q16 12 38.5 21t46 15.5t46 10t39.5 3.5q51 0 86.5 -12.5t53.5 -21.5
q24 -12 43 -26t33 -28t23.5 -25.5t13.5 -17.5q14 -21 26 -47t20 -48q2 -6 5 -16t5.5 -26t4 -39.5t0.5 -56.5q-1 -57 -15 -100.5t-33.5 -76t-40 -53.5t-35.5 -31q-29 -21 -56 -32t-50.5 -16.5t-42 -6.5t-30.5 -1q-55 0 -99.5 9t-87.5 43zM492 322q0 27 -5 59t-19 55
q-8 15 -21 29t-30 25.5t-37.5 18.5t-43.5 7q-17 0 -25 -2.5t-18 -4.5q-11 -3 -24 -6t-33 -20q-30 -25 -46.5 -63.5t-16.5 -80.5q0 -29 6.5 -61.5t26.5 -64.5q21 -35 58.5 -51.5t75.5 -16.5q22 0 40.5 6.5t32.5 16t23.5 19.5t15.5 17q19 24 29.5 56.5t10.5 61.5z" />
    <glyph glyph-name="P" unicode="P" horiz-adv-x="584" 
d="M52 541q0 8 -1 14t-1.5 12.5t-1.5 15.5t-1 22q0 17 4.5 26t9.5 14q4 4 12 7.5t21.5 6t35 4.5t53.5 3l78 3q18 1 45.5 -0.5t58.5 -8t63 -19t60 -33.5q22 -17 32.5 -27t22.5 -29q7 -11 13 -24t10 -24q5 -15 7 -31.5t2 -42.5q0 -13 -1 -32t-4.5 -40t-10.5 -43t-19 -41
q-11 -17 -32 -38t-57 -38q-35 -17 -66.5 -20.5t-54.5 -3.5q-5 0 -11 0.5t-11 1.5q-10 2 -16 2l-18 1q-9 1 -24.5 -0.5t-26.5 -7.5q-15 -9 -18 -21.5t-3 -21.5v-5q0 -14 1 -23.5t2 -29.5l1 -28q1 -17 -1.5 -24.5t-7.5 -11.5q-4 -4 -9.5 -5.5t-22.5 -1.5q-6 0 -21 1t-23 2
l-9 1q-10 1 -17.5 -1t-24.5 -2h-6q-9 0 -12.5 6t-3.5 35v131q0 7 0.5 13t1.5 13q1 9 1 18.5v18.5v46q0 17 0.5 32.5t1.5 32.5q0 8 0.5 17t0.5 17q0 22 -0.5 34t-0.5 20.5t-0.5 17.5t-0.5 25v64zM209 413q-1 -18 3 -39t11 -32q11 -18 32 -23.5t49 -5.5q14 0 27.5 2t28.5 7
q16 6 23 12.5t15 15.5q11 13 20 29t9 48q0 13 -4 24.5t-8 22.5q-4 9 -8.5 17.5t-20.5 19.5q-4 3 -12 7.5t-20.5 8.5t-30.5 7t-41 2q-3 0 -10.5 -0.5t-16 -2t-17 -5t-13.5 -9.5q-10 -12 -12 -24.5t-2 -20.5z" />
    <glyph glyph-name="Q" unicode="Q" horiz-adv-x="652" 
d="M648 49v-7t0.5 -1.5t0.5 -2.5v-9q0 -5 -0.5 -14t-8.5 -12q-2 -1 -8 -1.5t-12.5 -1t-12 -1t-6.5 -0.5h-16q-8 0 -19.5 1.5t-31.5 6.5q-11 3 -17.5 7.5t-10.5 7.5q-5 4 -9 8t-12 4q-5 0 -11 -4t-14 -8q-24 -12 -53.5 -18.5t-73.5 -6.5q-48 0 -85.5 8t-72.5 28
q-34 19 -57.5 40.5t-39.5 42.5t-25 40.5t-15 35.5q-11 34 -15 66.5t-4 78.5q0 57 13.5 104.5t31.5 78.5q9 15 21.5 31t27.5 31t31 28t31 22q38 23 79 30.5t71 7.5q63 0 118.5 -22t99.5 -66q24 -24 40.5 -49.5t26.5 -54.5t14.5 -63t4.5 -75q0 -9 -1 -24.5t-3.5 -33t-6 -35
t-8.5 -31.5q-2 -3 -2.5 -6.5t-2.5 -6.5q-2 -4 -2.5 -7t-2.5 -7q-4 -10 -8 -19t-4 -14q0 -7 8 -9.5t19 -4.5q5 -1 15 -2t14 -6q2 -2 3.5 -9.5t1.5 -11.5l-1 -12v-52zM438 231q7 -4 13 3t10 14q14 26 17.5 52.5t3.5 37.5q0 28 -7.5 62t-31.5 63q-23 29 -54 42t-59 13
q-10 0 -22 -2.5t-24 -6t-22.5 -8.5t-16.5 -9q-14 -10 -27 -23t-23 -28q-17 -26 -21.5 -48.5t-4.5 -49.5q0 -50 14 -92.5t56 -72.5q32 -23 49 -28.5t23 -5.5q5 0 13 0.5t16 1.5t14.5 2.5t9.5 2.5q8 2 11 4.5t4 4.5q1 5 -9 20q-4 5 -5.5 7.5t-3.5 5.5q-3 6 -3 11q0 11 10 22
t21 16q8 4 12 5t6 1q3 0 8 -2t7 -4t5 -4l6 -4z" />
    <glyph glyph-name="R" unicode="R" horiz-adv-x="560" 
d="M89 -3h-13.5t-14 2t-10.5 8t-4 18q0 6 0.5 11.5t0.5 11.5q0 9 -0.5 17.5t-0.5 17.5q0 7 0.5 13t1.5 13q0 4 0.5 7.5t0.5 7.5l1 40v30.5t-0.5 20t-1.5 15.5t-1 17v9q0 13 0.5 25t1.5 25q1 25 0 49t0 49q0 19 1 33.5t1.5 27.5t1 26.5t0.5 31.5l-2 113q0 4 1.5 12t9.5 15
q5 4 14.5 6.5t17.5 2.5l64 -2q25 -1 37.5 -1h20t14.5 0.5t21 0.5q5 0 8.5 -0.5t8.5 -0.5q20 0 43 -1t47 -6t47.5 -14.5t46.5 -25.5q32 -23 54 -64t22 -104q0 -15 -2.5 -34t-7 -38t-11.5 -36t-16 -29q-1 -2 -2 -2.5t-2 -2.5q-2 -2 -2.5 -3.5t-2.5 -3.5q-7 -10 -12.5 -15.5
t-10.5 -11t-12 -12.5t-17 -20q-9 -11 -9 -22q0 -7 2.5 -11.5t11.5 -12.5q17 -15 31.5 -22t24.5 -11q11 -5 17.5 -7t10.5 -6q4 -5 5 -12.5t1 -12.5q0 -11 -1 -23t-1 -23l-1 -30l-1.5 -31.5t-8.5 -16.5q-6 -5 -18 -7.5t-19 -2.5q-5 0 -18.5 1t-25.5 9q-7 5 -20 16
q-20 17 -32.5 27t-23.5 22l-16 18l-8 8q-5 2 -5.5 3t-1.5 2l-26 16q-12 8 -18 14.5t-20 11.5q-7 2 -11 2.5t-10 0.5q-2 0 -10 -1.5t-13 -7.5q-7 -8 -8 -15t-1 -9v-55q0 -8 0.5 -13t1.5 -10q3 -9 3 -17q0 -18 -15.5 -20t-32.5 0q-5 1 -13 1zM210 325q2 -21 11 -26
q4 -2 10.5 -3.5t12.5 -1.5q17 0 31.5 5.5t26 13.5t19.5 16t12 13t10.5 14t13 21t11 27.5t4.5 32.5t-6 33t-18 27q-15 14 -40 18t-47 4q-14 0 -28.5 -3t-19.5 -16q-2 -4 -3.5 -12t-1.5 -18q0 -7 0.5 -11.5t0.5 -10v-13.5t-1 -22q0 -5 -0.5 -16.5t-0.5 -16.5z" />
    <glyph glyph-name="S" unicode="S" horiz-adv-x="411" 
d="M365 580v-10.5v-6t0.5 -6t0.5 -9.5q0 -3 -1 -9.5t-5 -11.5q-4 -4 -9.5 -5t-10.5 -1h-5q-14 0 -27.5 1.5t-27.5 3.5q-8 1 -15 1.5t-13 0.5q-16 0 -28.5 -3t-21.5 -13q-7 -7 -9 -14t-2 -13t2.5 -13.5t11.5 -19.5q2 -3 11.5 -12.5t40.5 -33.5l23 -18q20 -16 45.5 -38.5
t43.5 -57.5q12 -23 16 -50t4 -46q0 -38 -9.5 -66t-24 -48.5t-31.5 -34t-31 -22.5q-19 -11 -48.5 -19.5t-85.5 -8.5h-29.5t-35 1.5t-33 5.5t-24.5 12q-3 3 -6 9t-3 13l1 28q1 22 0.5 33t-1 17t-1 9.5t-0.5 8.5q0 14 7 20q5 4 13.5 6t14.5 2q4 0 12.5 -1t18.5 -2.5t18.5 -3
t12.5 -2.5q8 -2 13 -2.5t17 -0.5q5 0 13 0.5t17 3t17.5 7.5t14.5 15q3 5 6 13t3 16q0 10 -3 17.5t-7 13.5q-8 12 -15.5 19t-16.5 15q-24 18 -38 31q-5 5 -10 9.5t-10 9.5q-7 6 -13 12t-13 12l-20 18q-6 6 -15.5 17.5t-19 29t-16 40.5t-6.5 52q0 41 10.5 67.5t21.5 39.5
q22 28 70.5 44.5t133.5 16.5q10 0 23.5 -0.5t27 -2t25.5 -4t20 -7.5q10 -6 11.5 -16t0.5 -34z" />
    <glyph glyph-name="T" unicode="T" horiz-adv-x="408" 
d="M359 666q14 0 21 -3.5t11 -6.5q7 -7 8.5 -14.5t1.5 -14.5v-45q0 -5 -0.5 -8.5t-0.5 -8.5q-1 -6 -1 -11.5v-11.5v-7q0 -9 -5 -16l-4 -4t-7 -3l-40 1q-6 0 -17 -1.5t-22 -12.5q-3 -3 -10.5 -17t-7.5 -48v-30q0 -27 0.5 -36.5t0.5 -13t-0.5 -6.5t-2.5 -18q-3 -23 -2 -33
t1 -26v-59v-21.5t-1 -28.5q0 -8 -0.5 -13t-0.5 -10.5t0.5 -12.5t0.5 -18l3 -60q1 -17 -0.5 -25t-6.5 -13q-8 -8 -16 -8l-44 -3q-13 -1 -23.5 0t-15.5 1h-34q-5 0 -10 2.5t-10 11.5q-4 8 -4 17l1 32v10q0 5 0.5 9t0.5 9v28.5t-1 28.5q-1 8 -1.5 16.5t0.5 16.5l3 54
q1 7 0.5 14t0.5 14q0 4 0.5 7t0.5 7v12q-1 8 -1 11.5t-1 14.5v11.5v9t0.5 10t0.5 14.5v87q0 17 0.5 30t-13.5 29q-5 6 -11.5 8t-11.5 2l-55 -1q-10 0 -14.5 2.5t-7.5 7.5q-5 8 -5 27v21t1 22l1 16q0 2 0.5 8t1 13t1.5 13t3 9q3 5 13 10t27 5q10 0 19 -0.5t19 -1.5
q14 -1 27.5 -0.5t27.5 0.5q25 0 49.5 -1t49.5 -1z" />
    <glyph glyph-name="U" unicode="U" horiz-adv-x="631" 
d="M37 584l1 43q0 13 2 20t8 14q3 3 7 5t13 3h5q2 0 5 -0.5t5 -0.5h11l28 2t23 0l40 -2q11 0 17 -8q5 -7 5 -19q0 -7 -1 -14.5t-2 -16.5q-1 -5 -1.5 -17.5t-0.5 -23.5l1 -46v-42q0 -20 -1 -39.5t-1 -39.5t0.5 -39.5t0.5 -39.5q0 -11 -0.5 -17.5t1.5 -26.5l1 -18
q0 -8 1.5 -18.5t3.5 -21t4.5 -19.5t4.5 -15q8 -18 30.5 -33.5t70.5 -15.5q14 0 34 4.5t42 21.5q15 12 20.5 23.5t7.5 16.5q1 4 2.5 16.5t2 27.5t1 29t0.5 23l-1 77q0 18 1 35.5t2 29.5v19q0 8 -1 15.5t-1 15.5q-1 14 -0.5 24.5t0.5 32.5l-1 67q0 10 3 22.5t11 20.5
q8 7 18.5 8.5t19.5 1.5h76q14 0 20.5 -4t8.5 -6q6 -7 7.5 -17t1.5 -13l1 -40q0 -8 -0.5 -14.5t-0.5 -14.5q0 -6 -0.5 -12t-0.5 -12v-30t0.5 -12t0.5 -9.5v-21.5l-1 -63q0 -27 -0.5 -45.5t-0.5 -32t-0.5 -23.5t-0.5 -19l-2 -46q-2 -33 -5 -62.5t-12 -55.5t-26 -47.5
t-46 -38.5q-28 -17 -70 -27.5t-96 -10.5q-15 0 -38.5 0.5t-50.5 3.5t-54.5 9t-48.5 17q-32 16 -51 38.5t-29 45.5t-13.5 42t-4.5 28q0 6 -0.5 9t-1 7.5t-1.5 11.5t-2 20q0 4 -0.5 8t-0.5 8q0 11 0.5 20.5t1.5 20.5v14.5v18t-0.5 24.5t-0.5 35v122l-2 62v27z" />
    <glyph glyph-name="V" unicode="V" horiz-adv-x="497" 
d="M173 559q1 -5 2 -8t2.5 -12t4.5 -27.5t9 -54.5q1 -5 2 -8t2.5 -6t3 -8.5l4.5 -16.5q5 -23 6 -30t1 -10v-7.5t5 -22.5l8 -32q4 -14 6 -24t4 -21t4.5 -22t10.5 -11q5 0 8.5 10.5t7.5 25.5l11 46q4 15 5.5 29t3.5 24q1 9 5 22q5 18 8 36t8 36l10 42q0 2 0.5 2.5t0.5 2.5t2 6
q6 16 5 27t4 31l10 37q2 8 2.5 12.5t2.5 11.5q2 12 9 21q10 11 25.5 10.5t28.5 -1.5l29 -2q10 -1 14 0t10 1h10h1q6 0 12.5 -1t11.5 -6t6 -10t1 -11q0 -11 -2 -20t-7 -30l-14 -63q-9 -42 -12.5 -58t-4.5 -22t-1.5 -10.5t-4.5 -22.5l-5 -22.5t-6.5 -27.5t-7 -27t-5.5 -22
l-11 -39q-3 -13 -4.5 -17.5l-2 -6t-1 -3.5t-1.5 -9q-2 -11 -3 -13.5t-3 -10.5q-3 -14 -4 -21.5t-2 -16t-3 -19.5t-8 -30l-19 -67q-1 -5 -3.5 -12t-5 -14.5t-5 -14t-4.5 -9.5q-11 -13 -57 -15l-55 -2h-21t-26.5 0.5t-25 2t-15.5 3.5q-8 4 -15.5 19t-13 32t-9 32.5t-4.5 21.5
l-13 71q-6 30 -10 48t-7 30t-6 21t-6.5 22t-7.5 33.5t-10 55.5q-2 12 -3 20.5t-3 19t-5.5 25.5t-9.5 40l-19 76q-7 28 -8.5 45.5t-1.5 22.5t1.5 13t8.5 13q6 5 12.5 5h14.5l47 -2h7.5t4 0.5t7.5 1t17 0.5q8 0 17 -2t14 -10q4 -5 6 -16.5t9 -40.5z" />
    <glyph glyph-name="W" unicode="W" horiz-adv-x="775" 
d="M13 568q-8 40 -11.5 53t-3.5 20q0 18 9 23q6 4 14 4q9 1 11.5 1t4.5 -0.5t5 -0.5h13q8 1 18 1h24q28 0 37.5 -3t14.5 -11t8.5 -19.5t5.5 -20.5q4 -23 5 -30t1 -9.5v-6t3 -20.5q3 -20 8.5 -35t10.5 -35l6 -24q3 -10 4.5 -15.5t3 -10.5t3.5 -12t5 -21q4 -20 7 -33.5
t8 -35.5q6 -25 11 -44t9 -41q1 -6 3.5 -13.5t8.5 -7.5q4 0 7.5 6t6 14.5t4 16.5t2.5 13q2 13 7.5 33.5t9.5 30.5l9 23q1 4 3 6.5t3.5 6t2.5 9t1 15.5v16q0 13 -1 21.5t-2.5 15t-3 14t-2.5 18.5l-2 19q-1 8 -3 14.5t-4 14.5q-2 6 -2 11.5t-1 11.5q-1 7 -2 12t-2.5 10.5
t-3 12.5t-3.5 18l-4 25l-3 21t6 12q6 5 24 5l60 -2l36 2q14 1 19 -3t7 -7q6 -11 7 -15t2 -11l16 -112q4 -27 12.5 -59t15.5 -64t9.5 -46.5t3.5 -22.5t2 -14.5t4 -22.5q6 -27 9.5 -35.5t3.5 -13.5q0 -2 1 -5q2 -4 4 -4h2q5 0 8 6q5 13 5 14.5t2 9.5l3 9q5 15 7 31t7 31
q3 11 6.5 20.5t5.5 20.5l10 62q3 16 6.5 26.5t7.5 21.5t8 24.5t8 34.5l8 47q1 6 5 21.5t6 23.5t7.5 16.5t10.5 11.5t11 3h11l60 -2q14 -1 24 -0.5t19 -4.5q4 -2 8 -7t4 -9q0 -3 -0.5 -7t-2.5 -12l-5 -19q-6 -21 -8 -31l-3 -15t-0.5 -7.5t-0.5 -9.5q-3 -12 -5 -14q0 -1 -2 -7
q0 -2 -0.5 -3.5t-0.5 -3.5q-2 -11 -5 -20.5t-6 -19.5l-9 -34q-4 -14 -6.5 -26.5t-5.5 -26.5q-4 -17 -7 -34t-8 -34t-7 -25t-3.5 -11.5t-2 -4.5t-1.5 -5t-3.5 -13t-7.5 -28q-2 -11 -3.5 -15t-2.5 -6q-2 -5 -2 -10t-4 -23q-4 -17 -5 -26t-3 -16l-17 -62q-6 -21 -9 -33.5
t-5.5 -19.5t-5.5 -10.5t-9 -6.5q-5 -2 -9.5 -4t-14.5 -2q-6 0 -8 0.5t-6.5 0.5t-14 0.5t-31.5 0.5h-86q-11 0 -18 6t-10 11q-8 12 -10 23.5t-4 19.5q-1 3 -1 5t-1 5q-2 3 -3 6.5t-3 11.5l-4.5 15t-2 7.5t-1.5 4t-2 4.5l-5 17q-1 2 -1 2.5t-1 2.5q0 1 -0.5 1.5t-0.5 1.5
q-5 7 -10 0q-2 -3 -5 -10t-6 -15.5t-5.5 -16.5t-3.5 -12l-9 -42q-4 -16 -7.5 -27.5t-9.5 -16.5q-8 -8 -19.5 -7t-22.5 1l-103 2q-11 0 -17.5 2.5t-8.5 4.5q-7 6 -12 18t-8.5 27t-5.5 30.5t-4 27.5l-6 36q-5 26 -14 51.5t-14 51.5q-2 11 -3 21t-3 21q-5 28 -16 65t-21 83z
" />
    <glyph glyph-name="X" unicode="X" horiz-adv-x="545" 
d="M208 594q4 -9 6.5 -12.5t4.5 -6t4 -6t5 -10.5q4 -8 8.5 -17.5t18.5 -29.5q7 -9 11 -12t8 -3q5 0 7 1.5t4 3.5q5 7 8.5 12.5t6.5 10.5l12 18q8 11 13.5 24t13.5 24q2 2 3 4t3 4q4 5 7 9.5t7 12.5t5 12t3 7q2 4 5 7q1 2 2 3t2 3q6 9 15 13q5 2 6.5 2h4.5q7 0 9.5 0.5t6.5 1
t11.5 1t24.5 -0.5l28 -1h3q2 0 2.5 -0.5t2.5 -0.5l45 1q9 0 12.5 -3.5t5.5 -7.5q2 -5 2 -11q0 -4 -0.5 -6t-2.5 -7q-9 -19 -15.5 -26t-12.5 -17q-2 -3 -3.5 -5.5t-6.5 -10.5q-3 -4 -4.5 -6.5t-3.5 -5t-4.5 -6.5l-7.5 -12q-17 -27 -21.5 -36t-8.5 -13l-3 -3q-1 -2 -1.5 -2.5
t-1.5 -2.5l-24 -34q-7 -10 -9 -14l-4 -8t-6.5 -11.5t-15.5 -23.5q-11 -17 -17 -23t-10 -14q0 -1 -0.5 -1t-0.5 -1q-1 -2 -2 -3t-2 -3q-4 -5 -5 -10t-2 -12v-3q1 -4 7.5 -14t13.5 -18q5 -6 7 -7.5t3.5 -4t4 -8t10.5 -18.5l73 -127q14 -24 19.5 -34.5t8 -14.5t4 -6t7.5 -11
q3 -4 8 -10.5t9.5 -13t8 -13.5t3.5 -12q0 -1 -0.5 -4t-4 -6.5t-10.5 -6t-19 -2.5h-5q-11 0 -15 0.5t-6 1t-3.5 1t-5.5 0.5l-73 -2q-8 0 -12 3l-8 6q-5 4 -8 7t-8 12q-2 5 -3 6.5t-6 9.5q-2 2 -2.5 4.5t-2.5 4.5q-2 5 -4.5 9t-4.5 8l-39 62q-3 5 -4 7.5t-2.5 5.5t-5 8.5
t-10.5 15.5q-4 3 -5 8q-1 2 -1 3.5t-2 3.5l-6 6q-8 7 -13.5 -1.5t-8.5 -14.5q-2 -4 -6 -10t-11 -19q-5 -9 -8 -15t-5 -11t-4 -9.5t-6 -11.5l-12 -22l-18 -33q-2 -5 -4.5 -8.5t-4.5 -8.5q-5 -8 -8.5 -12.5t-10.5 -7.5q-8 -4 -16 -3.5t-17 0.5h-15q-8 0 -16 -0.5t-16 -0.5
l-31 1q-3 0 -6.5 -0.5t-6.5 -0.5h-7q-10 1 -14 2.5t-8 5.5q-2 2 -4.5 5.5t-2.5 8.5q0 8 8.5 26t37.5 56q5 7 14 19t20 32l65 116q5 8 15 23.5t18 24.5q2 2 4.5 6t2.5 12q0 4 -3 9t-8.5 14t-14 24t-19.5 39l-4 9q-8 19 -20 36.5t-21 34.5q-11 20 -14 30t-11 22l-34 55
q-3 5 -11 19t-8 23q0 7 2.5 10.5t4.5 5.5t6 3.5t10 1.5q10 0 16 -0.5t10.5 -1.5t10 -1h16.5l47 2q8 0 18 -1.5t21 -10.5q8 -7 12.5 -14.5l7.5 -12.5z" />
    <glyph glyph-name="Y" unicode="Y" horiz-adv-x="552" 
d="M215 546q6 -12 12.5 -28t13.5 -32.5t13.5 -31t12.5 -23.5q5 -8 10 -8t7 1.5t3 3.5q2 4 4.5 6.5t4.5 7.5q6 13 12 30t20 49l27 60q5 11 9.5 19.5t10.5 19.5q3 7 5 11t4 9q8 17 12.5 20.5t9.5 5.5q6 2 9 2h11q14 0 27.5 -0.5t24.5 -0.5h55q6 0 11 -0.5t10 -4.5q8 -7 8 -15
q0 -3 -1 -9t-4 -12l-37 -68q-9 -17 -13.5 -26t-6.5 -14.5t-4.5 -11t-8.5 -16.5q-1 -1 -1 -1.5t-1 -1.5q-2 -5 -5 -9t-5 -8q-14 -23 -16.5 -29.5t-4.5 -9.5q-2 -5 -4.5 -8.5t-7.5 -14.5q-4 -9 -5.5 -13.5t-2.5 -6l-2 -3t-2 -4.5l-19 -40q-8 -17 -13.5 -26.5t-10.5 -18.5
t-10.5 -21.5t-14.5 -34.5q-4 -9 -6.5 -23.5t-4 -30.5t-2 -31t-0.5 -25l1 -58v-14t-0.5 -19t-1.5 -19t-3 -13q-5 -9 -13 -10t-11 -1l-37 2q-29 1 -45.5 0.5t-26 -0.5t-14.5 3t-9 13q-5 11 -5.5 21.5t-0.5 30.5v25q0 12 1 25t2 21v16v18.5t-1.5 27.5t-4 30t-6.5 27
q-5 14 -17.5 36.5t-29.5 59.5l-39 82q-5 11 -9 18.5t-8.5 16.5t-10.5 22.5t-15 36.5q-5 14 -9 22.5t-9 19.5q-20 38 -28 54t-8 24q0 10 7 16q3 3 9 6t17 2l62 -3q27 -2 34.5 0t13.5 2q4 0 9 -0.5t8 -2.5q6 -2 10.5 -8t8.5 -14l6 -14t6 -15q3 -9 7 -17z" />
    <glyph glyph-name="Z" unicode="Z" horiz-adv-x="531" 
d="M150 519q-23 1 -32 1.5t-16 0.5q-5 0 -10.5 -0.5t-10.5 -0.5q-8 0 -17 1t-16 7q-8 7 -11.5 25t-2.5 29l2 46q1 10 2 19.5t9 15.5q8 7 24.5 7.5t45.5 1.5h13q10 0 15 -0.5t9.5 -1t11 -1t19.5 -0.5l269 -2h28.5t21.5 -6q1 -1 2.5 -5t2.5 -13v-23q0 -10 -2 -20
q-1 -5 -3.5 -9.5t-4.5 -8.5q-6 -10 -8 -12t-5 -7l-9 -16q-2 -4 -5 -7.5t-5 -7.5q-6 -9 -10 -17q-3 -5 -7 -11t-7 -11q-5 -9 -10 -18.5t-10 -18.5l-53 -85q-8 -14 -18 -26.5t-20 -28.5q-5 -8 -8 -14.5t-8 -14.5q-8 -15 -11.5 -20.5t-8.5 -15.5l-14 -24q-8 -13 -16.5 -27
t-9.5 -24v-6q1 -14 7 -16t13 -2l23 1h8q7 0 13 -0.5t13 -1.5q6 -1 12.5 -1.5t12.5 -0.5q8 0 11 0.5t5 0.5t6 0.5t15 0.5l60 1l27 2q5 0 10 -2t7 -5q5 -6 5.5 -10.5t0.5 -9.5l-1 -32q0 -4 0.5 -7.5t0.5 -7.5v-6v-35q0 -13 -3 -21.5t-7 -12.5q-2 -2 -8.5 -5.5t-17.5 -3.5
l-161 2q-17 0 -33.5 1t-33.5 1q-16 0 -31.5 -0.5t-31.5 -0.5q-13 0 -25.5 0.5t-25.5 0.5q-11 0 -21.5 -0.5t-21.5 -0.5q-8 0 -16.5 0.5t-16.5 0.5q-9 0 -17.5 1t-13.5 7q-11 11 -9 27l2 25q1 8 2.5 14.5t11.5 21.5q2 4 10 14.5t23 36.5q8 14 13 22t9 14t8.5 12t11.5 17
q16 24 29 49.5t28 50.5q11 19 23.5 37t23.5 37l46 77q5 9 12 20.5t7 20.5q0 8 -10 13q-5 2 -9.5 2h-9.5h-15q-11 0 -21.5 -1t-31.5 0z" />
    <glyph glyph-name="bracketleft" unicode="[" horiz-adv-x="291" 
d="M52 587q0 23 -1 28t-1 9v6q0 16 12 27q7 9 23 9h6.5t8.5 -1q6 -1 9.5 -1.5t4.5 -0.5l47 3l36 -3q23 4 51 4q22 0 22 -22v-19q-1 -3 -1 -12l2 -27v-4q0 -22 -7 -26q-7 -5 -17 -5h-12q-5 1 -8.5 1h-5.5q-23 0 -31 -8q-12 -11 -12 -107q0 -2 1 -16.5t3 -40.5q1 -7 1 -15.5
v-18.5t-0.5 -22t-1.5 -28q-1 -23 -1.5 -41.5t-0.5 -32.5v-11v-36.5t-1 -22.5v-20q0 -67 7 -91q4 -15 36 -15h5.5t8.5 1h12q13 0 18 -6q6 -6 6 -24v-4q0 -10 -1 -14q-1 -5 -1 -7v-3l1 -39q0 -7 -6.5 -11.5t-15.5 -4.5q-26 0 -51 3l-36 -2l-47 2h-5.5t-8.5 -1t-8.5 -1h-6.5
q-18 0 -25 10q-10 11 -10 25l2 43v71v21.5t-1 40.5q-1 5 -1 12q0 10 0.5 20t1.5 21q0 1 0.5 2t0.5 2v1q-3 55 -3 73v15v11.5t1 27.5v18q-1 17 -1 25v9l2 35q-1 19 -1.5 29t-0.5 12v5t1 8q1 26 1 41.5v20.5v72z" />
    <glyph glyph-name="backslash" unicode="\" horiz-adv-x="393" 
d="M150 838q9 0 15 -9.5t14 -46.5q4 -17 6.5 -28.5t5.5 -20.5t6 -18.5t8 -22.5q10 -30 15 -49.5t11 -41.5q7 -29 13 -47t11 -31t9 -24t9 -26l32 -109q4 -14 8.5 -27t9.5 -27q6 -20 10.5 -40.5t9.5 -40.5q8 -31 15.5 -51l13.5 -36q11 -32 11 -47q0 -8 -3 -11l-5 -5
q-2 -1 -10 -2.5t-27 -1.5q-32 0 -46 -0.5t-23 2.5l-10 5t-8 5q-8 12 -11 25t-6 27q-2 6 -2 8.5t-5 16.5q-2 6 -5.5 17.5t-8 24t-8 24t-5.5 17.5q-8 25 -14 46t-11 39.5t-10.5 35.5t-11.5 34l-24 64q-4 10 -10 31t-11.5 43t-10.5 41t-8 27q-4 12 -8 25t-9 25q-5 14 -6 19.5
t-4 14.5l-16 48q-2 5 -4.5 16t-5 23t-4.5 22.5t-2 16.5q0 17 14 18.5t28 1.5h78z" />
    <glyph glyph-name="bracketright" unicode="]" horiz-adv-x="291" 
d="M239 -34q1 -5 1 -9v-6q0 -14 -11 -27q-10 -8 -23 -8q-10 0 -15 1q-6 1 -9.5 1h-4.5l-48 -2l-35 2q-26 -3 -51 -3q-22 0 -22 22v30l-1 27v4q0 20 6 25q7 5 18 5h12q5 -1 8 -1h5q32 0 37 18q7 25 7 97q0 2 -1 16t-3 41q-1 7 -1 15.5v18.5v22t1 28q3 48 3 74v70q1 8 1 13v7
q0 64 -8 91q-5 15 -36 15h-5t-8 -1h-12q-13 0 -19 6q-5 7 -5 25v4q0 11 1 14v49q0 7 6.5 12t15.5 5q28 0 51 -4l35 3l48 -3q1 0 4.5 0.5t9.5 1.5q5 1 15 1q16 0 25 -11t9 -25l-1 -43v-9v-27t-1 -36q1 -11 1 -26.5t1 -35.5v-12q0 -8 -0.5 -18.5t-1.5 -23.5v-3l3 -54v-35
l-2 -48q0 -3 0.5 -13.5t1.5 -29.5l-3 -36q1 -18 1.5 -28t0.5 -12v-13q-1 -25 -1.5 -40.5t-0.5 -21.5z" />
    <glyph glyph-name="asciicircum" unicode="^" 
d="M8 340l141 331h202l141 -331h-159l-83 209l-83 -209h-159z" />
    <glyph glyph-name="underscore" unicode="_" 
d="M500 121v-106h-500v106h500z" />
    <glyph glyph-name="grave" unicode="`" 
d="M147 599q-2 5 -2 4.5t-2 1.5q0 3 -3 7q-2 3 -5.5 10t-3.5 15q0 11 8 17q6 5 15.5 5.5t17.5 0.5h12t3 -0.5t3 -0.5h12h23h32q10 -1 14 -5t9 -16q2 -2 2 -5.5t4 -16.5l8 -29q1 -4 2.5 -12l3 -16t2.5 -15t1 -10v-2v-2q0 -5 -4 -9t-18 -4h-17q-5 0 -8.5 0.5t-8.5 0.5
q-7 0 -13.5 -1t-13.5 -1q-5 0 -10.5 1t-10.5 4q-8 5 -14.5 15.5t-14.5 24.5q-5 8 -9 14t-9 15z" />
    <glyph glyph-name="a" unicode="a" horiz-adv-x="479" 
d="M447 199l-2 -58q-1 -11 0.5 -22.5t1.5 -22.5q0 -5 -0.5 -10t-0.5 -10q0 -6 0.5 -12t0.5 -12q0 -22 -2.5 -31t-7.5 -13q-7 -5 -15.5 -6.5t-15.5 -1.5l-45 -1q-4 0 -8 0.5t-8 -0.5q-3 0 -6 -1t-6 -1h-3q-5 0 -9 6l-10 15q-2 3 -7 -0.5t-9 -6.5q-11 -8 -24.5 -12t-27.5 -5.5
t-28 -1t-25 0.5q-28 1 -55 4.5t-59 26.5t-45.5 58t-13.5 70q0 23 8.5 54t42.5 59q29 24 68 32.5t89 8.5q6 0 18 -0.5t17 -1.5q9 -1 16.5 -2.5t15.5 -1.5q2 0 6.5 0.5t8.5 5.5q4 4 4 10q0 12 -11 21q-8 7 -22.5 11.5t-35.5 4.5q-12 0 -34 -2.5t-35 -5.5q-5 -2 -12.5 -4
t-27.5 -7q-19 -5 -27 -8t-16 -5q-12 -2 -19 -0.5t-11 5t-5 8.5t-1 10q0 11 0.5 18t0.5 16v20q0 21 2 28t3 9q5 8 13 11t19 8q12 5 18.5 8t12 4.5t10.5 3t13 3.5q17 4 38 5.5t62 1.5q48 0 89.5 -8t76.5 -43q25 -25 29 -48.5t5 -42.5l1 -28v-111zM163 149q0 -14 7.5 -21
t16.5 -11q13 -5 29 -7t28 -2q17 0 31 3t23 14q7 8 8.5 15t1.5 12q0 10 -3 16t-10 12q-7 5 -19 10t-35 5q-12 0 -26.5 -2t-25.5 -7q-9 -4 -17.5 -12.5t-8.5 -24.5z" />
    <glyph glyph-name="b" unicode="b" horiz-adv-x="535" 
d="M76 0q-16 0 -22.5 1.5t-9.5 3.5q-9 7 -9 28q0 6 0.5 11.5t0.5 11.5q0 18 -0.5 36t-0.5 36q0 22 0.5 35.5t1.5 24.5t1.5 23.5t0.5 32.5q0 10 -0.5 19t-0.5 19q0 36 0.5 72.5t0.5 72.5q0 16 -1 32t-1 32q0 20 0.5 37t1.5 34v24.5t-1 18t-1 18v24.5q0 18 6.5 22.5t13.5 4.5
t13.5 -0.5t13.5 -0.5q11 -1 23 -0.5t23 0.5q24 -1 31 -1t13 -5q5 -4 7.5 -9.5t2.5 -19.5l1 -89v-26.5v-11v-6v-10.5q1 -12 3 -16.5t5 -7.5t6.5 -5t10.5 -2q8 0 17 3t35 9q13 3 22.5 5t25.5 2q40 0 69.5 -11t50.5 -27.5t35 -36t23 -35.5q12 -21 23.5 -54t11.5 -91
q0 -45 -11 -80.5t-27.5 -62t-35.5 -44.5t-35 -27q-19 -11 -40 -16.5t-40.5 -7t-35.5 -0.5t-26 2q-12 1 -24 4.5t-33 12.5q-11 5 -13.5 7t-8.5 2t-9 -1q-8 -3 -13 -7.5t-10 -7.5q-10 -5 -24.5 -3.5t-23.5 1.5h-37zM180 234q0 -49 26 -76q15 -16 36 -22.5t48 -6.5
q16 0 37.5 5.5t39.5 31.5q4 6 8 15.5t6 19t3.5 18.5t1.5 15q0 12 -3 30t-14 36q-17 27 -39 37t-45 10q-5 0 -14 -1t-19.5 -4.5t-22 -10.5t-23.5 -19q-18 -20 -22 -41t-4 -37z" />
    <glyph glyph-name="c" unicode="c" horiz-adv-x="319" 
d="M305 392q0 -6 -0.5 -12.5t-0.5 -12.5v-7q-2 -8 -8.5 -12.5t-11.5 -6.5q-3 -1 -7 -1t-15 -1q-21 -2 -43.5 -5t-41.5 -22q-11 -11 -17.5 -32t-6.5 -35t5 -29.5t11 -26.5q13 -22 28 -32.5t23 -15.5q20 -11 34.5 -12.5t30.5 -3.5q10 -1 12 -1.5t5 -2.5q2 -2 3 -4t1 -9v-50
q0 -16 1.5 -35.5t-10.5 -27.5q-4 -2 -14 -4.5t-21 -2.5h-15t-28 1t-32.5 3t-29.5 7q-14 5 -34.5 16.5t-33.5 22.5q-24 18 -40 46q-17 30 -27 70t-10 91q0 11 1.5 28.5t5.5 38t11.5 41.5t19.5 39q17 25 34.5 39.5t35 23t36 13t37.5 7.5q14 2 27 4t31 2q36 0 48 -13
q7 -8 7.5 -16t0.5 -14z" />
    <glyph glyph-name="d" unicode="d" horiz-adv-x="558" 
d="M372 550q0 6 0.5 12.5t0.5 12.5q1 11 0.5 21.5t-0.5 21.5q0 10 1.5 23.5t12.5 21.5q9 6 15 7t10 1l48 -1q5 0 8 0.5t12 1.5q15 1 23.5 -3.5t12.5 -12.5q5 -8 5 -29l-2 -96v-14t1 -14q2 -38 1.5 -75.5t-0.5 -75.5v-126q0 -17 -0.5 -33t-0.5 -33q0 -26 1.5 -52.5t1.5 -52.5
v-7t-0.5 -13.5t-2 -14.5t-3.5 -11q-4 -7 -16 -10q-10 -2 -19 -2q-8 0 -15 0.5t-15 0.5h-6l-39 -1q-20 -1 -23 2.5t-5 7.5l-4 7q-3 5 -10 5q-5 0 -13 -3.5t-18 -8.5q-22 -10 -43 -12.5t-46 -2.5q-45 0 -87 12.5t-69 33.5q-23 17 -36 40t-22 46q-8 19 -13.5 44.5t-5.5 73.5
q0 34 6.5 65.5t23.5 64.5q10 18 18.5 29t19 20t23.5 18t32 23q29 14 56 16.5t38 2.5q17 0 40 -3.5t40 -9.5q8 -2 13 -5t10 -5q18 -10 24 -10t12.5 8.5t4.5 25.5zM257 338q-28 0 -47.5 -11.5t-29.5 -21.5q-8 -8 -16.5 -24.5t-8.5 -48.5q0 -39 15 -58t31 -28q23 -13 38 -15.5
t27 -2.5q11 0 22 2t27 10q23 11 29.5 16.5t8.5 6.5q8 7 14.5 22t6.5 46q0 38 -14 57.5t-28 28.5q-14 8 -35 14.5t-40 6.5z" />
    <glyph glyph-name="e" unicode="e" horiz-adv-x="465" 
d="M449 86v-9t-0.5 -13t-1.5 -13.5t-2 -9.5q-5 -13 -20.5 -20.5t-28.5 -12.5q-32 -11 -62 -14t-48 -3q-13 0 -29.5 0.5t-33.5 2t-33.5 4.5t-28.5 7q-22 8 -49.5 26t-54.5 54q-5 6 -12.5 18t-15 30t-12.5 41.5t-5 52.5q0 37 6.5 73.5t28.5 73.5q18 31 40 51.5t46.5 32.5
t50.5 17t51 5q48 0 75.5 -9.5t43.5 -20.5q46 -31 64.5 -67t26.5 -69q5 -21 7 -35t2 -31q0 -15 -3 -29t-13 -22q-8 -6 -14 -7.5t-11 -1.5q-15 -1 -29.5 0t-29.5 0q-5 0 -9.5 -0.5t-9.5 -0.5q-10 0 -20 0.5t-20 0.5q-13 0 -25.5 -0.5t-25.5 -0.5q-9 0 -17.5 0.5t-17.5 0.5h-12
q-8 0 -15 -2t-12 -7q-4 -4 -4 -11q0 -11 13 -20t30 -16q20 -8 47.5 -9.5t43.5 -0.5q6 0 12 1t12 1h8.5t8.5 1t15 3.5t34 11.5q7 2 14 4.5t16 2.5q20 0 24.5 -12.5t4.5 -25.5v-23zM278 293q8 1 12 1t7 2q6 3 7.5 7.5t1.5 6.5q0 3 -3 12.5t-17 22.5q-14 12 -28 15t-24 3
q-24 0 -35.5 -7.5t-22.5 -17.5q-4 -4 -8.5 -10t-4.5 -16q0 -11 9.5 -15.5t24 -6t31.5 -0.5t31 2z" />
    <glyph glyph-name="f" unicode="f" horiz-adv-x="291" 
d="M229 340q-8 -1 -14 -3t-11 -10q-6 -9 -7.5 -21.5t-1.5 -31.5l-1 -114q0 -5 -1 -9.5t0 -14.5q1 -6 1.5 -10.5t1.5 -12.5q1 -13 0.5 -25.5t-0.5 -25.5v-15.5t-3 -21.5q-3 -16 -10 -20t-14 -5q-8 -1 -15 0t-15 0q-2 0 -5 -0.5t-5 -0.5h-38q-13 0 -23 -1t-15 9q-2 3 -3 9
t-1 9v92q0 13 -0.5 19.5t-1 11.5t-0.5 12.5v22.5q1 14 1 22t-0.5 14l-1 12t-0.5 16q0 9 0.5 18t-0.5 18q0 4 -0.5 8t-0.5 8v5.5t-1 8.5q-3 13 -5 15t-5 3t-6 3l-10 4q-6 2 -10 10t-4 28v30q0 10 -0.5 13.5t-0.5 16.5q0 9 1 13t1.5 8t3.5 7q5 5 10 7t14 7q2 1 3.5 2.5
t3.5 7.5q1 5 1 8q0 12 0.5 22t1.5 22q1 15 1.5 31.5t6.5 36.5q6 19 19 33.5t25 21.5q17 9 39.5 11.5t42.5 2.5q25 0 41 -1t26 -3t15 -4t7 -3q6 -4 11 -11.5t5 -21.5q0 -5 -0.5 -8.5t-0.5 -13.5l1 -52q0 -5 -4 -12.5t-12 -11.5q-5 -2 -12 -3t-12 -1t-9 0.5t-18 -1.5
q-8 -1 -12.5 -2t-9.5 -6q-7 -7 -7 -17q0 -5 2.5 -14.5t12.5 -13.5q4 -2 11.5 -2.5t13.5 -0.5h15h15t14 -4q10 -7 10 -20q0 -8 -1 -12t-1 -12v-26q0 -17 -0.5 -26t-1 -13.5t-1.5 -6t-2 -3.5q-2 -2 -3 -4.5t-6 -3.5z" />
    <glyph glyph-name="g" unicode="g" horiz-adv-x="488" 
d="M421 470q5 0 12.5 -1t14.5 -6q9 -8 9 -22l-1 -47q-1 -26 0 -52.5t0 -52.5q0 -15 -0.5 -29.5t-1.5 -29.5v-22q0 -5 0.5 -9t0.5 -9v-10q0 -7 -0.5 -12.5t-1 -13t-0.5 -18.5v-28q0 -27 1 -46.5t0 -36.5q0 -9 -2.5 -20.5t-13.5 -28.5q-14 -22 -28 -31.5t-22 -13.5
q-13 -6 -31 -12.5t-32 -9.5q-13 -2 -37 -4t-73 -3h-31q-20 0 -33 1.5t-30 6.5q-38 11 -54.5 19t-23.5 13q-8 7 -13 16t-4 29l1 22q1 17 1.5 33.5t3.5 22.5q1 2 5 6t15 4q5 0 12 -2.5t24 -8.5q10 -3 15 -5t9.5 -4t10.5 -4l18 -6q16 -5 24 -6.5t13 -2.5l29 -3q41 -5 59 -1
t25 8q15 7 21 21q8 17 3 27q-2 3 -6.5 5t-15.5 -2q-6 -2 -13 -5q-7 -4 -13 -5q-12 -4 -22.5 -5t-19.5 -1q-21 0 -41.5 3t-34.5 7q-9 4 -16 5q-8 2 -14 4q-29 11 -44 29.5t-26 32.5q-4 5 -10 13.5t-12 22t-10.5 33t-4.5 45.5q0 41 9.5 72.5t23.5 54.5q9 14 25 32t37 29
q13 7 29 11t31.5 6t30 3t25.5 1q32 0 47.5 -4t27.5 -11t16 -8h5q5 1 10 7l3 4q2 5 10 5q2 0 4 -0.5t4 -0.5h5q5 0 10.5 -1t19.5 -1zM179 217q16 -13 29.5 -15.5t24.5 -2.5q4 0 11.5 0.5t17 3t19.5 8t19 14.5q4 5 9 14.5t5 28.5q0 26 -8 38.5t-14 17.5q-10 8 -22 13.5
t-31 5.5q-28 0 -43.5 -9t-24.5 -21q-11 -14 -14 -26.5t-3 -18.5q0 -10 5.5 -25t19.5 -26z" />
    <glyph glyph-name="h" unicode="h" horiz-adv-x="476" 
d="M38 635q0 15 4 22.5t8 9.5q11 5 19 4.5t17 -0.5h33q13 0 30 2t27 -8q2 -3 5.5 -9.5t3.5 -14.5l-1 -42q0 -11 1 -21t1 -21t-1.5 -22t-1.5 -22v-13q1 -20 1.5 -31.5t5.5 -16.5q2 -2 5 -2q4 0 8.5 2t12.5 7q7 3 26 10t51 7q6 0 18.5 -1t28 -5.5t32 -13.5t30.5 -25
q8 -10 16 -23t13 -26q8 -20 9 -42.5t2 -52.5v-31q0 -12 1 -23.5t0 -23.5l-2 -61q0 -9 -0.5 -17.5t-0.5 -17.5q0 -10 1 -20t1 -20l1 -34q0 -11 -1 -18.5t-9 -14.5q-9 -8 -23 -8l-35 2q-8 -1 -12.5 -1h-8.5h-20q-14 0 -22.5 3t-12.5 8t-5 10.5t-1 10.5q0 8 0.5 16.5l1.5 25.5
l1 46v9v6v8t1 16q1 13 1.5 20.5t1 11.5t0.5 5.5v2.5q0 7 -1.5 20.5t-3 28t-4 26.5t-3.5 16q-3 8 -12.5 18t-25.5 10q-23 0 -39 -16.5t-22 -38.5q-3 -12 -4.5 -32t-2.5 -41t-0.5 -39.5t0.5 -26.5l1 -20q2 -25 3 -35.5t1 -23.5v-10q-1 -24 -11 -29t-18 -5h-34
q-11 0 -14.5 -0.5t-6 -1t-8 -1t-20.5 -0.5q-12 0 -19 4t-12 9q-6 8 -7.5 17t-1.5 17q0 12 0.5 14.5l1 5t1 8.5t0.5 26v29v8v8.5t-0.5 14t-0.5 24.5q-1 26 -1.5 40.5t-0.5 25.5l2 155q0 16 0.5 26t1 17.5t0.5 15v18.5v11q0 9 -0.5 17.5t-0.5 17.5v109z" />
    <glyph glyph-name="i" unicode="i" horiz-adv-x="221" 
d="M36 606q0 23 3.5 30.5t9.5 9.5q10 4 30.5 5.5t37.5 1.5h30q6 0 13.5 -1t13.5 -6q5 -4 6.5 -9t1.5 -11l-1 -38v-34v-6q0 -8 -1.5 -11t-3.5 -5q-2 -4 -7.5 -8t-20.5 -4h-75q-14 0 -21 2t-11 10q-2 4 -3.5 11t-1.5 13v50zM38 137v60q0 32 -0.5 63t-1.5 63q-1 19 -1 37v37v36
q0 27 4 32q2 3 8 6t18 3h16l23 -2q7 -1 14.5 0.5t24.5 1.5h9q6 0 12.5 -1t11.5 -6q2 -2 5.5 -7.5t2.5 -14.5l-1 -21q0 -5 -0.5 -9t-1 -10.5t-1 -16.5t-0.5 -27v-47v-8v-15q0 -26 1.5 -43t1.5 -35v-57q0 -12 0.5 -16l1 -8t1 -11t0.5 -24v-4v-6q0 -38 -1.5 -52.5t-4.5 -21.5
q-2 -4 -7.5 -8.5t-21.5 -4.5l-45 1l-19 -1h-18q-15 0 -20.5 2.5t-6.5 4.5q-6 7 -6 24.5v28.5z" />
    <glyph glyph-name="j" unicode="j" horiz-adv-x="227" 
d="M142 652q8 0 19.5 -1t19.5 -4q8 -4 10.5 -10t1.5 -17l-2 -22v-11q0 -8 0.5 -12.5t0.5 -12.5v-13q0 -12 -8 -20q-7 -6 -16.5 -7.5t-15.5 -1.5h-8t-4 0.5t-5 0.5h-9h-49q-12 0 -16 4.5t-6 8.5q-1 2 -2 5t-1 8v10q0 3 -0.5 6t-0.5 6q-2 14 0 28q1 5 1 13v6q0 8 -0.5 16.5
t8.5 14.5q4 2 10 4t14 2zM54 367q0 5 -1.5 13.5t-1.5 13.5l-1 27v15q-2 11 3.5 19t7.5 10q7 7 20 7q5 -1 11 -1q3 0 5.5 -0.5t5.5 -0.5h27h44q6 0 10 -1.5t8 -6.5q4 -6 3.5 -11.5t-0.5 -12.5l-1 -54q0 -6 -0.5 -12.5t-1.5 -12.5q0 -5 -0.5 -8.5t-0.5 -8.5l1 -10l1 -25
q0 -3 0.5 -6t0.5 -6q0 -2 -0.5 -5t-0.5 -5v-12v-9t-1 -9t-1 -15q0 -3 0.5 -6.5t0.5 -6.5v-7l1 -36q0 -11 0.5 -21t-0.5 -21q-1 -8 -1.5 -17t0.5 -17l2 -23q1 -14 0.5 -30t-3.5 -32t-8 -29.5t-12 -22.5q-8 -8 -24.5 -18.5t-47.5 -12.5l-19 -1q-6 0 -7.5 -0.5t-11.5 -0.5
q-4 0 -12.5 0.5t-17.5 2t-17.5 3t-11.5 4.5q-5 4 -8.5 17t-3.5 22q0 3 0.5 8t1.5 19l1 13q1 11 -0.5 14t-1.5 18q0 4 0.5 7t3.5 7q5 8 10.5 8t10.5 1l11 1q10 0 17 13q3 6 5.5 16t2.5 21v39l2 31q0 6 -0.5 11.5t-1 13t-1 19t-0.5 28.5l1 60z" />
    <glyph glyph-name="k" unicode="k" horiz-adv-x="452" 
d="M72 671q10 0 14.5 0.5t9.5 0.5h12.5h22.5q8 0 19.5 -1t17.5 -3q11 -5 13.5 -13t2.5 -18q0 -11 -0.5 -23.5t-0.5 -32.5v-140q0 -6 0.5 -20.5t2 -30.5t5.5 -30t10 -19q4 -3 9 -3q6 0 10 3t10 11q6 7 13.5 20t12.5 31l10 44q2 9 8.5 15.5t25.5 6.5h35h21.5t21.5 1
q4 0 7.5 0.5t7.5 0.5q13 0 20 -7q6 -6 6 -19q0 -14 -3 -22t-5 -12l-5 -14q-9 -26 -20 -54.5t-31 -63.5q-8 -13 -12.5 -18t-5.5 -10v-5q1 -7 5.5 -14t7.5 -12q11 -17 14.5 -23t5 -8.5t2.5 -5.5t6 -12l9 -15q4 -6 7 -12.5t7 -12.5l47 -79q9 -15 12 -22.5t3 -13.5
q0 -8 -2 -10.5t-4 -4.5q-1 -1 -5 -3t-11 -2l-55 2h-24.5t-16 -0.5t-11.5 -0.5t-10 1q-1 0 -2 0.5t-2 0.5q-3 0 -5 1q-4 1 -8.5 6.5t-9 12.5t-8 13.5t-5.5 10.5l-4 9q-3 8 -6 15t-7 14q-5 11 -11.5 21t-11.5 21q-3 7 -9 17.5t-11 15.5q-4 3 -10 5t-11 2q-6 0 -10 -3
q-8 -5 -8 -10t-1 -16l-1 -18l-1 -13l1 -72q0 -14 -3 -19.5t-8 -10.5q-3 -3 -5.5 -3.5t-8 -0.5t-16.5 0.5t-33 0.5h-56q-6 0 -8.5 3t-4.5 5q-4 5 -4.5 8t-0.5 13l2 300v21v13v21t1 46v37t-0.5 20t-1 16.5t0.5 25.5q1 8 1.5 16t0.5 16q0 17 -1.5 33.5t-1.5 33.5v20q0 3 1.5 11
t9.5 12q2 1 7 1.5t8 0.5h10z" />
    <glyph glyph-name="l" unicode="l" horiz-adv-x="226" 
d="M42 619q0 19 2 28t7 14q6 6 13 7.5t15 1.5q12 0 23.5 -1t23.5 -1q9 0 17.5 1t17.5 1q18 0 24 -7q5 -5 5.5 -15.5t0.5 -15.5v-8q0 -14 -1 -28.5t-2 -28.5q-1 -6 -1 -12.5v-12.5v-16v-9q0 -2 0.5 -5t0.5 -5l2 -71v-10.5t-0.5 -6.5t-1 -8t-0.5 -15v-13v-25.5t0.5 -14.5
t0.5 -14v-23q0 -26 -0.5 -45l-1 -38t-0.5 -41.5v-55.5l1 -82q0 -8 -2 -18t-11 -17q-11 -8 -27.5 -9.5t-27.5 -1.5q-10 0 -13 0.5t-9 0.5l-23 -1q-8 0 -16.5 2t-13.5 7q-6 7 -8 25t-2 29q-1 15 0 30t1 30v36q0 21 0.5 34.5t1.5 23t1.5 15.5t0.5 11v22v27.5t-0.5 18.5t-0.5 22
v39v14l2 44t1 44l-1 94z" />
    <glyph glyph-name="m" unicode="m" horiz-adv-x="711" 
d="M35 433q0 17 7 27q5 8 11.5 10t11.5 2l64 -1h10.5t5 0.5t4 0.5h8.5q7 0 11 -3q5 -4 7 -11q2 -4 4 -8.5t5 -5.5h1q3 1 9.5 5.5t11.5 7.5q11 8 33 13.5t60 5.5q24 0 45 -4.5t39 -12.5q15 -6 23 -11t12 -8.5t5.5 -6t3.5 -2.5h2h1q3 0 8.5 5.5l7.5 7.5q8 8 23.5 16t32.5 12
q12 3 24.5 3.5t26.5 0.5q18 0 42 -5.5t47 -30.5q25 -27 30 -55t5 -42l-1 -134q0 -19 0.5 -37.5t1.5 -37.5q1 -17 1.5 -32.5t0.5 -32.5q0 -10 -0.5 -21.5t-3.5 -26.5q-2 -8 -8.5 -14.5t-19.5 -6.5h-89q-4 0 -10 1.5t-9 3.5q-4 3 -5.5 9t-1.5 11t0.5 9.5t0.5 9.5v24l-1 32
q-1 16 -1.5 30t1.5 31q1 8 1.5 15t0.5 12v20q0 16 -3 43.5t-12 43.5q-8 14 -20 17t-20 3q-12 0 -23.5 -5.5t-16.5 -14.5q-4 -5 -4.5 -12t-1.5 -13l-3 -43q-2 -29 -2 -42.5t1 -22.5t1.5 -17.5t0.5 -27.5q-1 -14 -1 -21v-14t0.5 -16t0.5 -25q0 -11 -1 -20t-6 -14
q-7 -8 -23 -7.5t-49 -0.5l-43 -1q-12 0 -19 8q-5 7 -6 14.5t-1 12.5l1 20q0 8 1 24.5t0 40.5l-3 114q-1 23 -1.5 41t-11.5 33t-32 15q-15 0 -23.5 -6.5t-13.5 -13.5q-14 -20 -17 -43t-2 -46l4 -170q0 -11 -1.5 -22t-12.5 -19q-5 -3 -8.5 -3.5t-8.5 -0.5q-15 0 -23.5 1
t-16.5 1l-27 -1q-13 -1 -26 0t-18 6t-6.5 16.5t-1.5 19.5q0 16 1 32t1 32q0 20 -0.5 34.5t-0.5 27.5v17q0 9 -0.5 18.5t-0.5 18.5q0 13 0.5 26t0.5 26v50z" />
    <glyph glyph-name="n" unicode="n" horiz-adv-x="499" 
d="M115 471q4 0 7 -0.5t7 -0.5q3 0 6 0.5t6 0.5h23q5 0 9 -0.5t8 -5.5l11 -12q4 -4 6 -4.5t9 4.5q8 5 14.5 8.5t12.5 5.5l18 5q24 6 50 6q19 0 39 -4t40 -16q16 -9 31.5 -24t27 -35.5t18.5 -47t6 -59.5l-1 -52q0 -18 0.5 -28.5t1 -20.5t1.5 -23t1 -37v-8q0 -8 -0.5 -15
t-1.5 -15q-1 -5 -1 -8.5v-8.5v-33q0 -9 -1 -20t-8 -17q-1 -1 -10.5 -4t-41.5 -3h-38q-27 0 -34 1t-11 6q-7 8 -7 19l4 160q1 35 -3.5 62.5t-9.5 40.5q-6 16 -20 27.5t-35 11.5q-18 0 -31.5 -8.5t-19.5 -20.5q-5 -9 -8 -25.5t-3 -27.5l-2 -125q0 -11 1.5 -19t1.5 -20v-27
q0 -20 -1 -34t-7 -19q-3 -2 -9.5 -3t-13.5 -1t-13 0.5t-8 0.5q-8 1 -13 1h-15l-46 -1q-11 0 -15 2.5t-6 4.5q-5 6 -6 28v14q0 8 0.5 16t1.5 16q0 5 0.5 9.5t0.5 9.5l1 20v11q0 16 -1 29.5t-2 29t-1.5 36t0.5 50.5q0 14 1 24.5t1.5 19t0.5 17.5v20l-2 46q-1 13 -1 19.5
t0.5 10t1 6.5t0.5 9q0 3 0.5 7.5t4.5 10.5t9 7t16 1z" />
    <glyph glyph-name="o" unicode="o" horiz-adv-x="535" 
d="M12 246q0 26 9 58t21 55q10 19 27.5 40t45 39t66.5 30t92 12q6 0 20.5 -0.5t33 -4t40.5 -11t44 -20.5q15 -9 24 -16t15 -15t12.5 -18.5t17.5 -27.5q7 -12 11.5 -19t7.5 -12t4.5 -9t3.5 -10q8 -23 12 -43.5t4 -47.5q0 -49 -12.5 -81t-33.5 -58q-12 -14 -15 -18.5
t-4.5 -6.5t-3.5 -4.5t-12 -13.5q-5 -5 -13.5 -11t-19 -12t-20.5 -10.5t-17 -7.5q-22 -8 -56 -11.5t-61 -3.5q-8 0 -32.5 2.5t-51.5 13.5q-28 11 -42.5 22.5t-24.5 20.5q-22 20 -33 30.5t-20 23.5q-17 24 -23 43t-8 35q-5 27 -6.5 42t-1.5 25zM371 236q0 21 -7 38t-18 31
q-20 26 -44.5 34.5t-39.5 8.5q-21 0 -46.5 -12.5t-39.5 -32.5q-14 -19 -16.5 -34.5t-2.5 -24.5q0 -29 10 -49.5t30 -37.5q19 -15 37 -20.5t36 -5.5q16 0 32.5 5t34.5 22q20 19 27 40t7 38z" />
    <glyph glyph-name="p" unicode="p" horiz-adv-x="543" 
d="M116 477q44 2 52 -5q3 -2 8 -10t7 -11q3 -5 6.5 -6t6.5 -1q8 0 13.5 5.5t9.5 7.5q20 14 47.5 18.5t47.5 4.5q18 0 46.5 -5.5t71.5 -31.5q15 -9 28 -20.5t28 -34.5q26 -39 34.5 -72t8.5 -66q0 -57 -7.5 -85t-13.5 -42q-21 -49 -51.5 -76t-59.5 -40t-53 -16t-33 -3
q-33 0 -49.5 3.5t-24.5 7.5l-8 4t-4.5 2.5t-7.5 3.5t-17 6q-6 2 -10 2t-8.5 -2.5t-4.5 -10.5l1 -60q0 -7 1 -11.5t-1 -12.5q-1 -9 -10 -11q-14 -4 -19.5 -4.5t-16.5 -0.5h-35q-3 0 -6 1t-6 1q-6 0 -11 -1t-20 -1q-3 0 -7 0.5t-7.5 3t-5.5 8t-1 15.5l1 16q1 10 0 20t-1 20
v7.5t1 8.5q1 10 1.5 16.5t0.5 13.5v16v4q0 4 -0.5 7.5t-0.5 7.5v5l-1 32q0 17 0.5 32t1 33t1 42.5t0.5 60.5l-1 130q0 39 1.5 50.5t9.5 16.5t13.5 5.5t11.5 0.5zM279 344q-40 0 -71 -34q-18 -20 -23.5 -40.5t-4.5 -49.5q0 -12 3 -26.5t11 -26.5q6 -9 17.5 -17.5t24.5 -14.5
t26 -10t23 -4q20 0 46.5 14.5t43.5 40.5q5 7 10 19.5t5 33.5t-10 47t-26 40q-13 12 -34.5 20t-40.5 8z" />
    <glyph glyph-name="q" unicode="q" horiz-adv-x="543" 
d="M448 477q23 0 34.5 -1.5t17.5 -6.5q8 -6 7 -15t-1 -18l-1 -52q0 -8 -1 -16t-1 -16q0 -14 1.5 -28.5t1.5 -28.5q0 -6 -0.5 -11.5t-0.5 -11.5q-1 -12 0 -24.5t0 -24.5l-1 -19l1 -192v-19v-10.5t1 -12.5l2 -38q0 -7 -1 -11.5t-6 -9.5t-10 -5.5t-14 -0.5l-55 -1
q-29 -1 -40.5 0.5t-16.5 9.5q-5 7 -4.5 15t-0.5 24l-2 29q0 5 -1.5 7t-0.5 13q0 2 -1 5.5t-7 3.5q-3 0 -7 -2t-13 -6q-28 -11 -52 -12.5t-40 -1.5q-10 0 -25.5 1.5t-34.5 6.5t-40.5 14.5t-42.5 26.5q-44 35 -62.5 86.5t-18.5 120.5q0 40 8 70.5t19.5 53.5t24.5 38t22 24
q20 18 42 28t42 14.5t36.5 5.5t27.5 1q36 0 61 -4.5t42 -12.5q4 -2 10.5 -5.5t11.5 -3.5t7.5 4.5t4.5 8.5q2 3 5 6.5t11 3.5h61zM363 235q0 41 -13 62t-24 29q-10 8 -32.5 15.5t-38.5 7.5q-14 0 -29 -5t-26 -11q-15 -9 -24 -22t-13.5 -27t-6 -27t-1.5 -22q0 -32 10.5 -52.5
t20.5 -31.5q7 -7 25.5 -19t53.5 -12q8 0 26.5 3.5t41.5 22.5q22 19 26 38.5t4 50.5z" />
    <glyph glyph-name="r" unicode="r" horiz-adv-x="322" 
d="M120 471h20q5 0 10 0.5t10 0.5h6q8 0 12 -7q2 -3 1.5 -7t-0.5 -9l1 -15q0 -1 1.5 -4.5t6.5 -3.5q6 0 15 8l33 27q7 6 18.5 10.5t30.5 4.5q5 0 14 -1t15 -8q5 -6 6.5 -14.5t1.5 -15.5q0 -5 -0.5 -8.5t-0.5 -8.5t-0.5 -9t-0.5 -9v-8v-55q0 -14 -4 -20.5t-5 -7.5
q-4 -3 -9.5 -5.5t-9.5 -2.5l-12 -1q-22 -2 -44.5 -13.5t-33.5 -24.5q-10 -11 -17 -31t-7 -45q0 -17 0.5 -23t1 -9t1 -5.5t0.5 -12.5v-55q0 -20 0.5 -33t0 -21.5t-2.5 -13.5t-8 -9q-2 -2 -7.5 -4.5t-15.5 -2.5h-41h-15t-5.5 -0.5t-3.5 -0.5h-9q-8 0 -17 1.5t-14 8.5
q-3 4 -5.5 11.5t-2.5 21.5v15.5t2 20.5l2 17q0 2 0.5 7t-0.5 22l-1 42l2 85q0 22 0.5 36.5t1 27t0.5 26.5v36l-1 53q0 5 1 16.5t10 20.5q6 7 29 7h14z" />
    <glyph glyph-name="s" unicode="s" horiz-adv-x="368" 
d="M20 129q5 5 12 8t20 3t23 -2t19 -4q16 -3 28.5 -4t25.5 -1q4 0 12 0.5t15.5 3.5t13 9.5t5.5 18.5q0 16 -11 24t-20 13q-11 5 -21 9t-24 10t-22.5 10.5t-19.5 12.5q-7 5 -17.5 14t-20 22.5t-16.5 32.5t-7 45q0 28 7.5 45t17.5 28q6 8 16.5 17t29 17t46.5 13.5t70 5.5
q32 0 48.5 -2t24.5 -4q17 -5 32 -13.5t14 -22.5l-1 -33q0 -10 -0.5 -25t-2.5 -23q-1 -6 -6 -9q-5 -4 -8.5 -5t-12.5 1l-52 7q-17 2 -26.5 0.5t-16.5 -5.5q-5 -2 -7 -5t-3 -5v-3q0 -3 1 -6.5t6.5 -8t18 -12t35.5 -18.5q10 -5 19.5 -9.5t18.5 -10.5t18 -13.5t19 -19.5
q15 -17 25.5 -38.5t10.5 -56.5q0 -38 -18 -73t-54 -55q-32 -18 -67 -21t-61 -3t-51.5 1t-46.5 6q-19 5 -26.5 10.5t-12.5 12.5q-2 2 -6.5 11.5t-2.5 26.5l2 22q0 3 0.5 5.5t0.5 5.5v15q0 6 1.5 14t3.5 10z" />
    <glyph glyph-name="t" unicode="t" horiz-adv-x="270" 
d="M154 -3h-27.5t-28.5 6q-17 8 -25.5 21t-13.5 23t-11.5 31.5t-5.5 58.5l2 147v26.5t-1 16.5t-2 9t-3 5q-4 5 -8 5t-10 3q-7 4 -9.5 12t-1.5 15l1 16l-2 53q0 9 3 13.5t5 6.5q5 5 8 5t13 2l8 1q5 0 5 6l-3 85q0 5 3.5 9.5t8.5 6.5q5 3 13.5 5.5t19.5 1.5l71 -3
q5 0 10.5 -0.5t10.5 -7.5q6 -8 6 -15v-13v-65q0 -11 7.5 -12.5t12.5 -1.5h15q10 0 14 -2t9 -7q8 -11 7.5 -20.5t-0.5 -28.5v-12q0 -2 -0.5 -8t-1 -13t-1 -13.5t-1.5 -8.5q-2 -5 -6 -7t-6 -2l-21 -3q-23 -3 -28 -21.5t-5 -47.5v-55v-34.5t1 -21.5t2.5 -11.5t4.5 -6.5
q5 -5 10.5 -6t9.5 -2l7 -1q8 -1 11 -4l5 -5q6 -8 6 -16l-1 -26v-14.5t1 -14.5q1 -4 1 -8v-8q0 -14 -5 -20t-10 -10q-15 -11 -30.5 -12.5t-30.5 -1.5h-13z" />
    <glyph glyph-name="u" unicode="u" horiz-adv-x="495" 
d="M33 432q0 18 8 28q8 9 15 11t14 2l59 -2q6 0 12.5 0.5t12.5 -1.5q8 -2 12 -2h3t4 -2q4 -3 5.5 -4.5t2.5 -6t0.5 -14t-0.5 -26.5l-2 -63q0 -7 -0.5 -14t-0.5 -14v-4q0 -7 -0.5 -10t-0.5 -10l-3 -68q-2 -35 9 -53t19 -26q5 -5 13.5 -10t22.5 -5q19 0 32 8t21 16
q5 5 10.5 13t7.5 27q3 24 3 39v29l1 53v11.5v6.5v6.5v11.5q0 5 -0.5 6.5t-0.5 4.5l-3 31q-1 9 -1 14v10q0 8 1 16.5t9 17.5q12 13 32 13h17q13 0 19.5 -0.5t10.5 -0.5t6 -0.5t6 -0.5h6q5 0 9.5 0.5t9.5 0.5t9.5 -1t8.5 -6q8 -9 7 -21.5t-1 -23.5l-1 -48v-139l-3 -58
q-1 -17 -1 -28.5t-0.5 -19.5t-0.5 -13t-1 -9q-1 -7 -1.5 -9.5t-0.5 -4t0.5 -2.5t0.5 -5v-6q0 -5 0.5 -11t1.5 -11q2 -8 2 -13v-5q0 -8 -1.5 -16.5t-8.5 -15.5q-8 -8 -19 -9.5t-21 -1.5h-22.5t-22.5 1q-6 0 -12.5 0.5t-12.5 0.5h-6q-9 0 -16 7q-4 4 -5 6.5t-5 7.5q-5 6 -13 6
q-3 0 -8.5 -2t-11.5 -4.5t-11 -4.5t-7 -3q-18 -8 -42 -12t-42 -4q-29 0 -59 11.5t-55 49.5q-8 13 -14.5 33.5t-6.5 60.5v5v7q0 13 0.5 18t1 8.5t1 10.5t0.5 24z" />
    <glyph glyph-name="v" unicode="v" horiz-adv-x="397" 
d="M45 470q13 1 16 0t7 -1h8h14.5t14.5 1q3 0 6.5 0.5t6.5 0.5q6 0 11 -1.5t10 -6.5q3 -4 4.5 -8.5t3.5 -8.5q2 -5 3.5 -10t3.5 -15l2.5 -15t3.5 -23q3 -14 5 -23.5t4 -15.5l24 -99q5 -18 7.5 -24t5.5 -6q6 0 8 11l12 70q1 6 1 7.5t0.5 5t2 11t5.5 24.5l5 20q2 8 2.5 11.5
t0.5 6v5t2 8.5l7 30q3 14 3.5 19.5t5.5 11.5q5 7 12 12t15 4l32 -2q6 0 11.5 -1t13.5 0t14.5 2t16.5 1q7 0 11.5 -1t8.5 -6q5 -7 5 -16v-1q0 -5 -1.5 -13t-5.5 -25l-9 -41q-4 -17 -7.5 -33.5t-8.5 -33.5l-6 -18t-5 -19q-3 -10 -3.5 -15t-1.5 -9.5t-2 -10.5t-5 -18
q-14 -50 -18.5 -70t-6.5 -31q-2 -6 -5.5 -18t-7.5 -25t-7.5 -23.5t-4.5 -14.5q-5 -12 -7.5 -16.5t-4.5 -6.5q-7 -7 -17 -9t-20.5 -2t-21 0.5t-19.5 0.5l-44 -1q-5 0 -14 1.5t-17 9.5q-4 4 -5.5 8.5t-3.5 8.5q-4 11 -7 17.5t-6 12.5q-4 9 -4.5 13t-1 7t-2 8t-5.5 17l-18 48
q-5 13 -7.5 26.5t-7.5 26.5l-2 6t-2 7q-3 7 -6 14.5t-6 19.5q-4 13 -6 20t-9 27q-6 15 -8 21.5t-5 17.5q-4 17 -6 22t-4 13q-5 13 -5 19t-2 14q-1 6 -3.5 19t-2.5 18v3q0 6 1 11t7 10q5 5 10.5 6t7.5 1z" />
    <glyph glyph-name="w" unicode="w" horiz-adv-x="614" 
d="M19 354q-2 8 -6 16t-6 16q-2 5 -2 10.5t-2 10.5q-2 6 -3.5 12t-3.5 23v4q0 12 7 19q7 6 14.5 6t13.5 -1l26 -2h7q2 0 2.5 0.5t2.5 0.5t3 0.5t3 0.5l17 1q14 1 21.5 0.5t15.5 -7.5q6 -5 8.5 -11.5t4.5 -11.5t3 -10t3 -10q2 -6 3 -11.5t3 -11.5l8 -25q4 -11 6 -23.5
t6 -23.5q3 -8 6.5 -16t5.5 -16l5 -22q2 -10 7 -25t9 -17q2 -2 6 -2q5 0 7.5 8.5t4.5 13.5q1 3 3 11l4.5 18t4 19t1.5 14q0 8 -2.5 20.5t-6 26t-7 25t-4.5 17.5l-11 38q-2 5 -2.5 11.5t4.5 11.5q3 4 14 6t41 2h23l15 -1l35 1q10 0 16 -8q3 -5 5 -14q0 -2 0.5 -2.5t0.5 -2.5
q2 -7 3.5 -13.5t3.5 -13.5l7 -38q2 -13 4 -19t3.5 -11t3 -11t3.5 -18q1 -3 1 -6t1 -6q2 -8 3.5 -16.5t3.5 -16.5l3 -21q2 -11 3 -16t2 -7l2.5 -5t3.5 -3q5 0 6.5 7.5t3.5 15.5l7 36q1 4 1.5 6.5t2 7.5t3.5 13.5t5 25.5q2 7 4 16t10 32q5 15 6 19.5t3 7.5q2 4 1.5 4.5
t0.5 3.5l8 28q2 5 5 11t6 8t10.5 4t11.5 2h47h18h6.5t6.5 1l6 1q17 3 26 -13q2 -4 3 -9t1 -10q0 -11 -4.5 -22.5t-10.5 -27.5l-9 -25q-2 -5 -3.5 -9t-3.5 -9q-4 -11 -6 -23t-5 -24q-4 -14 -9 -26.5t-10 -25.5q-5 -14 -8 -27t-8 -27q-4 -11 -8.5 -22t-8.5 -22
q-6 -17 -9.5 -34.5t-10.5 -34.5l-11 -28q-6 -14 -8 -21t-3.5 -11t-3.5 -7t-7 -7q-3 -3 -8 -5.5t-15 -2.5h-24h-9.5t-3.5 -0.5t-2.5 -0.5h-5.5h-12l-18 -1q-14 -1 -21.5 4t-9.5 7t-6.5 8.5t-6.5 14.5l-25 91q-2 6 -5 6q-6 0 -8 -10l-3 -15l-12 -59q-4 -20 -11 -30t-14 -13
q-5 -2 -11.5 -2.5t-13.5 -0.5l-50 1h-15q-6 0 -13.5 2t-15.5 13q-5 7 -8.5 16t-5.5 17l-6 17q-3 8 -5.5 14t-4.5 12l-4.5 13.5l-6.5 19.5q-3 11 -5 16.5t-3 9t-2 6.5t-2 8q-11 37 -25 72.5t-25 77.5z" />
    <glyph glyph-name="x" unicode="x" horiz-adv-x="435" 
d="M23 440q-2 4 -3 7.5t-2 5.5t-1.5 6.5t6.5 9.5q5 4 10 4.5t10 0.5q11 0 19 -0.5t16 -1.5q14 -1 19.5 0t19.5 1h19q37 0 46 -12q3 -4 4 -7.5t2 -6.5q1 -4 3.5 -9.5t4.5 -9.5l14 -22l14 -23q2 -2 3 -4l3 -6q2 -2 4.5 0.5t4.5 6.5l2 5q2 6 4.5 10t7.5 11l10 13q4 5 8 14
t15 26q3 5 7.5 8t16.5 3h4q5 0 9.5 -1t10.5 -2q8 -1 13 0t15 1h31l24 1q10 0 16 -6q4 -6 4 -10q0 -8 -5.5 -20t-13.5 -24.5t-16.5 -25t-14.5 -19.5l-16 -21q-8 -11 -14.5 -23t-17.5 -31q-8 -13 -13.5 -20.5t-10.5 -18.5q-4 -8 -3 -13t3 -11q2 -4 2.5 -5.5t2.5 -3.5
q8 -11 13 -19.5t9 -15.5t7.5 -13.5t7.5 -15.5q10 -20 14.5 -27.5t14.5 -19.5q12 -17 16 -24t9 -18t9 -16t10 -13q2 -2 4.5 -6t4.5 -11v-6q-1 -11 -8 -13t-9 -2l-64 2q-9 0 -14 -1q-11 -2 -20 -1.5t-16 0.5h-10t-11 4q-8 5 -15 19t-12 22q-4 7 -6.5 10.5t-4.5 6.5t-5 8t-7 14
q-4 7 -5.5 10t-3.5 5q-2 4 -3.5 8.5t-5.5 4.5q-5 0 -9.5 -12t-7.5 -16l-16 -22q-4 -6 -6 -9.5t-4.5 -7t-5.5 -8.5t-9 -14t-9.5 -14t-7.5 -7t-6.5 -2h-5.5l-51 2l-58 -1q-17 0 -22 7t-5 13q0 9 8 20t12 16q6 8 9 12.5t5.5 9t6.5 11.5l12 21q3 5 5.5 9t5.5 9q6 9 12.5 17
t11.5 17l38 65q3 5 7 10.5t4 10.5q0 6 -7 21t-23 38q-9 13 -14.5 22t-12.5 23l-6.5 13t-10.5 15q-5 6 -7.5 8.5t-4 5.5l-4.5 9l-9 18z" />
    <glyph glyph-name="y" unicode="y" horiz-adv-x="407" 
d="M168 384q4 -9 5.5 -19t4.5 -19q2 -4 2.5 -7.5t2.5 -7.5q3 -8 5 -12.5t3 -7.5t1.5 -6t2.5 -8q2 -6 3.5 -9t3.5 -8q9 -18 12.5 -22t5.5 -4q5 0 5.5 6t1.5 13q3 18 7 34l7 31q2 10 3 16t2 11.5t2.5 12.5t4.5 19l3 9t4 11l7 17q2 5 2.5 6.5t1 2.5t1 3t2.5 8q2 3 3 6t5 6
q3 2 10 4t24 2h41h30q8 0 12.5 -1.5t6.5 -3.5q6 -6 6 -16q1 -12 -5.5 -28t-11.5 -35q-3 -11 -5 -19t-5 -17q-5 -12 -9.5 -23.5t-11.5 -31.5q-5 -14 -9 -30t-8 -27q-6 -20 -13.5 -38t-13.5 -38q-2 -8 -4.5 -15t-5.5 -15l-16 -38l-8 -20t-9 -22q-6 -17 -15.5 -35.5
t-29.5 -35.5q-27 -23 -56.5 -32.5t-67.5 -9.5q-5 0 -10.5 0.5l-16.5 1.5q-13 1 -24.5 2.5t-14.5 3.5q-7 2 -12.5 14t-5.5 32v54q0 16 5.5 23t10.5 10q2 2 7 3.5t7 1.5q5 0 12 -1t16 -1h19q5 0 8.5 -0.5t8.5 -0.5q3 0 7.5 1t7.5 5t3 12q0 4 -2 10t-8 18q-2 3 -3 6.5t-3 6.5
t-2.5 6.5t-2.5 6.5l-11 23q-8 15 -12.5 25t-11.5 27q-8 17 -14.5 36t-14.5 34l-28 59q-2 5 -3.5 10t-3.5 10l-3 6l-9 26q-2 6 -5 14.5t-3 12.5q0 5 0.5 10.5t3.5 10.5q5 7 10 7.5t11 0.5h57l38 2q4 0 9 -1t9 -3q3 -2 5 -6.5t4 -7.5q2 -6 3 -8q1 -4 2 -8.5t6 -16.5z" />
    <glyph glyph-name="z" unicode="z" horiz-adv-x="380" 
d="M264 471h16q12 1 15.5 1h11.5h19q11 0 14.5 -2t5.5 -5q6 -8 7 -18t1 -21v-20q0 -10 -2.5 -16t-7.5 -14q-4 -6 -7 -11t-8 -11q-8 -13 -14.5 -25t-17.5 -29q-7 -11 -12.5 -18.5t-11 -15.5t-12.5 -20t-18 -32q-9 -16 -11 -22t-5 -14q-2 -5 -3.5 -7.5t-1.5 -10.5
q0 -4 2.5 -12t16.5 -8h6.5t6.5 1q6 1 12 1h12l26 -1h30q8 0 13.5 -4.5t7.5 -8.5q2 -2 4 -6t2 -9t-1 -9.5t-1 -8.5l-1 -17l3 -34q0 -4 -0.5 -18.5t-9.5 -22.5q-6 -6 -14 -6h-116h-14.5t-7.5 -0.5t-7 -0.5h-13q-17 0 -27.5 1t-16.5 2h-13l-86 -1q-2 0 -7 1t-11 7q-4 3 -5.5 10
t-1.5 12l1 23q1 16 10.5 33.5t12.5 22.5l13 19q4 5 5.5 9t3.5 8.5t5.5 11.5t10.5 18l6 9q2 4 4.5 7.5t4.5 7.5l3 6l20 31l28 57q8 17 10.5 23t2.5 9q0 4 -3.5 7t-15.5 3q-7 0 -13.5 -1t-16.5 -3q-12 -1 -19 0t-15 1h-5q-5 0 -14 1t-13 3q-2 2 -5.5 6.5t-3.5 13.5
q0 6 0.5 11.5t-0.5 11.5q0 2 -0.5 4.5t-0.5 4.5q0 6 2 12t1 12l-2 31q-1 10 2.5 15t6.5 8q4 4 8.5 6t14.5 3h3q10 0 18 -2t21 -1l60 3h11q6 0 12.5 -0.5t12.5 -0.5h15z" />
    <glyph glyph-name="braceleft" unicode="{" horiz-adv-x="301" 
d="M218 673q14 -1 21 -1h9q22 0 27 -3q6 -3 6 -15l-1 -40l1 -37l-1 4q-3 -20 -5 -22q-6 -2 -31 -2q-29 0 -42 -7q-19 -8 -17 -35l2 -32l-2 -27l2 -27l-2 -27q0 -34 -9 -59q-6 -17 -13 -25q-4 -4 -23 -20q-4 -3 -4 -7q0 -7 15 -17q34 -24 34 -95l1 -27l-1 -27v-41
q0 -34 6 -43q8 -11 24 -14t52 -3q14 -2 14 -17l-1 -39l1 -40q0 -11 -8 -16q-4 -2 -25 -2q-16 -1 -28.5 -1h-20.5q-76 0 -111 35q-28 28 -28 86l1 32l-3 41v4t1 10q1 5 1 11.5v15.5v27q0 30 -8 46q-7 16 -32 27q-11 4 -12 9q-1 3 -1 36q0 45 1 48q1 6 12 9q40 13 40 68
q0 2 -0.5 8t-1.5 16q-1 5 -1 18q0 3 1.5 12t3.5 24l-3 29l1 25q1 67 31 95q35 32 113 32h14z" />
    <glyph glyph-name="bar" unicode="|" 
d="M341 667v-833h-183v833h183z" />
    <glyph glyph-name="braceright" unicode="}" horiz-adv-x="301" 
d="M98 673q81 0 115 -34q28 -28 28 -86v-34l3 -38q0 -1 -0.5 -5l-1.5 -12q-2 -31 -1 -52t3 -34q6 -28 37 -41q13 -4 13 -18v-64q0 -11 -3 -15q-2 -3 -10 -5q-40 -13 -40 -66q0 -4 0.5 -10.5t1.5 -14.5q1 -5 1 -9v-8t-1 -13t-3 -25l2 -37q0 -73 -24 -103q-22 -27 -60 -34
q-23 -6 -64 -6h-14.5t-25.5 1q-24 0 -28 3q-6 4 -6 15l1 40l-1 36l1 -4q3 21 4 22q6 2 32 2q29 0 42 7q17 8 17 34l-1 33l2 27l-3 27l2 27q2 34 9 59q4 14 13 25q5 5 24 20q3 3 3 7q0 6 -15 17q-32 24 -34 95l-1 27l2 27l-1 41q0 33 -6 44q-7 10 -24 13t-51 3q-15 1 -15 16
l1 41l-1 40q0 13 7 16q6 2 27 2z" />
    <glyph glyph-name="asciitilde" unicode="~" horiz-adv-x="667" 
d="M92 613q20 53 44 85q45 62 110 62q27 0 74 -18q11 -4 26.5 -9.5t35.5 -13.5q30 -12 47 -12q24 0 42 24q4 5 9 13t10 19l87 -74q-26 -62 -48 -90q-45 -58 -107 -58q-18 0 -45 9q-7 2 -50 18q-71 27 -87 27q-23 0 -39 -21q-10 -11 -22 -34z" />
    <glyph glyph-name="exclamdown" unicode="&#xa1;" horiz-adv-x="255" 
d="M100 667h49q4 -1 7 -1l32 1q5 0 9.5 -7.5t4.5 -15.5l-1 -21q-1 -34 -1.5 -52.5t-1 -27.5t-1.5 -11.5t-2 -3.5q-6 -6 -18 -6h-13.5t-17.5 -1q-20 1 -34.5 1.5t-22.5 0.5q-23 2 -29 10q-4 5 -4 15q0 7 1 12v33q1 58 6 67q1 6 13 8zM99 0q-29 0 -36 3q-13 7 -13 43
q0 7 1.5 22t3.5 40l1 51l6 50v13.5t1 35.5q0 23 6 74l4 47q8 47 9 68q2 30 13 36q13 9 44 9q23 0 30 -13q3 -5 7 -69q4 -19 6.5 -34.5t3.5 -28.5q1 -6 2 -27.5t3 -59.5l3 -53l7 -69l4 -87q0 -26 -2 -32q-7 -19 -31 -19h-73z" />
    <glyph glyph-name="cent" unicode="&#xa2;" horiz-adv-x="319" 
d="M156 601q1 12 9 17q12 5 43 5q23 0 29 -7t7 -34q2 -12 9 -13q5 -2 22 -5q18 -2 24 -9q8 -10 8 -30q0 -14 -0.5 -25t-1.5 -21q-1 -5 -1 -8v-4q0 -21 -1 -23q-4 -10 -19 -16q-6 -2 -47 -4q-15 0 -33.5 -9t-29.5 -20q-8 -9 -16 -34q-6 -20 -6 -29q0 -16 9.5 -39t23.5 -40
q7 -9 35 -25q27 -14 65 -17q12 -1 17 -3q4 -4 4 -13v-51q1 -10 1 -17.5v-14.5q0 -28 -10 -32q-4 -2 -12.5 -4t-22.5 -4q-15 -2 -18 -9q0 -3 -3 -22q-2 -11 -18 -12q-18 -3 -47 -3q-18 0 -23 11q-4 7 -4 29q0 17 -6 23q-2 1 -10 6t-24 13l-20 17q-37 28 -54 76
q-7 20 -11 35.5t-6 25.5q-6 22 -6 70q0 52 18 106q14 40 36 62q31 31 54 42q19 8 28 17q6 10 5 11z" />
    <glyph glyph-name="sterling" unicode="&#xa3;" horiz-adv-x="520" 
d="M51 302q-20 0 -20 37q0 24 13 31q4 2 29 2q2 0 2 5q0 1 -0.5 4t-1.5 8q-7 29 -7 77q0 68 41 129q16 24 49 45q20 12 51.5 20.5t59.5 8.5q100 0 154 -55q45 -47 45 -144q0 -33 -22 -32q-17 1 -27.5 1.5t-13.5 0.5q-14 0 -25 -0.5t-20 -1.5h-10q-9 0 -14 8q-4 5 -5 29
q-2 17 -15 29q-14 12 -35 12q-31 0 -49 -21q-17 -19 -17 -53q0 -3 1 -12.5t2 -19.5t2 -19t2 -12q1 -7 12 -7h5.5t12.5 1q3 0 13.5 -0.5t27.5 -1.5h18q5 1 9.5 1h7.5q16 0 24 -9q6 -8 6 -30t-12 -29q-7 -4 -10 -4h-95q-3 0 -3 -5q0 -3 1 -4q1 -2 1 -5.5t1 -8.5v-7.5t1 -13.5
q1 -7 1.5 -12.5t0.5 -10.5q0 -37 -4 -50q-3 -11 -3 -16q0 -8 14 -8q5 -1 20.5 -4t41.5 -8q3 -1 8 -1q12 0 19 10q5 8 9 35q2 8 19 8q4 0 7 -1q14 -1 25 -1.5t18 -0.5q1 0 10 1t26 3h4q29 0 29 -37q0 -69 -11 -105q-6 -19 -25 -35q-35 -27 -86 -27q-33 0 -67 7q-10 2 -54 19
q-9 3 -23 3q-17 0 -28 -7q-1 -1 -5 -4.5t-11 -11.5q-4 -2 -8 -2h-12q-11 1 -27 1h-36l-42 -1q-29 0 -29 17q0 19 13 46q10 25 26 38l25 23q5 3 9 26t4 46q0 7 -1.5 26t-5.5 51q-1 21 -5 26l-4 4z" />
    <glyph glyph-name="currency" unicode="&#xa4;" 
d="M381 532q22 22 25 23q8 5 14 5t19 -11l15 -13q8 -10 13 -15l6 -6q5 -8 5 -14q0 -7 -11 -20l-16 -19q-5 -4 -9.5 -7.5t-9.5 -7.5q-15 -11 -15 -22q0 -5 9 -21q16 -28 16 -71q0 -45 -16 -74q-7 -13 -7 -17q0 -7 3 -11l13 -12l16 -17q21 -20 24 -24q4 -7 4 -13q0 -7 -8 -18
q-1 -1 -4.5 -5l-10.5 -12q-9 -8 -14 -13t-7 -6q-8 -5 -15 -5t-14 6q-2 1 -7 6.5t-15 15.5l-19 16q-10 12 -12.5 14t-6.5 2q-7 0 -27 -10q-33 -14 -56 -14q-57 0 -82 13q-21 12 -26 12q-8 0 -37 -32q-27 -29 -39 -29q-7 0 -14 6l-39 39q-5 8 -5 14q0 9 12 20q18 21 34 34
t16 23q0 7 -4 15q-20 35 -20 70q0 50 23 93q2 6 2 8t-11 13l-23 23q-22 22 -24 25q-5 8 -5 13q0 7 6 15l19 19q18 18 21 20q7 5 14 5q6 0 19 -11q14 -12 22.5 -21t13.5 -14q12 -16 21 -16q5 0 16 7q12 6 35.5 11t42.5 5t41 -4.5t34 -10.5q11 -7 16 -7q7 0 17 10zM330 336
q-1 10 -1.5 16t-0.5 9q0 5 -6 13q-5 5 -10 14q-18 28 -52 29q-16 -1 -24.5 -2t-10.5 -2q-32 -11 -45 -48q-6 -15 -6 -17q-1 -1 -1 -13l-2 -9l2 -14l1 -9l7 -11q5 -14 8 -17q22 -25 51 -25q39 0 59 15q6 4 15.5 16t12.5 18q1 2 1 8t1 16z" />
    <glyph glyph-name="yen" unicode="&#xa5;" horiz-adv-x="522" 
d="M107 672q33 0 40 -7q7 -6 12 -17q1 -1 18 -47l25 -55l33 -83q16 -34 19 -37t7 -3t9 5q4 5 7.5 10.5t5.5 12.5l26 70l18 42l7 18l19.5 39t9.5 20q7 19 16 24q8 5 21 5q4 0 16.5 -0.5t35.5 -1.5h52q28 0 28 -20q0 -9 -5 -21l-35 -68l-29 -64q-12 -22 -18.5 -34.5t-10 -19
t-4.5 -10.5t-1 -8q0 -9 8 -11h14q12 0 16 -6.5t4 -28.5q-1 -1 1 -10q1 -8 1.5 -12.5t0.5 -6.5q0 -13 -9 -17q-7 -4 -33 -4h-13t-15 1h-6q-18 0 -30 -25q-11 -20 -12 -24q-7 -13 -7 -22q0 -4 4 -7.5t10 -3.5l11 1l37 -1q37 0 41 -4q5 -3 9 -11t4 -15q0 -2 -0.5 -5.5
t-1.5 -9.5l-1 -2v-1l1 -20q0 -7 -6.5 -12t-14.5 -5h-63q-30 0 -40 -7q-11 -8 -11 -23q0 -4 0.5 -14.5t1.5 -27.5v-50q0 -29 -8 -37q-8 -5 -20 -5q-8 0 -13 1q-8 1 -11.5 2t-4.5 1l-71 -3q-15 0 -24 14q-5 11 -6 20l-1 33l-1 13l4 70q-1 10 -20 12q-5 1 -16 1.5t-28 0.5h-13
q-15 -1 -25.5 -1h-16.5q-13 0 -18 8q-7 10 -7 17q0 2 3 19q0 1 0.5 1t0.5 1v1l-1 25q0 12 19 13q3 1 50 1q43 0 51 2q8 5 8 12q0 5 -6 14l-15 30q-8 15 -14 19q-8 5 -23 5h-11q-14 -1 -26 -1.5t-21 -0.5q-24 0 -24 26q0 13 1 18q0 1 0.5 2t0.5 2v1l-1 23q0 15 35 15
q5 0 7 -1h5q13 0 13 13q0 14 -10 30q-9 14 -20 43q-11 28 -16.5 43t-6.5 17l-31 66q-7 13 -7 25q0 23 29 23l52 -1z" />
    <glyph glyph-name="brokenbar" unicode="&#xa6;" 
d="M341 153v-319h-183v319h183zM341 667v-360h-183v360h183z" />
    <glyph glyph-name="section" unicode="&#xa7;" horiz-adv-x="518" 
d="M61 19q0 30 22 30q18 0 69 -19q7 -3 19 -5.5t25.5 -4.5t27.5 -3t26 -1q22 0 32 10q10 9 10 20q0 18 -16 33q-11 9 -46 23q-3 1 -20 9t-37 17.5t-37.5 18t-21.5 11.5q-24 15 -50 53q-23 35 -23 75q0 26 9 61q9 34 49 72q11 11 11 17q0 3 -11 17q-15 19 -15 63q0 40 15 73
q19 43 53 60q24 12 75 21q28 6 54 6q7 0 23 -1.5t33 -3.5t31.5 -4t19.5 -3q41 -11 41 -36q0 -5 -0.5 -10t-1.5 -11q-2 -14 -4 -28.5t-3 -28.5q-1 -18 -18 -26q-6 -3 -13 -3q-13 0 -44 9q-8 2 -19.5 4t-23.5 4t-23 3t-17 1q-17 0 -28 -14q-5 -8 -5 -14q0 -14 32 -35
q20 -13 95 -48q65 -33 87 -59q17 -22 26 -59q8 -35 8 -51q0 -29 -16 -62q-12 -28 -32 -42q-12 -8 -12 -12q0 -1 11 -21q10 -16 15 -47q4 -20 4 -36q0 -17 -6 -39.5t-15 -37.5q-11 -19 -32 -37.5t-43 -29.5q-39 -19 -130 -19q-37 0 -126 20q-31 7 -35 22q-3 10 -3 23
q0 7 3 33q1 5 1 11v13v18zM191 364q-6 0 -10 -12q-8 -19 -8 -33q0 -22 18 -38q11 -9 37 -20q9 -5 16.5 -8.5t12.5 -7.5q53 -31 64 -31q7 0 13 8q11 14 11 34q0 17 -6 26q-8 13 -58 38q-10 5 -18.5 10t-15.5 9q-20 10 -39 18q-4 1 -6.5 2t-4.5 2q-5 3 -6 3z" />
    <glyph glyph-name="dieresis" unicode="&#xa8;" 
d="M275 631q0 2 -0.5 5t-0.5 5v6q0 8 5.5 10.5t10.5 2.5l31 -1q14 -1 27 -1h27h5h4q2 0 5 -0.5t5 -0.5h12q7 0 12 -5.5t5 -13.5q0 -9 -1 -14t-1 -10.5v-10.5l3 -49q1 -17 0.5 -20t-5.5 -7q-4 -4 -8 -5t-29 -1h-50q-12 0 -24 -1.5t-22 0.5q-3 1 -6.5 2t-5.5 6q-3 5 -2 9.5
t1 9.5zM95 521q-13 0 -17 10q-2 4 -2 25l1 33l-2 49q-1 12 4 15.5t9 3.5l31 -1q5 0 6.5 0.5t2.5 0.5t2.5 0.5t6.5 0.5q12 1 16.5 -0.5t17.5 -1.5l40 1q6 0 10 -4q5 -5 5 -24v-50v-37q0 -6 -2 -14t-12 -8z" />
    <glyph glyph-name="copyright" unicode="&#xa9;" horiz-adv-x="729" 
d="M399 130q-85 0 -132 43q-30 22 -37 31q-23 27 -33 63q-9 25 -9 72q0 105 67 156q55 42 129 42q28 0 40 -5q11 -6 11 -28q0 -6 -1 -9v-15q1 -5 1 -10v-10q0 -20 -15 -20q-3 0 -7 1t-8.5 1t-11.5 2h-6q-21 0 -46 -13q-18 -8 -28 -27q-19 -29 -19 -55q0 -58 30 -92
q15 -20 28 -24q24 -9 37 -9q1 0 24 3q1 1 4 1q9 0 14 -8q3 -5 3 -31v-23v-12.5t-1 -6.5t-4 -6q-4 -9 -28 -11h-2zM392 611q-16 4 -26 5.5t-15 1.5q-19 0 -64 -15l-26 -8l-23 -16q-2 -2 -8.5 -4t-16.5 -6q-20 -6 -24 -12q-2 -2 -6.5 -7.5t-10.5 -14.5q-4 -5 -8.5 -11
t-9.5 -11q-14 -16 -16 -21l-10 -27q-20 -27 -21 -33q-1 -2 -4 -15t-6.5 -28t-6 -27t-2.5 -13t3 -16q1 -4 1 -10.5t1 -17.5q4 -62 33 -105q1 -1 12 -25q7 -19 13 -25l21 -18l19 -20l23 -15l21 -17q2 -1 26 -9q2 -1 8.5 -2.5t17.5 -5.5q10 -4 20.5 -6.5t21.5 -3.5q33 -5 36 -3
q37 6 52 6q24 -1 29 2q6 4 12 7t12 7l24 10l22 16l24 12l17 23l22 17l12 26l16 23l10 26l12 25q1 4 3 28q0 7 0.5 14t1.5 14q3 25 3 33q0 40 -21 102l-7 28q-1 4 -18 22q-2 2 -6 7.5t-11 14.5q-19 25 -58 56l-20 17q-7 6 -26 9q-20 3 -27 5l-24 11h-27zM433 673l33 -4
l30 -16q33 -14 46 -24q20 -12 37 -28q6 -5 12 -11t13 -11q11 -9 17.5 -14.5t8.5 -7.5q5 -4 16 -31q11 -28 32 -60q14 -23 15 -31l4 -34l9 -34l-2 -34l2 -35q0 -7 -9 -32l-9 -33q-2 -13 -5 -20.5t-5 -11.5l-17 -29q-7 -16 -9.5 -22.5t-4 -9.5t-4 -6t-8.5 -10q-25 -33 -50 -54
q-19 -15 -58 -46q-3 -1 -18.5 -6.5t-44.5 -15.5q-69 -18 -78 -18q-7 0 -19 4q-29 7 -33 6h-34q-32 2 -76 25q-59 32 -70 40q-16 11 -50 54q-11 13 -15 18l-6 7.5t-3.5 5.5t-7.5 13q-9 18 -16 31.5t-12 23.5q-5 13 -13 54l-8 38l1 29q1 43 3 55q1 5 5 16t11 29q7 37 12 46
q5 11 10.5 21t12.5 21q6 8 12.5 16t14.5 15l20 28l27 19q12 12 17 16.5t7.5 7t5.5 4t11 6.5q39 22 43 21q20 7 32.5 10.5t18.5 5.5q5 2 17 2.5t29 1.5q13 0 33 6q5 2 9 2.5t6 1.5z" />
    <glyph glyph-name="ordfeminine" unicode="&#xaa;" horiz-adv-x="302" 
d="M209 264q-3 0 -9 6q-4 4 -8 4q-2 0 -9 -3q-27 -10 -55 -9q-57 0 -85 21q-36 27 -36 80q0 33 27 62q12 14 41 21.5t71 7.5q8 0 13 -0.5t9 -1.5q6 -1 10.5 -1.5t6.5 -0.5q8 0 8 7t-12 12.5t-28 5.5q-10 0 -21 -1t-22 -3q-3 -1 -16 -4.5t-36 -9.5q-2 -1 -8 -1q-19 0 -19 17
v20l1 7q0 25 4 30q7 5 25 12q25 10 54 15q7 1 17.5 1h26.5q51 0 79 -16q33 -19 43 -43q4 -7 4 -46v-88q-1 -5 -1 -11q0 -7 1 -12v-14t-1 -14l1 -3v-9q0 -30 -15 -34q-6 -2 -42 -3q-12 0 -15 -1h-4zM154 382q-48 0 -48 -25q0 -20 51 -20q34 0 34 23q0 9 -10.5 15.5t-26.5 6.5
z" />
    <glyph glyph-name="guillemotleft" unicode="&#xab;" horiz-adv-x="325" 
d="M35 275q-1 5 -1 9v6q0 8 7 15q1 1 51 36q38 32 44 32q11 0 11 -15v-7q-2 -20 0 -82q0 -6 -3 -10q-1 -1 -8 -5.5t-21 -12.5q-5 -3 -5 -7q0 -2 2 -6q1 -2 27 -15q7 -4 7 -30v-63q0 -20 -14 -20q-5 0 -45 26q-35 24 -46 34q-8 6 -8 23v18t1 45zM172 297q2 11 5 14
q3 4 11.5 10.5t22.5 14.5q11 6 34 25q16 13 22 13q11 0 11 -14v-7q-1 -4 -1 -8v-9v-11q1 -14 1 -24v-18q0 -13 -3 -20q-3 -3 -30 -20q-1 -1 -1 -5t2 -6l28 -16q4 -3 4 -28q0 -76 -2 -82q-5 -5 -11 -5q-8 0 -69 43q-20 14 -21 16q-3 4 -3 9l1 53z" />
    <glyph glyph-name="logicalnot" unicode="&#xac;" 
d="M289 307h-256v159h433v-296h-177v137z" />
    <glyph glyph-name="uni00AD" unicode="&#xad;" horiz-adv-x="215" 
d="M92 304h5.5t10.5 1h21h11.5t18.5 -1q34 -1 40 -3q9 -5 12 -15q1 -2 1 -9.5t1 -20.5l2 -23l-2 -25q-2 -24 -5 -30q-7 -10 -33 -10h-16l-39 2h-14l-26 1q-65 2 -69 4q-11 6 -11 48v27q1 35 7 46q4 7 21 9z" />
    <glyph glyph-name="registered" unicode="&#xae;" horiz-adv-x="729" 
d="M31 400q4 19 7 32t6 21q4 8 11 21.5t17 33.5q5 8 9 14l6 9q5 5 9 10.5t8 10.5q30 39 44 51q7 5 28.5 17.5t59.5 32.5q25 13 51 18q5 1 16.5 1.5t30.5 0.5q7 0 33 6q13 4 24 4q4 0 73 -20q14 -5 30 -10t33 -12q31 -23 50 -39t27 -24q18 -18 35 -42q6 -6 22 -43l17 -28
q2 -4 5 -12t5 -21q7 -25 9 -32q10 -27 9 -33l-2 -35l2 -34l-9 -33l-4 -34q2 -5 -15 -31q-10 -15 -18 -30t-14 -31q-11 -26 -16 -30q-2 -2 -8.5 -8t-17.5 -15q-7 -5 -13.5 -10.5t-11.5 -11.5q-11 -9 -21 -17t-21 -15q-9 -6 -41 -20l-30 -14l-33 -4q-38 -11 -41 -11
q-13 0 -26 4q-26 6 -33 6h-33q-3 1 -15.5 4t-35.5 10q-15 6 -27 11t-23 11.5t-22.5 15.5t-24.5 21l-27 20l-20 28q-26 27 -30 36q-6 11 -12 21t-11 21l-5 21l-4 20q-16 39 -17 51q-1 5 -1 16.5t-1 31.5l-1 30zM439 603q-45 15 -65 15q-4 0 -14 -1.5t-26 -5.5h-27
q-6 -2 -12 -5t-12 -5q-5 -2 -27 -6q-26 -5 -26 -8l-20 -18q-39 -30 -58 -56q-7 -9 -11 -14.5t-6 -7.5q-8 -10 -12.5 -15.5t-5.5 -6.5l-7 -27q-21 -62 -21 -104q0 -7 3 -32q1 -7 1.5 -14t0.5 -14q1 -23 3 -28l12 -25l10 -26l16 -23l12 -26l22 -17l17 -23l24 -12l21 -16
l25 -10q6 -4 12 -7t12 -7q8 -2 28 -2q19 -2 53 -6q56 5 78 13q11 4 17.5 5.5t8.5 2.5q24 8 26 9l21 17l22 15l20 20l21 18q2 3 5.5 9t7.5 16q7 19 26 50q16 40 18 81q1 19 3 27l1.5 12t0.5 5q0 6 -13 67q-5 19 -10 25l-16 23l-10 27q-1 5 -17 21q-5 6 -9 11.5t-8 10.5
q-6 10 -10.5 15.5t-6.5 7.5q-4 4 -25 12q-10 4 -16.5 6t-8.5 4l-22 16zM287 131q-5 1 -9 1l-48 -1q-14 0 -18 10q-3 4 -3 25q0 9 0.5 20t1.5 24v26v16t-1 22v8v10.5t1 24.5v58l2 38v97q0 27 28 27h21t22 -1q5 -1 9 -1l75 1q55 0 102 -30q23 -13 36.5 -41t13.5 -60
q0 -46 -24 -83q-3 -4 -12.5 -15t-26.5 -28q-4 -4 -4 -10q0 -8 6 -12q10 -7 18.5 -12t16.5 -7q16 -4 19 -9q5 -5 5 -12q0 -70 -4 -74q-4 -5 -13.5 -9t-17.5 -4q-19 0 -39 14q-2 2 -5 3q-24 17 -34 29q-14 14 -16 15q-1 1 -6 4t-13 8q-16 12 -22 14q-8 3 -13 3q-18 0 -18 -17
l1 -15l-1 -17q2 -10 3 -15.5t1 -7.5q0 -17 -20 -17h-14zM316 361q0 -7 0.5 -14.5t1.5 -17.5t6 -13q4 -3 12 -3q30 0 54 28q24 27 24 54q0 20 -14 32t-55 12q-23 0 -27 -15v-34q0 -2 -0.5 -8t-1.5 -15v-6z" />
    <glyph glyph-name="macron" unicode="&#xaf;" 
d="M176 625q5 0 8.5 0.5t8.5 0.5h7q4 0 7 0.5t7 0.5t8 -0.5t8 -0.5h8l37 -1q15 -1 30 0t30 1h19q10 0 19 1t19 1q4 0 11 -1.5t10 -3.5q3 -3 4.5 -9t1.5 -9t-0.5 -5.5t-0.5 -5.5v-7q-1 -4 -1.5 -5.5t-0.5 -7.5v-14q0 -6 1 -12.5t-0.5 -12t-6.5 -9.5t-17 -5h-17.5t-21.5 0.5
l-22 1t-19 0.5q-17 0 -35 -1t-35 -1q-8 0 -16 0.5t-16 0.5l-27 -1q-8 0 -15 0.5t-15 0.5t-16.5 -1t-16.5 -1q-4 0 -13.5 0.5t-14.5 1.5t-8.5 3.5t-3.5 10.5t1 9.5t1 6.5v11v1q0 3 0.5 5.5t0.5 5.5v10v5v10q0 3 -0.5 5.5t-0.5 5.5q0 6 4 11t21 5t21.5 -0.5t6.5 -0.5t6.5 -0.5
t22.5 -0.5h11z" />
    <glyph glyph-name="macron" unicode="&#x2c9;" 
d="M176 625q5 0 8.5 0.5t8.5 0.5h7q4 0 7 0.5t7 0.5t8 -0.5t8 -0.5h8l37 -1q15 -1 30 0t30 1h19q10 0 19 1t19 1q4 0 11 -1.5t10 -3.5q3 -3 4.5 -9t1.5 -9t-0.5 -5.5t-0.5 -5.5v-7q-1 -4 -1.5 -5.5t-0.5 -7.5v-14q0 -6 1 -12.5t-0.5 -12t-6.5 -9.5t-17 -5h-17.5t-21.5 0.5
l-22 1t-19 0.5q-17 0 -35 -1t-35 -1q-8 0 -16 0.5t-16 0.5l-27 -1q-8 0 -15 0.5t-15 0.5t-16.5 -1t-16.5 -1q-4 0 -13.5 0.5t-14.5 1.5t-8.5 3.5t-3.5 10.5t1 9.5t1 6.5v11v1q0 3 0.5 5.5t0.5 5.5v10v5v10q0 3 -0.5 5.5t-0.5 5.5q0 6 4 11t21 5t21.5 -0.5t6.5 -0.5t6.5 -0.5
t22.5 -0.5h11z" />
    <glyph glyph-name="macron" unicode="&#x2c9;" 
d="M176 625q5 0 8.5 0.5t8.5 0.5h7q4 0 7 0.5t7 0.5t8 -0.5t8 -0.5h8l37 -1q15 -1 30 0t30 1h19q10 0 19 1t19 1q4 0 11 -1.5t10 -3.5q3 -3 4.5 -9t1.5 -9t-0.5 -5.5t-0.5 -5.5v-7q-1 -4 -1.5 -5.5t-0.5 -7.5v-14q0 -6 1 -12.5t-0.5 -12t-6.5 -9.5t-17 -5h-17.5t-21.5 0.5
l-22 1t-19 0.5q-17 0 -35 -1t-35 -1q-8 0 -16 0.5t-16 0.5l-27 -1q-8 0 -15 0.5t-15 0.5t-16.5 -1t-16.5 -1q-4 0 -13.5 0.5t-14.5 1.5t-8.5 3.5t-3.5 10.5t1 9.5t1 6.5v11v1q0 3 0.5 5.5t0.5 5.5v10v5v10q0 3 -0.5 5.5t-0.5 5.5q0 6 4 11t21 5t21.5 -0.5t6.5 -0.5t6.5 -0.5
t22.5 -0.5h11z" />
    <glyph glyph-name="degree" unicode="&#xb0;" 
d="M404 504q0 -29 -14 -60q-10 -22 -28 -38q-25 -21 -53.5 -30.5t-66.5 -9.5q-30 0 -69 17q-46 20 -62 58q-6 13 -10.5 36t-4.5 36q0 25 3 36q13 39 16 45q8 15 20 28q18 19 24 23q30 17 46 20q30 3 55 3q12 0 32 -4q21 -5 30 -9q10 -5 15.5 -8.5t7.5 -4.5l15 -15l8 -7
q14 -21 22 -37l6 -13q2 -9 3.5 -16.5l2.5 -12.5q3 -20 3 -22zM315 519q-1 7 -1 12t-1 7q0 4 -5 14q-3 2 -7 10q-18 26 -48 26q-46 0 -63 -44q-5 -15 -5 -26l-1 -7l1 -11l1 -9l5 -10q5 -12 13 -20q15 -16 38 -16q32 0 48 13q15 11 22 29q2 6 2 22z" />
    <glyph glyph-name="plusminus" unicode="&#xb1;" 
d="M153 111q28 -3 68 -3q43 0 84 3q8 1 14 1h9h27l10 1l22 -2h30q29 0 29 -43v-51q0 -8 -7 -15q-8 -5 -19 -5h-63q-24 3 -48 3q-8 0 -69 -3l-94 -1q-27 3 -32 3q-7 0 -12 -1q-7 -1 -12 -1.5t-9 -0.5q-18 0 -22 9q-5 12 -5 79q0 15 12 21q7 4 35 4h11t11 1q7 1 11 1h6h13z
M102 277q-7 -1 -12.5 -1.5t-9.5 -0.5q-16 0 -21 11q-5 10 -5 78q0 15 12 21q5 4 34 4q4 1 23 3q5 1 9 1h8q8 0 13 -1t8.5 -1h6.5q11 0 16 8q4 5 4 12v45q1 5 1 14t-1 12q-1 12 -1.5 19.5t-0.5 10.5q0 9 8 14.5t19 5.5q5 0 10.5 -0.5t12.5 -1.5q5 -1 9 -1h8q8 0 13 1t9.5 1
h7.5q13 0 19 -11q2 -4 3 -7.5t2 -6.5l2 -54q0 -4 -4 -24v-10q0 -12 8 -20q4 -4 10 -4h42q15 -4 26 -4h5q7 1 12 1h9q29 0 29 -43v-51q0 -8 -7 -14q-7 -7 -19 -7h-29h-28t-15 1t-7.5 1h-6.5q-17 0 -21 -9q-2 -6 -4 -58l-1 -9v-21.5t-0.5 -12t-1.5 -6.5t-3 -5q-6 -9 -25 -9
q-4 0 -9.5 0.5t-13.5 1.5q-5 1 -8.5 1.5t-6.5 0.5q-5 0 -9 -1q-7 -1 -12 -1h-9q-24 0 -24 59q0 4 0.5 14.5t1.5 29.5q1 5 -2 11.5t-7 7.5q-5 3 -37 3q-11 1 -17.5 1.5t-9.5 0.5h-13z" />
    <glyph glyph-name="uni00B2" unicode="&#xb2;" horiz-adv-x="350" 
d="M75 267q-53 2 -56 5q-7 6 -7 31q0 6 6 14q1 1 31.5 26t93.5 74q12 10 25.5 23t27.5 30q23 28 23 56q0 25 -16 38q-14 12 -37 12q-33 0 -47 -23q-3 -6 -5 -32q-2 -15 -21 -15h-26q-32 1 -38 7q-6 7 -6 23q0 38 22 75q18 30 56 45q29 11 56 12h14q2 0 2.5 0.5t1.5 0.5h2
q26 0 51.5 -8t41.5 -21q21 -18 35 -44q10 -19 10 -60t-14 -72q-5 -9 -44 -58l-24 -24q-10 -8 -16.5 -13.5t-9.5 -7.5h2l22 1h3q2 0 4 -0.5t5 -0.5l13 1h7h8t12 -1q32 -2 32 -21l-1 -29q0 -3 1 -6v-10q0 -18 -12 -24q-12 -5 -36 -5h-75q-8 1 -14 1h-11h-33t-24 1h-27z" />
    <glyph glyph-name="uni00B3" unicode="&#xb3;" horiz-adv-x="350" 
d="M69 286q-50 26 -50 47q0 9 13 21l4.5 4.5t8.5 9.5q18 19 33 19q4 0 6 -2q2 0 27 -22q21 -18 55 -18q28 0 43 17q13 13 13 27q0 25 -30 40q-15 8 -45 11q-23 3 -23 21q0 33 3 39t11 9q1 1 30 3q8 1 14.5 3.5t13.5 6.5q14 9 14 25q0 13 -12 24q-14 12 -35 12q-18 0 -38 -11
q-2 -1 -31 -25q-8 -6 -17 -6q-6 0 -10 2q-2 1 -5 4q-2 2 -6 5t-9 8l-9 9q-12 13 -12 19q0 15 21 35q27 24 49 32q37 14 67 14q55 0 92 -19q22 -12 39 -38q15 -24 15 -48t-18 -54q-3 -5 -14.5 -15.5t-16.5 -13.5q0 -3 22 -13q16 -7 28 -30q13 -25 13 -55q0 -15 -7 -36.5
t-17 -33.5q-21 -25 -54.5 -38.5t-75.5 -13.5q-37 0 -49 4l-35 12z" />
    <glyph glyph-name="acute" unicode="&#xb4;" 
d="M348 590q-5 -9 -9 -15t-9 -14q-8 -14 -14.5 -24.5t-14.5 -15.5q-5 -3 -10.5 -4t-10.5 -1q-7 0 -13.5 1t-13.5 1q-5 0 -8.5 -0.5t-8.5 -0.5h-17q-14 0 -18 4t-4 9v2v2q0 3 1 10t2.5 15l3 16t2.5 12l8 29q4 13 4 16.5t2 5.5q5 12 9 16t14 5h32h23h12t3 0.5t3 0.5h12
q8 0 17.5 -0.5t15.5 -5.5q8 -6 8 -17q0 -8 -3.5 -15t-5.5 -10q-3 -4 -3 -7q-2 -2 -2 -1.5t-2 -4.5z" />
    <glyph glyph-name="mu" unicode="&#xb5;" horiz-adv-x="495" 
d="M453 37q0 -21 -11 -32t-30 -11q-82 0 -91 4l-8 2q-1 1 -3 4q-2 2 -4 5t-5 8q-5 6 -12 6q-3 0 -39 -14q-3 -2 -12 -4.5t-19.5 -5t-19.5 -4.5t-10 -2l-32 1q-4 0 -7.5 -4t-3.5 -8l4 -29l2 -33q1 -17 1.5 -26.5t0.5 -11.5q0 -12 -6 -15q-6 -2 -48 -2h-33q-40 0 -46 2
q-8 3 -8 10t1 12v10t1 22q1 25 9 63l1 31l5 32v32l2 25v66q3 52 3 72v20q-3 133 -3 167q0 27 12 36q11 8 19 8l66 -2q39 -2 44 -5q9 -5 9 -15l-1 -36q-1 -46 -2 -74.5t-2 -40.5q-3 -39 -3 -68q0 -55 27 -79q18 -15 36 -15q30 0 53 24q17 17 18 38q2 6 3 40v20v3t1 7
q1 7 1 20v33v29t-1 18q-2 23 -3 37t-1 19q0 46 42 46h21t27 -1q4 -1 10 -1h8.5t9.5 1h10q23 0 23 -32q0 -10 -3 -68l1 -139q0 -10 -0.5 -22.5t-1.5 -26.5q-2 -39 -3.5 -64t-1.5 -36q0 -7 3 -41v-5z" />
    <glyph glyph-name="paragraph" unicode="&#xb6;" horiz-adv-x="553" 
d="M515 564q-17 0 -20 -6q-2 -5 -3 -50l3 -34l-4 -34l5 -54q0 -1 -0.5 -4t-1.5 -10t-1.5 -12.5t-0.5 -10.5l1 -45l-2 -34l1 -35l-2 -34l4 -34l-3 -34q3 -35 3 -102l-2 -38v-8.5t1 -21.5q1 -5 1 -15q0 -30 -3 -34q-3 -7 -15 -7l-38 1l-35 -1q-11 0 -16 5q-2 2 -4 17l-2 34
l3 35v33l1 34l-3 47q1 1 1 5v6.5t1 9.5t1 10v10q0 9 -3 48q-1 4 -1 9v10q0 4 0.5 15t1.5 29l-1 40l3 34q-3 39 -3 49v38v15t-1 27l4 41q0 43 -4 51q-3 5 -20 5h-12q-17 0 -20 -6q-2 -6 -2 -39q0 -6 -3 -67l1 -12q1 -7 1.5 -11.5t0.5 -8.5l-2 -48l1 -34v-42v-11.5t1 -14.5
q1 -10 1 -16v-8l-1 -45q1 -26 1.5 -46t0.5 -36q0 -13 -0.5 -26.5t-1.5 -27.5q-1 -7 -1 -11v-6l2 -50l-2 -35l1 -34q0 -13 -5 -18q-4 -4 -14 -4l-37 1l-32 -1q-17 0 -20 7q-3 5 -4 49l2 35v66q1 5 1 9.5v8.5q0 5 -1 20.5t-3 42.5q0 1 0.5 6t1.5 16q1 9 1 22.5v32.5
q0 5 -0.5 16.5t-1.5 30.5l2 34q0 12 -12 17q-17 4 -63 9q-27 3 -58 28q-57 49 -57 131q0 100 75 145q53 32 164 32q8 0 23.5 -0.5t37.5 -1.5h26q11 0 52 3l35 -2l35 3l34 -4l20 2q9 0 14 -5q3 -5 3 -14v-60q0 -14 -4 -18t-18 -4h-9z" />
    <glyph glyph-name="periodcentered" unicode="&#xb7;" horiz-adv-x="518" 
d="M237 311q12 1 19 1h9h7.5t8.5 -1t8 -1h5q23 0 29 -3q11 -6 11 -17q0 -111 -3 -118q-4 -10 -20 -10l-46 1q-29 1 -45 1t-18 1q-18 4 -18 24l1 25l-1 62q0 24 7 31q2 2 10 4h36z" />
    <glyph glyph-name="periodcentered" unicode="&#x22c5;" horiz-adv-x="518" 
d="M237 311q12 1 19 1h9h7.5t8.5 -1t8 -1h5q23 0 29 -3q11 -6 11 -17q0 -111 -3 -118q-4 -10 -20 -10l-46 1q-29 1 -45 1t-18 1q-18 4 -18 24l1 25l-1 62q0 24 7 31q2 2 10 4h36z" />
    <glyph glyph-name="periodcentered" unicode="&#x2219;" horiz-adv-x="518" 
d="M237 311q12 1 19 1h9h7.5t8.5 -1t8 -1h5q23 0 29 -3q11 -6 11 -17q0 -111 -3 -118q-4 -10 -20 -10l-46 1q-29 1 -45 1t-18 1q-18 4 -18 24l1 25l-1 62q0 24 7 31q2 2 10 4h36z" />
    <glyph glyph-name="periodcentered" unicode="&#x22c5;" horiz-adv-x="518" 
d="M237 311q12 1 19 1h9h7.5t8.5 -1t8 -1h5q23 0 29 -3q11 -6 11 -17q0 -111 -3 -118q-4 -10 -20 -10l-46 1q-29 1 -45 1t-18 1q-18 4 -18 24l1 25l-1 62q0 24 7 31q2 2 10 4h36z" />
    <glyph glyph-name="periodcentered" unicode="&#x2219;" horiz-adv-x="518" 
d="M237 311q12 1 19 1h9h7.5t8.5 -1t8 -1h5q23 0 29 -3q11 -6 11 -17q0 -111 -3 -118q-4 -10 -20 -10l-46 1q-29 1 -45 1t-18 1q-18 4 -18 24l1 25l-1 62q0 24 7 31q2 2 10 4h36z" />
    <glyph glyph-name="cedilla" unicode="&#xb8;" 
d="M304 -7q0 -2 1.5 -5.5t3.5 -5.5q3 -3 7 -4t9 -6q8 -6 9.5 -11.5t1.5 -11.5q0 -11 -14 -19q-13 -7 -26 -8.5t-21 -1.5q-11 0 -23 -0.5t-23 1.5q-6 1 -12 1.5t-12 0.5h-3q-6 0 -14.5 4t-12.5 6t-7 6.5t-3 10.5q0 7 2 9l4 4t5 4t8 2q2 0 2.5 -0.5t2.5 -0.5q2 -1 6 -1h4
q8 0 11 2.5t4 4.5q2 5 2 9.5v9.5v7h88v-7z" />
    <glyph glyph-name="uni00B9" unicode="&#xb9;" horiz-adv-x="350" 
d="M153 471q-1 25 -1.5 39.5t-0.5 18.5q0 13 -8 13q-7 0 -41 -19q-6 -2 -9 -2q-18 0 -33 24q-8 13 -8 22t7 17q1 1 6.5 6t16.5 13q14 11 24 18.5t15 9.5q20 11 31.5 17t14.5 8q15 7 43 7q39 0 44 -20v-15t1 -41l-1 -44l1 -93l-1 -52v-30l-1 -19v-36q-2 -32 -3 -39
q-3 -9 -24 -9q-14 0 -18 1l-12 1.5t-5 0.5t-4.5 -0.5t-8.5 -1.5h-7q-24 0 -24 23q0 3 0.5 11.5t1.5 22.5v7.5t1 19.5v10.5t1 15.5q3 40 3 56z" />
    <glyph glyph-name="ordmasculine" unicode="&#xba;" horiz-adv-x="337" 
d="M172 557q47 0 88 -22q22 -11 42 -42q2 -4 3 -5q13 -21 18 -30q10 -24 10 -55q0 -41 -18 -69q-3 -5 -18 -21q-14 -20 -36 -33q-11 -5 -21.5 -9.5t-20.5 -7.5q-22 -2 -32 -3q-11 -1 -17.5 -1h-9.5q-52 0 -97 36q-36 29 -47 55q-12 27 -12 65q0 19 7.5 41.5t18.5 36.5
q26 35 56 48q36 16 86 16zM165 472q-31 0 -51 -26q-11 -14 -11 -32q0 -31 23 -49q20 -14 43 -14q15 0 29 7t22 18q10 14 10 33q0 12 -7 26t-16 22q-20 15 -42 15z" />
    <glyph glyph-name="guillemotright" unicode="&#xbb;" horiz-adv-x="325" 
d="M179 357q0 18 14 18q4 0 45 -27q33 -21 46 -33q8 -6 8 -23v-63l-1 -30q1 -5 1 -8.5v-5.5q0 -7 -8 -15q-1 -2 -51 -37q-16 -13 -24 -20t-10 -8q-6 -3 -10 -3q-11 0 -11 14v7l1 22v5l-1 32v21q0 9 4 12q0 2 28 18q5 3 5 7t-2 6q-1 1 -7 4.5t-19 10.5q-8 5 -8 27v16t1 16v8
q0 5 -1 8v21zM51 259q-4 1 -4 34q0 71 2 75q4 6 11 6q8 0 69 -43q20 -14 21 -16q3 -5 3 -10l-1 -53q0 -75 -2 -83q-3 -9 -36 -30q-10 -7 -18 -13.5t-16 -11.5q-16 -13 -22 -13q-12 0 -12 13q0 5 1 8q1 5 1 9v9v10q-1 13 -1 23.5v18.5q0 12 3 20q3 3 30 20q2 2 2 5t-2 5z" />
    <glyph glyph-name="onequarter" unicode="&#xbc;" horiz-adv-x="832" 
d="M153 471q-1 25 -1.5 39.5t-0.5 18.5q0 13 -8 13q-7 0 -41 -19q-6 -2 -9 -2q-18 0 -33 24q-8 13 -8 22t7 17q1 1 6.5 6t16.5 13q14 11 24 18.5t15 9.5q20 11 31.5 17t14.5 8q15 7 43 7q39 0 44 -20v-15t1 -41l-1 -44l1 -93l-1 -52v-30l-1 -19v-36q-2 -32 -3 -39
q-3 -9 -24 -9q-14 0 -18 1l-12 1.5t-5 0.5t-4.5 -0.5t-8.5 -1.5h-7q-24 0 -24 23q0 3 0.5 11.5t1.5 22.5v7.5t1 19.5v10.5t1 15.5q3 40 3 56zM458 502l28.5 51t14.5 26t7.5 15.5l7.5 19.5q13 42 28 52q10 5 21 5q7 0 10 -1q4 -1 5.5 -1.5t2.5 -0.5l25 1q3 0 7 -4.5t4 -8.5
t-23 -48l-16 -32q-7 -12 -13.5 -25t-11.5 -27q-9 -19 -70 -137l-28 -53l-18 -38l-25 -49l-21 -47l-26 -50l-22 -45q-8 -14 -17 -32.5t-20 -42.5q-15 -31 -31 -31l-29 1l-23 -1q-12 1 -12 11q0 7 16 32l16 35l26 46l49 101l49 89l26 58l41 80zM584 259q13 19 24 36t21 34
q7 11 11 18.5t6 9.5l12 17q10 19 18 22l12 3q39 0 51 -3q8 -3 10 -12q1 -3 1 -31v-33l1 -43v-80q1 -8 1 -12.5v-5.5q0 -10 5 -12q6 -2 33 -2q9 0 12 -6q3 -5 3 -28v-21q-1 -16 -6 -19q-5 -4 -36 -5q-8 0 -9 -4t-3 -64q0 -10 -4.5 -14t-16.5 -4h-54q-14 0 -18 6q-1 1 -1 70
q0 4 -3 7q-5 3 -22 2h-4.5t-8.5 1h-62q-5 1 -9 1h-6q-7 -1 -12 -1h-9q-7 0 -14 5q-2 2 -4 17v4q-1 2 -1 4q0 9 14 31q10 19 22.5 39t26.5 43zM657 231q0 10 -2 12q-5 0 -23 -30t-18 -39q0 -11 20 -11q19 0 21 6q1 2 1 7v21v9.5t1 20.5v4z" />
    <glyph glyph-name="onehalf" unicode="&#xbd;" horiz-adv-x="832" 
d="M557 0q-50 2 -56 6q-7 6 -7 31q0 6 6 14q1 1 31.5 25.5t93.5 73.5q23 18 53 53q23 28 23 57q0 25 -16 38q-14 12 -37 12q-34 0 -47 -24q-3 -5 -5 -32q-2 -15 -21 -15h-8.5t-17.5 1q-34 2 -38 7q-6 6 -6 23q0 39 22 74q16 29 56 46q30 11 56 11q5 1 8.5 1h5.5h7
q25 0 50.5 -8t41.5 -20q20 -17 35 -44q11 -20 11 -60q0 -55 -21 -82q-13 -17 -20 -26.5t-11.5 -15t-8.5 -9.5l-11 -11l-11 -10q-10 -8 -16.5 -13.5t-9.5 -7.5h23h4t10 -1l12 1h7h7t13 -1q32 -2 32 -20l-1 -30q0 -2 1 -5v-10q0 -18 -12 -25q-9 -4 -33 -4h-59t-35 1h-1l-50 -1
q-10 1 -16 1h-8h-19zM458 502l28.5 51t14.5 26t7.5 15.5l7.5 19.5q13 42 28 52q10 5 21 5q7 0 10 -1q4 -1 5.5 -1.5t2.5 -0.5l25 1q3 0 7 -4.5t4 -8.5t-23 -48l-16 -32q-7 -12 -13.5 -25t-11.5 -27q-9 -19 -70 -137l-28 -53l-18 -38l-25 -49l-21 -47l-26 -50l-22 -45
q-8 -14 -17 -32.5t-20 -42.5q-15 -31 -31 -31l-29 1l-23 -1q-12 1 -12 11q0 7 16 32l16 35l26 46l49 101l49 89l26 58l41 80zM153 471q-1 25 -1.5 39.5t-0.5 18.5q0 13 -8 13q-7 0 -41 -19q-6 -2 -9 -2q-18 0 -33 24q-8 13 -8 22t7 17q1 1 6.5 6t16.5 13q14 11 24 18.5
t15 9.5q20 11 31.5 17t14.5 8q15 7 43 7q39 0 44 -20v-15t1 -41l-1 -44l1 -93l-1 -52v-30l-1 -19v-36q-2 -32 -3 -39q-3 -9 -24 -9q-14 0 -18 1l-12 1.5t-5 0.5t-4.5 -0.5t-8.5 -1.5h-7q-24 0 -24 23q0 3 0.5 11.5t1.5 22.5v7.5t1 19.5v10.5t1 15.5q3 40 3 56z" />
    <glyph glyph-name="threequarters" unicode="&#xbe;" horiz-adv-x="832" 
d="M69 286q-50 26 -50 47q0 9 13 21l4.5 4.5t8.5 9.5q18 19 33 19q4 0 6 -2q2 0 27 -22q21 -18 55 -18q28 0 43 17q13 13 13 27q0 25 -30 40q-15 8 -45 11q-23 3 -23 21q0 33 3 39t11 9q1 1 30 3q8 1 14.5 3.5t13.5 6.5q14 9 14 25q0 13 -12 24q-14 12 -35 12q-18 0 -38 -11
q-2 -1 -31 -25q-8 -6 -17 -6q-6 0 -10 2q-2 1 -5 4q-2 2 -6 5t-9 8l-9 9q-12 13 -12 19q0 15 21 35q27 24 49 32q37 14 67 14q55 0 92 -19q22 -12 39 -38q15 -24 15 -48t-18 -54q-3 -5 -14.5 -15.5t-16.5 -13.5q0 -3 22 -13q16 -7 28 -30q13 -25 13 -55q0 -15 -7 -36.5
t-17 -33.5q-21 -25 -54.5 -38.5t-75.5 -13.5q-37 0 -49 4l-35 12zM458 502l28.5 51t14.5 26t7.5 15.5l7.5 19.5q13 42 28 52q10 5 21 5q7 0 10 -1q4 -1 5.5 -1.5t2.5 -0.5l25 1q3 0 7 -4.5t4 -8.5t-23 -48l-16 -32q-7 -12 -13.5 -25t-11.5 -27q-9 -19 -70 -137l-28 -53
l-18 -38l-25 -49l-21 -47l-26 -50l-22 -45q-8 -14 -17 -32.5t-20 -42.5q-15 -31 -31 -31l-29 1l-23 -1q-12 1 -12 11q0 7 16 32l16 35l26 46l49 101l49 89l26 58l41 80zM584 259q13 19 24 36t21 34q7 11 11 18.5t6 9.5l12 17q10 19 18 22l12 3q39 0 51 -3q8 -3 10 -12
q1 -3 1 -31v-33l1 -43v-80l1 -18q0 -10 5 -12q6 -2 33 -2q12 0 14 -11q1 -2 1 -44q-1 -16 -6 -19q-5 -4 -36 -5q-8 0 -9 -4t-3 -64q0 -10 -4.5 -14t-16.5 -4h-54q-14 0 -18 6q-1 1 -1 70q0 4 -3 7q-5 3 -22 2h-4.5t-8.5 1h-62q-5 1 -9 1h-6q-7 -1 -12 -1h-9q-7 0 -14 5
q-2 2 -4 17v4q-1 2 -1 4q0 9 14 31q10 19 22.5 39t26.5 43zM657 231q0 10 -2 12q-5 0 -23 -30q-18 -29 -18 -39q0 -11 20 -11q19 0 21 6q1 2 1 7v21v9.5t1 20.5v4z" />
    <glyph glyph-name="questiondown" unicode="&#xbf;" horiz-adv-x="300" 
d="M156 517l-30 1q-37 2 -41 3q-9 1 -12 12q-1 2 -1 33v10q-1 5 -1 18q0 5 0.5 12.5t1.5 18.5v26q0 7 6.5 11.5t14.5 4.5h8t16 -1h3h9.5t13.5 1q5 1 8.5 1h6.5t10.5 -0.5t19.5 -1.5q18 -2 22 -4q9 -8 9 -24l-1 -23v-31l-1 -20q0 -29 -1 -32q-5 -14 -34 -14zM104 410
q2 54 3 58q4 10 12 15q7 4 37 4q23 0 30 -5q3 -3 6.5 -14.5t6.5 -27t4.5 -32.5t1.5 -31q0 -46 -8 -78l-10 -39q-8 -34 -8 -63q0 -22 14 -34q13 -12 32 -12q6 0 9 1q11 1 17.5 1.5t8.5 0.5q15 0 15 -17l-1 -23q1 -14 1.5 -22t0.5 -10q0 -6 -1 -9q-1 -4 -1 -9v-3q0 -1 0.5 -4
t1.5 -8v-9q0 -13 -7 -19q-3 -2 -10 -5.5t-18 -7.5l-16 -7q-27 -8 -64 -8q-48 0 -74 14q-25 15 -45 47q-12 21 -12 60q0 40 9 66l10 28l9 30q11 26 18.5 44t10.5 29q2 8 4.5 24t6.5 40z" />
    <glyph glyph-name="Agrave" unicode="&#xc0;" horiz-adv-x="545" 
d="M164 769q-5 8 -4.5 8.5t-2.5 4.5q-2 4 -6 10t-4 15q0 11 9 17q8 5 17.5 5.5t17.5 0.5h12q5 0 10 -0.5t10 -0.5h25h34q12 -1 15.5 -5.5t8.5 -15.5q3 -5 4 -10.5t3 -11.5l8 -29q3 -11 6.5 -29t3.5 -24v-2v-2q0 -5 -4 -9t-20 -4h-18q-5 0 -9 0.5t-9 0.5q-8 0 -14.5 -1
t-14.5 -1q-12 0 -22 5l-6 4t-6 6t-7.5 11t-11.5 19q-4 6 -9.5 13.5t-10.5 15.5zM297 448q-2 7 -5.5 16.5t-7.5 14.5q-5 5 -13 5t-19 -13.5t-18 -56.5q-1 -6 -1.5 -9.5t-1.5 -8.5t-2 -13t-4 -21q-3 -19 -6.5 -31t-3.5 -20v-6q0 -3 -0.5 -5.5t-0.5 -5.5q0 -5 1.5 -11.5
t3.5 -10.5q2 -5 12 -11t32 -6h11t14.5 0.5t14.5 1.5t11 3q14 5 16 14.5t2 17.5q0 12 -1 20t-2 15t-3 13.5t-4 14.5q-6 22 -6.5 30.5t-4.5 19.5zM289 670q10 0 15 -0.5t15 -0.5q6 0 12.5 0.5t12.5 0.5q8 0 24 -2.5t24 -10.5q5 -5 10 -14.5t8 -17.5t5 -18t7 -24l9 -31
q5 -14 8 -26.5t7 -32.5q1 -11 3 -17.5t8 -23.5q5 -14 7.5 -22.5t3.5 -15.5t1.5 -12.5t1.5 -12.5q7 -41 13 -66t9 -40l15 -71q2 -8 4.5 -16t4.5 -16q2 -6 2 -12t2 -12l19 -84q2 -11 5 -25t-2 -28q-3 -8 -7.5 -11.5t-8.5 -5.5q-7 -3 -15.5 -3t-27.5 -1l-19 -1h-8.5h-14.5
t-15.5 0.5t-11.5 1.5q-8 2 -11.5 4t-6.5 6q-7 8 -8 12t-3 10l-18 52q-3 9 -6.5 12.5t-6.5 4.5q-2 1 -8 1.5t-12.5 1.5t-12.5 1.5t-7 0.5h-26q-10 0 -22 -0.5t-24 -1.5t-23 -2.5t-18 -3.5q-9 -3 -16.5 -8.5t-12.5 -15.5q-5 -8 -7.5 -19.5t-7.5 -31.5q-1 -3 -2.5 -9.5
t-6.5 -10.5q-2 -2 -5.5 -2.5t-5.5 -0.5q-5 0 -10.5 0.5t-10.5 0.5q-19 2 -37.5 0t-37.5 0q-12 1 -19 2t-14 9q-3 4 -6 10t-3 11q0 2 1.5 12.5t2.5 12.5q1 3 1.5 5.5t1.5 5.5q2 8 2 16t2 16l5 24q5 23 6.5 35t3.5 23q4 27 8.5 39.5t8.5 26.5q1 6 2 9.5t1.5 8.5t2 12.5
t4.5 21.5q1 5 3.5 18.5t4.5 18.5q7 30 13.5 55.5t13.5 52.5t14 58.5t15 73.5q5 29 10.5 48t22.5 33q10 8 16 8.5t13 0.5q5 0 8 0.5t7.5 1t11 1t19.5 0.5h64z" />
    <glyph glyph-name="Aacute" unicode="&#xc1;" horiz-adv-x="545" 
d="M375 760q-5 -8 -10.5 -15.5t-9.5 -13.5q-7 -12 -11.5 -19t-7.5 -11t-6 -6l-6 -4q-10 -5 -22 -5q-8 0 -14.5 1t-14.5 1q-5 0 -9 -0.5t-9 -0.5h-18q-16 0 -20 4t-4 9v2v2q0 6 3.5 24t6.5 29l8 29q2 6 3 11.5t4 10.5q5 11 8.5 15.5t15.5 5.5h34h25q5 0 10 0.5t10 0.5h12
q8 0 17.5 -0.5t17.5 -5.5q9 -6 9 -17q0 -9 -4 -15t-6 -10q-3 -4 -2.5 -4.5t-4.5 -8.5zM297 448q-2 7 -5.5 16.5t-7.5 14.5q-5 5 -13 5t-19 -13.5t-18 -56.5q-1 -6 -1.5 -9.5t-1.5 -8.5t-2 -13t-4 -21q-3 -19 -6.5 -31t-3.5 -20v-6q0 -3 -0.5 -5.5t-0.5 -5.5q0 -5 1.5 -11.5
t3.5 -10.5q2 -5 12 -11t32 -6h11t14.5 0.5t14.5 1.5t11 3q14 5 16 14.5t2 17.5q0 12 -1 20t-2 15t-3 13.5t-4 14.5q-6 22 -6.5 30.5t-4.5 19.5zM289 670q10 0 15 -0.5t15 -0.5q6 0 12.5 0.5t12.5 0.5q8 0 24 -2.5t24 -10.5q5 -5 10 -14.5t8 -17.5t5 -18t7 -24l9 -31
q5 -14 8 -26.5t7 -32.5q1 -11 3 -17.5t8 -23.5q5 -14 7.5 -22.5t3.5 -15.5t1.5 -12.5t1.5 -12.5q7 -41 13 -66t9 -40l15 -71q2 -8 4.5 -16t4.5 -16q2 -6 2 -12t2 -12l19 -84q2 -11 5 -25t-2 -28q-3 -8 -7.5 -11.5t-8.5 -5.5q-7 -3 -15.5 -3t-27.5 -1l-19 -1h-8.5h-14.5
t-15.5 0.5t-11.5 1.5q-8 2 -11.5 4t-6.5 6q-7 8 -8 12t-3 10l-18 52q-3 9 -6.5 12.5t-6.5 4.5q-2 1 -8 1.5t-12.5 1.5t-12.5 1.5t-7 0.5h-26q-10 0 -22 -0.5t-24 -1.5t-23 -2.5t-18 -3.5q-9 -3 -16.5 -8.5t-12.5 -15.5q-5 -8 -7.5 -19.5t-7.5 -31.5q-1 -3 -2.5 -9.5
t-6.5 -10.5q-2 -2 -5.5 -2.5t-5.5 -0.5q-5 0 -10.5 0.5t-10.5 0.5q-19 2 -37.5 0t-37.5 0q-12 1 -19 2t-14 9q-3 4 -6 10t-3 11q0 2 1.5 12.5t2.5 12.5q1 3 1.5 5.5t1.5 5.5q2 8 2 16t2 16l5 24q5 23 6.5 35t3.5 23q4 27 8.5 39.5t8.5 26.5q1 6 2 9.5t1.5 8.5t2 12.5
t4.5 21.5q1 5 3.5 18.5t4.5 18.5q7 30 13.5 55.5t13.5 52.5t14 58.5t15 73.5q5 29 10.5 48t22.5 33q10 8 16 8.5t13 0.5q5 0 8 0.5t7.5 1t11 1t19.5 0.5h64z" />
    <glyph glyph-name="Acircumflex" unicode="&#xc2;" horiz-adv-x="545" 
d="M177 780q4 5 7.5 10t8.5 10q4 5 8 8.5t9 8.5l8 8t11 6q8 3 11 3.5t8 0.5h6q5 0 10 -0.5t10 -0.5h12q11 0 22 -1t18 -5l6 -6t13 -15q5 -7 7 -10q6 -8 7 -8t7 -8l39 -51q11 -14 13 -20t2 -8q0 -4 -3 -6.5t-5 -3.5t-6.5 -1.5t-6.5 -0.5h-6q-4 0 -7 -0.5t-7 -0.5l-44 1
q-5 0 -7.5 -0.5t-7.5 -0.5h-4q-8 0 -12.5 3.5t-13.5 14.5q-4 5 -8.5 9.5t-15.5 4.5q-8 0 -13.5 -4t-12.5 -12q-2 -3 -4.5 -6.5t-7.5 -5.5q-5 -4 -14 -4t-11.5 0.5t-4 0.5t-5.5 0.5t-16 0.5h-33q-14 0 -17.5 4t-3.5 9q0 6 3.5 12.5t14.5 19.5zM297 448q-2 7 -5.5 16.5
t-7.5 14.5q-5 5 -13 5t-19 -13.5t-18 -56.5q-1 -6 -1.5 -9.5t-1.5 -8.5t-2 -13t-4 -21q-3 -19 -6.5 -31t-3.5 -20v-6q0 -3 -0.5 -5.5t-0.5 -5.5q0 -5 1.5 -11.5t3.5 -10.5q2 -5 12 -11t32 -6h11t14.5 0.5t14.5 1.5t11 3q14 5 16 14.5t2 17.5q0 12 -1 20t-2 15t-3 13.5
t-4 14.5q-6 22 -6.5 30.5t-4.5 19.5zM289 670q10 0 15 -0.5t15 -0.5q6 0 12.5 0.5t12.5 0.5q8 0 24 -2.5t24 -10.5q5 -5 10 -14.5t8 -17.5t5 -18t7 -24l9 -31q5 -14 8 -26.5t7 -32.5q1 -11 3 -17.5t8 -23.5q5 -14 7.5 -22.5t3.5 -15.5t1.5 -12.5t1.5 -12.5q7 -41 13 -66
t9 -40l15 -71q2 -8 4.5 -16t4.5 -16q2 -6 2 -12t2 -12l19 -84q2 -11 5 -25t-2 -28q-3 -8 -7.5 -11.5t-8.5 -5.5q-7 -3 -15.5 -3t-27.5 -1l-19 -1h-8.5h-14.5t-15.5 0.5t-11.5 1.5q-8 2 -11.5 4t-6.5 6q-7 8 -8 12t-3 10l-18 52q-3 9 -6.5 12.5t-6.5 4.5q-2 1 -8 1.5
t-12.5 1.5t-12.5 1.5t-7 0.5h-26q-10 0 -22 -0.5t-24 -1.5t-23 -2.5t-18 -3.5q-9 -3 -16.5 -8.5t-12.5 -15.5q-5 -8 -7.5 -19.5t-7.5 -31.5q-1 -3 -2.5 -9.5t-6.5 -10.5q-2 -2 -5.5 -2.5t-5.5 -0.5q-5 0 -10.5 0.5t-10.5 0.5q-19 2 -37.5 0t-37.5 0q-12 1 -19 2t-14 9
q-3 4 -6 10t-3 11q0 2 1.5 12.5t2.5 12.5q1 3 1.5 5.5t1.5 5.5q2 8 2 16t2 16l5 24q5 23 6.5 35t3.5 23q4 27 8.5 39.5t8.5 26.5q1 6 2 9.5t1.5 8.5t2 12.5t4.5 21.5q1 5 3.5 18.5t4.5 18.5q7 30 13.5 55.5t13.5 52.5t14 58.5t15 73.5q5 29 10.5 48t22.5 33q10 8 16 8.5
t13 0.5q5 0 8 0.5t7.5 1t11 1t19.5 0.5h64z" />
    <glyph glyph-name="Atilde" unicode="&#xc3;" horiz-adv-x="545" 
d="M114 692q-8 0 -11.5 2.5t-5.5 4.5q-3 5 -4 9t-1 7v13q1 18 4.5 41t21.5 40q13 13 28.5 17t32.5 4q21 0 35.5 -3t28.5 -7q31 -9 42 -11.5t20 -4.5q8 -2 11 -2t8 -1h4q7 2 8 9q1 4 1 8t2 7q1 1 5 4.5t18 3.5h6.5t2.5 -0.5t3 -0.5h8h4q2 0 4.5 -0.5t4.5 -0.5h41
q12 0 14 -10.5t2 -17.5v-5v-24t-5 -24q-6 -20 -16 -31t-20.5 -17t-20 -7.5t-14.5 -1.5q-20 0 -47 5.5t-47 10.5l-37 9q-2 1 -10 2.5t-16 1.5q-9 0 -11 -4q-5 -8 -6 -14t-5 -9q-3 -2 -10 -3t-11 -1q-8 0 -12.5 1t-11.5 1zM297 448q-2 7 -5.5 16.5t-7.5 14.5q-5 5 -13 5
t-19 -13.5t-18 -56.5q-1 -6 -1.5 -9.5t-1.5 -8.5t-2 -13t-4 -21q-3 -19 -6.5 -31t-3.5 -20v-6q0 -3 -0.5 -5.5t-0.5 -5.5q0 -5 1.5 -11.5t3.5 -10.5q2 -5 12 -11t32 -6h11t14.5 0.5t14.5 1.5t11 3q14 5 16 14.5t2 17.5q0 12 -1 20t-2 15t-3 13.5t-4 14.5q-6 22 -6.5 30.5
t-4.5 19.5zM289 670q10 0 15 -0.5t15 -0.5q6 0 12.5 0.5t12.5 0.5q8 0 24 -2.5t24 -10.5q5 -5 10 -14.5t8 -17.5t5 -18t7 -24l9 -31q5 -14 8 -26.5t7 -32.5q1 -11 3 -17.5t8 -23.5q5 -14 7.5 -22.5t3.5 -15.5t1.5 -12.5t1.5 -12.5q7 -41 13 -66t9 -40l15 -71q2 -8 4.5 -16
t4.5 -16q2 -6 2 -12t2 -12l19 -84q2 -11 5 -25t-2 -28q-3 -8 -7.5 -11.5t-8.5 -5.5q-7 -3 -15.5 -3t-27.5 -1l-19 -1h-8.5h-14.5t-15.5 0.5t-11.5 1.5q-8 2 -11.5 4t-6.5 6q-7 8 -8 12t-3 10l-18 52q-3 9 -6.5 12.5t-6.5 4.5q-2 1 -8 1.5t-12.5 1.5t-12.5 1.5t-7 0.5h-26
q-10 0 -22 -0.5t-24 -1.5t-23 -2.5t-18 -3.5q-9 -3 -16.5 -8.5t-12.5 -15.5q-5 -8 -7.5 -19.5t-7.5 -31.5q-1 -3 -2.5 -9.5t-6.5 -10.5q-2 -2 -5.5 -2.5t-5.5 -0.5q-5 0 -10.5 0.5t-10.5 0.5q-19 2 -37.5 0t-37.5 0q-12 1 -19 2t-14 9q-3 4 -6 10t-3 11q0 2 1.5 12.5
t2.5 12.5q1 3 1.5 5.5t1.5 5.5q2 8 2 16t2 16l5 24q5 23 6.5 35t3.5 23q4 27 8.5 39.5t8.5 26.5q1 6 2 9.5t1.5 8.5t2 12.5t4.5 21.5q1 5 3.5 18.5t4.5 18.5q7 30 13.5 55.5t13.5 52.5t14 58.5t15 73.5q5 29 10.5 48t22.5 33q10 8 16 8.5t13 0.5q5 0 8 0.5t7.5 1t11 1
t19.5 0.5h64z" />
    <glyph glyph-name="Adieresis" unicode="&#xc4;" horiz-adv-x="545" 
d="M299 801q0 2 -0.5 5t-0.5 5v6q0 2 2 8t15 5l33 -1q14 -1 29 -1h29h5h4q3 0 5.5 -0.5t5.5 -0.5h13q8 0 13 -5.5t5 -13.5q0 -9 -1 -14t-1 -10.5v-10.5l3 -49q1 -14 0.5 -18t-5.5 -9t-11.5 -5.5t-28.5 -0.5h-53q-20 0 -28 -1.5t-21 0.5q-4 1 -7.5 2t-5.5 6q-3 5 -2 9t1 10z
M106 691q-4 0 -9.5 1.5t-8.5 8.5q-2 4 -2 25l1 33l-2 49q-1 14 5.5 16.5t8.5 2.5l33 -1q4 0 7.5 1t11.5 1h12q6 -1 12 -1.5t12 -0.5l43 1q8 0 11 -4q4 -5 4 -21t1 -53v-37q0 -6 -2 -14t-13 -8zM297 448q-2 7 -5.5 16.5t-7.5 14.5q-5 5 -13 5t-19 -13.5t-18 -56.5
q-1 -6 -1.5 -9.5t-1.5 -8.5t-2 -13t-4 -21q-3 -19 -6.5 -31t-3.5 -20v-6q0 -3 -0.5 -5.5t-0.5 -5.5q0 -5 1.5 -11.5t3.5 -10.5q2 -5 12 -11t32 -6h11t14.5 0.5t14.5 1.5t11 3q14 5 16 14.5t2 17.5q0 12 -1 20t-2 15t-3 13.5t-4 14.5q-6 22 -6.5 30.5t-4.5 19.5zM289 670
q10 0 15 -0.5t15 -0.5q6 0 12.5 0.5t12.5 0.5q8 0 24 -2.5t24 -10.5q5 -5 10 -14.5t8 -17.5t5 -18t7 -24l9 -31q5 -14 8 -26.5t7 -32.5q1 -11 3 -17.5t8 -23.5q5 -14 7.5 -22.5t3.5 -15.5t1.5 -12.5t1.5 -12.5q7 -41 13 -66t9 -40l15 -71q2 -8 4.5 -16t4.5 -16q2 -6 2 -12
t2 -12l19 -84q2 -11 5 -25t-2 -28q-3 -8 -7.5 -11.5t-8.5 -5.5q-7 -3 -15.5 -3t-27.5 -1l-19 -1h-8.5h-14.5t-15.5 0.5t-11.5 1.5q-8 2 -11.5 4t-6.5 6q-7 8 -8 12t-3 10l-18 52q-3 9 -6.5 12.5t-6.5 4.5q-2 1 -8 1.5t-12.5 1.5t-12.5 1.5t-7 0.5h-26q-10 0 -22 -0.5
t-24 -1.5t-23 -2.5t-18 -3.5q-9 -3 -16.5 -8.5t-12.5 -15.5q-5 -8 -7.5 -19.5t-7.5 -31.5q-1 -3 -2.5 -9.5t-6.5 -10.5q-2 -2 -5.5 -2.5t-5.5 -0.5q-5 0 -10.5 0.5t-10.5 0.5q-19 2 -37.5 0t-37.5 0q-12 1 -19 2t-14 9q-3 4 -6 10t-3 11q0 2 1.5 12.5t2.5 12.5q1 3 1.5 5.5
t1.5 5.5q2 8 2 16t2 16l5 24q5 23 6.5 35t3.5 23q4 27 8.5 39.5t8.5 26.5q1 6 2 9.5t1.5 8.5t2 12.5t4.5 21.5q1 5 3.5 18.5t4.5 18.5q7 30 13.5 55.5t13.5 52.5t14 58.5t15 73.5q5 29 10.5 48t22.5 33q10 8 16 8.5t13 0.5q5 0 8 0.5t7.5 1t11 1t19.5 0.5h64z" />
    <glyph glyph-name="Aring" unicode="&#xc5;" horiz-adv-x="545" 
d="M289 670q10 0 15 -0.5t15 -0.5q6 0 12.5 0.5t12.5 0.5q8 0 24 -2.5t24 -10.5q5 -5 10 -14.5t8 -17.5t5 -18t7 -24l9 -31q5 -14 8 -26.5t7 -32.5q1 -11 3 -17.5t8 -23.5q5 -14 7.5 -22.5t3.5 -15.5t1.5 -12.5t1.5 -12.5q7 -41 13 -66t9 -40l15 -71q2 -8 4.5 -16t4.5 -16
q2 -6 2 -12t2 -12l19 -84q2 -11 5 -25t-2 -28q-3 -8 -7.5 -11.5t-8.5 -5.5q-7 -3 -15.5 -3t-27.5 -1l-19 -1h-8.5h-14.5t-15.5 0.5t-11.5 1.5q-8 2 -11.5 4t-6.5 6q-7 8 -8 12t-3 10l-18 52q-3 9 -6.5 12.5t-6.5 4.5q-2 1 -8 1.5t-12.5 1.5t-12.5 1.5t-7 0.5h-26
q-10 0 -22 -0.5t-24 -1.5t-23 -2.5t-18 -3.5q-9 -3 -16.5 -8.5t-12.5 -15.5q-5 -8 -7.5 -19.5t-7.5 -31.5q-1 -3 -2.5 -9.5t-6.5 -10.5q-2 -2 -5.5 -2.5t-5.5 -0.5q-5 0 -10.5 0.5t-10.5 0.5q-19 2 -37.5 0t-37.5 0q-12 1 -19 2t-14 9q-3 4 -6 10t-3 11q0 2 1.5 12.5
t2.5 12.5q1 3 1.5 5.5t1.5 5.5q2 8 2 16t2 16l5 24q5 23 6.5 35t3.5 23q4 27 8.5 39.5t8.5 26.5q1 6 2 9.5t1.5 8.5t2 12.5t4.5 21.5q1 5 3.5 18.5t4.5 18.5q7 30 13.5 55.5t13.5 52.5t14 58.5t15 73.5q5 29 10.5 48t22.5 33q10 8 16 8.5t13 0.5q5 0 8 0.5t7.5 1t11 1
t19.5 0.5h64zM297 448q-2 7 -5.5 16.5t-7.5 14.5q-5 5 -13 5t-19 -13.5t-18 -56.5q-1 -6 -1.5 -9.5t-1.5 -8.5t-2 -13t-4 -21q-3 -19 -6.5 -31t-3.5 -20v-6q0 -3 -0.5 -5.5t-0.5 -5.5q0 -5 1.5 -11.5t3.5 -10.5q2 -5 12 -11t32 -6h11t14.5 0.5t14.5 1.5t11 3q14 5 16 14.5
t2 17.5q0 12 -1 20t-2 15t-3 13.5t-4 14.5q-6 22 -6.5 30.5t-4.5 19.5zM121 771q0 17 9 30.5t22 23.5q14 11 42 20.5t78 9.5q54 0 84 -10t45 -24.5t18.5 -29t3.5 -23.5t-4.5 -24t-21.5 -29q-11 -8 -27 -14t-34 -9.5t-36 -5.5t-33 -2q-12 0 -27.5 1t-32 4.5t-32.5 11
t-29 19.5q-16 15 -20.5 28.5t-4.5 22.5zM222 772q0 -7 9.5 -16t44.5 -9q21 0 31 3.5t14 8.5q2 2 4.5 6t2.5 8q0 3 -1.5 7.5t-7 8t-16.5 6.5t-30 3q-5 0 -14 -0.5t-17 -3t-14 -8t-6 -14.5z" />
    <glyph glyph-name="AE" unicode="&#xc6;" horiz-adv-x="820" 
d="M494 670q18 0 119 -3h28.5t18.5 1h47q7 0 11 1h7q22 0 28 -12q2 -5 4 -55l-1 -13l2 -31q0 -13 -10 -20q-8 -7 -16 -7l-44 1q-1 0 -5.5 -0.5t-14.5 -1.5h-45q-29 2 -44 3t-16 1q-14 0 -27 -4t-17 -9q-11 -14 -11 -50q0 -35 12 -47q8 -8 25 -9h11.5t28.5 -1l39 -2h56
q22 1 34 1.5t14 0.5q15 0 23 -14q6 -11 6 -21v-40l1 -47q-5 -24 -37 -24h-16q-8 1 -12.5 1.5t-5.5 0.5l-47 -2l-23 1h-46l-30 1q-19 0 -27 -14t-8 -46q0 -47 14 -59q7 -7 27 -7h12q4 1 6.5 1h3.5q4 0 9 -1t25.5 -1t55.5 -1l45 -1h4q14 1 21.5 1.5t9.5 0.5q27 0 38 -8
q7 -4 7 -22q0 -9 -1 -12v-4q0 -3 0.5 -8t1.5 -13q1 -5 1 -15q0 -5 -1 -9v-8v-4.5t1 -6.5v-8q0 -12 -9 -19q-8 -7 -19 -7h-3q-5 1 -11 1h-11h-87h-4.5t-11.5 -1h-17h-14.5t-27.5 1q-10 1 -20.5 1h-21.5h-22t-24 -1q-29 -1 -48 -1.5t-29 -0.5q-23 0 -31 4q-3 1 -7 6t-7.5 10
t-6 10t-2.5 8l1 38q0 5 -5 12t-11 11q-7 4 -16 6.5t-20 3.5h-64q-37 0 -46 -4q-20 -8 -28 -26l-12 -33q-6 -25 -10 -29q-10 -11 -27 -13h-10.5t-22.5 1l-20 -1l-25 1q-25 0 -33 2q-12 3 -16 13q-4 5 -4 11q0 18 13 51q1 2 4.5 13.5t8.5 34.5q5 19 10 35.5t10 30.5l27 81
l11 46q2 9 9.5 32t21.5 61l27 85l18 53l9 33q21 62 35 73q11 8 44 6zM232 338q-6 -30 -6 -34q0 -40 48 -40q51 0 63 13q10 10 13 25q1 3 3 24q1 14 1.5 24.5t0.5 18.5q0 100 -6 135q-1 9 -10 18q-8 6 -16 6q-14 0 -24 -12q-7 -8 -8 -15l-23 -61l-12 -38z" />
    <glyph glyph-name="Ccedilla" unicode="&#xc7;" horiz-adv-x="414" 
d="M347 -4q-15 -2 -15 -14q0 -4 3 -8q2 -1 5 -3q2 -2 5.5 -4t8.5 -5q4 -3 7.5 -11t3.5 -14q0 -12 -12 -19q-25 -11 -53 -11q-71 0 -89 5q-29 9 -29 26q0 9 7 15q7 5 8 5l27 -2q2 0 5.5 3t4.5 5q4 7 4 22q0 12 -5 19q-4 7 -27 16q-21 8 -34 20q-8 6 -15.5 12t-15.5 13
q-47 37 -57 51q-6 8 -14 21.5t-15.5 29t-13.5 30t-9 24.5q-13 45 -13 116q0 85 20 140q19 53 42 82q20 26 47.5 47.5t62.5 38.5q57 26 133 26q48 0 61 -7q14 -8 14 -42v-16q-1 -10 -1 -15.5v-7.5v-2q1 -14 1 -23v-13q0 -15 -7 -22q-7 -5 -11 -5q-1 0 -12 1.5t-31 5.5
q-3 1 -9 1q-35 0 -76 -23q-29 -17 -46 -47q-9 -17 -15 -29t-9.5 -23.5t-5 -22.5t-1.5 -24q0 -54 12 -85q27 -74 65 -104q11 -8 38 -17q27 -10 42 -10q3 0 38 6h4q23 0 23 -26l-1 -32v-37.5v-21t-1.5 -11.5t-4.5 -10t-11 -10t-15 -4h-18z" />
    <glyph glyph-name="Egrave" unicode="&#xc8;" horiz-adv-x="513" 
d="M148 769q-5 8 -4.5 8.5t-2.5 4.5q-2 4 -6 10t-4 15q0 11 9 17q8 5 17.5 5.5t17.5 0.5h12q5 0 10 -0.5t10 -0.5h25h34q12 -1 15.5 -5.5t8.5 -15.5q3 -5 4 -10.5t3 -11.5l8 -29q3 -11 6.5 -29t3.5 -24v-2v-2q0 -5 -4 -9t-20 -4h-18q-5 0 -9 0.5t-9 0.5q-8 0 -14.5 -1
t-14.5 -1q-12 0 -22 5l-6 4t-6 6t-7.5 11t-11.5 19q-4 6 -9.5 13.5t-10.5 15.5zM211 665q28 -1 56 0.5t56 1.5h18q14 -1 27 -2.5t24 -0.5l36 2q5 0 10.5 -1t10.5 -9q7 -10 7 -31q0 -4 -0.5 -5t-0.5 -12q-1 -9 -2 -13.5t-2 -9.5l-4 -23q-1 -7 -2.5 -16t-6.5 -14q-2 -2 -8 -5
t-21 -2l-149 6q-29 1 -42 -12q-8 -8 -9 -17t0 -15l1 -11q0 -3 0.5 -5.5t0.5 -5.5v-12q0 -5 1 -11t6 -12q8 -11 22.5 -13t25.5 -2l39 1q9 0 16.5 0.5t19.5 0.5h6.5t2.5 -0.5l2 -1t5 -0.5l16 -1q14 -1 24.5 0.5t17.5 1.5t18.5 -2.5t16.5 -7.5q8 -8 8 -33v-44q0 -6 -1 -18
t-2 -17q-2 -8 -5.5 -12.5t-8.5 -6.5q-11 -6 -22.5 -7t-22.5 -1t-26 0.5t-31.5 1t-32.5 1.5t-27 2l-39 3q-3 0 -8.5 -1.5t-10.5 -6.5q-8 -11 -9.5 -18.5t-1.5 -12.5v-35v-12.5t2 -18.5q1 -4 2 -8.5t6 -8.5t10 -5t9 -2l18 -2q23 -2 38 -2t23 1q17 1 35 0t35 -1q9 0 18.5 1
t18.5 1q22 1 32 -3.5t14 -8.5q7 -7 8 -18.5t1 -22.5q0 -16 0.5 -32t-2 -29t-9 -21.5t-20.5 -8.5h-20q-19 0 -37.5 1t-37.5 1q-17 0 -34 -1t-34 -1h-107q-7 0 -14 0.5t-14 0.5h-24h-18q-11 0 -27 -0.5t-24 13.5q-2 3 -4 7.5t-2 9.5l-2 43q0 5 -0.5 10.5t-0.5 10.5v31l-1 53
q-1 23 1 44t0 54q-1 17 -1.5 29.5t-0.5 26.5q0 10 0.5 17.5t0.5 15t0.5 17t0.5 24.5v24q0 9 -0.5 14.5t-1 10t-0.5 10t1 14.5q0 6 0.5 13t1.5 19l1 25v13q0 8 -1 17t-2 24v18q0 10 2.5 26.5t15.5 25.5q8 5 19 7t24 1z" />
    <glyph glyph-name="Eacute" unicode="&#xc9;" horiz-adv-x="513" 
d="M359 760q-5 -8 -10.5 -15.5t-9.5 -13.5q-7 -12 -11.5 -19t-7.5 -11t-6 -6l-6 -4q-10 -5 -22 -5q-8 0 -14.5 1t-14.5 1q-5 0 -9 -0.5t-9 -0.5h-18q-16 0 -20 4t-4 9v2v2q0 6 3.5 24t6.5 29l8 29q2 6 3 11.5t4 10.5q5 11 8.5 15.5t15.5 5.5h34h25q5 0 10 0.5t10 0.5h12
q8 0 17.5 -0.5t17.5 -5.5q9 -6 9 -17q0 -9 -4 -15t-6 -10q-3 -4 -2.5 -4.5t-4.5 -8.5zM211 665q28 -1 56 0.5t56 1.5h18q14 -1 27 -2.5t24 -0.5l36 2q5 0 10.5 -1t10.5 -9q7 -10 7 -31q0 -4 -0.5 -5t-0.5 -12q-1 -9 -2 -13.5t-2 -9.5l-4 -23q-1 -7 -2.5 -16t-6.5 -14
q-2 -2 -8 -5t-21 -2l-149 6q-29 1 -42 -12q-8 -8 -9 -17t0 -15l1 -11q0 -3 0.5 -5.5t0.5 -5.5v-12q0 -5 1 -11t6 -12q8 -11 22.5 -13t25.5 -2l39 1q9 0 16.5 0.5t19.5 0.5h6.5t2.5 -0.5l2 -1t5 -0.5l16 -1q14 -1 24.5 0.5t17.5 1.5t18.5 -2.5t16.5 -7.5q8 -8 8 -33v-44
q0 -6 -1 -18t-2 -17q-2 -8 -5.5 -12.5t-8.5 -6.5q-11 -6 -22.5 -7t-22.5 -1t-26 0.5t-31.5 1t-32.5 1.5t-27 2l-39 3q-3 0 -8.5 -1.5t-10.5 -6.5q-8 -11 -9.5 -18.5t-1.5 -12.5v-35v-12.5t2 -18.5q1 -4 2 -8.5t6 -8.5t10 -5t9 -2l18 -2q23 -2 38 -2t23 1q17 1 35 0t35 -1
q9 0 18.5 1t18.5 1q22 1 32 -3.5t14 -8.5q7 -7 8 -18.5t1 -22.5q0 -16 0.5 -32t-2 -29t-9 -21.5t-20.5 -8.5h-20q-19 0 -37.5 1t-37.5 1q-17 0 -34 -1t-34 -1h-107q-7 0 -14 0.5t-14 0.5h-24h-18q-11 0 -27 -0.5t-24 13.5q-2 3 -4 7.5t-2 9.5l-2 43q0 5 -0.5 10.5t-0.5 10.5
v31l-1 53q-1 23 1 44t0 54q-1 17 -1.5 29.5t-0.5 26.5q0 10 0.5 17.5t0.5 15t0.5 17t0.5 24.5v24q0 9 -0.5 14.5t-1 10t-0.5 10t1 14.5q0 6 0.5 13t1.5 19l1 25v13q0 8 -1 17t-2 24v18q0 10 2.5 26.5t15.5 25.5q8 5 19 7t24 1z" />
    <glyph glyph-name="Ecircumflex" unicode="&#xca;" horiz-adv-x="513" 
d="M162 780q4 5 7.5 10t8.5 10q4 5 8 8.5t9 8.5l8 8t11 6q8 3 11 3.5t8 0.5h6q5 0 10 -0.5t10 -0.5h12q11 0 22 -1t18 -5l6 -6t13 -15q5 -7 7 -10q6 -8 7 -8t7 -8l39 -51q11 -14 13 -20t2 -8q0 -4 -3 -6.5t-5 -3.5t-6.5 -1.5t-6.5 -0.5h-6q-4 0 -7 -0.5t-7 -0.5l-44 1
q-5 0 -7.5 -0.5t-7.5 -0.5h-4q-8 0 -12.5 3.5t-13.5 14.5q-4 5 -8.5 9.5t-15.5 4.5q-8 0 -13.5 -4t-12.5 -12q-2 -3 -4.5 -6.5t-7.5 -5.5q-5 -4 -14 -4t-11.5 0.5t-4 0.5t-5.5 0.5t-16 0.5h-33q-14 0 -17.5 4t-3.5 9q0 6 3.5 12.5t14.5 19.5zM211 665q28 -1 56 0.5t56 1.5
h18q14 -1 27 -2.5t24 -0.5l36 2q5 0 10.5 -1t10.5 -9q7 -10 7 -31q0 -4 -0.5 -5t-0.5 -12q-1 -9 -2 -13.5t-2 -9.5l-4 -23q-1 -7 -2.5 -16t-6.5 -14q-2 -2 -8 -5t-21 -2l-149 6q-29 1 -42 -12q-8 -8 -9 -17t0 -15l1 -11q0 -3 0.5 -5.5t0.5 -5.5v-12q0 -5 1 -11t6 -12
q8 -11 22.5 -13t25.5 -2l39 1q9 0 16.5 0.5t19.5 0.5h6.5t2.5 -0.5l2 -1t5 -0.5l16 -1q14 -1 24.5 0.5t17.5 1.5t18.5 -2.5t16.5 -7.5q8 -8 8 -33v-44q0 -6 -1 -18t-2 -17q-2 -8 -5.5 -12.5t-8.5 -6.5q-11 -6 -22.5 -7t-22.5 -1t-26 0.5t-31.5 1t-32.5 1.5t-27 2l-39 3
q-3 0 -8.5 -1.5t-10.5 -6.5q-8 -11 -9.5 -18.5t-1.5 -12.5v-35v-12.5t2 -18.5q1 -4 2 -8.5t6 -8.5t10 -5t9 -2l18 -2q23 -2 38 -2t23 1q17 1 35 0t35 -1q9 0 18.5 1t18.5 1q22 1 32 -3.5t14 -8.5q7 -7 8 -18.5t1 -22.5q0 -16 0.5 -32t-2 -29t-9 -21.5t-20.5 -8.5h-20
q-19 0 -37.5 1t-37.5 1q-17 0 -34 -1t-34 -1h-107q-7 0 -14 0.5t-14 0.5h-24h-18q-11 0 -27 -0.5t-24 13.5q-2 3 -4 7.5t-2 9.5l-2 43q0 5 -0.5 10.5t-0.5 10.5v31l-1 53q-1 23 1 44t0 54q-1 17 -1.5 29.5t-0.5 26.5q0 10 0.5 17.5t0.5 15t0.5 17t0.5 24.5v24q0 9 -0.5 14.5
t-1 10t-0.5 10t1 14.5q0 6 0.5 13t1.5 19l1 25v13q0 8 -1 17t-2 24v18q0 10 2.5 26.5t15.5 25.5q8 5 19 7t24 1z" />
    <glyph glyph-name="Edieresis" unicode="&#xcb;" horiz-adv-x="513" 
d="M284 801q0 2 -0.5 5t-0.5 5v6q0 2 2 8t15 5l33 -1q14 -1 29 -1h29h5h4q3 0 5.5 -0.5t5.5 -0.5h13q8 0 13 -5.5t5 -13.5q0 -9 -1 -14t-1 -10.5v-10.5l3 -49q1 -14 0.5 -18t-5.5 -9t-11.5 -5.5t-28.5 -0.5h-53q-20 0 -28 -1.5t-21 0.5q-4 1 -7.5 2t-5.5 6q-3 5 -2 9t1 10z
M91 691q-4 0 -9.5 1.5t-8.5 8.5q-2 4 -2 25l1 33l-2 49q-1 14 5.5 16.5t8.5 2.5l33 -1q4 0 7.5 1t11.5 1h12q6 -1 12 -1.5t12 -0.5l43 1q8 0 11 -4q4 -5 4 -21t1 -53v-37q0 -6 -2 -14t-13 -8zM211 665q28 -1 56 0.5t56 1.5h18q14 -1 27 -2.5t24 -0.5l36 2q5 0 10.5 -1
t10.5 -9q7 -10 7 -31q0 -4 -0.5 -5t-0.5 -12q-1 -9 -2 -13.5t-2 -9.5l-4 -23q-1 -7 -2.5 -16t-6.5 -14q-2 -2 -8 -5t-21 -2l-149 6q-29 1 -42 -12q-8 -8 -9 -17t0 -15l1 -11q0 -3 0.5 -5.5t0.5 -5.5v-12q0 -5 1 -11t6 -12q8 -11 22.5 -13t25.5 -2l39 1q9 0 16.5 0.5
t19.5 0.5h6.5t2.5 -0.5l2 -1t5 -0.5l16 -1q14 -1 24.5 0.5t17.5 1.5t18.5 -2.5t16.5 -7.5q8 -8 8 -33v-44q0 -6 -1 -18t-2 -17q-2 -8 -5.5 -12.5t-8.5 -6.5q-11 -6 -22.5 -7t-22.5 -1t-26 0.5t-31.5 1t-32.5 1.5t-27 2l-39 3q-3 0 -8.5 -1.5t-10.5 -6.5q-8 -11 -9.5 -18.5
t-1.5 -12.5v-35v-12.5t2 -18.5q1 -4 2 -8.5t6 -8.5t10 -5t9 -2l18 -2q23 -2 38 -2t23 1q17 1 35 0t35 -1q9 0 18.5 1t18.5 1q22 1 32 -3.5t14 -8.5q7 -7 8 -18.5t1 -22.5q0 -16 0.5 -32t-2 -29t-9 -21.5t-20.5 -8.5h-20q-19 0 -37.5 1t-37.5 1q-17 0 -34 -1t-34 -1h-107
q-7 0 -14 0.5t-14 0.5h-24h-18q-11 0 -27 -0.5t-24 13.5q-2 3 -4 7.5t-2 9.5l-2 43q0 5 -0.5 10.5t-0.5 10.5v31l-1 53q-1 23 1 44t0 54q-1 17 -1.5 29.5t-0.5 26.5q0 10 0.5 17.5t0.5 15t0.5 17t0.5 24.5v24q0 9 -0.5 14.5t-1 10t-0.5 10t1 14.5q0 6 0.5 13t1.5 19l1 25v13
q0 8 -1 17t-2 24v18q0 10 2.5 26.5t15.5 25.5q8 5 19 7t24 1z" />
    <glyph glyph-name="Igrave" unicode="&#xcc;" horiz-adv-x="268" 
d="M26 769q-5 8 -4.5 8.5t-2.5 4.5q-2 4 -6 10t-4 15q0 11 9 17q8 5 17.5 5.5t17.5 0.5h12q5 0 10 -0.5t10 -0.5h25h34q12 -1 15.5 -5.5t8.5 -15.5q3 -5 4 -10.5t3 -11.5l8 -29q3 -11 6.5 -29t3.5 -24v-2v-2q0 -5 -4 -9t-20 -4h-18q-5 0 -9 0.5t-9 0.5q-8 0 -14.5 -1
t-14.5 -1q-12 0 -22 5l-6 4t-6 6t-7.5 11t-11.5 19q-4 6 -9.5 13.5t-10.5 15.5zM54 506q0 9 1 18.5t1 18.5q0 4 -0.5 7.5t-0.5 7.5v11t-1 11l-3 27l-1 17q0 5 2 15t13 19q8 6 14 8t12 2l86 1q13 0 21.5 -5.5t12.5 -13.5t5.5 -17.5t1.5 -16.5q0 -14 -0.5 -27.5t-1.5 -30.5
l-1 -43q0 -5 -0.5 -8.5t-0.5 -8.5q0 -10 1.5 -19.5t1.5 -20.5l-1 -58v-77q0 -21 0.5 -32t0.5 -24v-135q0 -10 -0.5 -19.5t-0.5 -19.5q0 -5 1 -7v-15v-22q0 -17 1 -26t-7 -18q-3 -4 -6.5 -5t-12.5 -1q-11 0 -17.5 0.5t-25.5 0.5h-74q-6 0 -10.5 3.5t-6.5 5.5q-4 5 -4.5 11.5
t-0.5 8.5v3t1 6v11l1 19q0 9 0.5 27t1 36.5t0.5 34v21.5l-1 178l-3 87z" />
    <glyph glyph-name="Iacute" unicode="&#xcd;" horiz-adv-x="268" 
d="M237 760q-5 -8 -10.5 -15.5t-9.5 -13.5q-7 -12 -11.5 -19t-7.5 -11t-6 -6l-6 -4q-10 -5 -22 -5q-8 0 -14.5 1t-14.5 1q-5 0 -9 -0.5t-9 -0.5h-18q-16 0 -20 4t-4 9v2v2q0 6 3.5 24t6.5 29l8 29q2 6 3 11.5t4 10.5q5 11 8.5 15.5t15.5 5.5h34h25q5 0 10 0.5t10 0.5h12
q8 0 17.5 -0.5t17.5 -5.5q9 -6 9 -17q0 -9 -4 -15t-6 -10q-3 -4 -2.5 -4.5t-4.5 -8.5zM54 506q0 9 1 18.5t1 18.5q0 4 -0.5 7.5t-0.5 7.5v11t-1 11l-3 27l-1 17q0 5 2 15t13 19q8 6 14 8t12 2l86 1q13 0 21.5 -5.5t12.5 -13.5t5.5 -17.5t1.5 -16.5q0 -14 -0.5 -27.5
t-1.5 -30.5l-1 -43q0 -5 -0.5 -8.5t-0.5 -8.5q0 -10 1.5 -19.5t1.5 -20.5l-1 -58v-77q0 -21 0.5 -32t0.5 -24v-135q0 -10 -0.5 -19.5t-0.5 -19.5q0 -5 1 -7v-15v-22q0 -17 1 -26t-7 -18q-3 -4 -6.5 -5t-12.5 -1q-11 0 -17.5 0.5t-25.5 0.5h-74q-6 0 -10.5 3.5t-6.5 5.5
q-4 5 -4.5 11.5t-0.5 8.5v3t1 6v11l1 19q0 9 0.5 27t1 36.5t0.5 34v21.5l-1 178l-3 87z" />
    <glyph glyph-name="Icircumflex" unicode="&#xce;" horiz-adv-x="268" 
d="M39 780q4 5 7.5 10t8.5 10q4 5 8 8.5t9 8.5l8 8t11 6q8 3 11 3.5t8 0.5h6q5 0 10 -0.5t10 -0.5h12q11 0 22 -1t18 -5l6 -6t13 -15q5 -7 7 -10q6 -8 7 -8t7 -8l39 -51q11 -14 13 -20t2 -8q0 -4 -3 -6.5t-5 -3.5t-6.5 -1.5t-6.5 -0.5h-6q-4 0 -7 -0.5t-7 -0.5l-44 1
q-5 0 -7.5 -0.5t-7.5 -0.5h-4q-8 0 -12.5 3.5t-13.5 14.5q-4 5 -8.5 9.5t-15.5 4.5q-8 0 -13.5 -4t-12.5 -12q-2 -3 -4.5 -6.5t-7.5 -5.5q-5 -4 -14 -4t-11.5 0.5t-4 0.5t-5.5 0.5t-16 0.5h-33q-14 0 -17.5 4t-3.5 9q0 6 3.5 12.5t14.5 19.5zM54 506q0 9 1 18.5t1 18.5
q0 4 -0.5 7.5t-0.5 7.5v11t-1 11l-3 27l-1 17q0 5 2 15t13 19q8 6 14 8t12 2l86 1q13 0 21.5 -5.5t12.5 -13.5t5.5 -17.5t1.5 -16.5q0 -14 -0.5 -27.5t-1.5 -30.5l-1 -43q0 -5 -0.5 -8.5t-0.5 -8.5q0 -10 1.5 -19.5t1.5 -20.5l-1 -58v-77q0 -21 0.5 -32t0.5 -24v-135
q0 -10 -0.5 -19.5t-0.5 -19.5q0 -5 1 -7v-15v-22q0 -17 1 -26t-7 -18q-3 -4 -6.5 -5t-12.5 -1q-11 0 -17.5 0.5t-25.5 0.5h-74q-6 0 -10.5 3.5t-6.5 5.5q-4 5 -4.5 11.5t-0.5 8.5v3t1 6v11l1 19q0 9 0.5 27t1 36.5t0.5 34v21.5l-1 178l-3 87z" />
    <glyph glyph-name="Idieresis" unicode="&#xcf;" horiz-adv-x="268" 
d="M161 801q0 2 -0.5 5t-0.5 5v6q0 2 2 8t15 5l33 -1q14 -1 29 -1h29h5h4q3 0 5.5 -0.5t5.5 -0.5h13q8 0 13 -5.5t5 -13.5q0 -9 -1 -14t-1 -10.5v-10.5l3 -49q1 -14 0.5 -18t-5.5 -9t-11.5 -5.5t-28.5 -0.5h-53q-20 0 -28 -1.5t-21 0.5q-4 1 -7.5 2t-5.5 6q-3 5 -2 9t1 10z
M-32 691q-4 0 -9.5 1.5t-8.5 8.5q-2 4 -2 25l1 33l-2 49q-1 14 5.5 16.5t8.5 2.5l33 -1q4 0 7.5 1t11.5 1h12q6 -1 12 -1.5t12 -0.5l43 1q8 0 11 -4q4 -5 4 -21t1 -53v-37q0 -6 -2 -14t-13 -8zM54 506q0 9 1 18.5t1 18.5q0 4 -0.5 7.5t-0.5 7.5v11t-1 11l-3 27l-1 17
q0 5 2 15t13 19q8 6 14 8t12 2l86 1q13 0 21.5 -5.5t12.5 -13.5t5.5 -17.5t1.5 -16.5q0 -14 -0.5 -27.5t-1.5 -30.5l-1 -43q0 -5 -0.5 -8.5t-0.5 -8.5q0 -10 1.5 -19.5t1.5 -20.5l-1 -58v-77q0 -21 0.5 -32t0.5 -24v-135q0 -10 -0.5 -19.5t-0.5 -19.5q0 -5 1 -7v-15v-22
q0 -17 1 -26t-7 -18q-3 -4 -6.5 -5t-12.5 -1q-11 0 -17.5 0.5t-25.5 0.5h-74q-6 0 -10.5 3.5t-6.5 5.5q-4 5 -4.5 11.5t-0.5 8.5v3t1 6v11l1 19q0 9 0.5 27t1 36.5t0.5 34v21.5l-1 178l-3 87z" />
    <glyph glyph-name="Eth" unicode="&#xd0;" horiz-adv-x="657" 
d="M150 667q8 -1 32.5 -1t66.5 -1l64 1q61 0 146 -35q47 -19 97 -75q31 -35 48 -72q22 -48 28 -79q2 -8 3 -23.5t2 -38.5l1 -46q0 -9 -2 -24.5t-6 -32t-8.5 -32t-9.5 -26.5q-26 -65 -84 -114q-30 -26 -69 -40q-14 -5 -25.5 -9t-19.5 -7q-1 -1 -44 -7q-50 -6 -69 -6h-29.5
t-65.5 1h-74q-35 0 -45 6q-17 11 -17 40v68q1 24 1 39v20v16.5t-1 12.5v34l1 18q1 7 1 11.5v6.5q0 13 -16 13h-12t-15 -1h-10q-30 0 -30 29q0 6 4 26q1 3 1 11q0 4 -1 7q-1 8 -1 14v10q0 21 27 21h8t9 -1q6 -1 11.5 -1h10.5q6 0 11.5 2.5t5.5 5.5l-3 47q0 2 1 4v31v10t1 22
v25v20.5t-1 28.5v22q0 26 11 37q7 6 19.5 10t29.5 4zM242 287q-13 0 -13 -19v-12t1 -24q0 -46 4 -53q14 -32 95 -32q52 0 93 27q27 18 40 46q23 54 23 100q0 81 -45 128q-23 23 -38 32q-16 10 -44 16.5t-51 6.5q-33 0 -49 -6q-27 -14 -27 -78q0 -12 10 -15q1 0 19 -2
q9 -1 15 -1.5t10 -0.5h9q11 1 18 1h11q18 0 30 -4q13 -4 13 -26q0 -9 -1 -14q-1 -3 -1 -6l2 -42q0 -3 -4 -9.5t-8 -8.5q-8 -5 -32 -5h-11t-24 1h-45z" />
    <glyph glyph-name="Ntilde" unicode="&#xd1;" horiz-adv-x="646" 
d="M165 692q-8 0 -11.5 2.5t-5.5 4.5q-3 5 -4 9t-1 7v13q1 18 4.5 41t21.5 40q13 13 28.5 17t32.5 4q21 0 35.5 -3t28.5 -7q31 -9 42 -11.5t20 -4.5q8 -2 11 -2t8 -1h4q7 2 8 9q1 4 1 8t2 7q1 1 5 4.5t18 3.5h6.5t2.5 -0.5t3 -0.5h8h4q2 0 4.5 -0.5t4.5 -0.5h41
q12 0 14 -10.5t2 -17.5v-5v-24t-5 -24q-6 -20 -16 -31t-20.5 -17t-20 -7.5t-14.5 -1.5q-20 0 -47 5.5t-47 10.5l-37 9q-2 1 -10 2.5t-16 1.5q-9 0 -11 -4q-5 -8 -6 -14t-5 -9q-3 -2 -10 -3t-11 -1q-8 0 -12.5 1t-11.5 1zM333 196q-9 14 -16 25.5t-21 33.5q-12 19 -18 27
t-11 18l-7 13q-13 24 -16.5 31.5t-6.5 10.5q-2 2 -6 4.5t-8 2.5q-8 0 -10 -6t-3 -8q-1 -4 -2.5 -13t-0.5 -26l1 -18q1 -17 1 -25v-18v-13q0 -10 -1 -19.5t-1 -19.5q0 -7 1 -13.5t1 -13.5l2 -98q0 -5 0.5 -9.5t1.5 -9.5q1 -9 1.5 -13t0.5 -7q0 -12 -4.5 -19.5t-9.5 -9.5
q-9 -5 -26.5 -4t-26.5 1h-74q-8 0 -10.5 2t-4.5 4q-7 9 -7 17q1 15 1.5 16t0.5 6v24l1 154q0 19 -1 37t-1 37v13q0 11 0.5 22.5t1.5 22.5q0 5 0.5 11t0.5 11q0 14 -1 29t-2 29q-2 21 -2 42.5v42.5v49q0 10 -1 19.5t-2 19.5q-1 7 -1 14v14q0 13 2 19t4 8q5 5 10.5 6t10.5 1h6
q23 0 46 -1t48 1h18t13 -3t12 -11t16 -23l74 -112q6 -9 10.5 -16.5t9 -15.5t10 -17.5t14.5 -22.5l22 -33q6 -11 10.5 -19t8 -16t8 -17.5t10.5 -21.5q3 -5 9.5 -16.5t11.5 -11.5q1 0 3 1t3 7q1 4 0.5 8t-1 9.5t-1 14.5t-0.5 23q0 9 1 17.5t1 17.5q0 16 -1.5 29.5t-0.5 24.5
l1 13q1 9 0.5 21l-1 24t-1 22.5t-0.5 15.5v9q0 13 0.5 25.5t0.5 25.5q0 8 -0.5 14.5t0.5 14.5q0 8 4 12q5 5 7 4.5t6 -0.5l33 -1h9.5t4 0.5t3.5 0.5h7q7 -1 12 -1.5t11 -0.5h17q9 0 20 0.5t20 -7.5q4 -3 6.5 -9.5t2.5 -18.5q0 -8 -0.5 -14.5t-1.5 -26.5l-1 -31v-19v-10.5
v-14v-28.5q0 -8 -0.5 -20t-0.5 -37q-1 -19 -1 -29.5t-1 -24.5q-1 -27 -1 -38v-20v-22.5t-1 -44.5l-2 -84q0 -19 0.5 -33t2 -25.5t3 -21.5t1.5 -22l1 -33q0 -8 -0.5 -15t-6.5 -12q-8 -7 -22 -7q-8 0 -18.5 1t-17.5 1h-38q-5 0 -20 2t-23 14l-39 55q-17 25 -26.5 45.5
t-26.5 44.5z" />
    <glyph glyph-name="Ograve" unicode="&#xd2;" horiz-adv-x="666" 
d="M225 769q-5 8 -4.5 8.5t-2.5 4.5q-2 4 -6 10t-4 15q0 11 9 17q8 5 17.5 5.5t17.5 0.5h12q5 0 10 -0.5t10 -0.5h25h34q12 -1 15.5 -5.5t8.5 -15.5q3 -5 4 -10.5t3 -11.5l8 -29q3 -11 6.5 -29t3.5 -24v-2v-2q0 -5 -4 -9t-20 -4h-18q-5 0 -9 0.5t-9 0.5q-8 0 -14.5 -1
t-14.5 -1q-12 0 -22 5l-6 4t-6 6t-7.5 11t-11.5 19q-4 6 -9.5 13.5t-10.5 15.5zM492 322q0 27 -5 59t-19 55q-8 15 -21 29t-30 25.5t-37.5 18.5t-43.5 7q-17 0 -25 -2.5t-18 -4.5q-11 -3 -24 -6t-33 -20q-30 -25 -46.5 -63.5t-16.5 -80.5q0 -29 6.5 -61.5t26.5 -64.5
q21 -35 58.5 -51.5t75.5 -16.5q22 0 40.5 6.5t32.5 16t23.5 19.5t15.5 17q19 24 29.5 56.5t10.5 61.5zM130 67q-9 7 -15 11.5t-11.5 10t-11.5 14t-16 23.5q-15 23 -27 45t-18 54q-2 7 -4 22.5t-3.5 32.5t-3 32t-1.5 22q0 15 2.5 32t5.5 33t6.5 29.5t5.5 20.5q9 29 28 61
t39 58q20 25 34.5 38t22.5 19q16 12 38.5 21t46 15.5t46 10t39.5 3.5q51 0 86.5 -12.5t53.5 -21.5q24 -12 43 -26t33 -28t23.5 -25.5t13.5 -17.5q14 -21 26 -47t20 -48q2 -6 5 -16t5.5 -26t4 -39.5t0.5 -56.5q-1 -57 -15 -100.5t-33.5 -76t-40 -53.5t-35.5 -31
q-29 -21 -56 -32t-50.5 -16.5t-42 -6.5t-30.5 -1q-55 0 -99.5 9t-87.5 43z" />
    <glyph glyph-name="Oacute" unicode="&#xd3;" horiz-adv-x="666" 
d="M436 760q-5 -8 -10.5 -15.5t-9.5 -13.5q-7 -12 -11.5 -19t-7.5 -11t-6 -6l-6 -4q-10 -5 -22 -5q-8 0 -14.5 1t-14.5 1q-5 0 -9 -0.5t-9 -0.5h-18q-16 0 -20 4t-4 9v2v2q0 6 3.5 24t6.5 29l8 29q2 6 3 11.5t4 10.5q5 11 8.5 15.5t15.5 5.5h34h25q5 0 10 0.5t10 0.5h12
q8 0 17.5 -0.5t17.5 -5.5q9 -6 9 -17q0 -9 -4 -15t-6 -10q-3 -4 -2.5 -4.5t-4.5 -8.5zM492 322q0 27 -5 59t-19 55q-8 15 -21 29t-30 25.5t-37.5 18.5t-43.5 7q-17 0 -25 -2.5t-18 -4.5q-11 -3 -24 -6t-33 -20q-30 -25 -46.5 -63.5t-16.5 -80.5q0 -29 6.5 -61.5t26.5 -64.5
q21 -35 58.5 -51.5t75.5 -16.5q22 0 40.5 6.5t32.5 16t23.5 19.5t15.5 17q19 24 29.5 56.5t10.5 61.5zM130 67q-9 7 -15 11.5t-11.5 10t-11.5 14t-16 23.5q-15 23 -27 45t-18 54q-2 7 -4 22.5t-3.5 32.5t-3 32t-1.5 22q0 15 2.5 32t5.5 33t6.5 29.5t5.5 20.5q9 29 28 61
t39 58q20 25 34.5 38t22.5 19q16 12 38.5 21t46 15.5t46 10t39.5 3.5q51 0 86.5 -12.5t53.5 -21.5q24 -12 43 -26t33 -28t23.5 -25.5t13.5 -17.5q14 -21 26 -47t20 -48q2 -6 5 -16t5.5 -26t4 -39.5t0.5 -56.5q-1 -57 -15 -100.5t-33.5 -76t-40 -53.5t-35.5 -31
q-29 -21 -56 -32t-50.5 -16.5t-42 -6.5t-30.5 -1q-55 0 -99.5 9t-87.5 43z" />
    <glyph glyph-name="Ocircumflex" unicode="&#xd4;" horiz-adv-x="666" 
d="M238 780q4 5 7.5 10t8.5 10q4 5 8 8.5t9 8.5l8 8t11 6q8 3 11 3.5t8 0.5h6q5 0 10 -0.5t10 -0.5h12q11 0 22 -1t18 -5l6 -6t13 -15q5 -7 7 -10q6 -8 7 -8t7 -8l39 -51q11 -14 13 -20t2 -8q0 -4 -3 -6.5t-5 -3.5t-6.5 -1.5t-6.5 -0.5h-6q-4 0 -7 -0.5t-7 -0.5l-44 1
q-5 0 -7.5 -0.5t-7.5 -0.5h-4q-8 0 -12.5 3.5t-13.5 14.5q-4 5 -8.5 9.5t-15.5 4.5q-8 0 -13.5 -4t-12.5 -12q-2 -3 -4.5 -6.5t-7.5 -5.5q-5 -4 -14 -4t-11.5 0.5t-4 0.5t-5.5 0.5t-16 0.5h-33q-14 0 -17.5 4t-3.5 9q0 6 3.5 12.5t14.5 19.5zM492 322q0 27 -5 59t-19 55
q-8 15 -21 29t-30 25.5t-37.5 18.5t-43.5 7q-17 0 -25 -2.5t-18 -4.5q-11 -3 -24 -6t-33 -20q-30 -25 -46.5 -63.5t-16.5 -80.5q0 -29 6.5 -61.5t26.5 -64.5q21 -35 58.5 -51.5t75.5 -16.5q22 0 40.5 6.5t32.5 16t23.5 19.5t15.5 17q19 24 29.5 56.5t10.5 61.5zM130 67
q-9 7 -15 11.5t-11.5 10t-11.5 14t-16 23.5q-15 23 -27 45t-18 54q-2 7 -4 22.5t-3.5 32.5t-3 32t-1.5 22q0 15 2.5 32t5.5 33t6.5 29.5t5.5 20.5q9 29 28 61t39 58q20 25 34.5 38t22.5 19q16 12 38.5 21t46 15.5t46 10t39.5 3.5q51 0 86.5 -12.5t53.5 -21.5q24 -12 43 -26
t33 -28t23.5 -25.5t13.5 -17.5q14 -21 26 -47t20 -48q2 -6 5 -16t5.5 -26t4 -39.5t0.5 -56.5q-1 -57 -15 -100.5t-33.5 -76t-40 -53.5t-35.5 -31q-29 -21 -56 -32t-50.5 -16.5t-42 -6.5t-30.5 -1q-55 0 -99.5 9t-87.5 43z" />
    <glyph glyph-name="Otilde" unicode="&#xd5;" horiz-adv-x="666" 
d="M175 692q-8 0 -11.5 2.5t-5.5 4.5q-3 5 -4 9t-1 7v13q1 18 4.5 41t21.5 40q13 13 28.5 17t32.5 4q21 0 35.5 -3t28.5 -7q31 -9 42 -11.5t20 -4.5q8 -2 11 -2t8 -1h4q7 2 8 9q1 4 1 8t2 7q1 1 5 4.5t18 3.5h6.5t2.5 -0.5t3 -0.5h8h4q2 0 4.5 -0.5t4.5 -0.5h41
q12 0 14 -10.5t2 -17.5v-5v-24t-5 -24q-6 -20 -16 -31t-20.5 -17t-20 -7.5t-14.5 -1.5q-20 0 -47 5.5t-47 10.5l-37 9q-2 1 -10 2.5t-16 1.5q-9 0 -11 -4q-5 -8 -6 -14t-5 -9q-3 -2 -10 -3t-11 -1q-8 0 -12.5 1t-11.5 1zM492 322q0 27 -5 59t-19 55q-8 15 -21 29t-30 25.5
t-37.5 18.5t-43.5 7q-17 0 -25 -2.5t-18 -4.5q-11 -3 -24 -6t-33 -20q-30 -25 -46.5 -63.5t-16.5 -80.5q0 -29 6.5 -61.5t26.5 -64.5q21 -35 58.5 -51.5t75.5 -16.5q22 0 40.5 6.5t32.5 16t23.5 19.5t15.5 17q19 24 29.5 56.5t10.5 61.5zM130 67q-9 7 -15 11.5t-11.5 10
t-11.5 14t-16 23.5q-15 23 -27 45t-18 54q-2 7 -4 22.5t-3.5 32.5t-3 32t-1.5 22q0 15 2.5 32t5.5 33t6.5 29.5t5.5 20.5q9 29 28 61t39 58q20 25 34.5 38t22.5 19q16 12 38.5 21t46 15.5t46 10t39.5 3.5q51 0 86.5 -12.5t53.5 -21.5q24 -12 43 -26t33 -28t23.5 -25.5
t13.5 -17.5q14 -21 26 -47t20 -48q2 -6 5 -16t5.5 -26t4 -39.5t0.5 -56.5q-1 -57 -15 -100.5t-33.5 -76t-40 -53.5t-35.5 -31q-29 -21 -56 -32t-50.5 -16.5t-42 -6.5t-30.5 -1q-55 0 -99.5 9t-87.5 43z" />
    <glyph glyph-name="Odieresis" unicode="&#xd6;" horiz-adv-x="666" 
d="M360 801q0 2 -0.5 5t-0.5 5v6q0 2 2 8t15 5l33 -1q14 -1 29 -1h29h5h4q3 0 5.5 -0.5t5.5 -0.5h13q8 0 13 -5.5t5 -13.5q0 -9 -1 -14t-1 -10.5v-10.5l3 -49q1 -14 0.5 -18t-5.5 -9t-11.5 -5.5t-28.5 -0.5h-53q-20 0 -28 -1.5t-21 0.5q-4 1 -7.5 2t-5.5 6q-3 5 -2 9t1 10z
M167 691q-4 0 -9.5 1.5t-8.5 8.5q-2 4 -2 25l1 33l-2 49q-1 14 5.5 16.5t8.5 2.5l33 -1q4 0 7.5 1t11.5 1h12q6 -1 12 -1.5t12 -0.5l43 1q8 0 11 -4q4 -5 4 -21t1 -53v-37q0 -6 -2 -14t-13 -8zM492 322q0 27 -5 59t-19 55q-8 15 -21 29t-30 25.5t-37.5 18.5t-43.5 7
q-17 0 -25 -2.5t-18 -4.5q-11 -3 -24 -6t-33 -20q-30 -25 -46.5 -63.5t-16.5 -80.5q0 -29 6.5 -61.5t26.5 -64.5q21 -35 58.5 -51.5t75.5 -16.5q22 0 40.5 6.5t32.5 16t23.5 19.5t15.5 17q19 24 29.5 56.5t10.5 61.5zM130 67q-9 7 -15 11.5t-11.5 10t-11.5 14t-16 23.5
q-15 23 -27 45t-18 54q-2 7 -4 22.5t-3.5 32.5t-3 32t-1.5 22q0 15 2.5 32t5.5 33t6.5 29.5t5.5 20.5q9 29 28 61t39 58q20 25 34.5 38t22.5 19q16 12 38.5 21t46 15.5t46 10t39.5 3.5q51 0 86.5 -12.5t53.5 -21.5q24 -12 43 -26t33 -28t23.5 -25.5t13.5 -17.5
q14 -21 26 -47t20 -48q2 -6 5 -16t5.5 -26t4 -39.5t0.5 -56.5q-1 -57 -15 -100.5t-33.5 -76t-40 -53.5t-35.5 -31q-29 -21 -56 -32t-50.5 -16.5t-42 -6.5t-30.5 -1q-55 0 -99.5 9t-87.5 43z" />
    <glyph glyph-name="multiply" unicode="&#xd7;" 
d="M393 271q33 -31 36 -38q2 -6 2 -8q0 -13 -29 -36q-9 -7 -18 -17q-18 -21 -27 -21t-34 20q-8 8 -17 16t-17 18q-13 14 -21 22t-11 10q-7 4 -11 4q-5 0 -9 -4q-1 -1 -6.5 -6t-15.5 -16q-20 -14 -30 -27q-28 -34 -42 -34q-9 0 -53 43q-18 16 -18 28q0 9 23 32q3 4 9 10.5
t14 16.5q6 7 11.5 12.5t10.5 9.5q17 15 17 23q0 6 -4 11q-2 5 -25 26q-1 1 -2.5 3t-5.5 7q-14 17 -28 28q-25 20 -26 23q-2 6 -2 9q0 13 27 36q7 6 12.5 11t9.5 10q15 19 26 19q7 0 14 -4q3 -1 38 -35l17 -15q19 -25 26 -29q7 -6 14 -6q6 0 20 14q15 15 38 33q2 1 3.5 3
t3.5 4q28 34 42 34q11 0 19 -7q6 -4 24 -23l15 -15q16 -15 16 -24q0 -10 -9 -20l-54 -54q-27 -21 -27 -33q0 -3 5 -11q1 -3 33 -36z" />
    <glyph glyph-name="Oslash" unicode="&#xd8;" horiz-adv-x="665" 
d="M135 22q-9 -9 -8 -9q-17 -21 -23 -21q-5 0 -24 11q-17 11 -17 26q0 8 16 21q26 34 26 35q0 5 -12 19q-10 12 -25 35.5t-24 42.5q-25 54 -25 164q0 35 18 98q5 17 13.5 35.5t21.5 38.5q9 15 12.5 22t5.5 10.5t5 6.5l11 11q44 48 67 62q16 10 54 24q12 5 20.5 8.5t13.5 4.5
q23 4 40.5 6t29.5 2q5 0 17.5 -1.5t26.5 -3.5t27.5 -4.5t21.5 -3.5q10 -3 76 -35q2 -1 7 -1q3 0 7 2q1 1 12 15l16 17q11 15 14 17q6 2 8 2q8 0 22 -13q4 -4 6 -5q12 -11 12 -16q0 -12 -24 -37q-20 -22 -20 -31q0 -4 22 -30q17 -21 30 -55q20 -41 24 -58q10 -44 10 -123
q0 -41 -15 -93q-20 -73 -63 -122q-28 -33 -51 -49q-3 -1 -19 -9q-3 -2 -10 -5.5t-18 -9.5q-13 -7 -28 -12.5t-33 -9.5q-23 -4 -41 -6t-29 -2q-40 0 -87 10q-2 1 -11.5 4.5t-26.5 9.5q-26 9 -35 14q-18 12 -21 12q-5 0 -13 -11zM295 336q11 14 24 31.5t29 39.5q5 7 13.5 17.5
t21.5 25.5q31 41 31 47t-12 11q-33 15 -82 15q-33 0 -64 -17t-54 -48q-23 -32 -27 -56q-4 -23 -6 -38t-2 -23q0 -57 27 -112q5 -11 10 -11q4 0 28 34l6 9l35 44zM261 186l-14 -20q0 -7 12 -11q42 -14 76 -14q72 0 120 55q24 28 34 62t10 86q0 45 -22 86q-9 18 -18 18
q-2 0 -18 -22l-15 -19l-9 -13l-15 -18l-21 -30l-33 -42l-24 -33l-23 -29l-11 -16l-15 -19z" />
    <glyph glyph-name="Ugrave" unicode="&#xd9;" horiz-adv-x="631" 
d="M207 769q-5 8 -4.5 8.5t-2.5 4.5q-2 4 -6 10t-4 15q0 11 9 17q8 5 17.5 5.5t17.5 0.5h12q5 0 10 -0.5t10 -0.5h25h34q12 -1 15.5 -5.5t8.5 -15.5q3 -5 4 -10.5t3 -11.5l8 -29q3 -11 6.5 -29t3.5 -24v-2v-2q0 -5 -4 -9t-20 -4h-18q-5 0 -9 0.5t-9 0.5q-8 0 -14.5 -1
t-14.5 -1q-12 0 -22 5l-6 4t-6 6t-7.5 11t-11.5 19q-4 6 -9.5 13.5t-10.5 15.5zM37 584l1 43q0 13 2 20t8 14q3 3 7 5t13 3h5q2 0 5 -0.5t5 -0.5h11l28 2t23 0l40 -2q11 0 17 -8q5 -7 5 -19q0 -7 -1 -14.5t-2 -16.5q-1 -5 -1.5 -17.5t-0.5 -23.5l1 -46v-42q0 -20 -1 -39.5
t-1 -39.5t0.5 -39.5t0.5 -39.5q0 -11 -0.5 -17.5t1.5 -26.5l1 -18q0 -8 1.5 -18.5t3.5 -21t4.5 -19.5t4.5 -15q8 -18 30.5 -33.5t70.5 -15.5q14 0 34 4.5t42 21.5q15 12 20.5 23.5t7.5 16.5q1 4 2.5 16.5t2 27.5t1 29t0.5 23l-1 77q0 18 1 35.5t2 29.5v19q0 8 -1 15.5
t-1 15.5q-1 14 -0.5 24.5t0.5 32.5l-1 67q0 10 3 22.5t11 20.5q8 7 18.5 8.5t19.5 1.5h76q14 0 20.5 -4t8.5 -6q6 -7 7.5 -17t1.5 -13l1 -40q0 -8 -0.5 -14.5t-0.5 -14.5q0 -6 -0.5 -12t-0.5 -12v-30t0.5 -12t0.5 -9.5v-21.5l-1 -63q0 -27 -0.5 -45.5t-0.5 -32t-0.5 -23.5
t-0.5 -19l-2 -46q-2 -33 -5 -62.5t-12 -55.5t-26 -47.5t-46 -38.5q-28 -17 -70 -27.5t-96 -10.5q-15 0 -38.5 0.5t-50.5 3.5t-54.5 9t-48.5 17q-32 16 -51 38.5t-29 45.5t-13.5 42t-4.5 28q0 6 -0.5 9t-1 7.5t-1.5 11.5t-2 20q0 4 -0.5 8t-0.5 8q0 11 0.5 20.5t1.5 20.5
v14.5v18t-0.5 24.5t-0.5 35v122l-2 62v27z" />
    <glyph glyph-name="Uacute" unicode="&#xda;" horiz-adv-x="631" 
d="M418 760q-5 -8 -10.5 -15.5t-9.5 -13.5q-7 -12 -11.5 -19t-7.5 -11t-6 -6l-6 -4q-10 -5 -22 -5q-8 0 -14.5 1t-14.5 1q-5 0 -9 -0.5t-9 -0.5h-18q-16 0 -20 4t-4 9v2v2q0 6 3.5 24t6.5 29l8 29q2 6 3 11.5t4 10.5q5 11 8.5 15.5t15.5 5.5h34h25q5 0 10 0.5t10 0.5h12
q8 0 17.5 -0.5t17.5 -5.5q9 -6 9 -17q0 -9 -4 -15t-6 -10q-3 -4 -2.5 -4.5t-4.5 -8.5zM37 584l1 43q0 13 2 20t8 14q3 3 7 5t13 3h5q2 0 5 -0.5t5 -0.5h11l28 2t23 0l40 -2q11 0 17 -8q5 -7 5 -19q0 -7 -1 -14.5t-2 -16.5q-1 -5 -1.5 -17.5t-0.5 -23.5l1 -46v-42
q0 -20 -1 -39.5t-1 -39.5t0.5 -39.5t0.5 -39.5q0 -11 -0.5 -17.5t1.5 -26.5l1 -18q0 -8 1.5 -18.5t3.5 -21t4.5 -19.5t4.5 -15q8 -18 30.5 -33.5t70.5 -15.5q14 0 34 4.5t42 21.5q15 12 20.5 23.5t7.5 16.5q1 4 2.5 16.5t2 27.5t1 29t0.5 23l-1 77q0 18 1 35.5t2 29.5v19
q0 8 -1 15.5t-1 15.5q-1 14 -0.5 24.5t0.5 32.5l-1 67q0 10 3 22.5t11 20.5q8 7 18.5 8.5t19.5 1.5h76q14 0 20.5 -4t8.5 -6q6 -7 7.5 -17t1.5 -13l1 -40q0 -8 -0.5 -14.5t-0.5 -14.5q0 -6 -0.5 -12t-0.5 -12v-30t0.5 -12t0.5 -9.5v-21.5l-1 -63q0 -27 -0.5 -45.5t-0.5 -32
t-0.5 -23.5t-0.5 -19l-2 -46q-2 -33 -5 -62.5t-12 -55.5t-26 -47.5t-46 -38.5q-28 -17 -70 -27.5t-96 -10.5q-15 0 -38.5 0.5t-50.5 3.5t-54.5 9t-48.5 17q-32 16 -51 38.5t-29 45.5t-13.5 42t-4.5 28q0 6 -0.5 9t-1 7.5t-1.5 11.5t-2 20q0 4 -0.5 8t-0.5 8q0 11 0.5 20.5
t1.5 20.5v14.5v18t-0.5 24.5t-0.5 35v122l-2 62v27z" />
    <glyph glyph-name="Ucircumflex" unicode="&#xdb;" horiz-adv-x="631" 
d="M220 780q4 5 7.5 10t8.5 10q4 5 8 8.5t9 8.5l8 8t11 6q8 3 11 3.5t8 0.5h6q5 0 10 -0.5t10 -0.5h12q11 0 22 -1t18 -5l6 -6t13 -15q5 -7 7 -10q6 -8 7 -8t7 -8l39 -51q11 -14 13 -20t2 -8q0 -4 -3 -6.5t-5 -3.5t-6.5 -1.5t-6.5 -0.5h-6q-4 0 -7 -0.5t-7 -0.5l-44 1
q-5 0 -7.5 -0.5t-7.5 -0.5h-4q-8 0 -12.5 3.5t-13.5 14.5q-4 5 -8.5 9.5t-15.5 4.5q-8 0 -13.5 -4t-12.5 -12q-2 -3 -4.5 -6.5t-7.5 -5.5q-5 -4 -14 -4t-11.5 0.5t-4 0.5t-5.5 0.5t-16 0.5h-33q-14 0 -17.5 4t-3.5 9q0 6 3.5 12.5t14.5 19.5zM37 584l1 43q0 13 2 20t8 14
q3 3 7 5t13 3h5q2 0 5 -0.5t5 -0.5h11l28 2t23 0l40 -2q11 0 17 -8q5 -7 5 -19q0 -7 -1 -14.5t-2 -16.5q-1 -5 -1.5 -17.5t-0.5 -23.5l1 -46v-42q0 -20 -1 -39.5t-1 -39.5t0.5 -39.5t0.5 -39.5q0 -11 -0.5 -17.5t1.5 -26.5l1 -18q0 -8 1.5 -18.5t3.5 -21t4.5 -19.5t4.5 -15
q8 -18 30.5 -33.5t70.5 -15.5q14 0 34 4.5t42 21.5q15 12 20.5 23.5t7.5 16.5q1 4 2.5 16.5t2 27.5t1 29t0.5 23l-1 77q0 18 1 35.5t2 29.5v19q0 8 -1 15.5t-1 15.5q-1 14 -0.5 24.5t0.5 32.5l-1 67q0 10 3 22.5t11 20.5q8 7 18.5 8.5t19.5 1.5h76q14 0 20.5 -4t8.5 -6
q6 -7 7.5 -17t1.5 -13l1 -40q0 -8 -0.5 -14.5t-0.5 -14.5q0 -6 -0.5 -12t-0.5 -12v-30t0.5 -12t0.5 -9.5v-21.5l-1 -63q0 -27 -0.5 -45.5t-0.5 -32t-0.5 -23.5t-0.5 -19l-2 -46q-2 -33 -5 -62.5t-12 -55.5t-26 -47.5t-46 -38.5q-28 -17 -70 -27.5t-96 -10.5q-15 0 -38.5 0.5
t-50.5 3.5t-54.5 9t-48.5 17q-32 16 -51 38.5t-29 45.5t-13.5 42t-4.5 28q0 6 -0.5 9t-1 7.5t-1.5 11.5t-2 20q0 4 -0.5 8t-0.5 8q0 11 0.5 20.5t1.5 20.5v14.5v18t-0.5 24.5t-0.5 35v122l-2 62v27z" />
    <glyph glyph-name="Udieresis" unicode="&#xdc;" horiz-adv-x="631" 
d="M342 801q0 2 -0.5 5t-0.5 5v6q0 2 2 8t15 5l33 -1q14 -1 29 -1h29h5h4q3 0 5.5 -0.5t5.5 -0.5h13q8 0 13 -5.5t5 -13.5q0 -9 -1 -14t-1 -10.5v-10.5l3 -49q1 -14 0.5 -18t-5.5 -9t-11.5 -5.5t-28.5 -0.5h-53q-20 0 -28 -1.5t-21 0.5q-4 1 -7.5 2t-5.5 6q-3 5 -2 9t1 10z
M149 691q-4 0 -9.5 1.5t-8.5 8.5q-2 4 -2 25l1 33l-2 49q-1 14 5.5 16.5t8.5 2.5l33 -1q4 0 7.5 1t11.5 1h12q6 -1 12 -1.5t12 -0.5l43 1q8 0 11 -4q4 -5 4 -21t1 -53v-37q0 -6 -2 -14t-13 -8zM37 584l1 43q0 13 2 20t8 14q3 3 7 5t13 3h5q2 0 5 -0.5t5 -0.5h11l28 2t23 0
l40 -2q11 0 17 -8q5 -7 5 -19q0 -7 -1 -14.5t-2 -16.5q-1 -5 -1.5 -17.5t-0.5 -23.5l1 -46v-42q0 -20 -1 -39.5t-1 -39.5t0.5 -39.5t0.5 -39.5q0 -11 -0.5 -17.5t1.5 -26.5l1 -18q0 -8 1.5 -18.5t3.5 -21t4.5 -19.5t4.5 -15q8 -18 30.5 -33.5t70.5 -15.5q14 0 34 4.5
t42 21.5q15 12 20.5 23.5t7.5 16.5q1 4 2.5 16.5t2 27.5t1 29t0.5 23l-1 77q0 18 1 35.5t2 29.5v19q0 8 -1 15.5t-1 15.5q-1 14 -0.5 24.5t0.5 32.5l-1 67q0 10 3 22.5t11 20.5q8 7 18.5 8.5t19.5 1.5h76q14 0 20.5 -4t8.5 -6q6 -7 7.5 -17t1.5 -13l1 -40q0 -8 -0.5 -14.5
t-0.5 -14.5q0 -6 -0.5 -12t-0.5 -12v-30t0.5 -12t0.5 -9.5v-21.5l-1 -63q0 -27 -0.5 -45.5t-0.5 -32t-0.5 -23.5t-0.5 -19l-2 -46q-2 -33 -5 -62.5t-12 -55.5t-26 -47.5t-46 -38.5q-28 -17 -70 -27.5t-96 -10.5q-15 0 -38.5 0.5t-50.5 3.5t-54.5 9t-48.5 17q-32 16 -51 38.5
t-29 45.5t-13.5 42t-4.5 28q0 6 -0.5 9t-1 7.5t-1.5 11.5t-2 20q0 4 -0.5 8t-0.5 8q0 11 0.5 20.5t1.5 20.5v14.5v18t-0.5 24.5t-0.5 35v122l-2 62v27z" />
    <glyph glyph-name="Yacute" unicode="&#xdd;" horiz-adv-x="552" 
d="M379 760q-5 -8 -10.5 -15.5t-9.5 -13.5q-7 -12 -11.5 -19t-7.5 -11t-6 -6l-6 -4q-10 -5 -22 -5q-8 0 -14.5 1t-14.5 1q-5 0 -9 -0.5t-9 -0.5h-18q-16 0 -20 4t-4 9v2v2q0 6 3.5 24t6.5 29l8 29q2 6 3 11.5t4 10.5q5 11 8.5 15.5t15.5 5.5h34h25q5 0 10 0.5t10 0.5h12
q8 0 17.5 -0.5t17.5 -5.5q9 -6 9 -17q0 -9 -4 -15t-6 -10q-3 -4 -2.5 -4.5t-4.5 -8.5zM215 546q6 -12 12.5 -28t13.5 -32.5t13.5 -31t12.5 -23.5q5 -8 10 -8t7 1.5t3 3.5q2 4 4.5 6.5t4.5 7.5q6 13 12 30t20 49l27 60q5 11 9.5 19.5t10.5 19.5q3 7 5 11t4 9q8 17 12.5 20.5
t9.5 5.5q6 2 9 2h11q14 0 27.5 -0.5t24.5 -0.5h55q6 0 11 -0.5t10 -4.5q8 -7 8 -15q0 -3 -1 -9t-4 -12l-37 -68q-9 -17 -13.5 -26t-6.5 -14.5t-4.5 -11t-8.5 -16.5q-1 -1 -1 -1.5t-1 -1.5q-2 -5 -5 -9t-5 -8q-14 -23 -16.5 -29.5t-4.5 -9.5q-2 -5 -4.5 -8.5t-7.5 -14.5
q-4 -9 -5.5 -13.5t-2.5 -6l-2 -3t-2 -4.5l-19 -40q-8 -17 -13.5 -26.5t-10.5 -18.5t-10.5 -21.5t-14.5 -34.5q-4 -9 -6.5 -23.5t-4 -30.5t-2 -31t-0.5 -25l1 -58v-14t-0.5 -19t-1.5 -19t-3 -13q-5 -9 -13 -10t-11 -1l-37 2q-29 1 -45.5 0.5t-26 -0.5t-14.5 3t-9 13
q-5 11 -5.5 21.5t-0.5 30.5v25q0 12 1 25t2 21v16v18.5t-1.5 27.5t-4 30t-6.5 27q-5 14 -17.5 36.5t-29.5 59.5l-39 82q-5 11 -9 18.5t-8.5 16.5t-10.5 22.5t-15 36.5q-5 14 -9 22.5t-9 19.5q-20 38 -28 54t-8 24q0 10 7 16q3 3 9 6t17 2l62 -3q27 -2 34.5 0t13.5 2
q4 0 9 -0.5t8 -2.5q6 -2 10.5 -8t8.5 -14l6 -14t6 -15q3 -9 7 -17z" />
    <glyph glyph-name="Thorn" unicode="&#xde;" horiz-adv-x="584" 
d="M113 668q14 1 30 1h35q14 0 21 -4q7 -5 13.5 -14.5t6.5 -15.5l-1 -40q0 -13 19 -14l63 2q1 0 13.5 -2t28 -4.5t29.5 -5t17 -3.5q26 -6 68 -26q10 -5 17.5 -10.5t14.5 -10.5q29 -20 37 -30q29 -37 41 -74q10 -27 10 -74q0 -49 -9 -86.5t-27 -68.5q-29 -52 -95 -79
q-48 -22 -114 -22q-5 0 -17.5 1.5t-32.5 3.5q-17 0 -26.5 -0.5t-15 -1t-7.5 -1.5t-5 -3q-11 -8 -11 -20q0 -2 0.5 -7t1.5 -12v-15q0 -20 -8 -28q-7 -5 -13 -5l-48 1h-74q-22 4 -22 27q0 5 0.5 15.5t1.5 25.5q1 7 1 36t1 83l-1 178q-3 60 -3 87v27.5t1 26.5q1 15 1.5 24.5
t0.5 13.5q0 11 -1.5 26.5t-3.5 36.5q-1 5 -1 9v8q0 20 15 34q11 10 26 10h22zM415 284q1 3 3.5 10t4.5 15.5t3.5 17t1.5 14.5q0 11 -12 47q-2 9 -11 20t-18 17q-36 24 -105 24q-43 0 -57 -17q-13 -14 -14 -44q-1 -9 -1.5 -24.5t-0.5 -37.5q0 -46 14 -71q8 -15 29 -21.5
t63 -6.5q30 0 57 13q13 6 18 13q1 1 4 5t8 11z" />
    <glyph glyph-name="germandbls" unicode="&#xdf;" horiz-adv-x="466" 
d="M33 479q-1 12 -1 19v9q0 30 14 66q4 12 15 27q1 2 24 25q18 18 35 26q43 21 92 21q47 0 92 -19q70 -28 86 -83q8 -27 8 -43q0 -19 -10 -48q-1 -2 -6.5 -14t-16.5 -35q-3 -6 -3 -14q0 -16 28 -51q13 -18 25 -41.5t21 -49.5t14 -52t5 -48q0 -84 -44 -140q-19 -23 -43 -32
q-29 -10 -80 -10q-33 0 -45 13q-11 13 -11 35v38q-3 34 -3 41q0 15 9 20q6 2 40 5q13 1 24 15t11 30q0 17 -8 35l-22 42l-13 27q-14 19 -23 31t-12 18q-13 25 -13 50q0 16 8 30q1 2 6.5 10.5t15.5 22.5q11 16 11 39q0 46 -36 46q-24 0 -33 -18q-10 -19 -12 -49l-1 -42
l-3 -29q0 -2 3 -27q1 -9 1 -25.5v-39.5v-27.5t-1 -36.5q-1 -5 -1 -10q0 -2 0.5 -12.5t1.5 -27.5q1 -4 1 -16v-9t-1 -10q-1 -27 -1 -42v-17v-24q1 -14 1.5 -24.5t0.5 -16.5q0 -22 -12 -32q-9 -6 -18 -6l-47 1q-10 -1 -16.5 -1.5t-11.5 -0.5q-27 0 -36 9q-7 8 -7 28v16
q1 21 1 38v30l-2 174q1 33 1.5 51.5t0.5 23.5q0 2 -0.5 9t-1.5 19z" />
    <glyph glyph-name="agrave" unicode="&#xe0;" horiz-adv-x="479" 
d="M137 599q-2 5 -2 4.5t-2 1.5q0 3 -3 7q-2 3 -5.5 10t-3.5 15q0 11 8 17q6 5 15.5 5.5t17.5 0.5h12t3 -0.5t3 -0.5h12h23h32q10 -1 14 -5t9 -16q2 -2 2 -5.5t4 -16.5l8 -29q1 -4 2.5 -12l3 -16t2.5 -15t1 -10v-2v-2q0 -5 -4 -9t-18 -4h-17q-5 0 -8.5 0.5t-8.5 0.5
q-7 0 -13.5 -1t-13.5 -1q-5 0 -10.5 1t-10.5 4q-8 5 -14.5 15.5t-14.5 24.5q-5 8 -9 14t-9 15zM163 149q0 -14 7.5 -21t16.5 -11q13 -5 29 -7t28 -2q17 0 31 3t23 14q7 8 8.5 15t1.5 12q0 10 -3 16t-10 12q-7 5 -19 10t-35 5q-12 0 -26.5 -2t-25.5 -7q-9 -4 -17.5 -12.5
t-8.5 -24.5zM447 199l-2 -58q-1 -11 0.5 -22.5t1.5 -22.5q0 -5 -0.5 -10t-0.5 -10q0 -6 0.5 -12t0.5 -12q0 -22 -2.5 -31t-7.5 -13q-7 -5 -15.5 -6.5t-15.5 -1.5l-45 -1q-4 0 -8 0.5t-8 -0.5q-3 0 -6 -1t-6 -1h-3q-5 0 -9 6l-10 15q-2 3 -7 -0.5t-9 -6.5q-11 -8 -24.5 -12
t-27.5 -5.5t-28 -1t-25 0.5q-28 1 -55 4.5t-59 26.5t-45.5 58t-13.5 70q0 23 8.5 54t42.5 59q29 24 68 32.5t89 8.5q6 0 18 -0.5t17 -1.5q9 -1 16.5 -2.5t15.5 -1.5q2 0 6.5 0.5t8.5 5.5q4 4 4 10q0 12 -11 21q-8 7 -22.5 11.5t-35.5 4.5q-12 0 -34 -2.5t-35 -5.5
q-5 -2 -12.5 -4t-27.5 -7q-19 -5 -27 -8t-16 -5q-12 -2 -19 -0.5t-11 5t-5 8.5t-1 10q0 11 0.5 18t0.5 16v20q0 21 2 28t3 9q5 8 13 11t19 8q12 5 18.5 8t12 4.5t10.5 3t13 3.5q17 4 38 5.5t62 1.5q48 0 89.5 -8t76.5 -43q25 -25 29 -48.5t5 -42.5l1 -28v-111z" />
    <glyph glyph-name="aacute" unicode="&#xe1;" horiz-adv-x="479" 
d="M338 590q-5 -9 -9 -15t-9 -14q-8 -14 -14.5 -24.5t-14.5 -15.5q-5 -3 -10.5 -4t-10.5 -1q-7 0 -13.5 1t-13.5 1q-5 0 -8.5 -0.5t-8.5 -0.5h-17q-14 0 -18 4t-4 9v2v2q0 3 1 10t2.5 15l3 16t2.5 12l8 29q4 13 4 16.5t2 5.5q5 12 9 16t14 5h32h23h12t3 0.5t3 0.5h12
q8 0 17.5 -0.5t15.5 -5.5q8 -6 8 -17q0 -8 -3.5 -15t-5.5 -10q-3 -4 -3 -7q-2 -2 -2 -1.5t-2 -4.5zM163 149q0 -14 7.5 -21t16.5 -11q13 -5 29 -7t28 -2q17 0 31 3t23 14q7 8 8.5 15t1.5 12q0 10 -3 16t-10 12q-7 5 -19 10t-35 5q-12 0 -26.5 -2t-25.5 -7q-9 -4 -17.5 -12.5
t-8.5 -24.5zM447 199l-2 -58q-1 -11 0.5 -22.5t1.5 -22.5q0 -5 -0.5 -10t-0.5 -10q0 -6 0.5 -12t0.5 -12q0 -22 -2.5 -31t-7.5 -13q-7 -5 -15.5 -6.5t-15.5 -1.5l-45 -1q-4 0 -8 0.5t-8 -0.5q-3 0 -6 -1t-6 -1h-3q-5 0 -9 6l-10 15q-2 3 -7 -0.5t-9 -6.5q-11 -8 -24.5 -12
t-27.5 -5.5t-28 -1t-25 0.5q-28 1 -55 4.5t-59 26.5t-45.5 58t-13.5 70q0 23 8.5 54t42.5 59q29 24 68 32.5t89 8.5q6 0 18 -0.5t17 -1.5q9 -1 16.5 -2.5t15.5 -1.5q2 0 6.5 0.5t8.5 5.5q4 4 4 10q0 12 -11 21q-8 7 -22.5 11.5t-35.5 4.5q-12 0 -34 -2.5t-35 -5.5
q-5 -2 -12.5 -4t-27.5 -7q-19 -5 -27 -8t-16 -5q-12 -2 -19 -0.5t-11 5t-5 8.5t-1 10q0 11 0.5 18t0.5 16v20q0 21 2 28t3 9q5 8 13 11t19 8q12 5 18.5 8t12 4.5t10.5 3t13 3.5q17 4 38 5.5t62 1.5q48 0 89.5 -8t76.5 -43q25 -25 29 -48.5t5 -42.5l1 -28v-111z" />
    <glyph glyph-name="acircumflex" unicode="&#xe2;" horiz-adv-x="479" 
d="M170 610q4 6 5.5 8.5t4 5.5t7 7.5t14.5 15.5q4 4 8 7.5t10 6.5t9.5 3.5t8.5 0.5h5q5 0 9.5 -0.5t9.5 -0.5h11q8 0 19 -1t18 -5q5 -3 10 -9.5t8 -11.5q2 -2 2.5 -3.5t2.5 -3.5q1 -1 1 -1.5t1 -1.5q2 -4 8 -10q2 -2 2.5 -3t2.5 -3l36 -51q11 -14 12.5 -20t1.5 -8t-2.5 -5
t-4.5 -5q-2 -1 -6 -1.5t-6 -0.5h-6q-3 0 -6.5 -0.5t-6.5 -0.5l-41 1q-5 0 -7.5 -0.5t-6.5 -0.5h-4q-8 0 -12 3.5t-12 14.5q-3 5 -8.5 9.5t-14.5 4.5q-7 0 -11.5 -3.5t-12.5 -12.5l-4 -6t-7 -6q-8 -4 -13 -4q-7 0 -11 1t-24 1h-31q-4 0 -11.5 1.5t-7.5 11.5q0 8 5.5 16
t11.5 16zM163 149q0 -14 7.5 -21t16.5 -11q13 -5 29 -7t28 -2q17 0 31 3t23 14q7 8 8.5 15t1.5 12q0 10 -3 16t-10 12q-7 5 -19 10t-35 5q-12 0 -26.5 -2t-25.5 -7q-9 -4 -17.5 -12.5t-8.5 -24.5zM447 199l-2 -58q-1 -11 0.5 -22.5t1.5 -22.5q0 -5 -0.5 -10t-0.5 -10
q0 -6 0.5 -12t0.5 -12q0 -22 -2.5 -31t-7.5 -13q-7 -5 -15.5 -6.5t-15.5 -1.5l-45 -1q-4 0 -8 0.5t-8 -0.5q-3 0 -6 -1t-6 -1h-3q-5 0 -9 6l-10 15q-2 3 -7 -0.5t-9 -6.5q-11 -8 -24.5 -12t-27.5 -5.5t-28 -1t-25 0.5q-28 1 -55 4.5t-59 26.5t-45.5 58t-13.5 70q0 23 8.5 54
t42.5 59q29 24 68 32.5t89 8.5q6 0 18 -0.5t17 -1.5q9 -1 16.5 -2.5t15.5 -1.5q2 0 6.5 0.5t8.5 5.5q4 4 4 10q0 12 -11 21q-8 7 -22.5 11.5t-35.5 4.5q-12 0 -34 -2.5t-35 -5.5q-5 -2 -12.5 -4t-27.5 -7q-19 -5 -27 -8t-16 -5q-12 -2 -19 -0.5t-11 5t-5 8.5t-1 10
q0 11 0.5 18t0.5 16v20q0 21 2 28t3 9q5 8 13 11t19 8q12 5 18.5 8t12 4.5t10.5 3t13 3.5q17 4 38 5.5t62 1.5q48 0 89.5 -8t76.5 -43q25 -25 29 -48.5t5 -42.5l1 -28v-111z" />
    <glyph glyph-name="atilde" unicode="&#xe3;" horiz-adv-x="479" 
d="M102 522q-2 0 -7.5 1t-8.5 6q-2 3 -3 8.5t-1 7.5v13q1 19 4 41t20 40q12 13 26 17t31 4q20 0 34 -3t26 -7q20 -6 29.5 -8.5t13.5 -3.5t6.5 -1.5t8.5 -2.5q5 -2 7 -2t11 -1h3q6 0 8 9q1 3 1 6.5t2 8.5q1 2 4.5 5t16.5 3h6.5t2.5 -0.5t2.5 -0.5h7.5t5 -0.5t7 -0.5h38
q12 0 13.5 -11.5t1.5 -16.5v-5q0 -11 -1 -24t-3 -24q-6 -25 -25 -41t-42 -16q-19 0 -44.5 5.5t-43.5 10.5l-34 9q-5 2 -13 3t-12 1q-8 0 -10 -4q-4 -5 -4.5 -12t-5.5 -11q-3 -2 -9 -3t-11 -1q-8 0 -11.5 1t-10.5 1zM163 149q0 -14 7.5 -21t16.5 -11q13 -5 29 -7t28 -2
q17 0 31 3t23 14q7 8 8.5 15t1.5 12q0 10 -3 16t-10 12q-7 5 -19 10t-35 5q-12 0 -26.5 -2t-25.5 -7q-9 -4 -17.5 -12.5t-8.5 -24.5zM447 199l-2 -58q-1 -11 0.5 -22.5t1.5 -22.5q0 -5 -0.5 -10t-0.5 -10q0 -6 0.5 -12t0.5 -12q0 -22 -2.5 -31t-7.5 -13q-7 -5 -15.5 -6.5
t-15.5 -1.5l-45 -1q-4 0 -8 0.5t-8 -0.5q-3 0 -6 -1t-6 -1h-3q-5 0 -9 6l-10 15q-2 3 -7 -0.5t-9 -6.5q-11 -8 -24.5 -12t-27.5 -5.5t-28 -1t-25 0.5q-28 1 -55 4.5t-59 26.5t-45.5 58t-13.5 70q0 23 8.5 54t42.5 59q29 24 68 32.5t89 8.5q6 0 18 -0.5t17 -1.5
q9 -1 16.5 -2.5t15.5 -1.5q2 0 6.5 0.5t8.5 5.5q4 4 4 10q0 12 -11 21q-8 7 -22.5 11.5t-35.5 4.5q-12 0 -34 -2.5t-35 -5.5q-5 -2 -12.5 -4t-27.5 -7q-19 -5 -27 -8t-16 -5q-12 -2 -19 -0.5t-11 5t-5 8.5t-1 10q0 11 0.5 18t0.5 16v20q0 21 2 28t3 9q5 8 13 11t19 8
q12 5 18.5 8t12 4.5t10.5 3t13 3.5q17 4 38 5.5t62 1.5q48 0 89.5 -8t76.5 -43q25 -25 29 -48.5t5 -42.5l1 -28v-111z" />
    <glyph glyph-name="adieresis" unicode="&#xe4;" horiz-adv-x="479" 
d="M277 631q0 2 -0.5 5t-0.5 5v6q0 8 5.5 10.5t10.5 2.5l31 -1q14 -1 27 -1h27h5h4q2 0 5 -0.5t5 -0.5h12q7 0 12 -5.5t5 -13.5q0 -9 -1 -14t-1 -10.5v-10.5l3 -49q1 -17 0.5 -20t-5.5 -7q-4 -4 -8 -5t-29 -1h-50q-12 0 -24 -1.5t-22 0.5q-3 1 -6.5 2t-5.5 6q-3 5 -2 9.5
t1 9.5zM97 521q-13 0 -17 10q-2 4 -2 25l1 33l-2 49q-1 12 4 15.5t9 3.5l31 -1q5 0 6.5 0.5t2.5 0.5t2.5 0.5t6.5 0.5q12 1 16.5 -0.5t17.5 -1.5l40 1q6 0 10 -4q5 -5 5 -24v-50v-37q0 -6 -2 -14t-12 -8zM163 149q0 -14 7.5 -21t16.5 -11q13 -5 29 -7t28 -2q17 0 31 3t23 14
q7 8 8.5 15t1.5 12q0 10 -3 16t-10 12q-7 5 -19 10t-35 5q-12 0 -26.5 -2t-25.5 -7q-9 -4 -17.5 -12.5t-8.5 -24.5zM447 199l-2 -58q-1 -11 0.5 -22.5t1.5 -22.5q0 -5 -0.5 -10t-0.5 -10q0 -6 0.5 -12t0.5 -12q0 -22 -2.5 -31t-7.5 -13q-7 -5 -15.5 -6.5t-15.5 -1.5l-45 -1
q-4 0 -8 0.5t-8 -0.5q-3 0 -6 -1t-6 -1h-3q-5 0 -9 6l-10 15q-2 3 -7 -0.5t-9 -6.5q-11 -8 -24.5 -12t-27.5 -5.5t-28 -1t-25 0.5q-28 1 -55 4.5t-59 26.5t-45.5 58t-13.5 70q0 23 8.5 54t42.5 59q29 24 68 32.5t89 8.5q6 0 18 -0.5t17 -1.5q9 -1 16.5 -2.5t15.5 -1.5
q2 0 6.5 0.5t8.5 5.5q4 4 4 10q0 12 -11 21q-8 7 -22.5 11.5t-35.5 4.5q-12 0 -34 -2.5t-35 -5.5q-5 -2 -12.5 -4t-27.5 -7q-19 -5 -27 -8t-16 -5q-12 -2 -19 -0.5t-11 5t-5 8.5t-1 10q0 11 0.5 18t0.5 16v20q0 21 2 28t3 9q5 8 13 11t19 8q12 5 18.5 8t12 4.5t10.5 3
t13 3.5q17 4 38 5.5t62 1.5q48 0 89.5 -8t76.5 -43q25 -25 29 -48.5t5 -42.5l1 -28v-111z" />
    <glyph glyph-name="aring" unicode="&#xe5;" horiz-adv-x="479" 
d="M447 199l-2 -58q-1 -11 0.5 -22.5t1.5 -22.5q0 -5 -0.5 -10t-0.5 -10q0 -6 0.5 -12t0.5 -12q0 -22 -2.5 -31t-7.5 -13q-7 -5 -15.5 -6.5t-15.5 -1.5l-45 -1q-4 0 -8 0.5t-8 -0.5q-3 0 -6 -1t-6 -1h-3q-5 0 -9 6l-10 15q-2 3 -7 -0.5t-9 -6.5q-11 -8 -24.5 -12t-27.5 -5.5
t-28 -1t-25 0.5q-28 1 -55 4.5t-59 26.5t-45.5 58t-13.5 70q0 23 8.5 54t42.5 59q29 24 68 32.5t89 8.5q6 0 18 -0.5t17 -1.5q9 -1 16.5 -2.5t15.5 -1.5q2 0 6.5 0.5t8.5 5.5q4 4 4 10q0 12 -11 21q-8 7 -22.5 11.5t-35.5 4.5q-12 0 -34 -2.5t-35 -5.5q-5 -2 -12.5 -4
t-27.5 -7q-19 -5 -27 -8t-16 -5q-12 -2 -19 -0.5t-11 5t-5 8.5t-1 10q0 11 0.5 18t0.5 16v20q0 21 2 28t3 9q5 8 13 11t19 8q12 5 18.5 8t12 4.5t10.5 3t13 3.5q17 4 38 5.5t62 1.5q48 0 89.5 -8t76.5 -43q25 -25 29 -48.5t5 -42.5l1 -28v-111zM163 149q0 -14 7.5 -21
t16.5 -11q13 -5 29 -7t28 -2q17 0 31 3t23 14q7 8 8.5 15t1.5 12q0 10 -3 16t-10 12q-7 5 -19 10t-35 5q-12 0 -26.5 -2t-25.5 -7q-9 -4 -17.5 -12.5t-8.5 -24.5zM119 601q0 10 6 25t23 29q13 10 28 16t30.5 9t29.5 4t24 1q44 0 71.5 -8.5t43 -21t21 -28t5.5 -29.5
q0 -20 -7.5 -33t-16.5 -20q-10 -8 -24.5 -14t-31.5 -9.5t-34 -5.5t-32 -2q-23 0 -55 5.5t-58 30.5q-15 15 -19 29t-4 22zM213 602q0 -7 9 -16t42 -9q20 0 29 3.5t13 8.5q2 2 4 6.5t2 7.5t-1 7.5t-6.5 8t-15.5 6.5t-28 3q-30 0 -39 -8.5t-9 -17.5z" />
    <glyph glyph-name="ae" unicode="&#xe6;" horiz-adv-x="750" 
d="M177 307q32 2 50 3t20 1q7 0 45 -6q1 -1 6 -1q12 0 12 10q0 39 -54 39h-8t-9 -1q-7 -1 -16.5 -1h-22.5q-2 0 -35 -12q-15 -4 -23 -5.5t-10 -2.5l-24 -11q-8 -4 -21 -4q-16 0 -25 10q-8 8 -8 21l1 35l-2 37q0 13 12 21q13 10 62 27q23 8 54.5 10.5t71.5 2.5q28 0 54.5 -3
t51.5 -13q16 -5 20 -9l17 -17h1q1 0 12 11q3 3 39 20q14 7 33 9t43 2q43 0 71.5 -6.5t54.5 -25.5q32 -23 45 -46q4 -7 17 -36q16 -30 17 -35q9 -29 9 -46v-1q-1 -7 -1 -11v-6l1 -54q0 -4 -4.5 -11t-9.5 -9q-10 -5 -48 -7h-6t-10 -1q-11 -1 -20 -1.5t-16 -0.5h-6q-22 1 -33 1
h-12q-11 -1 -17.5 -1.5t-10.5 -0.5t-11.5 0.5t-20.5 1.5q-23 -1 -36 -1t-15 -1q-6 -2 -6 -9q0 -11 6 -22.5t15 -16.5q4 -3 13.5 -5.5t20.5 -4.5t21 -3.5t15 -1.5l40 2q40 2 44 3q21 3 55 15q18 6 32 6q8 0 14 -7q6 -8 5 -13q-1 -12 -1 -18v-7v-6t1 -10q1 -5 1 -10.5v-10.5
q0 -25 -9 -35q-11 -12 -53 -23q-60 -15 -91 -15h-5.5t-13.5 1l-48 -1q-8 0 -22.5 3t-36.5 8q-25 7 -41.5 13.5t-24.5 11.5q-14 9 -15 9q-4 0 -12 -7q-2 -2 -8 -5.5t-13.5 -7l-15 -7t-12.5 -4.5q-8 -2 -24.5 -5t-35 -5.5t-36 -4t-27.5 -1.5q-43 0 -92 20q-25 12 -40.5 27.5
t-28.5 43.5q-16 32 -16 73q0 7 1 16.5t2.5 18.5t3.5 17t4 11q4 9 39 51l27 15l18 11q11 5 17 7t8 3q5 1 12 2t15 2zM253 194q-52 0 -67 -9q-25 -15 -25 -35q0 -11 7 -18q20 -23 57 -23q85 0 85 44q0 16 -13 26q-20 15 -44 15zM498 292h7t9 -1t12 -1q4 0 7 1q12 1 24 1h23
q17 0 17 17q0 19 -16 32q-22 19 -57 19q-30 0 -52 -17q-10 -7 -15 -28q-3 -9 -3 -13q0 -11 13 -11z" />
    <glyph glyph-name="ccedilla" unicode="&#xe7;" horiz-adv-x="318" 
d="M14 275q0 22 14 72q8 23 29 50q3 5 16 25q9 16 38 31.5t60 22.5q11 2 33.5 3t54.5 1q31 0 37 -9q8 -10 8 -24v-13q-3 -24 -3 -28q0 -1 0.5 -7t1.5 -17v-13q0 -17 -7 -24q-4 -4 -17 -5l-17 -1q-5 -1 -10 -1h-9q-18 0 -26 -2q-31 -12 -48 -41q-9 -16 -11 -31q-6 -18 -6 -23
q0 -17 9 -50q5 -18 16 -28q21 -21 27 -25q5 -4 26 -8l20 -5q15 -1 24 -1.5t13.5 -1t6.5 -1.5t5 -3q7 -7 7 -14l-2 -43v-3.5t1 -7.5t1.5 -10t0.5 -10q0 -42 -31 -42h-3q-7 1 -10.5 1h-4.5q-4 0 -4 -3q0 -2 19 -14q11 -8 11 -23q0 -12 -11 -17q-23 -12 -49 -12q-69 0 -84 5
q-27 9 -27 25q0 8 6 13q7 5 8 5l25 -1q3 0 7.5 6t4.5 10q0 2 -2 8q-3 5 -40 21q-12 6 -30.5 21.5t-27.5 27.5q-3 4 -8.5 14.5t-11.5 23.5l-12 26t-9 21q-11 31 -11 66q0 13 1 18q0 3 0.5 5.5t0.5 4.5v4v31z" />
    <glyph glyph-name="egrave" unicode="&#xe8;" horiz-adv-x="465" 
d="M148 600q-2 5 -2 4.5t-2 1.5q0 3 -3 7q-2 3 -5.5 10t-3.5 15q0 11 8 17q6 5 15.5 5.5t17.5 0.5h12t3 -0.5t3 -0.5h12h23h32q10 -1 14 -5t9 -16q2 -2 2 -5.5t4 -16.5l8 -29q1 -4 2.5 -12l3 -16t2.5 -15t1 -10v-2v-2q0 -5 -4 -9t-18 -4h-17q-5 0 -8.5 0.5t-8.5 0.5
q-7 0 -13.5 -1t-13.5 -1q-5 0 -10.5 1t-10.5 4q-8 5 -14.5 15.5t-14.5 24.5q-5 8 -9 14t-9 15zM278 293q8 1 12 1t7 2q6 3 7.5 7.5t1.5 6.5q0 3 -3 12.5t-17 22.5q-14 12 -28 15t-24 3q-24 0 -35.5 -7.5t-22.5 -17.5q-4 -4 -8.5 -10t-4.5 -16q0 -11 9.5 -15.5t24 -6
t31.5 -0.5t31 2zM449 86v-9t-0.5 -13t-1.5 -13.5t-2 -9.5q-5 -13 -20.5 -20.5t-28.5 -12.5q-32 -11 -62 -14t-48 -3q-13 0 -29.5 0.5t-33.5 2t-33.5 4.5t-28.5 7q-22 8 -49.5 26t-54.5 54q-5 6 -12.5 18t-15 30t-12.5 41.5t-5 52.5q0 37 6.5 73.5t28.5 73.5q18 31 40 51.5
t46.5 32.5t50.5 17t51 5q48 0 75.5 -9.5t43.5 -20.5q46 -31 64.5 -67t26.5 -69q5 -21 7 -35t2 -31q0 -15 -3 -29t-13 -22q-8 -6 -14 -7.5t-11 -1.5q-15 -1 -29.5 0t-29.5 0q-5 0 -9.5 -0.5t-9.5 -0.5q-10 0 -20 0.5t-20 0.5q-13 0 -25.5 -0.5t-25.5 -0.5q-9 0 -17.5 0.5
t-17.5 0.5h-12q-8 0 -15 -2t-12 -7q-4 -4 -4 -11q0 -11 13 -20t30 -16q20 -8 47.5 -9.5t43.5 -0.5q6 0 12 1t12 1h8.5t8.5 1t15 3.5t34 11.5q7 2 14 4.5t16 2.5q20 0 24.5 -12.5t4.5 -25.5v-23z" />
    <glyph glyph-name="eacute" unicode="&#xe9;" horiz-adv-x="465" 
d="M331 590q-5 -9 -9 -15t-9 -14q-8 -14 -14.5 -24.5t-14.5 -15.5q-5 -3 -10.5 -4t-10.5 -1q-7 0 -13.5 1t-13.5 1q-5 0 -8.5 -0.5t-8.5 -0.5h-17q-14 0 -18 4t-4 9v2v2q0 3 1 10t2.5 15l3 16t2.5 12l8 29q4 13 4 16.5t2 5.5q5 12 9 16t14 5h32h23h12t3 0.5t3 0.5h12
q8 0 17.5 -0.5t15.5 -5.5q8 -6 8 -17q0 -8 -3.5 -15t-5.5 -10q-3 -4 -3 -7q-2 -2 -2 -1.5t-2 -4.5zM278 293q8 1 12 1t7 2q6 3 7.5 7.5t1.5 6.5q0 3 -3 12.5t-17 22.5q-14 12 -28 15t-24 3q-24 0 -35.5 -7.5t-22.5 -17.5q-4 -4 -8.5 -10t-4.5 -16q0 -11 9.5 -15.5t24 -6
t31.5 -0.5t31 2zM449 86v-9t-0.5 -13t-1.5 -13.5t-2 -9.5q-5 -13 -20.5 -20.5t-28.5 -12.5q-32 -11 -62 -14t-48 -3q-13 0 -29.5 0.5t-33.5 2t-33.5 4.5t-28.5 7q-22 8 -49.5 26t-54.5 54q-5 6 -12.5 18t-15 30t-12.5 41.5t-5 52.5q0 37 6.5 73.5t28.5 73.5q18 31 40 51.5
t46.5 32.5t50.5 17t51 5q48 0 75.5 -9.5t43.5 -20.5q46 -31 64.5 -67t26.5 -69q5 -21 7 -35t2 -31q0 -15 -3 -29t-13 -22q-8 -6 -14 -7.5t-11 -1.5q-15 -1 -29.5 0t-29.5 0q-5 0 -9.5 -0.5t-9.5 -0.5q-10 0 -20 0.5t-20 0.5q-13 0 -25.5 -0.5t-25.5 -0.5q-9 0 -17.5 0.5
t-17.5 0.5h-12q-8 0 -15 -2t-12 -7q-4 -4 -4 -11q0 -11 13 -20t30 -16q20 -8 47.5 -9.5t43.5 -0.5q6 0 12 1t12 1h8.5t8.5 1t15 3.5t34 11.5q7 2 14 4.5t16 2.5q20 0 24.5 -12.5t4.5 -25.5v-23z" />
    <glyph glyph-name="ecircumflex" unicode="&#xea;" horiz-adv-x="465" 
d="M160 610q4 6 5.5 8.5t4 5.5t7 7.5t14.5 15.5q4 4 8 7.5t10 6.5t9.5 3.5t8.5 0.5h5q5 0 9.5 -0.5t9.5 -0.5h11q8 0 19 -1t18 -5q5 -3 10 -9.5t8 -11.5q2 -2 2.5 -3.5t2.5 -3.5q1 -1 1 -1.5t1 -1.5q2 -4 8 -10q2 -2 2.5 -3t2.5 -3l36 -51q11 -14 12.5 -20t1.5 -8t-2.5 -5
t-4.5 -5q-2 -1 -6 -1.5t-6 -0.5h-6q-3 0 -6.5 -0.5t-6.5 -0.5l-41 1q-5 0 -7.5 -0.5t-6.5 -0.5h-4q-8 0 -12 3.5t-12 14.5q-3 5 -8.5 9.5t-14.5 4.5q-7 0 -11.5 -3.5t-12.5 -12.5l-4 -6t-7 -6q-8 -4 -13 -4q-7 0 -11 1t-24 1h-31q-4 0 -11.5 1.5t-7.5 11.5q0 8 5.5 16
t11.5 16zM278 293q8 1 12 1t7 2q6 3 7.5 7.5t1.5 6.5q0 3 -3 12.5t-17 22.5q-14 12 -28 15t-24 3q-24 0 -35.5 -7.5t-22.5 -17.5q-4 -4 -8.5 -10t-4.5 -16q0 -11 9.5 -15.5t24 -6t31.5 -0.5t31 2zM449 86v-9t-0.5 -13t-1.5 -13.5t-2 -9.5q-5 -13 -20.5 -20.5t-28.5 -12.5
q-32 -11 -62 -14t-48 -3q-13 0 -29.5 0.5t-33.5 2t-33.5 4.5t-28.5 7q-22 8 -49.5 26t-54.5 54q-5 6 -12.5 18t-15 30t-12.5 41.5t-5 52.5q0 37 6.5 73.5t28.5 73.5q18 31 40 51.5t46.5 32.5t50.5 17t51 5q48 0 75.5 -9.5t43.5 -20.5q46 -31 64.5 -67t26.5 -69q5 -21 7 -35
t2 -31q0 -15 -3 -29t-13 -22q-8 -6 -14 -7.5t-11 -1.5q-15 -1 -29.5 0t-29.5 0q-5 0 -9.5 -0.5t-9.5 -0.5q-10 0 -20 0.5t-20 0.5q-13 0 -25.5 -0.5t-25.5 -0.5q-9 0 -17.5 0.5t-17.5 0.5h-12q-8 0 -15 -2t-12 -7q-4 -4 -4 -11q0 -11 13 -20t30 -16q20 -8 47.5 -9.5
t43.5 -0.5q6 0 12 1t12 1h8.5t8.5 1t15 3.5t34 11.5q7 2 14 4.5t16 2.5q20 0 24.5 -12.5t4.5 -25.5v-23z" />
    <glyph glyph-name="edieresis" unicode="&#xeb;" horiz-adv-x="465" 
d="M277 631q0 2 -0.5 5t-0.5 5v6q0 8 5.5 10.5t10.5 2.5l31 -1q14 -1 27 -1h27h5h4q2 0 5 -0.5t5 -0.5h12q7 0 12 -5.5t5 -13.5q0 -9 -1 -14t-1 -10.5v-10.5l3 -49q1 -17 0.5 -20t-5.5 -7q-4 -4 -8 -5t-29 -1h-50q-12 0 -24 -1.5t-22 0.5q-3 1 -6.5 2t-5.5 6q-3 5 -2 9.5
t1 9.5zM97 521q-13 0 -17 10q-2 4 -2 25l1 33l-2 49q-1 12 4 15.5t9 3.5l31 -1q5 0 6.5 0.5t2.5 0.5t2.5 0.5t6.5 0.5q12 1 16.5 -0.5t17.5 -1.5l40 1q6 0 10 -4q5 -5 5 -24v-50v-37q0 -6 -2 -14t-12 -8zM278 293q8 1 12 1t7 2q6 3 7.5 7.5t1.5 6.5q0 3 -3 12.5t-17 22.5
q-14 12 -28 15t-24 3q-24 0 -35.5 -7.5t-22.5 -17.5q-4 -4 -8.5 -10t-4.5 -16q0 -11 9.5 -15.5t24 -6t31.5 -0.5t31 2zM449 86v-9t-0.5 -13t-1.5 -13.5t-2 -9.5q-5 -13 -20.5 -20.5t-28.5 -12.5q-32 -11 -62 -14t-48 -3q-13 0 -29.5 0.5t-33.5 2t-33.5 4.5t-28.5 7
q-22 8 -49.5 26t-54.5 54q-5 6 -12.5 18t-15 30t-12.5 41.5t-5 52.5q0 37 6.5 73.5t28.5 73.5q18 31 40 51.5t46.5 32.5t50.5 17t51 5q48 0 75.5 -9.5t43.5 -20.5q46 -31 64.5 -67t26.5 -69q5 -21 7 -35t2 -31q0 -15 -3 -29t-13 -22q-8 -6 -14 -7.5t-11 -1.5q-15 -1 -29.5 0
t-29.5 0q-5 0 -9.5 -0.5t-9.5 -0.5q-10 0 -20 0.5t-20 0.5q-13 0 -25.5 -0.5t-25.5 -0.5q-9 0 -17.5 0.5t-17.5 0.5h-12q-8 0 -15 -2t-12 -7q-4 -4 -4 -11q0 -11 13 -20t30 -16q20 -8 47.5 -9.5t43.5 -0.5q6 0 12 1t12 1h8.5t8.5 1t15 3.5t34 11.5q7 2 14 4.5t16 2.5
q20 0 24.5 -12.5t4.5 -25.5v-23z" />
    <glyph glyph-name="igrave" unicode="&#xec;" horiz-adv-x="221" 
d="M8 599q-2 5 -2 4.5t-2 1.5q0 3 -3 7q-2 3 -5.5 10t-3.5 15q0 11 8 17q6 5 15.5 5.5t17.5 0.5h12t3 -0.5t3 -0.5h12h23h32q10 -1 14 -5t9 -16q2 -2 2 -5.5t4 -16.5l8 -29q1 -4 2.5 -12l3 -16t2.5 -15t1 -10v-2v-2q0 -5 -4 -9t-18 -4h-17q-5 0 -8.5 0.5t-8.5 0.5
q-7 0 -13.5 -1t-13.5 -1q-5 0 -10.5 1t-10.5 4q-8 5 -14.5 15.5t-14.5 24.5q-5 8 -9 14t-9 15zM38 197q0 32 -0.5 63t-1.5 63q-1 19 -1 37v37v36v16q0 4 0.5 5l1.5 3t0.5 2t0.5 3q2 8 11 10t16 2h16q6 -1 11.5 -1.5t11.5 -0.5l20 1q6 0 10.5 0.5t17.5 0.5q10 0 21 -4.5
t11 -24.5q0 -16 -0.5 -22t-1.5 -11.5t-1.5 -16t-0.5 -34.5v-47v-23q0 -26 1.5 -43t1.5 -35v-57q0 -10 0.5 -20t1.5 -20q1 -6 1 -11.5v-11.5v-6q0 -11 -0.5 -20.5t-0.5 -20.5v-16t-5 -17q-5 -10 -16 -11.5t-19 -1.5q-4 0 -7 1t-7 1t-7 -0.5t-7 -0.5h-11q-12 0 -17.5 -0.5
t-19.5 -0.5q-6 0 -14.5 1t-12.5 6t-5 14t-1 14v25q0 13 0.5 21t1 17.5t0.5 23v37.5v38z" />
    <glyph glyph-name="iacute" unicode="&#xed;" horiz-adv-x="221" 
d="M209 590q-5 -9 -9 -15t-9 -14q-8 -14 -14.5 -24.5t-14.5 -15.5q-5 -3 -10.5 -4t-10.5 -1q-7 0 -13.5 1t-13.5 1q-5 0 -8.5 -0.5t-8.5 -0.5h-17q-14 0 -18 4t-4 9v2v2q0 3 1 10t2.5 15l3 16t2.5 12l8 29q4 13 4 16.5t2 5.5q5 12 9 16t14 5h32h23h12t3 0.5t3 0.5h12
q8 0 17.5 -0.5t15.5 -5.5q8 -6 8 -17q0 -8 -3.5 -15t-5.5 -10q-3 -4 -3 -7q-2 -2 -2 -1.5t-2 -4.5zM38 197q0 32 -0.5 63t-1.5 63q-1 19 -1 37v37v36v16q0 4 0.5 5l1.5 3t0.5 2t0.5 3q2 8 11 10t16 2h16q6 -1 11.5 -1.5t11.5 -0.5l20 1q6 0 10.5 0.5t17.5 0.5q10 0 21 -4.5
t11 -24.5q0 -16 -0.5 -22t-1.5 -11.5t-1.5 -16t-0.5 -34.5v-47v-23q0 -26 1.5 -43t1.5 -35v-57q0 -10 0.5 -20t1.5 -20q1 -6 1 -11.5v-11.5v-6q0 -11 -0.5 -20.5t-0.5 -20.5v-16t-5 -17q-5 -10 -16 -11.5t-19 -1.5q-4 0 -7 1t-7 1t-7 -0.5t-7 -0.5h-11q-12 0 -17.5 -0.5
t-19.5 -0.5q-6 0 -14.5 1t-12.5 6t-5 14t-1 14v25q0 13 0.5 21t1 17.5t0.5 23v37.5v38z" />
    <glyph glyph-name="icircumflex" unicode="&#xee;" horiz-adv-x="221" 
d="M22 610q4 6 5.5 8.5t4 5.5t7 7.5t14.5 15.5q4 4 8 7.5t10 6.5t9.5 3.5t8.5 0.5h5q5 0 9.5 -0.5t9.5 -0.5h11q8 0 19 -1t18 -5q5 -3 10 -9.5t8 -11.5q2 -2 2.5 -3.5t2.5 -3.5q1 -1 1 -1.5t1 -1.5q2 -4 8 -10q2 -2 2.5 -3t2.5 -3l36 -51q11 -14 12.5 -20t1.5 -8t-2.5 -5
t-4.5 -5q-2 -1 -6 -1.5t-6 -0.5h-6q-3 0 -6.5 -0.5t-6.5 -0.5l-41 1q-5 0 -7.5 -0.5t-6.5 -0.5h-4q-8 0 -12 3.5t-12 14.5q-3 5 -8.5 9.5t-14.5 4.5q-7 0 -11.5 -3.5t-12.5 -12.5l-4 -6t-7 -6q-8 -4 -13 -4q-7 0 -11 1t-24 1h-31q-4 0 -11.5 1.5t-7.5 11.5q0 8 5.5 16
t11.5 16zM38 197q0 32 -0.5 63t-1.5 63q-1 19 -1 37v37v36v16q0 4 0.5 5l1.5 3t0.5 2t0.5 3q2 8 11 10t16 2h16q6 -1 11.5 -1.5t11.5 -0.5l20 1q6 0 10.5 0.5t17.5 0.5q10 0 21 -4.5t11 -24.5q0 -16 -0.5 -22t-1.5 -11.5t-1.5 -16t-0.5 -34.5v-47v-23q0 -26 1.5 -43t1.5 -35
v-57q0 -10 0.5 -20t1.5 -20q1 -6 1 -11.5v-11.5v-6q0 -11 -0.5 -20.5t-0.5 -20.5v-16t-5 -17q-5 -10 -16 -11.5t-19 -1.5q-4 0 -7 1t-7 1t-7 -0.5t-7 -0.5h-11q-12 0 -17.5 -0.5t-19.5 -0.5q-6 0 -14.5 1t-12.5 6t-5 14t-1 14v25q0 13 0.5 21t1 17.5t0.5 23v37.5v38z" />
    <glyph glyph-name="idieresis" unicode="&#xef;" horiz-adv-x="221" 
d="M136 631q0 2 -0.5 5t-0.5 5v6q0 8 5.5 10.5t10.5 2.5l31 -1q14 -1 27 -1h27h5h4q2 0 5 -0.5t5 -0.5h12q7 0 12 -5.5t5 -13.5q0 -9 -1 -14t-1 -10.5v-10.5l3 -49q1 -17 0.5 -20t-5.5 -7q-4 -4 -8 -5t-29 -1h-50q-12 0 -24 -1.5t-22 0.5q-3 1 -6.5 2t-5.5 6q-3 5 -2 9.5
t1 9.5zM-44 521q-13 0 -17 10q-2 4 -2 25l1 33l-2 49q-1 12 4 15.5t9 3.5l31 -1q5 0 6.5 0.5t2.5 0.5t2.5 0.5t6.5 0.5q12 1 16.5 -0.5t17.5 -1.5l40 1q6 0 10 -4q5 -5 5 -24v-50v-37q0 -6 -2 -14t-12 -8zM38 197q0 32 -0.5 63t-1.5 63q-1 19 -1 37v37v36v16q0 4 0.5 5
l1.5 3t0.5 2t0.5 3q2 8 11 10t16 2h16q6 -1 11.5 -1.5t11.5 -0.5l20 1q6 0 10.5 0.5t17.5 0.5q10 0 21 -4.5t11 -24.5q0 -16 -0.5 -22t-1.5 -11.5t-1.5 -16t-0.5 -34.5v-47v-23q0 -26 1.5 -43t1.5 -35v-57q0 -10 0.5 -20t1.5 -20q1 -6 1 -11.5v-11.5v-6q0 -11 -0.5 -20.5
t-0.5 -20.5v-16t-5 -17q-5 -10 -16 -11.5t-19 -1.5q-4 0 -7 1t-7 1t-7 -0.5t-7 -0.5h-11q-12 0 -17.5 -0.5t-19.5 -0.5q-6 0 -14.5 1t-12.5 6t-5 14t-1 14v25q0 13 0.5 21t1 17.5t0.5 23v37.5v38z" />
    <glyph glyph-name="eth" unicode="&#xf0;" horiz-adv-x="535" 
d="M296 446q21 0 21 15q0 24 -37 55q-28 23 -82 40l-28 9q-11 2 -17 4t-8 3q-21 7 -21 26q0 12 18 65q8 22 13 27q10 9 21 9q19 0 49 -10q2 -1 6 -2t11 -3q17 -4 25 -8q43 -17 49 -17q8 0 13 1q10 3 34 28q20 20 32 20q8 0 16 -9q3 -3 14 -21q1 -2 13 -16q19 -18 19 -25
q0 -13 -28 -32q-26 -20 -26 -28q0 -5 11 -16q31 -34 63 -104q46 -104 46 -229q0 -82 -27 -124q-2 -5 -9.5 -13t-18.5 -21q-18 -23 -27 -30q-27 -22 -69 -38q-25 -8 -46 -10l-31 -2q-16 -1 -26 -1.5t-15 -0.5q-43 0 -83 15q-38 16 -51 27l-16 13q-41 31 -53 49
q-39 51 -39 146q0 26 8 56t21 50q31 48 84 74q14 7 33 12.5t43 9.5q20 4 35.5 5.5t25.5 1.5zM260 314q-35 0 -69 -20q-30 -18 -33 -43q-1 -4 -1 -9v-11q0 -52 40 -79q31 -21 73 -21q36 0 67 22q19 13 28 39q6 16 6 27q0 31 -25 59q-32 36 -86 36z" />
    <glyph glyph-name="ntilde" unicode="&#xf1;" horiz-adv-x="499" 
d="M102 522q-2 0 -7.5 1t-8.5 6q-2 3 -3 8.5t-1 7.5v13q1 19 4 41t20 40q12 13 26 17t31 4q20 0 34 -3t26 -7q20 -6 29.5 -8.5t13.5 -3.5t6.5 -1.5t8.5 -2.5q5 -2 7 -2t11 -1h3q6 0 8 9q1 3 1 6.5t2 8.5q1 2 4.5 5t16.5 3h6.5t2.5 -0.5t2.5 -0.5h7.5t5 -0.5t7 -0.5h38
q12 0 13.5 -11.5t1.5 -16.5v-5q0 -11 -1 -24t-3 -24q-6 -25 -25 -41t-42 -16q-19 0 -44.5 5.5t-43.5 10.5l-34 9q-5 2 -13 3t-12 1q-8 0 -10 -4q-4 -5 -4.5 -12t-5.5 -11q-3 -2 -9 -3t-11 -1q-8 0 -11.5 1t-10.5 1zM115 471q4 0 7 -0.5t7 -0.5q3 0 6 0.5t6 0.5h23
q5 0 9 -0.5t8 -5.5l11 -12q4 -4 6 -4.5t9 4.5q8 5 14.5 8.5t12.5 5.5l18 5q24 6 50 6q19 0 39 -4t40 -16q16 -9 31.5 -24t27 -35.5t18.5 -47t6 -59.5l-1 -52q0 -18 0.5 -28.5t1 -20.5t1.5 -23t1 -37v-8q0 -8 -0.5 -15t-1.5 -15q-1 -5 -1 -8.5v-8.5v-33q0 -9 -1 -20t-8 -17
q-1 -1 -10.5 -4t-41.5 -3h-38q-27 0 -34 1t-11 6q-7 8 -7 19l4 160q1 35 -3.5 62.5t-9.5 40.5q-6 16 -20 27.5t-35 11.5q-18 0 -31.5 -8.5t-19.5 -20.5q-5 -9 -8 -25.5t-3 -27.5l-2 -125q0 -11 1.5 -19t1.5 -20v-27q0 -20 -1 -34t-7 -19q-3 -2 -9.5 -3t-13.5 -1t-13 0.5
t-8 0.5q-8 1 -13 1h-15l-46 -1q-11 0 -15 2.5t-6 4.5q-5 6 -6 28v14q0 8 0.5 16t1.5 16q0 5 0.5 9.5t0.5 9.5l1 20v11q0 16 -1 29.5t-2 29t-1.5 36t0.5 50.5q0 14 1 24.5t1.5 19t0.5 17.5v20l-2 46q-1 13 -1 19.5t0.5 10t1 6.5t0.5 9q0 3 0.5 7.5t4.5 10.5t9 7t16 1z" />
    <glyph glyph-name="ograve" unicode="&#xf2;" horiz-adv-x="535" 
d="M164 599q-2 5 -2 4.5t-2 1.5q0 3 -3 7q-2 3 -5.5 10t-3.5 15q0 11 8 17q6 5 15.5 5.5t17.5 0.5h12t3 -0.5t3 -0.5h12h23h32q10 -1 14 -5t9 -16q2 -2 2 -5.5t4 -16.5l8 -29q1 -4 2.5 -12l3 -16t2.5 -15t1 -10v-2v-2q0 -5 -4 -9t-18 -4h-17q-5 0 -8.5 0.5t-8.5 0.5
q-7 0 -13.5 -1t-13.5 -1q-5 0 -10.5 1t-10.5 4q-8 5 -14.5 15.5t-14.5 24.5q-5 8 -9 14t-9 15zM371 236q0 21 -7 38t-18 31q-20 26 -44.5 34.5t-39.5 8.5q-21 0 -46.5 -12.5t-39.5 -32.5q-14 -19 -16.5 -34.5t-2.5 -24.5q0 -29 10 -49.5t30 -37.5q19 -15 37 -20.5t36 -5.5
q16 0 32.5 5t34.5 22q20 19 27 40t7 38zM12 246q0 26 9 58t21 55q10 19 27.5 40t45 39t66.5 30t92 12q6 0 20.5 -0.5t33 -4t40.5 -11t44 -20.5q15 -9 24 -16t15 -15t12.5 -18.5t17.5 -27.5q7 -12 11.5 -19t7.5 -12t4.5 -9t3.5 -10q8 -23 12 -43.5t4 -47.5q0 -49 -12.5 -81
t-33.5 -58q-12 -14 -15 -18.5t-4.5 -6.5t-3.5 -4.5t-12 -13.5q-5 -5 -13.5 -11t-19 -12t-20.5 -10.5t-17 -7.5q-22 -8 -56 -11.5t-61 -3.5q-8 0 -32.5 2.5t-51.5 13.5q-28 11 -42.5 22.5t-24.5 20.5q-22 20 -33 30.5t-20 23.5q-17 24 -23 43t-8 35q-5 27 -6.5 42t-1.5 25z
" />
    <glyph glyph-name="oacute" unicode="&#xf3;" horiz-adv-x="535" 
d="M365 590q-5 -9 -9 -15t-9 -14q-8 -14 -14.5 -24.5t-14.5 -15.5q-5 -3 -10.5 -4t-10.5 -1q-7 0 -13.5 1t-13.5 1q-5 0 -8.5 -0.5t-8.5 -0.5h-17q-14 0 -18 4t-4 9v2v2q0 3 1 10t2.5 15l3 16t2.5 12l8 29q4 13 4 16.5t2 5.5q5 12 9 16t14 5h32h23h12t3 0.5t3 0.5h12
q8 0 17.5 -0.5t15.5 -5.5q8 -6 8 -17q0 -8 -3.5 -15t-5.5 -10q-3 -4 -3 -7q-2 -2 -2 -1.5t-2 -4.5zM371 236q0 21 -7 38t-18 31q-20 26 -44.5 34.5t-39.5 8.5q-21 0 -46.5 -12.5t-39.5 -32.5q-14 -19 -16.5 -34.5t-2.5 -24.5q0 -29 10 -49.5t30 -37.5q19 -15 37 -20.5
t36 -5.5q16 0 32.5 5t34.5 22q20 19 27 40t7 38zM12 246q0 26 9 58t21 55q10 19 27.5 40t45 39t66.5 30t92 12q6 0 20.5 -0.5t33 -4t40.5 -11t44 -20.5q15 -9 24 -16t15 -15t12.5 -18.5t17.5 -27.5q7 -12 11.5 -19t7.5 -12t4.5 -9t3.5 -10q8 -23 12 -43.5t4 -47.5
q0 -49 -12.5 -81t-33.5 -58q-12 -14 -15 -18.5t-4.5 -6.5t-3.5 -4.5t-12 -13.5q-5 -5 -13.5 -11t-19 -12t-20.5 -10.5t-17 -7.5q-22 -8 -56 -11.5t-61 -3.5q-8 0 -32.5 2.5t-51.5 13.5q-28 11 -42.5 22.5t-24.5 20.5q-22 20 -33 30.5t-20 23.5q-17 24 -23 43t-8 35
q-5 27 -6.5 42t-1.5 25z" />
    <glyph glyph-name="ocircumflex" unicode="&#xf4;" horiz-adv-x="535" 
d="M178 610q4 6 5.5 8.5t4 5.5t7 7.5t14.5 15.5q4 4 8 7.5t10 6.5t9.5 3.5t8.5 0.5h5q5 0 9.5 -0.5t9.5 -0.5h11q8 0 19 -1t18 -5q5 -3 10 -9.5t8 -11.5q2 -2 2.5 -3.5t2.5 -3.5q1 -1 1 -1.5t1 -1.5q2 -4 8 -10q2 -2 2.5 -3t2.5 -3l36 -51q11 -14 12.5 -20t1.5 -8t-2.5 -5
t-4.5 -5q-2 -1 -6 -1.5t-6 -0.5h-6q-3 0 -6.5 -0.5t-6.5 -0.5l-41 1q-5 0 -7.5 -0.5t-6.5 -0.5h-4q-8 0 -12 3.5t-12 14.5q-3 5 -8.5 9.5t-14.5 4.5q-7 0 -11.5 -3.5t-12.5 -12.5l-4 -6t-7 -6q-8 -4 -13 -4q-7 0 -11 1t-24 1h-31q-4 0 -11.5 1.5t-7.5 11.5q0 8 5.5 16
t11.5 16zM371 236q0 21 -7 38t-18 31q-20 26 -44.5 34.5t-39.5 8.5q-21 0 -46.5 -12.5t-39.5 -32.5q-14 -19 -16.5 -34.5t-2.5 -24.5q0 -29 10 -49.5t30 -37.5q19 -15 37 -20.5t36 -5.5q16 0 32.5 5t34.5 22q20 19 27 40t7 38zM12 246q0 26 9 58t21 55q10 19 27.5 40t45 39
t66.5 30t92 12q6 0 20.5 -0.5t33 -4t40.5 -11t44 -20.5q15 -9 24 -16t15 -15t12.5 -18.5t17.5 -27.5q7 -12 11.5 -19t7.5 -12t4.5 -9t3.5 -10q8 -23 12 -43.5t4 -47.5q0 -49 -12.5 -81t-33.5 -58q-12 -14 -15 -18.5t-4.5 -6.5t-3.5 -4.5t-12 -13.5q-5 -5 -13.5 -11t-19 -12
t-20.5 -10.5t-17 -7.5q-22 -8 -56 -11.5t-61 -3.5q-8 0 -32.5 2.5t-51.5 13.5q-28 11 -42.5 22.5t-24.5 20.5q-22 20 -33 30.5t-20 23.5q-17 24 -23 43t-8 35q-5 27 -6.5 42t-1.5 25z" />
    <glyph glyph-name="otilde" unicode="&#xf5;" horiz-adv-x="535" 
d="M119 522q-2 0 -7.5 1t-8.5 6q-2 3 -3 8.5t-1 7.5v13q1 19 4 41t20 40q12 13 26 17t31 4q20 0 34 -3t26 -7q20 -6 29.5 -8.5t13.5 -3.5t6.5 -1.5t8.5 -2.5q5 -2 7 -2t11 -1h3q6 0 8 9q1 3 1 6.5t2 8.5q1 2 4.5 5t16.5 3h6.5t2.5 -0.5t2.5 -0.5h7.5t5 -0.5t7 -0.5h38
q12 0 13.5 -11.5t1.5 -16.5v-5q0 -11 -1 -24t-3 -24q-6 -25 -25 -41t-42 -16q-19 0 -44.5 5.5t-43.5 10.5l-34 9q-5 2 -13 3t-12 1q-8 0 -10 -4q-4 -5 -4.5 -12t-5.5 -11q-3 -2 -9 -3t-11 -1q-8 0 -11.5 1t-10.5 1zM371 236q0 21 -7 38t-18 31q-20 26 -44.5 34.5t-39.5 8.5
q-21 0 -46.5 -12.5t-39.5 -32.5q-14 -19 -16.5 -34.5t-2.5 -24.5q0 -29 10 -49.5t30 -37.5q19 -15 37 -20.5t36 -5.5q16 0 32.5 5t34.5 22q20 19 27 40t7 38zM12 246q0 26 9 58t21 55q10 19 27.5 40t45 39t66.5 30t92 12q6 0 20.5 -0.5t33 -4t40.5 -11t44 -20.5
q15 -9 24 -16t15 -15t12.5 -18.5t17.5 -27.5q7 -12 11.5 -19t7.5 -12t4.5 -9t3.5 -10q8 -23 12 -43.5t4 -47.5q0 -49 -12.5 -81t-33.5 -58q-12 -14 -15 -18.5t-4.5 -6.5t-3.5 -4.5t-12 -13.5q-5 -5 -13.5 -11t-19 -12t-20.5 -10.5t-17 -7.5q-22 -8 -56 -11.5t-61 -3.5
q-8 0 -32.5 2.5t-51.5 13.5q-28 11 -42.5 22.5t-24.5 20.5q-22 20 -33 30.5t-20 23.5q-17 24 -23 43t-8 35q-5 27 -6.5 42t-1.5 25z" />
    <glyph glyph-name="odieresis" unicode="&#xf6;" horiz-adv-x="535" 
d="M292 631q0 2 -0.5 5t-0.5 5v6q0 8 5.5 10.5t10.5 2.5l31 -1q14 -1 27 -1h27h5h4q2 0 5 -0.5t5 -0.5h12q7 0 12 -5.5t5 -13.5q0 -9 -1 -14t-1 -10.5v-10.5l3 -49q1 -17 0.5 -20t-5.5 -7q-4 -4 -8 -5t-29 -1h-50q-12 0 -24 -1.5t-22 0.5q-3 1 -6.5 2t-5.5 6q-3 5 -2 9.5
t1 9.5zM112 521q-13 0 -17 10q-2 4 -2 25l1 33l-2 49q-1 12 4 15.5t9 3.5l31 -1q5 0 6.5 0.5t2.5 0.5t2.5 0.5t6.5 0.5q12 1 16.5 -0.5t17.5 -1.5l40 1q6 0 10 -4q5 -5 5 -24v-50v-37q0 -6 -2 -14t-12 -8zM371 236q0 21 -7 38t-18 31q-20 26 -44.5 34.5t-39.5 8.5
q-21 0 -46.5 -12.5t-39.5 -32.5q-14 -19 -16.5 -34.5t-2.5 -24.5q0 -29 10 -49.5t30 -37.5q19 -15 37 -20.5t36 -5.5q16 0 32.5 5t34.5 22q20 19 27 40t7 38zM12 246q0 26 9 58t21 55q10 19 27.5 40t45 39t66.5 30t92 12q6 0 20.5 -0.5t33 -4t40.5 -11t44 -20.5
q15 -9 24 -16t15 -15t12.5 -18.5t17.5 -27.5q7 -12 11.5 -19t7.5 -12t4.5 -9t3.5 -10q8 -23 12 -43.5t4 -47.5q0 -49 -12.5 -81t-33.5 -58q-12 -14 -15 -18.5t-4.5 -6.5t-3.5 -4.5t-12 -13.5q-5 -5 -13.5 -11t-19 -12t-20.5 -10.5t-17 -7.5q-22 -8 -56 -11.5t-61 -3.5
q-8 0 -32.5 2.5t-51.5 13.5q-28 11 -42.5 22.5t-24.5 20.5q-22 20 -33 30.5t-20 23.5q-17 24 -23 43t-8 35q-5 27 -6.5 42t-1.5 25z" />
    <glyph glyph-name="divide" unicode="&#xf7;" 
d="M228 241q12 1 19 1h9h7.5t8.5 -1t8.5 -1h5.5q23 0 28 -3q11 -8 11 -17q0 -111 -3 -118q-4 -10 -20 -10h-46q-29 1 -45 1t-18 1q-18 4 -18 25l1 25l-1 62q0 24 7 30q3 3 10 5h36zM228 574q12 1 19 1h9h7.5t8.5 -1q11 0 14 -1q23 0 28 -3q11 -6 11 -17q0 -111 -3 -118
q-4 -10 -20 -10l-46 1q-29 1 -45 1t-18 1q-18 4 -18 25l1 24l-1 62q0 24 7 31q4 2 10 4h36zM153 391q36 -3 60 -3l92 3q17 1 26.5 1h11.5h9h1q1 0 2 1q5 1 7 1h3l22 -3q36 0 39 -1q20 -5 20 -42v-51q0 -8 -7 -14q-7 -7 -19 -7h-63q-11 1 -24 1.5t-27 0.5q-5 0 -21 -0.5
t-45 -1.5l-73 -1l-22 -1q-24 3 -29 3h-14q-7 -1 -12.5 -1.5t-9.5 -0.5q-16 0 -21 11q-5 10 -5 78q0 15 12 21q9 5 35 4h10.5t11.5 1q7 1 11.5 1h6.5h12z" />
    <glyph glyph-name="oslash" unicode="&#xf8;" horiz-adv-x="535" 
d="M264 482q36 0 80 -10q39 -9 58 -21q20 -11 28 -11t13 4q1 0 34 33q4 4 11 4q11 0 28 -20q10 -13 10 -20q0 -9 -17 -21q-28 -19 -28 -33q0 -6 13 -26q4 -9 9 -23t9.5 -30t7 -31.5t2.5 -26.5q0 -13 -2 -30.5t-5.5 -35t-7.5 -33t-8 -24.5q-14 -27 -39 -54q-4 -4 -35 -29
q-22 -18 -36 -25q-31 -15 -57.5 -23t-49.5 -8q-4 0 -18.5 1.5t-39.5 3.5q-50 0 -102 33q-16 13 -21 13q-4 0 -10 -6q-35 -39 -45 -39q-12 0 -25 13q-12 13 -12 25q0 6 4 10q1 1 9.5 10t25.5 26q5 5 5 10q0 4 -14 27q-12 17 -19.5 48.5t-7.5 62.5q0 66 25 115q2 5 8 13t14 20
q22 35 33 46q27 27 58 38q29 12 57.5 17t56.5 5v2zM314 331q0 6 -13 12t-30 6q-36 0 -65 -25q-18 -14 -29.5 -39t-11.5 -48q0 -34 12 -34q7 0 34 24q9 7 47 44l56 56v4zM361 278q-9 0 -25 -16q-11 -11 -90 -81q-23 -21 -23 -34q0 -5 11 -8q18 -7 33 -7q37 0 69 25
q18 13 29.5 39.5t11.5 53.5q0 28 -16 28z" />
    <glyph glyph-name="ugrave" unicode="&#xf9;" horiz-adv-x="495" 
d="M145 599q-2 5 -2 4.5t-2 1.5q0 3 -3 7q-2 3 -5.5 10t-3.5 15q0 11 8 17q6 5 15.5 5.5t17.5 0.5h12t3 -0.5t3 -0.5h12h23h32q10 -1 14 -5t9 -16q2 -2 2 -5.5t4 -16.5l8 -29q1 -4 2.5 -12l3 -16t2.5 -15t1 -10v-2v-2q0 -5 -4 -9t-18 -4h-17q-5 0 -8.5 0.5t-8.5 0.5
q-7 0 -13.5 -1t-13.5 -1q-5 0 -10.5 1t-10.5 4q-8 5 -14.5 15.5t-14.5 24.5q-5 8 -9 14t-9 15zM33 432q0 18 8 28q8 9 15 11t14 2l59 -2q6 0 12.5 0.5t12.5 -1.5q8 -2 12 -2h3t4 -2q4 -3 5.5 -4.5t2.5 -6t0.5 -14t-0.5 -26.5l-2 -63q0 -7 -0.5 -14t-0.5 -14v-4
q0 -7 -0.5 -10t-0.5 -10l-3 -68q-2 -35 9 -53t19 -26q5 -5 13.5 -10t22.5 -5q19 0 32 8t21 16q5 5 10.5 13t7.5 27q3 24 3 39v29l1 53v11.5v6.5v6.5v11.5q0 5 -0.5 6.5t-0.5 4.5l-3 31q-1 9 -1 14v10q0 8 1 16.5t9 17.5q12 13 32 13h17q13 0 19.5 -0.5t10.5 -0.5t6 -0.5
t6 -0.5h6q5 0 9.5 0.5t9.5 0.5t9.5 -1t8.5 -6q8 -9 7 -21.5t-1 -23.5l-1 -48v-139l-3 -58q-1 -17 -1 -28.5t-0.5 -19.5t-0.5 -13t-1 -9q-1 -7 -1.5 -9.5t-0.5 -4t0.5 -2.5t0.5 -5v-6q0 -5 0.5 -11t1.5 -11q2 -8 2 -13v-5q0 -8 -1.5 -16.5t-8.5 -15.5q-8 -8 -19 -9.5
t-21 -1.5h-22.5t-22.5 1q-6 0 -12.5 0.5t-12.5 0.5h-6q-9 0 -16 7q-4 4 -5 6.5t-5 7.5q-5 6 -13 6q-3 0 -8.5 -2t-11.5 -4.5t-11 -4.5t-7 -3q-18 -8 -42 -12t-42 -4q-29 0 -59 11.5t-55 49.5q-8 13 -14.5 33.5t-6.5 60.5v5v7q0 13 0.5 18t1 8.5t1 10.5t0.5 24z" />
    <glyph glyph-name="uacute" unicode="&#xfa;" horiz-adv-x="495" 
d="M346 590q-5 -9 -9 -15t-9 -14q-8 -14 -14.5 -24.5t-14.5 -15.5q-5 -3 -10.5 -4t-10.5 -1q-7 0 -13.5 1t-13.5 1q-5 0 -8.5 -0.5t-8.5 -0.5h-17q-14 0 -18 4t-4 9v2v2q0 3 1 10t2.5 15l3 16t2.5 12l8 29q4 13 4 16.5t2 5.5q5 12 9 16t14 5h32h23h12t3 0.5t3 0.5h12
q8 0 17.5 -0.5t15.5 -5.5q8 -6 8 -17q0 -8 -3.5 -15t-5.5 -10q-3 -4 -3 -7q-2 -2 -2 -1.5t-2 -4.5zM33 432q0 18 8 28q8 9 15 11t14 2l59 -2q6 0 12.5 0.5t12.5 -1.5q8 -2 12 -2h3t4 -2q4 -3 5.5 -4.5t2.5 -6t0.5 -14t-0.5 -26.5l-2 -63q0 -7 -0.5 -14t-0.5 -14v-4
q0 -7 -0.5 -10t-0.5 -10l-3 -68q-2 -35 9 -53t19 -26q5 -5 13.5 -10t22.5 -5q19 0 32 8t21 16q5 5 10.5 13t7.5 27q3 24 3 39v29l1 53v11.5v6.5v6.5v11.5q0 5 -0.5 6.5t-0.5 4.5l-3 31q-1 9 -1 14v10q0 8 1 16.5t9 17.5q12 13 32 13h17q13 0 19.5 -0.5t10.5 -0.5t6 -0.5
t6 -0.5h6q5 0 9.5 0.5t9.5 0.5t9.5 -1t8.5 -6q8 -9 7 -21.5t-1 -23.5l-1 -48v-139l-3 -58q-1 -17 -1 -28.5t-0.5 -19.5t-0.5 -13t-1 -9q-1 -7 -1.5 -9.5t-0.5 -4t0.5 -2.5t0.5 -5v-6q0 -5 0.5 -11t1.5 -11q2 -8 2 -13v-5q0 -8 -1.5 -16.5t-8.5 -15.5q-8 -8 -19 -9.5
t-21 -1.5h-22.5t-22.5 1q-6 0 -12.5 0.5t-12.5 0.5h-6q-9 0 -16 7q-4 4 -5 6.5t-5 7.5q-5 6 -13 6q-3 0 -8.5 -2t-11.5 -4.5t-11 -4.5t-7 -3q-18 -8 -42 -12t-42 -4q-29 0 -59 11.5t-55 49.5q-8 13 -14.5 33.5t-6.5 60.5v5v7q0 13 0.5 18t1 8.5t1 10.5t0.5 24z" />
    <glyph glyph-name="ucircumflex" unicode="&#xfb;" horiz-adv-x="495" 
d="M159 610q4 6 5.5 8.5t4 5.5t7 7.5t14.5 15.5q4 4 8 7.5t10 6.5t9.5 3.5t8.5 0.5h5q5 0 9.5 -0.5t9.5 -0.5h11q8 0 19 -1t18 -5q5 -3 10 -9.5t8 -11.5q2 -2 2.5 -3.5t2.5 -3.5q1 -1 1 -1.5t1 -1.5q2 -4 8 -10q2 -2 2.5 -3t2.5 -3l36 -51q11 -14 12.5 -20t1.5 -8t-2.5 -5
t-4.5 -5q-2 -1 -6 -1.5t-6 -0.5h-6q-3 0 -6.5 -0.5t-6.5 -0.5l-41 1q-5 0 -7.5 -0.5t-6.5 -0.5h-4q-8 0 -12 3.5t-12 14.5q-3 5 -8.5 9.5t-14.5 4.5q-7 0 -11.5 -3.5t-12.5 -12.5l-4 -6t-7 -6q-8 -4 -13 -4q-7 0 -11 1t-24 1h-31q-4 0 -11.5 1.5t-7.5 11.5q0 8 5.5 16
t11.5 16zM33 432q0 18 8 28q8 9 15 11t14 2l59 -2q6 0 12.5 0.5t12.5 -1.5q8 -2 12 -2h3t4 -2q4 -3 5.5 -4.5t2.5 -6t0.5 -14t-0.5 -26.5l-2 -63q0 -7 -0.5 -14t-0.5 -14v-4q0 -7 -0.5 -10t-0.5 -10l-3 -68q-2 -35 9 -53t19 -26q5 -5 13.5 -10t22.5 -5q19 0 32 8t21 16
q5 5 10.5 13t7.5 27q3 24 3 39v29l1 53v11.5v6.5v6.5v11.5q0 5 -0.5 6.5t-0.5 4.5l-3 31q-1 9 -1 14v10q0 8 1 16.5t9 17.5q12 13 32 13h17q13 0 19.5 -0.5t10.5 -0.5t6 -0.5t6 -0.5h6q5 0 9.5 0.5t9.5 0.5t9.5 -1t8.5 -6q8 -9 7 -21.5t-1 -23.5l-1 -48v-139l-3 -58
q-1 -17 -1 -28.5t-0.5 -19.5t-0.5 -13t-1 -9q-1 -7 -1.5 -9.5t-0.5 -4t0.5 -2.5t0.5 -5v-6q0 -5 0.5 -11t1.5 -11q2 -8 2 -13v-5q0 -8 -1.5 -16.5t-8.5 -15.5q-8 -8 -19 -9.5t-21 -1.5h-22.5t-22.5 1q-6 0 -12.5 0.5t-12.5 0.5h-6q-9 0 -16 7q-4 4 -5 6.5t-5 7.5q-5 6 -13 6
q-3 0 -8.5 -2t-11.5 -4.5t-11 -4.5t-7 -3q-18 -8 -42 -12t-42 -4q-29 0 -59 11.5t-55 49.5q-8 13 -14.5 33.5t-6.5 60.5v5v7q0 13 0.5 18t1 8.5t1 10.5t0.5 24z" />
    <glyph glyph-name="udieresis" unicode="&#xfc;" horiz-adv-x="495" 
d="M273 631q0 2 -0.5 5t-0.5 5v6q0 8 5.5 10.5t10.5 2.5l31 -1q14 -1 27 -1h27h5h4q2 0 5 -0.5t5 -0.5h12q7 0 12 -5.5t5 -13.5q0 -9 -1 -14t-1 -10.5v-10.5l3 -49q1 -17 0.5 -20t-5.5 -7q-4 -4 -8 -5t-29 -1h-50q-12 0 -24 -1.5t-22 0.5q-3 1 -6.5 2t-5.5 6q-3 5 -2 9.5
t1 9.5zM93 521q-13 0 -17 10q-2 4 -2 25l1 33l-2 49q-1 12 4 15.5t9 3.5l31 -1q5 0 6.5 0.5t2.5 0.5t2.5 0.5t6.5 0.5q12 1 16.5 -0.5t17.5 -1.5l40 1q6 0 10 -4q5 -5 5 -24v-50v-37q0 -6 -2 -14t-12 -8zM33 432q0 18 8 28q8 9 15 11t14 2l59 -2q6 0 12.5 0.5t12.5 -1.5
q8 -2 12 -2h3t4 -2q4 -3 5.5 -4.5t2.5 -6t0.5 -14t-0.5 -26.5l-2 -63q0 -7 -0.5 -14t-0.5 -14v-4q0 -7 -0.5 -10t-0.5 -10l-3 -68q-2 -35 9 -53t19 -26q5 -5 13.5 -10t22.5 -5q19 0 32 8t21 16q5 5 10.5 13t7.5 27q3 24 3 39v29l1 53v11.5v6.5v6.5v11.5q0 5 -0.5 6.5
t-0.5 4.5l-3 31q-1 9 -1 14v10q0 8 1 16.5t9 17.5q12 13 32 13h17q13 0 19.5 -0.5t10.5 -0.5t6 -0.5t6 -0.5h6q5 0 9.5 0.5t9.5 0.5t9.5 -1t8.5 -6q8 -9 7 -21.5t-1 -23.5l-1 -48v-139l-3 -58q-1 -17 -1 -28.5t-0.5 -19.5t-0.5 -13t-1 -9q-1 -7 -1.5 -9.5t-0.5 -4t0.5 -2.5
t0.5 -5v-6q0 -5 0.5 -11t1.5 -11q2 -8 2 -13v-5q0 -8 -1.5 -16.5t-8.5 -15.5q-8 -8 -19 -9.5t-21 -1.5h-22.5t-22.5 1q-6 0 -12.5 0.5t-12.5 0.5h-6q-9 0 -16 7q-4 4 -5 6.5t-5 7.5q-5 6 -13 6q-3 0 -8.5 -2t-11.5 -4.5t-11 -4.5t-7 -3q-18 -8 -42 -12t-42 -4
q-29 0 -59 11.5t-55 49.5q-8 13 -14.5 33.5t-6.5 60.5v5v7q0 13 0.5 18t1 8.5t1 10.5t0.5 24z" />
    <glyph glyph-name="yacute" unicode="&#xfd;" horiz-adv-x="407" 
d="M302 590q-5 -9 -9 -15t-9 -14q-8 -14 -14.5 -24.5t-14.5 -15.5q-5 -3 -10.5 -4t-10.5 -1q-7 0 -13.5 1t-13.5 1q-5 0 -8.5 -0.5t-8.5 -0.5h-17q-14 0 -18 4t-4 9v2v2q0 3 1 10t2.5 15l3 16t2.5 12l8 29q4 13 4 16.5t2 5.5q5 12 9 16t14 5h32h23h12t3 0.5t3 0.5h12
q8 0 17.5 -0.5t15.5 -5.5q8 -6 8 -17q0 -8 -3.5 -15t-5.5 -10q-3 -4 -3 -7q-2 -2 -2 -1.5t-2 -4.5zM168 384q4 -9 5.5 -19t4.5 -19q2 -4 2.5 -7.5t2.5 -7.5q3 -8 5 -12.5t3 -7.5t1.5 -6t2.5 -8q2 -6 3.5 -9t3.5 -8q9 -18 12.5 -22t5.5 -4q5 0 5.5 6t1.5 13q3 18 7 34l7 31
q2 10 3 16t2 11.5t2.5 12.5t4.5 19l3 9t4 11l7 17q2 5 2.5 6.5t1 2.5t1 3t2.5 8q2 3 3 6t5 6q3 2 10 4t24 2h41h30q8 0 12.5 -1.5t6.5 -3.5q6 -6 6 -16q1 -12 -5.5 -28t-11.5 -35q-3 -11 -5 -19t-5 -17q-5 -12 -9.5 -23.5t-11.5 -31.5q-5 -14 -9 -30t-8 -27
q-6 -20 -13.5 -38t-13.5 -38q-2 -8 -4.5 -15t-5.5 -15l-16 -38l-8 -20t-9 -22q-6 -17 -15.5 -35.5t-29.5 -35.5q-27 -23 -56.5 -32.5t-67.5 -9.5q-5 0 -10.5 0.5l-16.5 1.5q-13 1 -24.5 2.5t-14.5 3.5q-7 2 -12.5 14t-5.5 32v54q0 16 5.5 23t10.5 10q2 2 7 3.5t7 1.5
q5 0 12 -1t16 -1h19q5 0 8.5 -0.5t8.5 -0.5q3 0 7.5 1t7.5 5t3 12q0 4 -2 10t-8 18q-2 3 -3 6.5t-3 6.5t-2.5 6.5t-2.5 6.5l-11 23q-8 15 -12.5 25t-11.5 27q-8 17 -14.5 36t-14.5 34l-28 59q-2 5 -3.5 10t-3.5 10l-3 6l-9 26q-2 6 -5 14.5t-3 12.5q0 5 0.5 10.5t3.5 10.5
q5 7 10 7.5t11 0.5h57l38 2q4 0 9 -1t9 -3q3 -2 5 -6.5t4 -7.5q2 -6 3 -8q1 -4 2 -8.5t6 -16.5z" />
    <glyph glyph-name="thorn" unicode="&#xfe;" horiz-adv-x="543" 
d="M126 668l38 2q19 0 23 -10q9 -19 1 -93l-1.5 -15t-0.5 -7q0 -11 0.5 -27t1.5 -39q1 -36 9 -36l6 3q26 17 37 21q33 13 75 13t80 -19l36 -18q33 -18 57 -54q43 -64 43 -138q0 -85 -21 -128q-7 -14 -15 -29t-18 -29l-6 -6t-15 -13q-1 0 -10 -9q-22 -22 -59.5 -35.5
t-73.5 -13.5q-55 0 -74 11q-38 18 -48 18q-4 0 -8 -4t-4 -8l1 -85q0 -2 -3.5 -6t-6.5 -5q-12 -5 -49 -5q-13 0 -18 1q-7 1 -10.5 1h-5.5l-37 -2q-6 0 -10.5 8.5t-4.5 19.5l1 15l-1 40q3 40 3 60q0 9 -0.5 23.5t-1.5 34.5l5 353l1 14l-1 94q2 82 4 86q7 16 32 18zM279 344
q-38 0 -71 -34q-21 -23 -26 -53q-1 -8 -1.5 -17t-0.5 -20q0 -33 14 -53q7 -9 18 -17.5t23.5 -14.5t25.5 -10t24 -4q12 0 25 4.5t25.5 12.5t23 17.5t16.5 20.5q15 24 15 53q0 22 -10.5 47.5t-25.5 39.5q-12 12 -34 20t-41 8z" />
    <glyph glyph-name="ydieresis" unicode="&#xff;" horiz-adv-x="407" 
d="M229 631q0 2 -0.5 5t-0.5 5v6q0 8 5.5 10.5t10.5 2.5l31 -1q14 -1 27 -1h27h5h4q2 0 5 -0.5t5 -0.5h12q7 0 12 -5.5t5 -13.5q0 -9 -1 -14t-1 -10.5v-10.5l3 -49q1 -17 0.5 -20t-5.5 -7q-4 -4 -8 -5t-29 -1h-50q-12 0 -24 -1.5t-22 0.5q-3 1 -6.5 2t-5.5 6q-3 5 -2 9.5
t1 9.5zM49 521q-13 0 -17 10q-2 4 -2 25l1 33l-2 49q-1 12 4 15.5t9 3.5l31 -1q5 0 6.5 0.5t2.5 0.5t2.5 0.5t6.5 0.5q12 1 16.5 -0.5t17.5 -1.5l40 1q6 0 10 -4q5 -5 5 -24v-50v-37q0 -6 -2 -14t-12 -8zM168 384q4 -9 5.5 -19t4.5 -19q2 -4 2.5 -7.5t2.5 -7.5q3 -8 5 -12.5
t3 -7.5t1.5 -6t2.5 -8q2 -6 3.5 -9t3.5 -8q9 -18 12.5 -22t5.5 -4q5 0 5.5 6t1.5 13q3 18 7 34l7 31q2 10 3 16t2 11.5t2.5 12.5t4.5 19l3 9t4 11l7 17q2 5 2.5 6.5t1 2.5t1 3t2.5 8q2 3 3 6t5 6q3 2 10 4t24 2h41h30q8 0 12.5 -1.5t6.5 -3.5q6 -6 6 -16q1 -12 -5.5 -28
t-11.5 -35q-3 -11 -5 -19t-5 -17q-5 -12 -9.5 -23.5t-11.5 -31.5q-5 -14 -9 -30t-8 -27q-6 -20 -13.5 -38t-13.5 -38q-2 -8 -4.5 -15t-5.5 -15l-16 -38l-8 -20t-9 -22q-6 -17 -15.5 -35.5t-29.5 -35.5q-27 -23 -56.5 -32.5t-67.5 -9.5q-5 0 -10.5 0.5l-16.5 1.5
q-13 1 -24.5 2.5t-14.5 3.5q-7 2 -12.5 14t-5.5 32v54q0 16 5.5 23t10.5 10q2 2 7 3.5t7 1.5q5 0 12 -1t16 -1h19q5 0 8.5 -0.5t8.5 -0.5q3 0 7.5 1t7.5 5t3 12q0 4 -2 10t-8 18q-2 3 -3 6.5t-3 6.5t-2.5 6.5t-2.5 6.5l-11 23q-8 15 -12.5 25t-11.5 27q-8 17 -14.5 36
t-14.5 34l-28 59q-2 5 -3.5 10t-3.5 10l-3 6l-9 26q-2 6 -5 14.5t-3 12.5q0 5 0.5 10.5t3.5 10.5q5 7 10 7.5t11 0.5h57l38 2q4 0 9 -1t9 -3q3 -2 5 -6.5t4 -7.5q2 -6 3 -8q1 -4 2 -8.5t6 -16.5z" />
    <glyph glyph-name="OE" unicode="&#x152;" horiz-adv-x="922" 
d="M623 177q0 -22 11 -28q13 -8 31 -8l39 -1q17 -1 29.5 -1h19.5q17 0 32 0.5t29 1.5q10 1 18 1h14q28 0 36 -17q7 -13 7 -45v-38q0 -36 -23 -42q-10 -3 -30 -2h-7t-13 -1h-132q-10 -1 -17 -1h-11l-59 2l-75 -1l-74 3q-5 0 -14 -0.5t-23 -1.5q-16 -1 -30.5 -1h-28.5
q-76 0 -129.5 17t-98.5 56q-73 65 -95 159q-10 41 -10 111q0 73 32 152q11 28 27 49t47 50q58 55 116 70q36 10 97 10h37.5t55.5 -2q27 -2 89 -4t159 -4l25 -1h89q53 0 60 -4q10 -6 10 -37q0 -56 -8 -78q-6 -20 -34 -20q-2 0 -33 1t-92 3q-5 1 -16 1q-41 0 -51 -13
q-7 -7 -7 -22v-9.5t1 -12.5q1 -5 1 -9.5v-9.5q1 -23 9 -31q11 -8 39 -8l116 1q15 -1 24.5 -1h14.5q25 0 33 -15q6 -11 6 -39q0 -59 -3 -69q-4 -16 -24 -19q-12 -3 -115 -3h-10.5t-12.5 1q-35 3 -45 3q-22 0 -29 -15q-4 -7 -4 -33v-45zM321 513q-43 0 -71 -19
q-39 -28 -55 -57q-25 -46 -25 -101q0 -78 44 -131q48 -58 110 -58q45 0 88 35q19 16 37 46q4 8 9 21.5t9 29t6.5 30t2.5 24.5q0 29 -7 59.5t-17 49.5q-41 71 -131 71z" />
    <glyph glyph-name="oe" unicode="&#x153;" horiz-adv-x="801" 
d="M353 8q-14 -6 -25 -10t-19 -6q-20 -4 -54 -4q-97 0 -161 51q-38 30 -66 109q-5 14 -8.5 26t-4.5 22q-3 18 -3 42q0 59 21 106q21 46 39 65q28 30 83 55q20 10 42 13t48 3q20 0 38 -0.5t35 -5.5q23 -6 32 -12l28 -16q11 -5 17.5 -9t10.5 -6q13 -11 14 -11q5 0 24 22
q16 17 54.5 27.5t80.5 10.5q23 0 43 -1.5t36 -8.5q3 -1 30 -20q24 -14 44.5 -35t32.5 -44q5 -8 21 -67q3 -14 3 -76q0 -25 -3 -31q-4 -8 -21 -16q-8 -2 -15 -2h-13t-30 1h-19h-8t-15 -1h-4q-2 0 -7.5 0.5t-13.5 1.5h-36q-10 -1 -17 -1h-12q-7 0 -29 3q-4 1 -16 1
q-25 0 -25 -13q0 -27 24 -40q10 -6 22 -8l32 -2q25 -3 31 -3q2 0 43 3q11 1 18.5 1h10.5q2 1 10 2.5t24 5.5q46 9 53 9q16 0 16 -17v-6t-1 -9v-5.5t-1 -10.5q-1 -23 -3 -37.5t-4 -19.5q-7 -10 -25 -16q-41 -15 -56 -18q-35 -8 -70 -9q-13 -2 -22.5 -2.5t-16.5 -0.5
q-24 0 -50 3t-54 11q-29 9 -48 23q-2 2 -6 6.5t-11 11.5q-1 1 -2 1q-2 0 -4 -2t-12.5 -8.5t-29.5 -16.5zM258 345q-24 0 -55 -12q-12 -5 -25 -21q-18 -21 -25 -43q-6 -23 -6 -35q0 -19 6 -32q10 -29 18 -39q29 -41 92 -41q23 0 50 11q16 7 32 29q19 25 19 78q0 11 -10 41
q-4 19 -30 40q-12 12 -20 16q-18 8 -46 8zM537 286h5t12 1q5 1 11.5 1h14.5h19.5t18.5 1l24 -2q10 1 10 19q0 22 -27 42q-11 9 -28 11h-8.5t-17.5 1l-9 1q-20 -2 -40 -22q-19 -19 -19 -39q0 -14 6 -14h2q1 1 5 1z" />
    <glyph glyph-name="Scaron" unicode="&#x160;" horiz-adv-x="411" 
d="M300 744q-4 -5 -7.5 -10t-8.5 -10q-4 -5 -8 -8.5t-9 -8.5l-8 -8t-11 -6q-8 -3 -11 -3.5t-8 -0.5h-6q-5 0 -10 0.5t-10 0.5h-12q-11 0 -22 1t-18 5l-6 6t-13 15q-5 7 -7 10q-6 8 -7 8t-7 8l-39 51q-11 14 -13 20t-2 8q0 4 3 6.5t5 3.5t6.5 1.5t6.5 0.5h6q4 0 7 0.5t7 0.5
l44 -1q5 0 7.5 0.5t7.5 0.5h4q8 0 12.5 -3.5t13.5 -14.5q4 -5 8.5 -9.5t15.5 -4.5q8 0 13.5 4t12.5 12q2 3 4.5 6.5t7.5 5.5q5 4 14 4t11.5 -0.5t4 -0.5t5.5 -0.5t16 -0.5h33q14 0 17.5 -4t3.5 -9q0 -6 -3.5 -12.5t-14.5 -19.5zM365 580v-10.5v-6t0.5 -6t0.5 -9.5
q0 -3 -1 -9.5t-5 -11.5q-4 -4 -9.5 -5t-10.5 -1h-5q-14 0 -27.5 1.5t-27.5 3.5q-8 1 -15 1.5t-13 0.5q-16 0 -28.5 -3t-21.5 -13q-7 -7 -9 -14t-2 -13t2.5 -13.5t11.5 -19.5q2 -3 11.5 -12.5t40.5 -33.5l23 -18q20 -16 45.5 -38.5t43.5 -57.5q12 -23 16 -50t4 -46
q0 -38 -9.5 -66t-24 -48.5t-31.5 -34t-31 -22.5q-19 -11 -48.5 -19.5t-85.5 -8.5h-29.5t-35 1.5t-33 5.5t-24.5 12q-3 3 -6 9t-3 13l1 28q1 22 0.5 33t-1 17t-1 9.5t-0.5 8.5q0 14 7 20q5 4 13.5 6t14.5 2q4 0 12.5 -1t18.5 -2.5t18.5 -3t12.5 -2.5q8 -2 13 -2.5t17 -0.5
q5 0 13 0.5t17 3t17.5 7.5t14.5 15q3 5 6 13t3 16q0 10 -3 17.5t-7 13.5q-8 12 -15.5 19t-16.5 15q-24 18 -38 31q-5 5 -10 9.5t-10 9.5q-7 6 -13 12t-13 12l-20 18q-6 6 -15.5 17.5t-19 29t-16 40.5t-6.5 52q0 41 10.5 67.5t21.5 39.5q22 28 70.5 44.5t133.5 16.5
q10 0 23.5 -0.5t27 -2t25.5 -4t20 -7.5q10 -6 11.5 -16t0.5 -34z" />
    <glyph glyph-name="scaron" unicode="&#x161;" horiz-adv-x="368" 
d="M272 574q-4 -6 -5.5 -8.5t-4 -5.5t-7 -8t-14.5 -15q-4 -4 -8 -7.5t-10 -6.5t-9.5 -3.5t-8.5 -0.5h-5q-5 0 -9.5 0.5t-9.5 0.5h-11q-8 0 -19 1t-18 5q-5 3 -10 9.5t-8 11.5q-2 2 -2.5 3.5t-2.5 3.5q-1 1 -1 1.5t-1 1.5q-2 4 -8 10q-2 2 -2.5 3t-2.5 3l-36 51
q-11 14 -12.5 20t-1.5 8t2.5 5t4.5 5q2 1 6 1.5t6 0.5h6q3 0 6.5 0.5t6.5 0.5l41 -1q5 0 7 0.5t7 0.5h4q8 0 12 -3.5t12 -14.5q3 -5 8.5 -9.5t14.5 -4.5q11 0 24 16l4 6t7 6q8 4 13 4q7 0 11 -1t24 -1h31q4 0 11.5 -1.5t7.5 -11.5q0 -8 -5.5 -16t-11.5 -16zM20 129q5 5 12 8
t20 3t23 -2t19 -4q16 -3 28.5 -4t25.5 -1q4 0 12 0.5t15.5 3.5t13 9.5t5.5 18.5q0 16 -11 24t-20 13q-11 5 -21 9t-24 10t-22.5 10.5t-19.5 12.5q-7 5 -17.5 14t-20 22.5t-16.5 32.5t-7 45q0 28 7.5 45t17.5 28q6 8 16.5 17t29 17t46.5 13.5t70 5.5q32 0 48.5 -2t24.5 -4
q17 -5 32 -13.5t14 -22.5l-1 -33q0 -10 -0.5 -25t-2.5 -23q-1 -6 -6 -9q-5 -4 -8.5 -5t-12.5 1l-52 7q-17 2 -26.5 0.5t-16.5 -5.5q-5 -2 -7 -5t-3 -5v-3q0 -3 1 -6.5t6.5 -8t18 -12t35.5 -18.5q10 -5 19.5 -9.5t18.5 -10.5t18 -13.5t19 -19.5q15 -17 25.5 -38.5t10.5 -56.5
q0 -38 -18 -73t-54 -55q-32 -18 -67 -21t-61 -3t-51.5 1t-46.5 6q-19 5 -26.5 10.5t-12.5 12.5q-2 2 -6.5 11.5t-2.5 26.5l2 22q0 3 0.5 5.5t0.5 5.5v15q0 6 1.5 14t3.5 10z" />
    <glyph glyph-name="Ydieresis" unicode="&#x178;" horiz-adv-x="552" 
d="M303 801q0 2 -0.5 5t-0.5 5v6q0 2 2 8t15 5l33 -1q14 -1 29 -1h29h5h4q3 0 5.5 -0.5t5.5 -0.5h13q8 0 13 -5.5t5 -13.5q0 -9 -1 -14t-1 -10.5v-10.5l3 -49q1 -14 0.5 -18t-5.5 -9t-11.5 -5.5t-28.5 -0.5h-53q-20 0 -28 -1.5t-21 0.5q-4 1 -7.5 2t-5.5 6q-3 5 -2 9t1 10z
M110 691q-4 0 -9.5 1.5t-8.5 8.5q-2 4 -2 25l1 33l-2 49q-1 14 5.5 16.5t8.5 2.5l33 -1q4 0 7.5 1t11.5 1h12q6 -1 12 -1.5t12 -0.5l43 1q8 0 11 -4q4 -5 4 -21t1 -53v-37q0 -6 -2 -14t-13 -8zM215 546q6 -12 12.5 -28t13.5 -32.5t13.5 -31t12.5 -23.5q5 -8 10 -8t7 1.5
t3 3.5q2 4 4.5 6.5t4.5 7.5q6 13 12 30t20 49l27 60q5 11 9.5 19.5t10.5 19.5q3 7 5 11t4 9q8 17 12.5 20.5t9.5 5.5q6 2 9 2h11q14 0 27.5 -0.5t24.5 -0.5h55q6 0 11 -0.5t10 -4.5q8 -7 8 -15q0 -3 -1 -9t-4 -12l-37 -68q-9 -17 -13.5 -26t-6.5 -14.5t-4.5 -11t-8.5 -16.5
q-1 -1 -1 -1.5t-1 -1.5q-2 -5 -5 -9t-5 -8q-14 -23 -16.5 -29.5t-4.5 -9.5q-2 -5 -4.5 -8.5t-7.5 -14.5q-4 -9 -5.5 -13.5t-2.5 -6l-2 -3t-2 -4.5l-19 -40q-8 -17 -13.5 -26.5t-10.5 -18.5t-10.5 -21.5t-14.5 -34.5q-4 -9 -6.5 -23.5t-4 -30.5t-2 -31t-0.5 -25l1 -58v-14
t-0.5 -19t-1.5 -19t-3 -13q-5 -9 -13 -10t-11 -1l-37 2q-29 1 -45.5 0.5t-26 -0.5t-14.5 3t-9 13q-5 11 -5.5 21.5t-0.5 30.5v25q0 12 1 25t2 21v16v18.5t-1.5 27.5t-4 30t-6.5 27q-5 14 -17.5 36.5t-29.5 59.5l-39 82q-5 11 -9 18.5t-8.5 16.5t-10.5 22.5t-15 36.5
q-5 14 -9 22.5t-9 19.5q-20 38 -28 54t-8 24q0 10 7 16q3 3 9 6t17 2l62 -3q27 -2 34.5 0t13.5 2q4 0 9 -0.5t8 -2.5q6 -2 10.5 -8t8.5 -14l6 -14t6 -15q3 -9 7 -17z" />
    <glyph glyph-name="Zcaron" unicode="&#x17d;" horiz-adv-x="531" 
d="M359 744q-4 -5 -7.5 -10t-8.5 -10q-4 -5 -8 -8.5t-9 -8.5l-8 -8t-11 -6q-8 -3 -11 -3.5t-8 -0.5h-6q-5 0 -10 0.5t-10 0.5h-12q-11 0 -22 1t-18 5l-6 6t-13 15q-5 7 -7 10q-6 8 -7 8t-7 8l-39 51q-11 14 -13 20t-2 8q0 4 3 6.5t5 3.5t6.5 1.5t6.5 0.5h6q4 0 7 0.5t7 0.5
l44 -1q5 0 7.5 0.5t7.5 0.5h4q8 0 12.5 -3.5t13.5 -14.5q4 -5 8.5 -9.5t15.5 -4.5q8 0 13.5 4t12.5 12q2 3 4.5 6.5t7.5 5.5q5 4 14 4t11.5 -0.5t4 -0.5t5.5 -0.5t16 -0.5h33q14 0 17.5 -4t3.5 -9q0 -6 -3.5 -12.5t-14.5 -19.5zM150 519q-23 1 -32 1.5t-16 0.5
q-5 0 -10.5 -0.5t-10.5 -0.5q-8 0 -17 1t-16 7q-8 7 -11.5 25t-2.5 29l2 46q1 10 2 19.5t9 15.5q8 7 24.5 7.5t45.5 1.5h13q10 0 15 -0.5t9.5 -1t11 -1t19.5 -0.5l269 -2h28.5t21.5 -6q1 -1 2.5 -5t2.5 -13v-23q0 -10 -2 -20q-1 -5 -3.5 -9.5t-4.5 -8.5q-6 -10 -8 -12t-5 -7
l-9 -16q-2 -4 -5 -7.5t-5 -7.5q-6 -9 -10 -17q-3 -5 -7 -11t-7 -11q-5 -9 -10 -18.5t-10 -18.5l-53 -85q-8 -14 -18 -26.5t-20 -28.5q-5 -8 -8 -14.5t-8 -14.5q-8 -15 -11.5 -20.5t-8.5 -15.5l-14 -24q-8 -13 -16.5 -27t-9.5 -24v-6q1 -14 7 -16t13 -2l23 1h8q7 0 13 -0.5
t13 -1.5q6 -1 12.5 -1.5t12.5 -0.5q8 0 11 0.5t5 0.5t6 0.5t15 0.5l60 1l27 2q5 0 10 -2t7 -5q5 -6 5.5 -10.5t0.5 -9.5l-1 -32q0 -4 0.5 -7.5t0.5 -7.5v-6v-35q0 -13 -3 -21.5t-7 -12.5q-2 -2 -8.5 -5.5t-17.5 -3.5l-161 2q-17 0 -33.5 1t-33.5 1q-16 0 -31.5 -0.5
t-31.5 -0.5q-13 0 -25.5 0.5t-25.5 0.5q-11 0 -21.5 -0.5t-21.5 -0.5q-8 0 -16.5 0.5t-16.5 0.5q-9 0 -17.5 1t-13.5 7q-11 11 -9 27l2 25q1 8 2.5 14.5t11.5 21.5q2 4 10 14.5t23 36.5q8 14 13 22t9 14t8.5 12t11.5 17q16 24 29 49.5t28 50.5q11 19 23.5 37t23.5 37l46 77
q5 9 12 20.5t7 20.5q0 8 -10 13q-5 2 -9.5 2h-9.5h-15q-11 0 -21.5 -1t-31.5 0z" />
    <glyph glyph-name="zcaron" unicode="&#x17e;" horiz-adv-x="380" 
d="M278 574q-4 -6 -5.5 -8.5t-4 -5.5t-7 -8t-14.5 -15q-4 -4 -8 -7.5t-10 -6.5t-9.5 -3.5t-8.5 -0.5h-5q-5 0 -9.5 0.5t-9.5 0.5h-11q-8 0 -19 1t-18 5q-5 3 -10 9.5t-8 11.5q-2 2 -2.5 3.5t-2.5 3.5q-1 1 -1 1.5t-1 1.5q-2 4 -8 10q-2 2 -2.5 3t-2.5 3l-36 51
q-11 14 -12.5 20t-1.5 8t2.5 5t4.5 5q2 1 6 1.5t6 0.5h6q3 0 6.5 0.5t6.5 0.5l41 -1q5 0 7 0.5t7 0.5h4q8 0 12 -3.5t12 -14.5q3 -5 8.5 -9.5t14.5 -4.5q11 0 24 16l4 6t7 6q8 4 13 4q7 0 11 -1t24 -1h31q4 0 11.5 -1.5t7.5 -11.5q0 -8 -5.5 -16t-11.5 -16zM264 471h16
q12 1 15.5 1h11.5h19q11 0 14.5 -2t5.5 -5q6 -8 7 -18t1 -21v-20q0 -10 -2.5 -16t-7.5 -14q-4 -6 -7 -11t-8 -11q-8 -13 -14.5 -25t-17.5 -29q-7 -11 -12.5 -18.5t-11 -15.5t-12.5 -20t-18 -32q-9 -16 -11 -22t-5 -14q-2 -5 -3.5 -7.5t-1.5 -10.5q0 -4 2.5 -12t16.5 -8h6.5
t6.5 1q6 1 12 1h12l26 -1h30q8 0 13.5 -4.5t7.5 -8.5q2 -2 4 -6t2 -9t-1 -9.5t-1 -8.5l-1 -17l3 -34q0 -4 -0.5 -18.5t-9.5 -22.5q-6 -6 -14 -6h-116h-14.5t-7.5 -0.5t-7 -0.5h-13q-17 0 -27.5 1t-16.5 2h-13l-86 -1q-2 0 -7 1t-11 7q-4 3 -5.5 10t-1.5 12l1 23
q1 16 10.5 33.5t12.5 22.5l13 19q4 5 5.5 9t3.5 8.5t5.5 11.5t10.5 18l6 9q2 4 4.5 7.5t4.5 7.5l3 6l20 31l28 57q8 17 10.5 23t2.5 9q0 4 -3.5 7t-15.5 3q-7 0 -13.5 -1t-16.5 -3q-12 -1 -19 0t-15 1h-5q-5 0 -14 1t-13 3q-2 2 -5.5 6.5t-3.5 13.5q0 6 0.5 11.5t-0.5 11.5
q0 2 -0.5 4.5t-0.5 4.5q0 6 2 12t1 12l-2 31q-1 10 2.5 15t6.5 8q4 4 8.5 6t14.5 3h3q10 0 18 -2t21 -1l60 3h11q6 0 12.5 -0.5t12.5 -0.5h15z" />
    <glyph glyph-name="florin" unicode="&#x192;" horiz-adv-x="377" 
d="M298 367q-8 -1 -12.5 -2t-6.5 -2t-7 -16l-1 -13l-17 -92q-7 -35 -12.5 -68.5t-10.5 -67.5q-17 -109 -30 -158q-11 -41 -52 -70q-20 -14 -41 -17q-23 -4 -61 -4q-60 0 -76 10q-14 9 -14 23q0 3 5 28l2 12t2 11q6 43 23 51q10 4 47 6q27 2 32 22q2 8 5.5 27t8.5 50l14 80
l5 33l13 69q4 26 6.5 44.5t4.5 29.5q1 2 1 5q0 6 -4 7h-8l-9 2l-13 -1l-7 1q-6 -1 -9.5 -1.5t-4.5 -0.5q-11 0 -11 15q0 8 7 35q1 4 3 25q4 39 20 39h24l11 -1q18 0 20 3q2 5 11 58q18 115 34 138q28 39 61 52q21 9 78 9q63 0 82 -11q11 -8 11 -19q0 -8 -5 -31q-1 -8 -3 -23
q-8 -44 -23 -51q-14 -5 -49 -6q-24 -1 -31 -20q-2 -5 -5 -23t-8 -47q-1 -5 -1.5 -11t-0.5 -12q0 -4 6 -4h26h4t10 1q5 1 15 1q19 0 19 -12q0 -2 -3 -27q-9 -36 -9 -53q0 -15 -11 -21q-5 -3 -10 -3h-30z" />
    <glyph glyph-name="circumflex" unicode="&#x2c6;" 
d="M161 610q4 6 5.5 8.5t4 5.5t7 7.5t14.5 15.5q4 4 8 7.5t10 6.5t9.5 3.5t8.5 0.5h5q5 0 9.5 -0.5t9.5 -0.5h11q8 0 19 -1t18 -5q5 -3 10 -9.5t8 -11.5q2 -2 2.5 -3.5t2.5 -3.5q1 -1 1 -1.5t1 -1.5q2 -4 8 -10q2 -2 2.5 -3t2.5 -3l36 -51q11 -14 12.5 -20t1.5 -8t-2.5 -5
t-4.5 -5q-2 -1 -6 -1.5t-6 -0.5h-6q-3 0 -6.5 -0.5t-6.5 -0.5l-41 1q-5 0 -7.5 -0.5t-6.5 -0.5h-4q-8 0 -12 3.5t-12 14.5q-3 5 -8.5 9.5t-14.5 4.5q-7 0 -11.5 -3.5t-12.5 -12.5l-4 -6t-7 -6q-8 -4 -13 -4q-7 0 -11 1t-24 1h-31q-4 0 -11.5 1.5t-7.5 11.5q0 8 5.5 16
t11.5 16z" />
    <glyph glyph-name="tilde" unicode="&#x2dc;" 
d="M102 522q-2 0 -7.5 1t-8.5 6q-2 3 -3 8.5t-1 7.5v13q1 19 4 41t20 40q12 13 26 17t31 4q20 0 34 -3t26 -7q20 -6 29.5 -8.5t13.5 -3.5t6.5 -1.5t8.5 -2.5q5 -2 7 -2t11 -1h3q6 0 8 9q1 3 1 6.5t2 8.5q1 2 4.5 5t16.5 3h6.5t2.5 -0.5t2.5 -0.5h7.5t5 -0.5t7 -0.5h38
q12 0 13.5 -11.5t1.5 -16.5v-5q0 -11 -1 -24t-3 -24q-6 -25 -25 -41t-42 -16q-19 0 -44.5 5.5t-43.5 10.5l-34 9q-5 2 -13 3t-12 1q-8 0 -10 -4q-4 -5 -4.5 -12t-5.5 -11q-3 -2 -9 -3t-11 -1q-8 0 -11.5 1t-10.5 1z" />
    <glyph glyph-name="endash" unicode="&#x2013;" horiz-adv-x="497" 
d="M86 303l30 1h29h68t82 1q5 0 73 -3h59q25 0 31 -13q3 -8 3 -42v-6.5t1 -9.5q1 -12 1.5 -19.5t0.5 -9.5q0 -34 -25 -34l-41 1l-44 -2q-50 3 -70 3h-32q-17 -1 -34.5 -1h-36.5h-21t-15 1t-9 1h-4l-82 -2q-17 0 -17 46v12.5t1 10.5t1 7v3l-1 39q0 7 8 12t23 5z" />
    <glyph glyph-name="emdash" unicode="&#x2014;" horiz-adv-x="672" 
d="M55 306q10 -1 16 -1.5t8 -0.5l39 1l113 -2q29 1 56.5 1h52.5h103.5t66.5 -1q20 -1 32.5 -1h18.5h17t19 1h10h18t12 -1q14 -3 17 -23q1 -4 1 -29l2 -29q-1 -14 -1 -22t-1 -10q-4 -22 -36 -22h-114h-10.5t-24.5 1q-19 1 -67 1.5t-126 0.5h-89h-22.5t-39.5 1l-80 -2
q-20 0 -27 10q-4 5 -4 29v12t1 21l-1 38q1 27 29 27h11z" />
    <glyph glyph-name="quoteleft" unicode="&#x2018;" horiz-adv-x="229" 
d="M148 428h-25.5t-21.5 1q-39 0 -43 3q-11 7 -10 20l1 21q1 38 3 63t5 38q12 48 45 86q4 7 11 7q4 1 16 1.5t34 0.5q14 0 14 -11q0 -6 -15 -24q-4 -5 -8.5 -12.5t-8 -15.5t-5.5 -15t-2 -10q0 -15 22 -16t22 -24l-1 -12v-4q1 -17 1 -27.5v-14.5q0 -26 1 -26q1 -5 1 -12
q0 -17 -28 -17h-8z" />
    <glyph glyph-name="quoteright" unicode="&#x2019;" horiz-adv-x="229" 
d="M75 669q5 -1 8 -1h4q7 1 12 1h8l23 -1q39 -2 43 -3q11 -7 10 -20l-1 -21q-1 -74 -8 -102q-12 -48 -45 -85q-4 -6 -11 -8q-5 -1 -50 -1q-14 0 -14 11q0 6 15 24q4 4 8.5 12t8 16t5.5 15t2 10q0 15 -22 16q-11 0 -17 6q-5 5 -5 21q-1 15 -1 35v46q-1 5 -1 11q0 18 22 18h6z
" />
    <glyph glyph-name="quotesinglbase" unicode="&#x201a;" horiz-adv-x="229" 
d="M75 138q5 -1 8 -1h4q7 1 12 1h8l23 -1q39 -2 43 -4q11 -7 10 -20l-1 -21q-1 -38 -3 -62.5t-5 -37.5q-12 -47 -45 -85q-4 -6 -11 -8q-4 -1 -16 -1.5t-34 -0.5q-14 0 -14 12q0 6 15 24q3 3 7.5 10.5t8 16t6 16t2.5 10.5q0 14 -22 14q-11 0 -17 6q-5 5 -5 22q-1 15 -1 35v45
q-1 5 -1 12q0 18 22 18h6z" />
    </font>
</defs>
</svg>
